<?xml version="1.0" encoding="utf-8"?>
<svg version="1.1" xmlns:xlink="http://www.w3.org/1999/xlink" width="3px" height="3px" xmlns="http://www.w3.org/2000/svg">
  <g transform="matrix(1 0 0 1 -18 -36 )">
    <path d="M 2.00116363636363 1.53010909090909  C 2.00116363636363 1.79716363636363  1.78298181818181 2.01534545454545  1.51592727272727 2.01534545454545  C 1.24887272727273 2.01534545454545  1.03069090909091 1.79716363636363  1.03069090909091 1.53010909090909  C 1.03069090909091 1.26305454545455  1.24712727272727 1.04487272727273  1.51592727272727 1.04487272727273  C 1.78298181818181 1.04487272727273  2.00116363636363 1.26305454545455  2.00116363636363 1.53010909090909  Z M 2.96989090909091 1.53010909090909  C 2.96989090909091 0.7272  2.31883636363636 0.0761454545454541  1.51592727272727 0.0761454545454541  C 0.711272727272728 0.0761454545454541  0.0619636363636289 0.7272  0.0619636363636289 1.53010909090909  C 0.0619636363636289 2.33301818181818  0.713018181818185 2.98407272727273  1.51592727272727 2.98407272727273  C 2.32058181818182 2.98407272727273  2.96989090909091 2.33301818181818  2.96989090909091 1.53010909090909  Z " fill-rule="nonzero" fill="#ffffff" stroke="none" transform="matrix(1 0 0 1 18 36 )" />
  </g>
</svg>