<?xml version="1.0" encoding="utf-8"?>
<svg version="1.1" xmlns:xlink="http://www.w3.org/1999/xlink" width="17px" height="13px" xmlns="http://www.w3.org/2000/svg">
  <g transform="matrix(1 0 0 1 -15 -34 )">
    <path d="M 15.9232140350877 8.46971162790697  L 11.4376 3.16619534883721  C 11.2257263157895 2.91659534883721  10.9298666666667 2.79082790697674  10.632098245614 2.79082790697674  C 10.3305122807018 2.79082790697674  10.0289263157895 2.92046511627907  9.81705263157895 3.17973953488372  L 5.31807719298246 8.64965581395349  L 3.94757894736841 7.26040930232558  C 3.73952280701755 7.04950697674418  3.46847719298246 6.94502325581396  3.19743157894737 6.94502325581396  C 2.92638596491227 6.94502325581396  2.6553403508772 7.04950697674418  2.44728421052632 7.26040930232558  L 1.07678596491228 8.64965581395349  L 1.07678596491228 1.12489302325582  L 15.9232140350877 1.12489302325582  L 15.9232140350877 8.46971162790697  Z M 15.9232140350877 10.1221023255814  L 15.9232140350877 11.8751069767442  L 1.07678596491228 11.8751069767442  L 1.07678596491228 10.1704744186046  L 3.19743157894737 8.02081860465116  L 4.5679298245614 9.41006511627907  C 5.00885614035087 9.85702325581396  5.73418947368421 9.82219534883721  6.13312280701754 9.33653953488372  L 10.6301894736842 3.86468837209303  L 10.632098245614 3.86468837209303  L 15.9232140350877 10.1221023255814  Z M 17 1.12489302325582  C 16.9825824561404 0.53088372093023  16.5092070175439 0.0510325581395321  15.9232140350877 0  L 1.07678596491228 0  C 0.490792982456142 0.0510325581395357  0.0155087719298166 0.53088372093023  0 1.12682790697675  L 0 11.8770418604651  C 0.0155087719298166 12.4710511627907  0.490792982456142 12.9528372093023  1.07678596491228 13  L 15.9232140350877 13  C 16.5092070175439 12.9528372093023  16.9844912280702 12.4710511627907  17 11.8770418604651  L 17 1.12489302325582  Z " fill-rule="nonzero" fill="#ffffff" stroke="none" transform="matrix(1 0 0 1 15 34 )" />
  </g>
</svg>