<?xml version="1.0" encoding="utf-8"?>
<svg version="1.1" xmlns:xlink="http://www.w3.org/1999/xlink" width="22px" height="22px" xmlns="http://www.w3.org/2000/svg">
  <g transform="matrix(1 0 0 1 -31 -26 )">
    <path d="M 0.0225403508771933 11  C 0.0225403508771933 4.93818947368422  4.93571929824562 0.0225403508771933  11 0.0225403508771933  C 17.0642807017544 0.0225403508771933  21.9774596491228 4.93818947368422  21.9774596491228 11  C 21.9774596491228 17.0618105263158  17.0642807017544 21.9774596491228  11 21.9774596491228  C 4.93571929824562 21.9774596491228  0.0225403508771933 17.0618105263158  0.0225403508771933 11  Z M 20.6065122807018 11  C 20.6065122807018 5.69406315789473  16.3059368421053 1.39348771929825  11 1.39348771929825  C 5.69406315789473 1.39348771929825  1.39348771929825 5.69406315789473  1.39348771929825 11  C 1.39348771929825 16.3059368421053  5.69406315789473 20.6065122807018  11 20.6065122807018  C 16.3059368421053 20.6065122807018  20.6065122807018 16.3059368421053  20.6065122807018 11  Z M 11.6110469565217 14.3831698550725  L 10.5238260869565 14.3831698550725  C 10.3769043478261 14.3831698550725  10.2540243478261 14.2737947826087  10.2486817391304 14.1246469565217  L 10.0269634782609 4.97442782608697  C 10.024292173913 4.83273739130435  10.1338156521739 4.71590492753623  10.2940939130435 4.71590492753623  L 11.838107826087 4.71590492753623  C 11.9877008695652 4.71590492753623  12.1079095652174 4.82527999999999  12.1052382608696 4.97442782608697  L 11.8861913043478 14.1246469565217  C 11.88352 14.2663373913043  11.7526260869565 14.3831698550725  11.6110469565217 14.3831698550725  Z M 10.0269634782609 16.31712  C 10.0269634782609 15.7826736231884  10.4917704347826 15.3501449275362  11.0661008695652 15.3501449275362  C 11.6404313043478 15.3501449275362  12.1052382608696 15.7826736231884  12.1052382608696 16.31712  C 12.1052382608696 16.8515663768116  11.6404313043478 17.2840950724638  11.0661008695652 17.2840950724638  C 10.4917704347826 17.2840950724638  10.0269634782609 16.8515663768116  10.0269634782609 16.31712  Z " fill-rule="nonzero" fill="#ffffff" stroke="none" transform="matrix(1 0 0 1 31 26 )" />
  </g>
</svg>