<?xml version="1.0" encoding="utf-8"?>
<svg version="1.1" xmlns:xlink="http://www.w3.org/1999/xlink" width="21px" height="22px" xmlns="http://www.w3.org/2000/svg">
  <g transform="matrix(1 0 0 1 -48 -579 )">
    <path d="M 10.6091270053476 21.4057237654321  C 8.33521724598931 21.4057237654321  6.13169117647059 20.6706006717502  4.27927640374331 19.2713316993464  C 2.01521390374331 17.5606043936093  0.546438669786099 15.0613107298475  0.144638201871665 12.2360375816993  C -0.257162266042773 9.41000444807554  0.455634024064175 6.59542538126362  2.15143432486632 4.31063761801016  C 5.65345337566846 -0.407026506899058  12.3064339906417 -1.36889669571531  16.9813531082888 2.16172440087144  C 18.9412267713904 3.64266466957156  20.339618315508 5.77784386347133  20.9200147058824 8.17331808278868  C 21.0191330213904 8.5832488198983  20.7701803141711 8.99624664124912  20.3645862299465 9.09623901597678  C 19.9589921457219 9.19319144880171  19.5488511029412 8.94584331880901  19.4497327874331 8.53591258169934  C 18.9533340574866 6.48319181190993  17.7547127339572 4.6533639251997  16.0740599933155 3.38386247276685  C 12.0688083221925 0.357057461873637  6.36552322860962 1.18229311909948  3.36291627673795 5.2259044117647  C 1.90928860294116 7.18397984749453  1.29862399732619 9.59625517429191  1.64368165106952 12.0184374546114  C 1.98798596256684 14.4406468772694  3.24714371657753 16.5819059549746  5.18807620320856 18.0475922294844  C 9.1970945855615 21.078197167756  14.8996263368984 20.2514686819172  17.9007266042781 16.207857389252  C 18.6861935160427 15.1490619099492  19.2249677473262 13.962751724764  19.5003950534759 12.6810362200436  C 19.5896930147059 12.2687983841685  19.9945337566845 12.0069833877996  20.4001278409091 12.096281681191  C 20.8087621991979 12.1856071169208  21.0682886029412 12.5924707697894  20.9797708890374 13.0039486201888  C 20.6566677807486 14.5016899963689  20.0285955882353 15.8864649600581  19.1122085561497 17.1231241830065  C 17.4164351604278 19.4071519607843  14.9389884692513 20.8896393427742  12.1369050802139 21.2942230392157  C 11.6261390374331 21.3690273238925  11.1160994318182 21.4056694807553  10.6091270053476 21.4056694807553  Z " fill-rule="nonzero" fill="#ffffff" stroke="none" transform="matrix(1 0 0 1 48 579 )" />
  </g>
</svg>