<?xml version="1.0" encoding="utf-8"?>
<svg version="1.1" xmlns:xlink="http://www.w3.org/1999/xlink" width="21px" height="23px" xmlns="http://www.w3.org/2000/svg">
  <g transform="matrix(1 0 0 1 -16 -24 )">
    <path d="M 0.0463679999999975 20.1285963636364  C 0.0463679999999975 16.4432436363636  4.62403200000001 14.1656581818182  10.5 14.1656581818182  C 16.42704 14.1656581818182  20.953632 16.3977454545455  20.953632 20.1285963636364  C 20.953632 21.7370909090909  19.641888 22.9601890909091  17.6904 23  L 3.3096 23  C 1.34735999999999 22.9601890909091  0.0463679999999975 21.7611781818182  0.0463679999999975 20.1285963636364  Z M 19.461792 20.1285963636364  C 19.459104 17.5030836363636  15.709344 15.65104  10.5 15.65104  C 5.34172800000001 15.65104  1.540896 17.5432290909091  1.540896 20.1285963636364  C 1.540896 20.9127709090909  2.148384 21.4721309090909  3.31228800000001 21.4721309090909  L 17.6904 21.4721309090909  C 18.838176 21.4721309090909  19.461792 20.89136  19.461792 20.1285963636364  Z M 6.019104 5.98669090909091  C 6.019104 8.44894545454545  8.02704 10.4481890909091  10.5 10.4481890909091  C 12.97296 10.4481890909091  14.980896 8.45162181818182  14.980896 5.98669090909091  C 14.980896 3.52443636363637  12.975648 1.52519272727273  10.5 1.52519272727273  C 8.02435200000001 1.52519272727273  6.019104 3.52443636363637  6.019104 5.98669090909091  Z M 16.472736 5.98669090909091  C 16.472736 9.27058909090909  13.798176 11.9335709090909  10.5 11.9335709090909  C 7.20182400000001 11.9335709090909  4.527264 9.27058909090909  4.527264 5.98669090909091  C 4.527264 2.70279272727273  7.20182400000001 0.0398109090909067  10.5 0.0398109090909067  C 13.798176 0.0398109090909067  16.472736 2.70279272727273  16.472736 5.98669090909091  Z " fill-rule="nonzero" fill="#323233" stroke="none" transform="matrix(1 0 0 1 16 24 )" />
  </g>
</svg>