<?xml version="1.0" encoding="utf-8"?>
<svg version="1.1" xmlns:xlink="http://www.w3.org/1999/xlink" width="31px" height="31px" xmlns="http://www.w3.org/2000/svg">
  <g transform="matrix(1 0 0 1 -17 -20 )">
    <path d="M 14.396896 6.68310400000001  L 14.396896 14.396896  L 6.68310399999996 14.396896  C 6.07600000000002 14.396896  5.58000000000004 14.888928  5.58000000000004 15.5  C 5.58000000000004 16.111072  6.07203200000004 16.603104  6.68310399999996 16.603104  L 14.396896 16.603104  L 14.396896 24.316896  C 14.396896 24.924  14.888928 25.42  15.5 25.42  C 16.111072 25.42  16.603104 24.927968  16.603104 24.316896  L 16.603104 16.603104  L 24.316896 16.603104  C 24.924 16.603104  25.42 16.111072  25.42 15.5  C 25.42 14.892896  24.927968 14.396896  24.316896 14.396896  L 16.603104 14.396896  L 16.603104 6.68310400000001  C 16.603104 6.07600000000002  16.111072 5.57999999999998  15.5 5.57999999999998  C 14.892896 5.57999999999998  14.396896 6.07203199999998  14.396896 6.68310400000001  Z M 0 2.27465599999999  C 0.0684479999999894 1.05648000000002  1.05647999999997 0.0684479999999894  2.27465600000005 0  L 28.729312 0  C 29.947488 0.0684479999999894  30.93552 1.05648000000002  31 2.27465599999999  L 31 28.729312  C 30.93552 29.947488  29.947488 30.93552  28.729312 31  L 2.27465600000005 31  C 1.05647999999997 30.93552  0.0684479999999894 29.947488  0 28.729312  L 0 2.27465599999999  Z " fill-rule="nonzero" fill="#1989fa" stroke="none" transform="matrix(1 0 0 1 17 20 )" />
  </g>
</svg>