<?xml version="1.0" encoding="utf-8"?>
<svg version="1.1" xmlns:xlink="http://www.w3.org/1999/xlink" width="18px" height="18px" xmlns="http://www.w3.org/2000/svg">
  <g transform="matrix(1 0 0 1 -9 -14 )">
    <path d="M 13.71168 4.29984000000001  L 14.617152 3.39436800000001  L 12.806208 1.58342399999999  L 11.900736 2.48889599999999  L 13.71168 4.29984000000001  Z M 15.976512 2.93817600000001  C 16.225344 3.18931199999999  16.225344 3.59712000000001  15.976512 3.845952  L 13.713984 6.10848000000001  L 10.0897920000001 2.486592  L 12.35232 0.224063999999984  C 12.6011520000001 -0.0247680000000088  13.0066559999999 -0.0247680000000088  13.2577920000001 0.224063999999984  L 15.976512 2.93817600000001  Z M 0.0374400000000144 17.322048  C 0.0374400000000144 16.969536  0.323136000000044 16.681536  0.677951999999914 16.681536  L 17.3220480000001 16.681536  C 17.6745599999999 16.681536  17.96256 16.967232  17.96256 17.322048  C 17.96256 17.676864  17.676864 17.96256  17.3220480000001 18  L 0.677951999999914 18  C 0.325440000000061 17.96256  0.0374400000000144 17.676864  0.0374400000000144 17.322048  Z M 1.94284800000002 10.63584  L 9.18431999999998 3.39436800000001  L 12.806208 7.016256  L 5.564736 14.257728  L 1.97971200000005 14.974272  C 1.63411200000004 15.043392  1.29542399999997 14.819904  1.22630400000003 14.472  C 1.21017600000002 14.389056  1.21017600000002 14.303808  1.22630400000003 14.220864  L 1.94284800000002 10.63584  Z M 9.18662399999999 5.20300799999999  L 3.12249599999997 11.267136  L 2.67091199999987 13.529664  L 4.93343999999996 13.07808  L 10.9975680000001 7.01395200000001  L 9.18662399999999 5.20300799999999  Z " fill-rule="nonzero" fill="#999999" stroke="none" transform="matrix(1 0 0 1 9 14 )" />
  </g>
</svg>