<?xml version="1.0" encoding="utf-8"?>
<svg version="1.1" xmlns:xlink="http://www.w3.org/1999/xlink" width="30px" height="30px" xmlns="http://www.w3.org/2000/svg">
  <g transform="matrix(1 0 0 1 -173 -442 )">
    <path d="M 10.7894736842105 10.5570526315789  C 10.7894736842105 9.91031578947366  11.3115789473684 9.38484210526315  11.9583157894737 9.38484210526315  C 12.6050526315789 9.38484210526315  13.1271578947369 9.90694736842107  13.1271578947369 10.5536842105263  L 13.1271578947369 19.4429473684211  C 13.1271578947369 20.0896842105263  12.6050526315789 20.6117894736842  11.9583157894737 20.6117894736842  C 11.3115789473684 20.6117894736842  10.7894736842105 20.0896842105263  10.7894736842105 19.4429473684211  L 10.7894736842105 10.5570526315789  Z M 16.8728421052631 10.5570526315789  C 16.8728421052631 9.91031578947366  17.3949473684211 9.38484210526315  18.0416842105263 9.38484210526315  C 18.6884210526316 9.38484210526315  19.2105263157895 9.90694736842107  19.2105263157895 10.5536842105263  L 19.2105263157895 19.4429473684211  C 19.2105263157895 20.0896842105263  18.6884210526316 20.6117894736842  18.0416842105263 20.6117894736842  C 17.3949473684211 20.6117894736842  16.8728421052631 20.0896842105263  16.8728421052631 19.4429473684211  L 16.8728421052631 10.5570526315789  Z M 1.90021052631579 15  C 1.90021052631579 22.2353684210526  7.76463157894739 28.0997894736843  15 28.0997894736843  C 22.2353684210526 28.0997894736843  28.0997894736842 22.2353684210526  28.0997894736842 15  C 28.0997894736842 7.76463157894739  22.2353684210526 1.90021052631579  15 1.90021052631579  C 7.76463157894739 1.90021052631579  1.90021052631579 7.76463157894739  1.90021052631579 15  Z M 29.9692631578947 15  C 29.9692631578947 23.2661052631579  23.2694736842105 29.9692631578947  15 29.9692631578947  C 6.73052631578946 29.9692631578947  0.0307368421052843 23.2661052631579  0.0307368421052843 15  C 0.0307368421052843 6.7338947368421  6.73052631578946 0.0307368421052843  15 0.0307368421052843  C 23.2694736842105 0.0307368421052843  29.9692631578947 6.7338947368421  29.9692631578947 15  Z " fill-rule="nonzero" fill="#323233" stroke="none" transform="matrix(1 0 0 1 173 442 )" />
  </g>
</svg>