<?xml version="1.0" encoding="utf-8"?>
<svg version="1.1" xmlns:xlink="http://www.w3.org/1999/xlink" width="27px" height="30px" xmlns="http://www.w3.org/2000/svg">
  <g transform="matrix(1 0 0 1 -299 -442 )">
    <path d="M 0.935999999999922 11.7300705882353  C 3.00282352941178 6.05138823529416  8.56969411764703 2.65637647058821  14.3127529411765 3.09345882352943  L 14.3127529411765 1.17232941176474  C 14.3127529411765 0.420141176470565  15.1496470588235 -0.0271058823529415  15.7764705882353 0.389647058823527  L 21.4246588235295 4.15397647058819  C 21.9837176470589 4.52668235294118  21.9837176470589 5.34663529411768  21.4246588235295 5.71934117647061  L 15.7764705882353 9.48705882352942  C 15.1496470588235 9.90381176470589  14.3127529411765 9.45656470588239  14.3127529411765 8.70437647058822  L 14.3127529411765 5.29919999999998  C 9.46757647058826 4.85534117647057  4.74437647058824 7.69468235294119  2.99943529411769 12.4822588235294  C 0.925835294117633 18.1778823529412  3.86343529411761 24.48  9.56244705882352 26.5536  C 15.2614588235294 28.6272  21.5635764705883 25.6896  23.6371764705883 19.9905882352941  C 23.8472470588235 19.4145882352941  24.0098823529412 18.8216470588235  24.1216941176472 18.2151529411765  L 24.1420235294117 18.1135058823529  C 24.1521882352941 18.0254117647059  24.1725176470588 17.940705882353  24.2030117647059 17.8593882352941  C 24.4096941176471 17.2901647058824  25.039905882353 16.9953882352941  25.6091294117648 17.2020705882353  C 26.1783529411765 17.4087529411765  26.4731294117647 18.0389647058823  26.2664470588236 18.6081882352942  C 26.1478588235294 19.3264941176471  25.9581176470589 20.0380235294118  25.7006117647059 20.7393882352941  C 23.2102588235294 27.5768470588235  15.651105882353 31.104  8.81364705882356 28.6136470588236  C 1.97280000000001 26.1300705882353  -1.55096470588228 18.5675294117647  0.935999999999922 11.7300705882353  Z " fill-rule="nonzero" fill="#323233" stroke="none" transform="matrix(1 0 0 1 299 442 )" />
  </g>
</svg>