<?xml version="1.0" encoding="utf-8"?>
<svg version="1.1" xmlns:xlink="http://www.w3.org/1999/xlink" width="30px" height="30px" xmlns="http://www.w3.org/2000/svg">
  <g transform="matrix(1 0 0 1 -49 -442 )">
    <path d="M 20.7970526315789 15.5827368421052  C 20.7532631578947 15.64  20.706105263158 15.6905263157895  20.6522105263158 15.730947368421  L 13.7267368421053 21.272  C 13.3225263157894 21.5953684210526  12.733052631579 21.528  12.4130526315789 21.1271578947369  C 12.2816842105264 20.9621052631579  12.2075789473685 20.7566315789473  12.2075789473685 20.541052631579  L 12.2075789473685 9.46231578947368  C 12.2075789473685 8.94694736842104  12.6252631578948 8.52589473684213  13.144 8.52589473684213  C 13.3562105263157 8.52589473684213  13.5616842105263 8.59663157894738  13.730105263158 8.73136842105265  L 20.6522105263158 14.269052631579  C 21.0564210526315 14.5924210526316  21.1204210526316 15.1818947368421  20.7970526315789 15.5827368421052  Z M 1.90021052631585 15  C 1.90021052631585 22.2353684210526  7.76463157894739 28.0997894736842  15 28.0997894736842  C 22.2353684210526 28.0997894736842  28.0997894736843 22.2353684210526  28.0997894736843 15  C 28.0997894736843 7.76463157894739  22.2353684210526 1.90021052631579  15 1.90021052631579  C 7.76463157894739 1.90021052631579  1.90021052631585 7.76463157894739  1.90021052631585 15  Z M 29.9692631578947 15  C 29.9692631578947 23.2661052631579  23.2694736842105 29.9692631578947  15 29.9692631578947  C 6.73052631578946 29.9692631578947  0.0307368421052843 23.2661052631579  0.0307368421052843 15  C 0.0307368421052843 6.7338947368421  6.73052631578946 0.0307368421052843  15 0.0307368421052843  C 23.2694736842105 0.0307368421052843  29.9692631578947 6.7338947368421  29.9692631578947 15  Z " fill-rule="nonzero" fill="#323233" stroke="none" transform="matrix(1 0 0 1 49 442 )" />
  </g>
</svg>