<?xml version="1.0" encoding="utf-8"?>
<svg version="1.1" xmlns:xlink="http://www.w3.org/1999/xlink" width="14px" height="14px" xmlns="http://www.w3.org/2000/svg">
  <g transform="matrix(1 0 0 1 -342 -788 )">
    <path d="M 13.1132350877193 7  C 13.1132350877193 10.3702175438596  10.3702175438597 13.1132350877193  7 13.1132350877193  C 3.62978245614033 13.1132350877193  0.886764912280682 10.3702175438596  0.886764912280682 7  C 0.886764912280682 3.62978245614036  3.62978245614033 0.886764912280711  7 0.886764912280711  C 10.3702175438597 0.886764912280711  13.1132350877193 3.62978245614036  13.1132350877193 7  Z M 13.9856561403509 7  C 13.9856561403509 3.14248421052631  10.8575157894737 0.0143438596491308  7 0.0143438596491308  C 3.14248421052628 0.0143438596491308  0.0143438596491023 3.14248421052631  0.0143438596491023 7  C 0.0143438596491023 10.8575157894737  3.14248421052628 13.9856561403509  7 13.9856561403509  C 10.8575157894737 13.9856561403509  13.9856561403509 10.8575157894737  13.9856561403509 7  Z M 8.60965614035092 4.01804912280701  C 8.22296140350875 3.67065263157895  7.72465964912283 3.50717192982455  7.10217543859653 3.50717192982455  C 6.40109473684208 3.50717192982455  5.84463157894731 3.70837894736843  5.44221754385967 4.12179649122808  C 5.02880000000005 4.52578245614035  4.82759298245617 5.07124210526317  4.82759298245617 5.7738947368421  L 4.82759298245617 5.78961403508771  C 4.82759298245617 6.07098947368422  5.05395087719296 6.29891929824561  5.33689824561407 6.29891929824561  C 5.61827368421052 6.29891929824561  5.84620350877196 6.07098947368422  5.84620350877196 5.78961403508771  C 5.84620350877196 5.78332631578948  5.84463157894731 5.7738947368421  5.84463157894731 5.7738947368421  C 5.84463157894731 5.35104561403509  5.92951578947373 5.0162245614035  6.10242807017539 4.78515087719299  C 6.29420350877194 4.51635087719299  6.61016140350876 4.3811649122807  7.04401403508768 4.3811649122807  C 7.38826666666671 4.3811649122807  7.65863859649119 4.47705263157894  7.8488421052632 4.66882807017544  C 8.03118596491231 4.86060350877193  8.12864561403512 5.11997192982457  8.12864561403512 5.45636491228069  C 8.12864561403512 5.70630175438598  8.04061754385964 5.93580350877193  7.86770526315786 6.15744561403508  L 7.70422456140352 6.33978947368422  C 7.11003508771933 6.86795789473683  6.75635087719297 7.26722807017544  6.61016140350876 7.5297403508772  C 6.39323508771929 7.92115087719299  6.43253333333337 8.28426666666667  6.43253333333337 8.28426666666667  C 6.43253333333337 8.56564210526315  6.66203508771935 8.79357192982457  6.94183859649127 8.79357192982457  C 7.22321403508772 8.79357192982457  7.41027368421055 8.60022456140351  7.45114385964916 8.28426666666667  C 7.45114385964916 8.28426666666667  7.50301754385964 7.9903157894737  7.60990877192978 7.7985403508772  C 7.69636491228073 7.62719999999999  7.83155087719297 7.46214736842106  8.00289122807021 7.30967017543861  C 8.46503859649124 6.91511578947367  8.73226666666665 6.66675087719298  8.81872280701759 6.55985964912281  C 9.04979649122811 6.25333333333333  9.17397894736837 5.85877894736842  9.17397894736837 5.39034385964914  C 9.17397894736837 4.81501754385965  8.98220350877193 4.35444210526316  8.60965614035092 4.01804912280701  Z M 7.44642807017544 9.31230877192982  C 7.31281403508774 9.17869473684212  7.13990175438596 9.12053333333333  6.93712280701754 9.12053333333333  C 6.73591578947367 9.12053333333333  6.57243508771933 9.17869473684212  6.44825263157895 9.31230877192982  C 6.30363508771927 9.43649122807017  6.23604210526321 9.59997192982456  6.23604210526321 9.80117894736841  C 6.23604210526321 9.99295438596491  6.30363508771927 10.1564350877193  6.44825263157895 10.2916210526316  C 6.57243508771933 10.4252350877193  6.73591578947367 10.4928280701754  6.93712280701754 10.4928280701754  C 7.13047017543863 10.4928280701754  7.30181052631576 10.4252350877193  7.44642807017544 10.301052631579  C 7.58004210526315 10.1658666666667  7.64763508771932 10.0039578947369  7.64763508771932 9.80117894736841  C 7.64763508771932 9.59997192982456  7.58004210526315 9.43649122807017  7.44642807017544 9.31230877192982  Z " fill-rule="nonzero" fill="#1989fa" stroke="none" transform="matrix(1 0 0 1 342 788 )" />
  </g>
</svg>