<?xml version="1.0" encoding="utf-8"?>
<svg version="1.1" xmlns:xlink="http://www.w3.org/1999/xlink" width="14px" height="14px" xmlns="http://www.w3.org/2000/svg">
  <g transform="matrix(1 0 0 1 -342 -644 )">
    <path d="M 0.0143438596491023 7  C 0.0143438596491023 3.14248421052628  3.14091228070177 0.0143438596491023  7 0.0143438596491023  C 10.8590877192982 0.0143438596491023  13.9856561403509 3.14248421052628  13.9856561403509 7  C 13.9856561403509 10.8575157894737  10.8590877192982 13.9856561403509  7 13.9856561403509  C 3.14091228070177 13.9856561403509  0.0143438596491023 10.8575157894737  0.0143438596491023 7  Z M 13.1132350877193 7  C 13.1132350877193 3.62349473684208  10.3765052631579 0.886764912280682  7 0.886764912280682  C 3.6234947368421 0.886764912280682  0.886764912280711 3.62349473684208  0.886764912280711 7  C 0.886764912280711 10.3765052631579  3.6234947368421 13.1132350877193  7 13.1132350877193  C 10.3765052631579 13.1132350877193  13.1132350877193 10.3765052631579  13.1132350877193 7  Z M 7.38884806324111 9.15292627140968  L 6.69698023715415 9.15292627140968  C 6.60348458498024 9.15292627140968  6.52528822134386 9.08332395256912  6.52188837944664 8.98841169960474  L 6.38079494071147 3.1655449802372  C 6.37909501976284 3.07537833992103  6.44879177865613 3.00103040843214  6.55078703557314 3.00103040843214  L 7.5333413438735 3.00103040843214  C 7.62853691699604 3.00103040843214  7.70503335968379 3.07063272727271  7.70333343873517 3.1655449802372  L 7.5639399209486 8.98841169960474  C 7.56224 9.07857833992091  7.47894387351781 9.15292627140968  7.38884806324111 9.15292627140968  Z M 6.38079494071147 10.3836218181818  C 6.38079494071147 10.0435195783926  6.67658118577077 9.76827404479582  7.04206418972331 9.76827404479582  C 7.40754719367587 9.76827404479582  7.70333343873517 10.0435195783926  7.70333343873517 10.3836218181818  C 7.70333343873517 10.723724057971  7.4075471936759 10.9989695915679  7.04206418972331 10.9989695915679  C 6.67658118577077 10.9989695915679  6.38079494071147 10.723724057971  6.38079494071147 10.3836218181818  Z " fill-rule="nonzero" fill="#9fa0a2" stroke="none" transform="matrix(1 0 0 1 342 644 )" />
  </g>
</svg>