<?xml version="1.0" encoding="utf-8"?>
<svg version="1.1" xmlns:xlink="http://www.w3.org/1999/xlink" width="14px" height="14px" xmlns="http://www.w3.org/2000/svg">
  <g transform="matrix(1 0 0 1 -16 -644 )">
    <path d="M 13.1132350877193 7  C 13.1132350877193 10.3702175438597  10.3702175438597 13.1132350877193  7 13.1132350877193  C 3.62978245614035 13.1132350877193  0.886764912280697 10.3702175438597  0.886764912280697 7  C 0.886764912280697 3.62978245614033  3.62978245614035 0.886764912280682  7 0.886764912280682  C 10.3702175438597 0.886764912280682  13.1132350877193 3.62978245614033  13.1132350877193 7  Z M 13.9856561403509 7  C 13.9856561403509 3.14248421052628  10.8575157894737 0.0143438596491023  7 0.0143438596491023  C 3.14248421052632 0.0143438596491023  0.0143438596491166 3.14248421052628  0.0143438596491166 7  C 0.0143438596491166 10.8575157894737  3.14248421052632 13.9856561403509  7 13.9856561403509  C 10.8575157894737 13.9856561403509  13.9856561403509 10.8575157894737  13.9856561403509 7  Z M 7 9.7288701754386  C 7 10.150147368421  6.65731929824561 10.4928280701754  6.23604210526315 10.4928280701754  L 5.14512280701754 10.4928280701754  C 4.72384561403508 10.4928280701754  4.3811649122807 10.150147368421  4.3811649122807 9.7288701754386  C 4.3811649122807 9.30759298245619  4.72384561403508 8.96491228070181  5.14512280701754 8.96491228070181  L 6.23604210526315 8.96491228070181  C 6.65731929824561 8.96491228070181  7 9.30759298245619  7 9.7288701754386  Z M 9.64398596491229 4.34343859649118  C 9.76188070175439 4.13437192982451  9.69114385964913 3.8671438596491  9.48207719298246 3.74610526315792  L 7.69479298245614 2.7149192982456  C 7.6272 2.66776140350873  7.5501754385965 2.63317894736838  7.46214736842106 2.63317894736838  L 7.41341754385965 2.63317894736838  C 7.20277894736841 2.63317894736838  7.03615438596491 2.79351578947364  7.01100350877194 2.99629473684206  C 7.00943157894737 3.00729824561404  7.00628771929824 3.01515789473683  7.00628771929824 3.02458947368416  C 7.00471578947368 3.03087719298242  7.00157192982456 3.03716491228067  7.00157192982456 3.04502456140347  L 7.00157192982456 8.28898245614039  C 6.7720701754386 8.16637192982455  6.51584561403509 8.09091929824558  6.23761403508772 8.09091929824558  L 5.14669473684211 8.09091929824558  C 4.2428350877193 8.09091929824558  3.50874385964913 8.82501052631574  3.50874385964913 9.7288701754386  C 3.50874385964913 10.6327298245614  4.2428350877193 11.3668210526316  5.14669473684211 11.3668210526316  L 6.23761403508772 11.3668210526316  C 7.14147368421052 11.3668210526316  7.87556491228071 10.6327298245614  7.87556491228071 9.7288701754386  C 7.87556491228071 9.69114385964917  7.86613333333334 9.65656140350882  7.86456140350877 9.62040701754381  L 7.87556491228071 9.62040701754381  L 7.87556491228071 3.82627368421049  L 9.04822456140352 4.50377543859645  C 9.11424561403508 4.54150175438599  9.18969824561404 4.5619368421053  9.26515087719298 4.5619368421053  C 9.41605614035088 4.5619368421053  9.56224561403509 4.48334035087714  9.64398596491229 4.34343859649118  Z " fill-rule="nonzero" fill="#323233" stroke="none" transform="matrix(1 0 0 1 16 644 )" />
  </g>
</svg>