<?xml version="1.0" encoding="utf-8"?>
<svg version="1.1" xmlns:xlink="http://www.w3.org/1999/xlink" width="14px" height="14px" xmlns="http://www.w3.org/2000/svg">
  <g transform="matrix(1 0 0 1 -16 -689 )">
    <path d="M 13.9141333333333 7  C 13.9141333333333 10.8179555555556  10.8179555555556 13.9141333333333  7 13.9141333333333  C 3.18204444444444 13.9141333333333  0.0858666666666608 10.8179555555556  0.0858666666666608 7  C 0.0858666666666608 3.18204444444439  3.18204444444444 0.085866666666675  7 0.085866666666675  C 10.8179555555556 0.085866666666675  13.9141333333333 3.18204444444439  13.9141333333333 7  Z M 1.07478518518519 7  C 1.07478518518519 10.2720592592592  3.72794074074073 12.9252148148148  7 12.9252148148148  C 10.2720592592593 12.9252148148148  12.9252148148148 10.2720592592592  12.9252148148148 7  C 12.9252148148148 3.72794074074079  10.2720592592593 1.07478518518519  7 1.07478518518519  C 3.72794074074073 1.07478518518519  1.07478518518519 3.72794074074079  1.07478518518519 7  Z M 3.35308134556576 7.45668256880731  C 3.61195188583079 7.36303119266051  3.89587441386341 7.50095412844041  3.98773170234455 7.76488073394501  C 4.4403376146789 9.07089174311932  5.65452395514781 9.9614311926606  7.03572354740061 9.9614311926606  C 8.41525300713558 9.96313394495417  9.62943934760449 9.07259449541289  10.0820452599388 7.76658348623857  C 10.17390254842 7.50265688073398  10.4578250764526 7.36473394495408  10.7166956167176 7.45838532110088  C 10.9755661569827 7.55203669724767  11.1108468909276 7.84150458715601  11.0189896024465 8.1054311926606  C 10.4277626911315 9.81329174311929  8.83946666666667 10.9779743119266  7.03405341488278 10.9779743119266  C 5.22864016309887 10.9779743119266  3.64201427115188 9.81158899082573  3.0507873598369 8.10372844036692  C 2.95893007135577 7.83980183486244  3.09421080530072 7.5503339449541  3.35308134556576 7.45668256880731  Z M 9.55735779816514 6.07993225123505  C 9.09428983617858 6.07993225123505  8.71889908256881 5.70261638131785  8.71889908256881 5.23717371183398  C 8.71889908256881 4.77173104234998  9.09428983617858 4.39441520795253  9.55735779816514 4.39441520795253  C 10.0204257601517 4.39441520795253  10.3958165137615 4.77173107786962  10.3958165137615 5.23717374735361  C 10.3958165137615 5.70261641683749  10.0204257601517 6.07993225123505  9.55735779816514 6.07993225123505  Z M 5.32655243472124 5.23717374735361  C 5.32655243472124 5.70261641683749  4.94923660032373 6.07993225123505  4.48379393083979 6.07993225123505  C 4.01835126135586 6.07993225123505  3.64103542695837 5.70261641683749  3.64103542695837 5.23717374735361  C 3.64103542695837 4.77173107786962  4.01835126135586 4.39441524347217  4.48379393083979 4.39441524347217  C 4.94923660032373 4.39441524347217  5.32655243472124 4.77173107786962  5.32655243472124 5.23717374735361  Z " fill-rule="nonzero" fill="#323233" stroke="none" transform="matrix(1 0 0 1 16 689 )" />
  </g>
</svg>