<?xml version="1.0" encoding="utf-8"?>
<svg version="1.1" xmlns:xlink="http://www.w3.org/1999/xlink" width="15px" height="15px" xmlns="http://www.w3.org/2000/svg">
  <g transform="matrix(1 0 0 1 -340 -689 )">
    <path d="M 14.9846315789474 7.5  C 14.9846315789474 11.6330526315789  11.6347368421053 14.9846315789474  7.5 14.9846315789474  C 3.36526315789473 14.9846315789474  0.0153684210526421 11.6330526315789  0.0153684210526421 7.5  C 0.0153684210526421 3.36694736842105  3.36526315789473 0.0153684210525853  7.5 0.0153684210525853  C 11.6347368421053 0.0153684210525853  14.9846315789474 3.36694736842105  14.9846315789474 7.5  Z M 9.80905263157894 4.52568421052626  L 7.49494736842104 6.84147368421054  L 5.17915789473685 4.52568421052626  C 4.99726315789474 4.34378947368418  4.70084210526315 4.34378947368418  4.51726315789475 4.52568421052626  C 4.33536842105264 4.70757894736846  4.33536842105264 5.00400000000002  4.51726315789475 5.18757894736837  L 6.83305263157894 7.50336842105264  L 4.51726315789475 9.8191578947368  C 4.33536842105264 10.001052631579  4.33536842105264 10.2974736842106  4.51726315789475 10.4810526315789  C 4.69915789473686 10.6629473684211  4.99557894736841 10.6629473684211  5.17915789473685 10.4810526315789  L 7.49494736842107 8.16526315789474  L 9.81073684210526 10.4810526315789  C 9.99263157894737 10.6629473684211  10.289052631579 10.6629473684211  10.4726315789474 10.4810526315789  C 10.6562105263158 10.2991578947368  10.6545263157895 10.0027368421053  10.4726315789474 9.8191578947368  L 8.15515789473685 7.50336842105264  L 10.4709473684211 5.18757894736837  C 10.6528421052632 5.00568421052628  10.6528421052632 4.70926315789472  10.4709473684211 4.52568421052626  C 10.289052631579 4.34378947368418  9.99263157894737 4.34378947368418  9.80905263157894 4.52568421052626  Z " fill-rule="nonzero" fill="#9fa0a2" stroke="none" transform="matrix(1 0 0 1 340 689 )" />
  </g>
</svg>