<?xml version="1.0" encoding="utf-8"?>
<svg version="1.1" xmlns:xlink="http://www.w3.org/1999/xlink" width="20px" height="20px" xmlns="http://www.w3.org/2000/svg">
  <g transform="matrix(1 0 0 1 -716 -210 )">
    <path d="M 15.2352 4.77760000000001  L 16.24128 3.77152000000001  L 14.22912 1.75935999999999  L 13.22304 2.76543999999998  L 15.2352 4.77760000000001  Z M 17.75168 3.26464000000001  C 18.02816 3.54367999999999  18.02816 3.99680000000001  17.75168 4.27328  L 15.23776 6.78720000000001  L 11.2108800000001 2.76288  L 13.7248 0.248959999999983  C 14.0012800000001 -0.0275200000000098  14.4518399999999 -0.0275200000000098  14.7308800000001 0.248959999999983  L 17.75168 3.26464000000001  Z M 0.0416000000000167 19.24672  C 0.0416000000000167 18.85504  0.35904000000005 18.53504  0.753279999999904 18.53504  L 19.2467200000001 18.53504  C 19.6383999999999 18.53504  19.9584 18.85248  19.9584 19.24672  C 19.9584 19.64096  19.64096 19.9584  19.2467200000001 20  L 0.753279999999904 20  C 0.361600000000067 19.9584  0.0416000000000167 19.64096  0.0416000000000167 19.24672  Z M 2.15872000000002 11.8176  L 10.2048 3.77152000000001  L 14.22912 7.79584  L 6.18304000000001 15.84192  L 2.19968000000006 16.63808  C 1.81568000000004 16.71488  1.43935999999997 16.46656  1.36256000000003 16.08  C 1.34464000000003 15.98784  1.34464000000003 15.89312  1.36256000000003 15.80096  L 2.15872000000002 11.8176  Z M 10.20736 5.78111999999999  L 3.46943999999996 12.51904  L 2.96767999999986 15.03296  L 5.48159999999996 14.5312  L 12.2195200000001 7.79328000000001  L 10.20736 5.78111999999999  Z " fill-rule="nonzero" fill="#999999" stroke="none" transform="matrix(1 0 0 1 716 210 )" />
  </g>
</svg>