<?xml version="1.0" encoding="utf-8"?>
<svg version="1.1" xmlns:xlink="http://www.w3.org/1999/xlink" width="18px" height="17px" xmlns="http://www.w3.org/2000/svg">
  <g transform="matrix(1 0 0 1 -69 -381 )">
    <path d="M 17.7388989292035 6.8826979019608  C 17.8474802853982 6.77844107843134  17.8865606349557 6.62255743137251  17.8396968185841 6.48051852941177  C 17.7928126327434 6.33849968627453  17.6681549269911 6.23496517647055  17.5180481283186 6.21347574509804  L 11.8340395088496 5.40018809803922  L 9.29214692920354 0.328140823529395  C 9.22502980752212 0.194228156862721  9.08651672123895 0.109454274509801  8.93486138495574 0.109454274509801  C 8.78320604867255 0.109454274509801  8.64469294247789 0.19424823529414  8.57757584070794 0.328140823529395  L 6.03562211283183 5.40018807843137  L 0.351633882743378 6.21347572549018  C 0.20156784292034 6.23496515686276  0.0768693783185768 6.33849966666662  0.0300055818584042 6.48051850980391  C -0.0168582146017684 6.62253735294115  0.0222221150442721 6.77844105882355  0.130823880530983 6.8826979019608  L 4.24379486946903 10.8307336078432  L 3.27285840265486 16.4054048039216  C 3.24722594469029 16.552600372549  3.30865827212389 16.7013409411765  3.43133956194692 16.7891245686275  C 3.5540208517699 16.8769483137255  3.71665861725662 16.8884253921569  3.85091321017699 16.8190010980392  L 8.93486140486725 14.1869973529411  L 14.0187688606195 16.8190010980392  C 14.0770429845133 16.8491585294117  14.1406962411504 16.8640667058824  14.2041253738938 16.8640667058824  C 14.2867279115044 16.8640667058824  14.368943329646 16.8387850196079  14.4383425088495 16.7891245686275  C 14.5610237986726 16.7013409411765  14.6224968650442 16.5526204509804  14.5968440376107 16.4054048039216  L 13.6259279402655 10.8307336078432  L 17.7388989292035 6.8826979019608  Z M 16.6046318960177 6.87571537254905  L 12.9197108030973 10.4128033333334  C 12.8258201946903 10.5029546078432  12.7829907477876 10.6327940980392  12.8051389911505 10.760085372549  L 13.6750330353982 15.7545419607843  L 9.12025865707966 13.3964832941176  C 9.06220867699116 13.3664462549019  8.99855540044246 13.3514176862745  8.93486138495574 13.3514176862745  C 8.93133641150443 13.3514176862745  8.9278114380531 13.3516383921569  9 13.3517387254902  L 9 1.40937417647058  L 8.93486138495574 1.3882860392157  L 11.212197630531 5.93242770588233  C 11.2702476106195 6.04820176470588  11.3824151084071 6.12848113725488  11.5122074535398 6.14706115686278  L 16.6046318960177 6.87571537254905  Z " fill-rule="nonzero" fill="#ffd21e" stroke="none" transform="matrix(1 0 0 1 69 381 )" />
  </g>
</svg>