<?xml version="1.0" encoding="utf-8"?>
<svg version="1.1" xmlns:xlink="http://www.w3.org/1999/xlink" width="18px" height="18px" xmlns="http://www.w3.org/2000/svg">
  <g transform="matrix(1 0 0 1 -17 -540 )">
    <path d="M 13.9694896551724 17.186648275862  L 9 14.9958620689655  L 4.02852413793104 17.186648275862  C 3.75045517241379 17.3097931034482  3.42471724137931 17.1826758620689  3.3015724137931 16.9046068965517  C 3.26383448275863 16.8172137931034  3.2479448275862 16.7218758620689  3.25787586206896 16.6265379310345  L 3.80408275862069 11.2220689655172  L 0.185213793103451 7.17020689655169  C -0.017379310344829 6.94377931034478  0.00248275862069391 6.59420689655167  0.22891034482759 6.39161379310349  C 0.300413793103452 6.32805517241377  0.385820689655176 6.28435862068966  0.479172413793101 6.26449655172416  L 5.79028965517242 5.11448275862074  L 8.52331034482759 0.42107586206896  C 8.67624827586206 0.156910344827565  9.01390344827586 0.0695172413793443  9.27806896551724 0.222455172413788  C 9.36148965517242 0.27012413793102  9.42902068965518 0.339641379310365  9.47668965517241 0.42107586206896  L 12.2097103448276 5.11448275862074  L 17.5188413793103 6.26449655172416  C 17.8167724137931 6.32805517241377  18.0054620689655 6.62201379310341  17.9419034482759 6.91994482758616  C 17.9220413793103 7.01329655172412  17.8783448275862 7.09870344827584  17.8147862068965 7.17020689655169  L 14.1939310344828 11.2220689655172  L 14.7401379310345 16.6265379310345  C 14.7699310344828 16.9304275862069  14.5494620689655 17.2005517241379  14.2475586206897 17.2303448275862  C 14.1522206896552 17.240275862069  14.0568827586207 17.2243862068965  13.9694896551724 17.186648275862  Z " fill-rule="nonzero" fill="#bdbdbd" stroke="none" transform="matrix(1 0 0 1 17 540 )" />
  </g>
</svg>