<?xml version="1.0" encoding="utf-8"?>
<svg version="1.1" xmlns:xlink="http://www.w3.org/1999/xlink" width="28px" height="21px" xmlns="http://www.w3.org/2000/svg">
  <g transform="matrix(1 0 0 1 -61 -52 )">
    <path d="M 8.03264000000001 19.599104  L 0.359296000000001 11.936512  C 0.0116480000000081 11.588864  -0.0456959999999924 11.04768  0.262528000000003 10.660608  L 0.97932800000001 9.75743999999999  C 1.27321599999999 9.388288  1.82156800000001 9.29510399999999  2.21222399999999 9.553152  L 8.419712 13.696256  C 8.745856 13.91488  9.312128 13.886208  9.61676800000001 13.638912  L 26.017152 0.331519999999998  C 26.386304 0.0340479999999985  26.963328 0.0591360000000094  27.285888 0.381696000000005  L 27.69088 0.786687999999998  C 28.042112 1.13791999999999  28.017024 1.69344000000001  27.647872 2.062592  L 10.043264 19.638528  C 9.494912 20.18688  8.59532799999999 20.161792  8.03264000000001 19.599104  Z " fill-rule="nonzero" fill="#ffffff" stroke="none" transform="matrix(1 0 0 1 61 52 )" />
  </g>
</svg>