<?xml version="1.0" encoding="utf-8"?>
<svg version="1.1" xmlns:xlink="http://www.w3.org/1999/xlink" width="23px" height="21px" xmlns="http://www.w3.org/2000/svg">
  <g transform="matrix(1 0 0 1 -64 -52 )">
    <path d="M 2.86496 10.28224  L 9.03456 16.80512  L 11.41024 19.33696  L 19.94016 10.29504  C 21.896 8.22144  21.84992 4.96768  19.83264 2.95296  C 17.84864 0.968959999999996  14.63328 0.968959999999996  12.65184 2.95296  L 11.39744 4.20735999999999  L 10.14304 2.95296  C 8.16159999999999 0.971519999999998  4.94880000000001 0.971519999999998  2.96736 2.95296  C 0.955200000000005 4.96512  0.909120000000001 8.21632  2.86496 10.28224  Z M 1.95616 1.94687999999999  C 4.49567999999999 -0.592640000000003  8.6096 -0.592640000000003  11.14656 1.94432  L 11.39744 2.1952  L 11.64832 1.94432  C 14.18784 -0.595200000000006  18.30176 -0.595200000000006  20.84128 1.94432  C 23.40128 4.50431999999999  23.46016 8.63616  20.97696 11.26784  L 12.44448 20.31232  L 12.38304 20.37376  C 11.8096 20.91136  10.91104 20.8832  10.37344 20.30976  L 8.00288 17.78304  L 1.82816 11.26016  C -0.657600000000002 8.6336  -0.601280000000003 4.50431999999999  1.95616 1.94687999999999  Z " fill-rule="nonzero" fill="#ffffff" stroke="none" transform="matrix(1 0 0 1 64 52 )" />
  </g>
</svg>