<?xml version="1.0" encoding="utf-8"?>
<svg version="1.1" xmlns:xlink="http://www.w3.org/1999/xlink" width="23px" height="23px" xmlns="http://www.w3.org/2000/svg">
  <g transform="matrix(1 0 0 1 -64 -51 )">
    <path d="M 22.5119619047619 2.55234285714286  L 13.5643047619048 11.5  L 22.5119619047619 20.4476571428571  C 23.0832380952381 21.0189333333333  23.0832380952381 21.9441904761905  22.5119619047619 22.5119619047619  C 21.9406857142857 23.0797333333333  21.0154285714286 23.0832380952381  20.4476571428571 22.5119619047619  L 11.5 13.5643047619048  L 2.55234285714286 22.5154666666667  C 1.98106666666666 23.0867428571429  1.05580952380953 23.0867428571429  0.488038095238096 22.5154666666667  C -0.0832380952380873 21.9441904761905  -0.0832380952380873 21.0189333333333  0.488038095238096 20.4511619047619  L 9.43569523809524 11.5  L 0.484533333333332 2.55234285714286  C -0.0867428571428519 1.98106666666666  -0.0867428571428519 1.05580952380953  0.484533333333332 0.488038095238096  C 1.05580952380953 -0.0832380952380873  1.98106666666666 -0.0832380952380873  2.5488380952381 0.488038095238096  L 11.5 9.43569523809524  L 20.4476571428571 0.488038095238096  C 21.0189333333333 -0.0832380952380873  21.9441904761905 -0.0832380952380873  22.5119619047619 0.488038095238096  C 23.0832380952381 1.05931428571428  23.0832380952381 1.98457142857143  22.5119619047619 2.55234285714286  Z " fill-rule="nonzero" fill="#ffffff" stroke="none" transform="matrix(1 0 0 1 64 51 )" />
  </g>
</svg>