<?xml version="1.0" encoding="utf-8"?>
<svg version="1.1" xmlns:xlink="http://www.w3.org/1999/xlink" width="16px" height="16px" xmlns="http://www.w3.org/2000/svg">
  <g transform="matrix(1 0 0 1 -178 -584 )">
    <path d="M 11.3890666666667 13.8364  C 11.6820369426739 13.6689457290674  12.055195921724 13.7681932995426  12.2262666666667 14.0590666666667  C 12.3965333333333 14.3465333333334  12.3005333333334 14.7301333333334  12.0033333333333 14.8916  C 11.9110754939035 14.9459645806187  11.8059443330479 14.9746359674216  11.6988601766002 14.9746359674216  C 11.4820849924012 14.9746359674216  11.2821817790238 14.8576558470127  11.176 14.6686666666667  C 10.9973333333333 14.3814666666666  11.1014666666667 14.0065333333333  11.3890666666667 13.8364  Z M 8.63093333333333 14.9312  L 8.63093333333333 15.3585333333333  C 8.63093333333333 15.6902666666667  8.35640000000001 15.9681333333333  8.01159999999999 15.9681333333333  C 7.67529208326997 15.9672540924464  7.40287924088688 15.6948412500634  7.40200000000002 15.3585333333333  L 7.40200000000002 14.9312  C 7.40258416271598 14.5945530737234  7.67495515351581 14.3215863458483  8.01159999999999 14.3202666666667  C 8.35173333333336 14.3202666666667  8.63093333333333 14.5908000000001  8.63093333333333 14.9312  Z M 5.3192 13.876  L 4.8656 14.67  C 4.75773402995884 14.8613193065426  4.55514396042219 14.9796693858027  4.33551212177201 14.9796693858027  C 4.23060051658351 14.9796693858027  4.12747078374952 14.9525464620381  4.03613333333334 14.9009333333333  L 4.02813333333333 14.8965333333333  C 3.83627750186616 14.7896425338802  3.71734795492864 14.5872397764163  3.71734795492864 14.3676166831958  C 3.71734795492864 14.259049206393  3.74653992680433 14.1524789189439  3.80186666666668 14.0590666666667  L 4.25573333333335 13.2650666666667  C 4.4297172775554 12.9729760789515  4.80467868211787 12.8725843310884  5.10133333333334 13.0386666666666  C 5.3888 13.2088  5.49413333333331 13.5885333333333  5.3192 13.876  Z M 3.15653333333333 11.4965333333333  L 1.94453333333334 12.2027999999999  C 1.64879999999999 12.3681333333333  1.26906666666667 12.2686666666666  1.10719999999998 11.9765333333334  C 0.933600000000013 11.6890666666667  1.03306666666668 11.3093333333334  1.32506666666669 11.1392  L 2.54559999999998 10.4328  C 2.83786666666668 10.2712  3.21626666666668 10.3618666666666  3.38293333333331 10.6590666666667  C 3.54826666666668 10.9465333333334  3.44746666666668 11.3264  3.15653333333333 11.4965333333333  Z M 2.55253333333332 8.59786666666673  L 0.646133333333353 8.59786666666673  C 0.64559930125364 8.59786807386342  0.645065267551303 8.59786877746274  0.644531233617613 8.59786877746274  C 0.309365951298872 8.59786877746274  0.0374141836395268 8.32663079149893  0.0365333333333524 7.99146666666661  L 0.0365333333333524 7.98826666666662  C 0.0365191738358703 7.98657085171067  0.0365120939945882 7.98487498503141  0.0365120939945882 7.98317911096285  C 0.0365120939945882 7.64862230258666  0.306254660829921 7.37663687793088  0.640800000000013 7.37386666666669  L 2.54666666666665 7.37386666666669  C 2.54720069874637 7.37386525946999  2.54773473244867 7.37386455587068  2.54826876638236 7.37386455587068  C 2.8834340487011 7.37386455587068  3.15538581636048 7.64510254183449  3.15626666666668 7.98026666666669  L 3.15626666666668 7.98346666666669  C 3.15915124649018 8.31982027631261  2.88888587960653 8.59486064967837  2.55253333333332 8.59786666666673  Z M 3.40106666666668 6.02293333333341  L 1.32639999999998 4.8277333333333  C 1.02933333333334 4.66240000000005  0.933600000000013 4.28746666666666  1.10853333333336 3.99520000000007  C 1.27013333333335 3.69946666666669  1.64879999999999 3.59866666666665  1.94586666666666 3.76880000000006  L 4.01066666666665 4.96773333333329  C 4.30293333333333 5.13413333333324  4.39866666666666 5.50773333333336  4.23706666666666 5.79653333333329  C 4.06744434429748 6.08823539122818  3.69470700420379 6.18917765653578  3.40106666666668 6.02293333333341  Z M 3.80053333333333 1.90546666666671  L 3.80186666666668 1.90773333333334  L 5.24026666666668 4.40480000000002  C 5.4152 4.69706666666673  5.79013333333333 4.80106666666666  6.08106666666666 4.62746666666669  C 6.37333333333333 4.46213333333333  6.46906666666666 4.08266666666668  6.29893333333331 3.79039999999998  L 4.85573333333335 1.29813333333334  C 4.69039999999998 1.0093333333333  4.31573333333333 0.905333333333374  4.02799999999999 1.07546666666667  C 3.83802556591178 1.18370946730056  3.72072467683847 1.38554998987797  3.72072467683847 1.60419762763365  C 3.72072467683847 1.70984588623435  3.74822962604131 1.81367409208212  3.80053333333333 1.90546666666671  Z M 7.40213333333332 3.49839999999995  L 7.40213333333332 0.617866666666714  C 7.40213333333332 0.286133333333282  7.68106666666665 0.00346666666666806  8.01173333333332 0.00346666666666806  C 8.35186666666667 0.00346666666666806  8.63106666666664 0.278933333333271  8.63106666666664 0.617866666666714  L 8.63106666666664 3.49466666666672  C 8.63106666666664 3.83466666666664  8.35653333333332 4.10906666666665  8.01173333333332 4.11386666666669  C 7.67458658370396 4.11225598576334  7.40212627612493 3.83849092030334  7.40212627612493 3.50134032327196  C 7.40212627612493 3.50036021128005  7.40212862853451 3.49938010069968  7.40213333333332 3.49839999999995  Z M 9.72946666666667 3.79066666666665  L 11.1674666666667 1.29813333333334  C 11.33693996778 1.0053903827378  11.7108975402265 0.904278924455298  12.0048 1.07173333333333  C 12.296755150677 1.23396558104969  12.4019829882322 1.60211379548014  12.2398666666667 1.89413333333334  L 12.2313333333333 1.90906666666672  L 10.7893333333333 4.40613333333329  C 10.6266666666667 4.69706666666673  10.2432 4.80133333333333  9.95213333333334 4.6325333333333  C 9.65973333333335 4.4624  9.56413333333333 4.08266666666668  9.72946666666667 3.79066666666665  Z M 14.9256 3.99626666666677  C 14.7593333333333 3.69946666666669  14.3834666666667 3.59413333333328  14.0972 3.76880000000006  L 11.5949333333333 5.21093333333329  C 11.3026666666667 5.37626666666665  11.2021333333333 5.75093333333336  11.3685333333333 6.048  C 11.5433802485285 6.33394220796231  11.9120816740459 6.43198860614928  12.2058666666667 6.27066666666667  L 14.7078666666666 4.8288  C 14.8950792683511 4.72078617138027  15.0104207579129 4.52107669401448  15.0104207579129 4.30493890138553  C 15.0104207579129 4.19882435263958  14.9825015241164 4.09457750036347  14.9294666666667 4.00266666666664  L 14.9256 3.99626666666677  Z M 12.5018666666667 7.37386666666669  L 15.3821333333333 7.37386666666669  C 15.3841664717805 7.37384611543155  15.386199701109 7.37383583961719  15.3882329434209 7.37383583961719  C 15.7215183804522 7.37383583961719  15.9916996100876 7.64401706925264  15.9916996100876 7.97730250628388  C 15.9916996100876 7.98095745264936  15.9916664053549 7.98461232359807  15.9916 7.98826666666662  C 15.9916082728925 7.98955908042228  15.9916124093706 7.99085151734573  15.9916124093706 7.99214395757895  C 15.9916124093706 8.32528104830681  15.7225979143444 8.595893588021  15.3894666666667 8.59786666666673  L 12.5018666666667 8.59786666666673  C 12.1642623805296 8.59509085043362  11.8917988458962 8.32108125471325  11.8909333333333 7.98346666666669  C 11.8909333333333 7.6482666666667  12.1701333333334 7.37386666666669  12.5018666666667 7.37386666666669  Z " fill-rule="nonzero" fill="#ffffff" stroke="none" transform="matrix(1 0 0 1 178 584 )" />
  </g>
</svg>