<?xml version="1.0" encoding="utf-8"?>
<svg version="1.1" xmlns:xlink="http://www.w3.org/1999/xlink" width="16px" height="16px" xmlns="http://www.w3.org/2000/svg">
  <g transform="matrix(1 0 0 1 -34 -584 )">
    <path d="M 15.9908571428571 8.0073142857143  C 15.9908571428571 3.64068571428572  12.4818285714286 0.0932571428570554  8.12617142857142 0.025600000000054  C 8.0841142857143 0.0146285714286023  8.04205714285713 0.00914285714281959  8 0.00914285714281959  C 7.71108571428572 0.00914285714281959  7.47702857142859 0.243200000000002  7.47702857142859 0.532114285714215  C 7.47702857142859 0.813714285714354  7.70011428571429 1.04228571428575  7.9798857142857 1.05325714285709  L 7.9798857142857 1.05508571428572  L 8 1.05508571428572  C 11.8582857142857 1.05508571428572  14.9449142857143 4.15268571428578  14.9449142857143 8.0073142857143  C 14.9449142857143 11.8619428571428  11.8582857142857 14.9321142857143  8 14.9321142857143  C 4.14171428571429 14.9321142857143  1.05508571428572 11.8619428571428  1.05508571428572 8.0073142857143  L 1.05508571428572 7.9926857142857  C 1.05508571428572 7.70377142857137  0.821028571428592 7.4697142857143  0.532114285714265 7.4697142857143  C 0.243199999999987 7.4697142857143  0.00914285714285512 7.70377142857137  0.00914285714285512 7.9926857142857  L 0.00914285714285512 8.0073142857143  C 0.00914285714285512 12.4159999999999  3.58765714285715 15.9908571428572  8 15.9908571428572  C 12.4123428571429 15.9908571428572  15.9908571428571 12.4159999999999  15.9908571428571 8.0073142857143  Z " fill-rule="nonzero" fill="#ffffff" stroke="none" transform="matrix(1 0 0 1 34 584 )" />
  </g>
</svg>