<?xml version="1.0" encoding="utf-8"?>
<svg version="1.1" xmlns:xlink="http://www.w3.org/1999/xlink" width="16px" height="16px" xmlns="http://www.w3.org/2000/svg">
  <g transform="matrix(1 0 0 1 -34 -945 )">
    <path d="M 12.0412689655172 14.0393931034483  L 11.598124137931 9.64325517241377  L 14.5412413793103 6.34879999999998  L 10.2227862068966 5.41307586206892  L 8 1.5960275862069  L 5.77544827586208 5.41307586206892  L 1.45699310344828 6.34879999999998  L 4.40011034482758 9.64325517241377  L 3.9552 14.0393931034483  L 7.99823448275862 12.2579862068966  L 12.0412689655172 14.0393931034483  Z M 12.417324137931 15.2770206896552  L 8 13.3296551724138  L 3.58091034482759 15.2770206896552  C 3.33373793103448 15.3864827586207  3.04419310344828 15.2734896551724  2.93473103448277 15.0263172413794  C 2.90118620689655 14.9486344827586  2.88706206896552 14.8638896551724  2.89588965517241 14.7791448275863  L 3.38140689655172 9.97517241379308  L 0.164634482758615 6.37351724137932  C -0.0154482758620702 6.1722482758621  0.00220689655172635 5.86151724137937  0.20347586206897 5.68143448275862  C 0.267034482758618 5.62493793103454  0.342951724137933 5.58609655172415  0.425931034482758 5.56844137931034  L 5.14692413793104 4.54620689655178  L 7.57627586206897 0.374289655172447  C 7.71222068965517 0.139475862068934  8.01235862068965 0.0617931034482808  8.24717241379309 0.197737931034453  C 8.32132413793104 0.240110344827599  8.38135172413793 0.30190344827588  8.42372413793103 0.374289655172447  L 10.8530758620689 4.54620689655178  L 15.5723034482758 5.56844137931034  C 15.8371310344828 5.62493793103454  16.0048551724138 5.8862344827586  15.9483586206896 6.15106206896553  C 15.9307034482759 6.23404137931038  15.8918620689655 6.30995862068971  15.8353655172414 6.37351724137932  L 12.6168275862069 9.97517241379308  L 13.1023448275862 14.7791448275863  C 13.1288275862069 15.0492689655173  12.9328551724138 15.2893793103449  12.6644965517241 15.3158620689655  C 12.5797517241379 15.3246896551724  12.4950068965517 15.3105655172415  12.417324137931 15.2770206896552  Z " fill-rule="nonzero" fill="#ffffff" stroke="none" transform="matrix(1 0 0 1 34 945 )" />
  </g>
</svg>