<?xml version="1.0" encoding="utf-8"?>
<svg version="1.1" xmlns:xlink="http://www.w3.org/1999/xlink" width="20px" height="20px" xmlns="http://www.w3.org/2000/svg">
  <g transform="matrix(1 0 0 1 -330 -30 )">
    <path d="M 19.9795087719298 10  C 19.9795087719298 15.5107368421053  15.5129824561403 19.9795087719298  10 19.9795087719298  C 4.48701754385968 19.9795087719298  0.0204912280702274 15.5107368421053  0.0204912280702274 10  C 0.0204912280702274 4.48926315789472  4.48701754385968 0.0204912280701564  10 0.0204912280701564  C 15.5129824561403 0.0204912280701564  19.9795087719298 4.48926315789472  19.9795087719298 10  Z M 13.0787368421053 6.03424561403508  L 9.99326315789477 9.12196491228069  L 6.90554385964913 6.03424561403508  C 6.66301754385967 5.79171929824561  6.26778947368422 5.79171929824561  6.02301754385962 6.03424561403508  C 5.78049122807016 6.27677192982456  5.78049122807016 6.67199999999998  6.02301754385962 6.91677192982456  L 9.11073684210521 10.0044912280702  L 6.02301754385962 13.0922105263158  C 5.78049122807016 13.3347368421053  5.78049122807016 13.7299649122807  6.02301754385962 13.9747368421053  C 6.26554385964909 14.2172631578947  6.66077192982459 14.2172631578947  6.90554385964913 13.9747368421053  L 9.99326315789477 10.8870175438597  L 13.0809824561404 13.9747368421053  C 13.3235087719298 14.2172631578947  13.7187368421052 14.2172631578947  13.9635087719298 13.9747368421053  C 14.2082807017544 13.7322105263158  14.2060350877193 13.3369824561404  13.9635087719298 13.0922105263158  L 10.8735438596491 10.0044912280702  L 13.9612631578947 6.91677192982456  C 14.2037894736842 6.67424561403509  14.2037894736842 6.27901754385967  13.9612631578947 6.03424561403508  C 13.7187368421052 5.79171929824561  13.3235087719298 5.79171929824561  13.0787368421053 6.03424561403508  Z " fill-rule="nonzero" fill="#c8c9cc" stroke="none" transform="matrix(1 0 0 1 330 30 )" />
  </g>
</svg>