<?xml version="1.0" encoding="utf-8"?>
<svg version="1.1" xmlns:xlink="http://www.w3.org/1999/xlink" width="11px" height="19px" xmlns="http://www.w3.org/2000/svg">
  <g transform="matrix(1 0 0 1 -426 -81 )">
    <path d="M 0.368585834333771 10.2345632653061  C 0.229138055222052 10.0980734693878  0.130256902761062 9.92435918367347  0.0871548619447822 9.73575510204081  C 0.00602160864343659 9.39825306122449  0.0998319327730997 9.02848979591837  0.368585834333771 8.76543673469387  L 8.83433373349339 0.479265306122446  C 9.247606242497 0.0747591836734678  9.91695558223284 0.0747591836734678  10.3276926770708 0.479265306122446  C 10.7384297719087 0.883771428571427  10.7409651860744 1.53892244897959  10.3276926770708 1.94094693877551  L 2.60735654261703 9.5  L 10.3302280912364 17.0590530612245  C 10.7435006002401 17.4635591836735  10.7435006002401 18.1187102040816  10.3302280912364 18.5207346938776  C 9.91695558223284 18.9227591836735  9.247606242497 18.9252408163265  8.83686914765906 18.5207346938776  L 0.368585834333771 10.2345632653061  Z " fill-rule="nonzero" fill="#969799" stroke="none" transform="matrix(1 0 0 1 426 81 )" />
  </g>
</svg>