<?xml version="1.0" encoding="utf-8"?>
<svg version="1.1" xmlns:xlink="http://www.w3.org/1999/xlink" width="16px" height="16px" xmlns="http://www.w3.org/2000/svg">
  <g transform="matrix(1 0 0 1 -16 -721 )">
    <path d="M 0 8  C 0 12.4000000000001  3.60000000000001 16  8 16  C 12.4 16  16 12.4000000000001  16 8  C 16 3.59999999999991  12.4 0  8 0  C 3.60000000000001 0  0 3.59999999999991  0 8  Z M 1.14285714285714 8  C 1.14285714285714 4.2285714285714  4.22857142857144 1.14285714285722  8 1.14285714285722  C 11.7714285714286 1.14285714285722  14.8571428571429 4.2285714285714  14.8571428571429 8  C 14.8571428571429 11.7714285714286  11.7714285714286 14.8571428571428  8 14.8571428571428  C 4.22857142857144 14.8571428571428  1.14285714285714 11.7714285714286  1.14285714285714 8  Z M 10.9026548672566 8  C 10.9026548672566 6.39690798279207  9.60309201720796 5.09734513274338  8 5.09734513274338  C 6.39690798279202 5.09734513274338  5.09734513274336 6.39690798279207  5.09734513274336 8  C 5.09734513274336 9.60309201720793  6.39690798279202 10.9026548672566  8 10.9026548672566  C 9.60309201720796 10.9026548672566  10.9026548672566 9.60309201720793  10.9026548672566 8  Z " fill-rule="nonzero" fill="#1989fa" stroke="none" transform="matrix(1 0 0 1 16 721 )" />
  </g>
</svg>