<?xml version="1.0" encoding="utf-8"?>
<svg version="1.1" xmlns:xlink="http://www.w3.org/1999/xlink" width="18px" height="18px" xmlns="http://www.w3.org/2000/svg">
  <g transform="matrix(1 0 0 1 -335 -106 )">
    <path d="M 17.6180571428571 1.99748571428572  L 10.6155428571429 9  L 17.6180571428571 16.0025142857143  C 18.0651428571429 16.4496  18.0651428571429 17.1737142857143  17.6180571428571 17.6180571428572  C 17.1709714285714 18.0624  16.4468571428571 18.0651428571429  16.0025142857143 17.6180571428572  L 9 10.6155428571429  L 1.99748571428574 17.6208  C 1.55040000000002 18.0678857142857  0.826285714285746 18.0678857142857  0.38194285714286 17.6208  C -0.0651428571428596 17.1737142857143  -0.0651428571428596 16.4496  0.38194285714286 16.0052571428571  L 7.38445714285712 9  L 0.379200000000026 1.99748571428572  C -0.0678857142856941 1.5504  -0.0678857142856941 0.826285714285717  0.379200000000026 0.381942857142846  C 0.826285714285746 -0.0651428571428738  1.55040000000002 -0.0651428571428738  1.99474285714285 0.381942857142846  L 9 7.38445714285713  L 16.0025142857143 0.381942857142846  C 16.4496 -0.0651428571428738  17.1737142857143 -0.0651428571428738  17.6180571428571 0.381942857142846  C 18.0651428571429 0.829028571428566  18.0651428571429 1.55314285714284  17.6180571428571 1.99748571428572  Z " fill-rule="nonzero" fill="#c8c9cc" stroke="none" transform="matrix(1 0 0 1 335 106 )" />
  </g>
</svg>