<?xml version="1.0" encoding="utf-8"?>
<svg version="1.1" xmlns:xlink="http://www.w3.org/1999/xlink" width="15px" height="15px" xmlns="http://www.w3.org/2000/svg">
  <g transform="matrix(1 0 0 1 -208 -13 )">
    <path d="M 14.9846315789474 7.5  C 14.9846315789474 11.633052631579  11.6347368421053 14.9846315789474  7.5 14.9846315789474  C 3.36526315789473 14.9846315789474  0.0153684210526421 11.633052631579  0.0153684210526421 7.5  C 0.0153684210526421 3.36694736842104  3.36526315789473 0.0153684210526279  7.5 0.0153684210526279  C 11.6347368421053 0.0153684210526279  14.9846315789474 3.36694736842104  14.9846315789474 7.5  Z M 3.81831578947367 7.19684210526317  C 3.72568421052631 7.30631578947369  3.74252631578949 7.4578947368421  3.84694736842107 7.55557894736842  L 6.16442105263161 9.71642105263159  C 6.33452631578945 9.87473684210526  6.60568421052631 9.88147368421053  6.77242105263156 9.7282105263158  L 12.0894736842105 4.77157894736843  C 12.2006315789474 4.66715789473684  12.209052631579 4.51052631578947  12.102947368421 4.41115789473685  L 11.9816842105263 4.29663157894738  C 11.884 4.20568421052631  11.7088421052632 4.19894736842106  11.5976842105263 4.28315789473684  L 6.64273684210528 8.03557894736843  C 6.55010526315789 8.10631578947369  6.38 8.11305263157894  6.28063157894735 8.05242105263158  L 4.40610526315788 6.88357894736843  C 4.28821052631577 6.81115789473684  4.12315789473683 6.83642105263159  4.03389473684211 6.94084210526315  L 3.81831578947367 7.19684210526317  Z " fill-rule="nonzero" fill="#ee0a24" stroke="none" transform="matrix(1 0 0 1 208 13 )" />
  </g>
</svg>