<?xml version="1.0" encoding="utf-8"?>
<svg version="1.1" xmlns:xlink="http://www.w3.org/1999/xlink" width="30px" height="24px" xmlns="http://www.w3.org/2000/svg">
  <g transform="matrix(1 0 0 1 -32 -26 )">
    <path d="M 28.0997894736842 23  C 29.1338947368421 22.9932021466905  29.9726315789474 22.1379606440072  30 21.0835062611807  L 30 1.99685152057245  C 29.9692631578947 0.942397137745985  29.1338947368421 0.090590339892664  28.0997894736842 0  L 1.9002105263158 0  C 0.866105263157884 0.090590339892664  0.0273684210526426 0.942397137745985  0 2.0002862254025  L 0 21.0835062611807  C 0.0273684210526426 22.1379606440072  0.866105263157884 22.9932021466905  1.9002105263158 23  L 28.0997894736842 23  Z M 2 2  L 28 2  L 28 15.0349910554562  L 20.184 5.62046511627908  C 19.8101052631579 5.17738819320214  19.288 4.95413237924866  18.7625263157895 4.95413237924866  C 18.2303157894737 4.95413237924866  17.6981052631579 5.18425760286227  17.3242105263158 5.64450805008946  L 9.38484210526316 15.3544186046512  L 6.96631578947367 12.8883005366726  C 6.59915789473684 12.5139177101968  6.12084210526316 12.3284436493739  5.64252631578948 12.3284436493739  C 5.1642105263158 12.3284436493739  4.68589473684209 12.5139177101968  4.31873684210526 12.8883005366726  L 2 15.3544186046512  L 2 2  Z M 5.60218814229248 6.82515553412106  C 5.60218814229248 8.45795032553654  6.90429723320157 9.78193392814083  8.51011541501977 9.78193392814083  C 10.1194245059289 9.78193392814083  11.418042687747 8.45795032553654  11.418042687747 6.82515553412106  C 11.418042687747 5.19236074270557  10.1159335968379 3.86837714010128  8.51011541501977 3.86837714010128  C 6.90080632411066 3.86837714010128  5.60218814229248 5.19236074270557  5.60218814229248 6.82515553412106  Z M 10.8231578947368 16.5737388193202  L 18.7591578947368 6.86039355992845  L 28.1739130434782 17.968228980322  L 28.1739130434782 21  L 1.82608695652173 21  L 1.82608695652173 18.0540966010734  L 5.64252631578948 14.2381395348837  L 8.06105263157895 16.7042576028622  C 8.83915789473686 17.4976744186047  10.1191578947368 17.4358497316637  10.8231578947368 16.5737388193202  Z M 7.53964268774703 6.82515553412106  C 7.53964268774703 6.28207378828068  7.97251541501975 5.83837955148301  8.51011541501977 5.83837955148301  C 9.04422450592887 5.83837955148301  9.48058814229248 6.28207378828068  9.48058814229248 6.82515553412106  C 9.48058814229248 7.36823727996143  9.04422450592887 7.81193151675911  8.51011541501977 7.81193151675911  C 7.97600632411069 7.81193151675911  7.53964268774703 7.36823727996143  7.53964268774703 6.82515553412106  Z " fill-rule="nonzero" fill="#323233" stroke="none" transform="matrix(1 0 0 1 32 26 )" />
  </g>
</svg>