<?xml version="1.0" encoding="utf-8"?>
<svg version="1.1" xmlns:xlink="http://www.w3.org/1999/xlink" width="85px" height="65px" xmlns="http://www.w3.org/2000/svg">
  <g transform="matrix(1 0 0 1 -20 -14 )">
    <path d="M 20 14  L 105 14  L 105 79  L 20 79  L 20 14  " fill-rule="nonzero" fill="#cccccc" stroke="none" />
    <path d="M 25 19  L 100 19  L 100 74  L 25 74  L 25 19  " fill-rule="nonzero" fill="#ffffff" stroke="none" />
    <path d="M 69.075 33.5  C 66.345 33.5  64.2 31.355  64.2 28.625  C 64.2 25.895  66.345 23.75  69.075 23.75  C 71.805 23.75  73.95 25.895  73.95 28.625  C 73.95 31.355  71.805 33.5  69.075 33.5  " fill-rule="nonzero" fill="#cccccc" stroke="none" />
    <path d="M 27 73  L 27 44.4  L 45 31.4  L 70.2 49.1411764705882  L 84.6 39.2  L 99 49.1411764705882  L 99 73  L 27 73  " fill-rule="nonzero" fill="#169bd5" stroke="none" />
  </g>
</svg>