<?xml version="1.0" encoding="utf-8"?>
<svg version="1.1" xmlns:xlink="http://www.w3.org/1999/xlink" width="25px" height="25px" xmlns="http://www.w3.org/2000/svg">
  <g transform="matrix(1 0 0 1 -269 -1196 )">
    <path d="M 1.90923076923076 9.40730769230777  C 1.90923076923076 13.6565384615385  5.35230769230768 17.0996153846154  9.60153846153844 17.0996153846154  C 13.8507692307692 17.0996153846154  17.2938461538461 13.6565384615385  17.2938461538461 9.40730769230777  C 17.2938461538461 5.15807692307681  13.8507692307692 1.71500000000015  9.60153846153844 1.71500000000015  C 5.35230769230768 1.71500000000015  1.90923076923076 5.15807692307681  1.90923076923076 9.40730769230777  Z M 19.0046153846154 9.40730769230777  C 19.0015384615385 11.6719230769231  18.2015384615385 13.7488461538462  16.8692307692307 15.3734615384615  L 24.5523076923077 23.0565384615386  C 24.8846153846154 23.3888461538461  24.8846153846154 23.9303846153846  24.5523076923077 24.2657692307694  C 24.22 24.5980769230769  23.6784615384615 24.5980769230769  23.3430769230769 24.2657692307694  L 15.6692307692308 16.5888461538461  C 14.0323076923077 17.9734615384616  11.9153846153847 18.8073076923079  9.60153846153844 18.8073076923079  C 4.40769230769232 18.8073076923079  0.198461538461544 14.5980769230771  0.198461538461544 9.40730769230777  C 0.198461538461544 4.21653846153868  4.40769230769232 0.00423076923084409  9.60153846153844 0.00423076923084409  C 14.7953846153846 0.00423076923084409  19.0046153846154 4.21346153846162  19.0046153846154 9.40730769230777  Z " fill-rule="nonzero" fill="#333333" stroke="none" transform="matrix(1 0 0 1 269 1196 )" />
  </g>
</svg>