<?xml version="1.0" encoding="utf-8"?>
<svg version="1.1" xmlns:xlink="http://www.w3.org/1999/xlink" width="27px" height="24px" xmlns="http://www.w3.org/2000/svg">
  <g transform="matrix(1 0 0 1 -80 -1197 )">
    <path d="M 3.98978128100623 24  C 2.96837371595081 23.8584396661756  2.13993565829998 23.0573368679431  2.05551149881046 22.0696318114874  L 2.05551149881046 17.5461356897399  L 2.14326271877248 17.5461356897399  C 2.14326271877248 17.0152844378988  2.38613813326448 16.5133887088855  2.80867481327112 16.1723569955818  L 12.0512488058573 8.72435306823763  C 12.7366232631909 8.1709808541973  13.7314143444664 8.1709808541973  14.4167888018 8.72435306823763  L 23.6593627943862 16.1723569955818  C 24.0818994743928 16.5133887088855  24.3247748888848 17.0152844378988  24.4091990483743 17.5461356897399  L 24.4091990483743 22.0696318114874  C 24.3247748888848 23.0573368679431  23.496336831234 23.8584396661756  22.4749292661786 24  L 3.98978128100623 24  Z M 24.8427870317675 11.634113445931  L 13.2323552735924 1.9406361044089  L 1.61860245370154 11.634113445931  C 1.23003823296171 11.9575527966661  0.648852432709788 11.9155056810705  0.316746261137286 11.5370816407108  C -0.0153599104352159 11.1618919938583  0.0311349535849202 10.592638736565  0.416378112609048 10.2691993858302  L 12.0301309324999 0.572487650800667  C 12.7209117693707 -0.00323439350722765  13.7404777160983 -0.00323439350722765  14.4312585529692 0.572487650800667  L 26.04501137286 10.2691993858302  C 26.4302545318841 10.592638736565  26.4767493959043 11.158657600351  26.1446432243318 11.5370816407108  C 25.8125370527593 11.9155056810705  25.2313512525073 11.9575527966661  24.8427870317675 11.634113445931  Z M 22.6106264869151 22  L 22.6106264869151 17.5461356897399  L 13.2323552735924 10.0981317623957  L 3.85408406026961 17.5461356897399  L 3.85408406026961 22  L 22.6106264869151 22  Z " fill-rule="nonzero" fill="#323233" stroke="none" transform="matrix(1 0 0 1 80 1197 )" />
  </g>
</svg>