<?xml version="1.0" encoding="utf-8"?>
<svg version="1.1" xmlns:xlink="http://www.w3.org/1999/xlink" width="10px" height="10px" xmlns="http://www.w3.org/2000/svg">
  <g transform="matrix(1 0 0 1 -16 -35 )">
    <path d="M 9.98975438596491 5  C 9.98975438596491 7.75536842105262  7.75649122807018 9.98975438596491  5 9.98975438596491  C 2.24350877192982 9.98975438596491  0.0102456140350888 7.75536842105262  0.0102456140350888 5  C 0.0102456140350888 2.24463157894738  2.24350877192982 0.0102456140350853  5 0.0102456140350853  C 7.75649122807018 0.0102456140350853  9.98975438596491 2.24463157894738  9.98975438596491 5  Z M 2.54554385964913 4.7978947368421  C 2.4837894736842 4.87087719298245  2.49501754385965 4.97192982456141  2.56463157894736 5.03705263157894  L 4.10961403508772 6.47761403508773  C 4.22301754385966 6.58315789473684  4.40378947368422 6.58764912280702  4.51494736842105 6.48547368421052  L 8.05964912280703 3.18105263157895  C 8.13375438596492 3.11143859649121  8.13936842105262 3.00701754385966  8.06863157894738 2.94077192982456  L 7.98778947368421 2.86442105263157  C 7.92266666666667 2.80378947368422  7.80589473684211 2.79929824561404  7.73178947368422 2.85543859649124  L 4.42849122807019 5.35705263157894  C 4.36673684210526 5.40421052631578  4.25333333333332 5.40870175438596  4.18708771929824 5.3682807017544  L 2.93740350877194 4.58905263157894  C 2.85880701754386 4.54077192982456  2.74877192982457 4.55761403508774  2.68926315789473 4.62722807017545  L 2.54554385964913 4.7978947368421  Z " fill-rule="nonzero" fill="#07c160" stroke="none" transform="matrix(1 0 0 1 16 35 )" />
  </g>
</svg>