<?xml version="1.0" encoding="utf-8"?>
<svg version="1.1" xmlns:xlink="http://www.w3.org/1999/xlink" width="4px" height="7px" xmlns="http://www.w3.org/2000/svg">
  <g transform="matrix(1 0 0 1 -239 -307 )">
    <path d="M 3.86216296296294 3.22937142857143  C 3.96266666666668 3.32628571428569  3.99774814814816 3.46251428571429  3.96740740740739 3.58685714285713  C 3.95034074074073 3.65634285714287  3.91431111111109 3.71942857142858  3.86216296296294 3.76971428571426  L 0.696296296296282 6.82342857142856  C 0.541748148148145 6.97245714285714  0.291437037037042 6.97245714285714  0.137837037037059 6.82342857142856  C -0.015762962962981 6.67439999999999  -0.0167111111111353 6.43302857142857  0.137837037037059 6.28491428571431  L 3.02494814814816 3.5  L 0.137837037037059 0.715085714285692  C -0.0167111111111353 0.566057142857119  -0.0167111111111353 0.324685714285692  0.137837037037059 0.176571428571435  C 0.292385185185196 0.027542857142862  0.542696296296299 0.027542857142862  0.696296296296282 0.176571428571435  L 3.86216296296294 3.22937142857143  Z " fill-rule="nonzero" fill="#323233" stroke="none" transform="matrix(1 0 0 1 239 307 )" />
  </g>
</svg>