<?xml version="1.0" encoding="utf-8"?>
<svg version="1.1" xmlns:xlink="http://www.w3.org/1999/xlink" width="10px" height="7px" xmlns="http://www.w3.org/2000/svg">
  <g transform="matrix(1 0 0 1 -346 -305 )">
    <path d="M 2.86880000000002 6.80524444444444  L 0.128319999999974 4.14462222222221  C 0.00416000000001304 4.02391111111109  -0.0163200000000074 3.83600000000001  0.0937599999999748 3.70159999999998  L 0.349760000000003 3.38799999999998  C 0.454720000000009 3.25982222222223  0.650559999999984 3.22746666666666  0.790079999999989 3.31706666666668  L 3.00704000000002 4.75564444444444  C 3.12351999999998 4.83155555555555  3.32576 4.82159999999999  3.43455999999998 4.73573333333331  L 9.29183999999998 0.115111111111105  C 9.42367999999999 0.0118222222222357  9.62975999999998 0.0205333333333328  9.74495999999999 0.132533333333356  L 9.88959999999997 0.273155555555547  C 10.01504 0.395111111111135  10.00608 0.588000000000022  9.87423999999999 0.716177777777773  L 3.58688000000001 6.81893333333335  C 3.39103999999998 7.00933333333336  3.06975999999997 7.0006222222222  2.86880000000002 6.80524444444444  Z " fill-rule="nonzero" fill="#3388ff" stroke="none" transform="matrix(1 0 0 1 346 305 )" />
  </g>
</svg>