<?xml version="1.0" encoding="utf-8"?>
<svg version="1.1" xmlns:xlink="http://www.w3.org/1999/xlink" width="6px" height="11px" xmlns="http://www.w3.org/2000/svg">
  <g transform="matrix(1 0 0 1 -731 -290 )">
    <path d="M 5.79324444444444 5.07472653061222  C 5.94399999999996 5.22702040816324  5.99662222222219 5.441093877551  5.95111111111112 5.63648979591835  C 5.92551111111106 5.74568163265309  5.87146666666672 5.84481632653063  5.79324444444444 5.92383673469385  L 1.04444444444448 10.7225306122449  C 0.812622222222217 10.9567183673469  0.437155555555591 10.9567183673469  0.20675555555556 10.7225306122449  C -0.0236444444444714 10.4883428571429  -0.025066666666703 10.1090448979592  0.20675555555556 9.87629387755101  L 4.53742222222218 5.5  L 0.20675555555556 1.12370612244899  C -0.025066666666703 0.889518367346966  -0.025066666666703 0.510220408163264  0.20675555555556 0.277469387755104  C 0.438577777777823 0.0432816326530769  0.814044444444448 0.0432816326530769  1.04444444444448 0.277469387755104  L 5.79324444444444 5.07472653061222  Z " fill-rule="nonzero" fill="#999999" stroke="none" transform="matrix(1 0 0 1 731 290 )" />
  </g>
</svg>