<?xml version="1.0" encoding="utf-8"?>
<svg version="1.1" xmlns:xlink="http://www.w3.org/1999/xlink" width="15px" height="14px" xmlns="http://www.w3.org/2000/svg">
  <g transform="matrix(1 0 0 1 -438 -184 )">
    <path d="M 2.2613781892075 14  C 1.68245202077218 13.9174231386025  1.21289952585234 13.4501131729668  1.16504854368932 12.8739518900344  L 1.16504854368932 10.2352458190149  L 1.21478527884398 10.2352458190149  C 1.21478527884398 9.92558258877435  1.35244524723414 9.63281008018328  1.59193587717318 9.43387491408936  L 6.83055768796568 5.08920595647194  C 7.21902280424474 4.76640549828178  7.7828629487469 4.76640549828178  8.17132806502596 5.08920595647194  L 13.4099498758185 9.43387491408936  C 13.6494405057575 9.63281008018328  13.7871004741477 9.92558258877435  13.8349514563107 10.2352458190149  L 13.8349514563107 12.8739518900344  C 13.7871004741477 13.4501131729668  13.3175479792278 13.9174231386025  12.7386218107925 14  L 2.2613781892075 14  Z M 14.0807058823529 6.78656617679317  L 7.5 1.13203772757183  L 0.917411764705882 6.78656617679317  C 0.697176470588239 6.97523913138846  0.367764705882351 6.95071164729109  0.179529411764705 6.72996429041459  C -0.00870588235294179 6.51110366308401  0.0176470588235276 6.17903926299627  0.235999999999997 5.99036630840095  L 6.81858823529411 0.333951129633704  C 7.21011764705882 -0.00188672954595859  7.788 -0.00188672954595859  8.1795294117647 0.333951129633704  L 14.7621176470588 5.99036630840095  C 14.9804705882353 6.17903926299627  15.0068235294118 6.50921693353806  14.8185882352941 6.72996429041459  C 14.6303529411765 6.95071164729109  14.3009411764706 6.97523913138846  14.0807058823529 6.78656617679317  Z M 12.8155339805825 13  L 12.8155339805825 10.2352458190149  L 7.5 5.89057686139748  L 2.18446601941747 10.2352458190149  L 2.18446601941747 13  L 12.8155339805825 13  Z " fill-rule="nonzero" fill="#323233" stroke="none" transform="matrix(1 0 0 1 438 184 )" />
  </g>
</svg>