<?xml version="1.0" encoding="utf-8"?>
<svg version="1.1" xmlns:xlink="http://www.w3.org/1999/xlink" width="15px" height="15px" xmlns="http://www.w3.org/2000/svg">
  <g transform="matrix(1 0 0 1 -719 -184 )">
    <path d="M 5.5442033898305 1.11498305084746  C 4.61837288135592 1.40461016949152  3.77064406779661 1.89762711864407  3.059593220339 2.55172881355932  C 3.25972881355932 3.24650847457627  3.18000000000001 4.00800000000001  2.80250847457626 4.66047457627118  C 2.42501694915254 5.31457627118644  1.80508474576271 5.76528813559322  1.1037966101695 5.93776271186441  C 0.999661016949148 6.40474576271187  0.945966101694921 6.88474576271187  0.945966101694921 7.37288135593221  C 0.945966101694921 7.86101694915254  0.999661016949148 8.34101694915255  1.1037966101695 8.80800000000001  C 1.80671186440679 8.98047457627119  2.42501694915254 9.43118644067798  2.80250847457626 10.0852881355932  C 3.18000000000001 10.7377627118644  3.25972881355932 11.4992542372881  3.059593220339 12.1940338983051  C 3.77064406779661 12.8497627118644  4.61837288135592 13.3411525423729  5.5442033898305 13.630779661017  C 6.04535593220339 13.1084745762712  6.74501694915253 12.7976949152543  7.5 12.7976949152543  C 8.25498305084744 12.7976949152543  8.95464406779661 13.1084745762712  9.4557966101695 13.630779661017  C 10.3816271186441 13.3411525423729  11.2293559322034 12.8497627118644  11.940406779661 12.1940338983051  C 11.7402711864407 11.4992542372881  11.82 10.7377627118644  12.1974915254237 10.0852881355932  C 12.5749830508475 9.43118644067798  13.1949152542373 8.98047457627119  13.8962033898305 8.80800000000001  C 14.0003389830509 8.34101694915255  14.0540338983051 7.86101694915254  14.0540338983051 7.37288135593221  C 14.0540338983051 6.88474576271187  14.0003389830509 6.40474576271187  13.8962033898305 5.93776271186441  C 13.1932881355932 5.76528813559322  12.5749830508475 5.31457627118644  12.1974915254237 4.66047457627118  C 11.82 4.00800000000001  11.7402711864407 3.24650847457627  11.940406779661 2.55172881355932  C 11.2293559322034 1.896  10.3816271186441 1.40461016949152  9.4557966101695 1.11498305084746  C 8.95464406779661 1.63728813559322  8.25498305084744 1.94806779661018  7.5 1.94806779661018  C 6.74501694915253 1.94806779661018  6.04535593220339 1.63728813559322  5.5442033898305 1.11498305084746  Z M 1.98894915254238 2.34996610169492  C 3.01077966101695 1.2288813559322  4.36942372881356 0.421830508474571  5.90379661016948 0.0866440677966125  C 6.20806779661018 0.657762711864407  6.80847457627118 1.04501694915254  7.5 1.04501694915254  C 8.19152542372882 1.04501694915254  8.79193220338982 0.656135593220341  9.09620338983052 0.0866440677966125  C 10.6305762711864 0.421830508474571  11.989220338983 1.2288813559322  13.0110508474576 2.34833898305085  C 12.6693559322034 2.89667796610169  12.6335593220339 3.61098305084747  12.9801355932203 4.20813559322033  C 13.3267118644068 4.8069152542373  13.9629152542373 5.13396610169492  14.6088813559322 5.11118644067797  C 14.8350508474576 5.82386440677966  14.9570847457627 6.58372881355933  14.9570847457627 7.37125423728814  C 14.9570847457627 8.15877966101695  14.8350508474576 8.91864406779662  14.6088813559322 9.63132203389831  C 13.9629152542373 9.60854237288136  13.3250847457627 9.93559322033899  12.9801355932203 10.5343728813559  C 12.635186440678 11.1331525423729  12.6693559322034 11.8458305084746  13.0110508474576 12.3941694915254  C 11.989220338983 13.5136271186441  10.6305762711864 14.3206779661017  9.09620338983052 14.6558644067797  C 8.79193220338982 14.0847457627119  8.19152542372882 13.6974915254237  7.5 13.6974915254237  C 6.80847457627118 13.6974915254237  6.20806779661018 14.0863728813559  5.90379661016948 14.6558644067797  C 4.36942372881356 14.3206779661017  3.01077966101695 13.5136271186441  1.98894915254238 12.3941694915254  C 2.33064406779661 11.8458305084746  2.36481355932204 11.1315254237288  2.01986440677965 10.5343728813559  C 1.67328813559322 9.93559322033899  1.03708474576271 9.60854237288136  0.391118644067802 9.63132203389831  C 0.164949152542363 8.92027118644069  0.0429152542373004 8.16040677966102  0.0429152542373004 7.37288135593221  C 0.0429152542373004 6.5853559322034  0.164949152542363 5.82549152542373  0.391118644067802 5.11281355932203  C 1.03708474576271 5.13559322033899  1.67491525423728 4.80854237288136  2.01986440677965 4.20976271186441  C 2.36481355932204 3.61098305084747  2.33064406779661 2.89830508474576  1.98894915254238 2.34996610169492  Z M 4.78759322033898 7.37288135593221  C 4.78759322033898 8.86983050847458  6.00305084745762 10.0852881355932  7.5 10.0852881355932  C 8.99694915254238 10.0852881355932  10.212406779661 8.87145762711864  10.212406779661 7.37288135593221  C 10.212406779661 5.87430508474577  8.99694915254238 4.66047457627118  7.5 4.66047457627118  C 6.00305084745762 4.66047457627118  4.78759322033898 5.87593220338984  4.78759322033898 7.37288135593221  Z M 9.30772881355932 7.37288135593221  C 9.30772881355932 8.37193220338983  8.49905084745762 9.18061016949153  7.5 9.18061016949153  C 6.50094915254238 9.18061016949153  5.69227118644068 8.37193220338983  5.69227118644068 7.37288135593221  C 5.69227118644068 6.37383050847458  6.50094915254238 5.56515254237289  7.5 5.56515254237289  C 8.49905084745762 5.56515254237289  9.30772881355932 6.37383050847458  9.30772881355932 7.37288135593221  Z " fill-rule="nonzero" fill="#323233" stroke="none" transform="matrix(1 0 0 1 719 184 )" />
  </g>
</svg>