<?xml version="1.0" encoding="utf-8"?>
<svg version="1.1" xmlns:xlink="http://www.w3.org/1999/xlink" width="15px" height="15px" xmlns="http://www.w3.org/2000/svg">
  <g transform="matrix(1 0 0 1 -532 -184 )">
    <path d="M 1.14553846153845 5.64438461538462  C 1.14553846153845 8.19392307692308  3.21138461538462 10.2597692307692  5.76092307692306 10.2597692307692  C 8.31046153846154 10.2597692307692  10.3763076923077 8.19392307692308  10.3763076923077 5.64438461538462  C 10.3763076923077 3.09484615384616  8.31046153846154 1.029  5.76092307692306 1.029  C 3.21138461538462 1.029  1.14553846153845 3.09484615384616  1.14553846153845 5.64438461538462  Z M 11.4027692307693 5.64438461538462  C 11.400923076923 7.00315384615385  10.9209230769231 8.2493076923077  10.1215384615385 9.22407692307692  L 14.7313846153846 13.8339230769231  C 14.9307692307692 14.0333076923077  14.9307692307692 14.3582307692308  14.7313846153846 14.5594615384615  C 14.532 14.7588461538462  14.2070769230769 14.7588461538462  14.0058461538462 14.5594615384615  L 9.40153846153845 9.9533076923077  C 8.41938461538462 10.7840769230769  7.14923076923077 11.2843846153846  5.76092307692306 11.2843846153846  C 2.64461538461538 11.2843846153846  0.119076923076932 8.75884615384616  0.119076923076932 5.64438461538462  C 0.119076923076932 2.52992307692308  2.64461538461538 0.00253846153846382  5.76092307692306 0.00253846153846382  C 8.87723076923078 0.00253846153846382  11.4027692307693 2.52807692307692  11.4027692307693 5.64438461538462  Z " fill-rule="nonzero" fill="#1989fa" stroke="none" transform="matrix(1 0 0 1 532 184 )" />
  </g>
</svg>