<?xml version="1.0" encoding="utf-8"?>
<svg version="1.1" xmlns:xlink="http://www.w3.org/1999/xlink" width="15px" height="17px" xmlns="http://www.w3.org/2000/svg">
  <g transform="matrix(1 0 0 1 -438 -415 )">
    <path d="M 8.66864516129033 15.0203870967742  C 8.89367741935484 15.3713548387096  9.1723870967742 15.7181935483871  9.50270967741936 16.0670967741935  L 1.30864516129033 16.0670967741935  C 0.674838709677417 16.0670967741935  0.160774193548392 15.5530322580645  0.160774193548392 14.9192258064516  C 0.160774193548392 14.8944516129032  0.160774193548392 14.8717419354838  0.162838709677416 14.8469677419355  L 0.844129032258067 3.95045161290324  C 0.881290322580639 3.34554838709676  1.38296774193549 2.87483870967742  1.98787096774194 2.87483870967742  L 3.01806451612903 2.87483870967742  C 3.336 1.24180645161289  4.77496774193548 0.00722580645162907  6.50090322580645 0.00722580645162907  C 8.22683870967742 0.00722580645162907  9.66580645161289 1.23974193548389  9.98374193548386 2.87483870967742  L 11.3731612903226 2.87483870967742  C 11.978064516129 2.87483870967742  12.4797419354839 3.34554838709676  12.5169032258065 3.95045161290324  L 12.9174193548387 10.3607741935484  C 12.6428387096774 10.402064516129  12.3765161290323 10.4867096774194  12.1267096774194 10.6085161290322  C 11.7571612903226 10.4268387096774  11.3504516129032 10.3298064516129  10.9313548387097 10.3298064516129  C 9.36025806451613 10.3298064516129  8.11329032258065 11.6531612903225  8.11329032258065 13.2510967741935  C 8.11329032258065 13.2985806451613  8.11535483870968 13.3357419354838  8.11741935483872 13.3770322580645  C 8.11948387096774 13.6990967741935  8.19174193548388 14.0252903225806  8.31974193548388 14.3494193548387  C 8.31148387096775 14.3267096774193  8.31148387096775 14.3267096774193  8.31561290322581 14.3390967741935  C 8.31974193548388 14.3514838709677  8.31974193548388 14.3514838709677  8.33006451612903 14.3741935483871  C 8.41883870967742 14.5930322580645  8.5323870967742 14.8056774193548  8.66864516129033 15.0203870967742  Z M 6.50503225806452 1.15716129032256  C 5.41496774193548 1.15716129032256  4.4941935483871 1.88180645161287  4.20103225806452 2.87690322580647  L 8.80903225806452 2.87690322580647  C 8.51587096774193 1.88180645161287  7.59509677419355 1.15716129032256  6.50503225806452 1.15716129032256  Z M 14.9922580645161 13.3646451612903  C 14.9963870967742 13.5174193548387  14.9633548387097 13.6825806451613  14.8931612903226 13.8663225806451  C 14.8683870967742 13.9385806451613  14.8374193548387 14.0129032258064  14.7961290322581 14.0913548387097  C 14.794064516129 14.0934193548387  14.792 14.0996129032258  14.7858064516129 14.1078709677419  C 14.7796129032258 14.1181935483871  14.7754838709677 14.1285161290322  14.7713548387097 14.1388387096774  C 14.7548387096774 14.1718709677419  14.7362580645161 14.2090322580645  14.7094193548387 14.2482580645161  C 14.0467096774194 15.4147096774194  12.3744516129032 16.6451612903226  12.3042580645161 16.7029677419355  C 12.2526451612903 16.7442580645161  12.1907096774193 16.7649032258064  12.1267096774194 16.7649032258064  C 12.0647741935484 16.7649032258064  12.0028387096774 16.7442580645161  11.9512258064516 16.7050322580645  C 11.8686451612903 16.6389677419355  9.90735483870968 15.2  9.3974193548387 13.9509677419355  C 9.39535483870968 13.9447741935484  9.39329032258064 13.9365161290322  9.38916129032258 13.9303225806452  C 9.30864516129031 13.728  9.26735483870968 13.538064516129  9.26735483870968 13.3646451612903  C 9.26735483870968 13.3563870967742  9.26735483870968 13.348129032258  9.2694193548387 13.3398709677419  C 9.26529032258064 13.3109677419355  9.26322580645162 13.282064516129  9.26322580645162 13.2531612903226  C 9.26322580645162 12.2745806451613  10.0126451612903 11.4797419354838  10.9334193548387 11.4797419354838  C 11.3876129032258 11.4797419354838  11.8170322580645 11.68  12.1308387096774 12.0227096774194  C 12.4425806451613 11.68  12.872 11.4797419354838  13.3261935483871 11.4797419354838  C 14.2469677419355 11.4797419354838  14.9963870967742 12.2766451612903  14.9963870967742 13.2531612903226  C 14.9963870967742 13.2861935483871  14.9943225806452 13.3130322580645  14.9922580645161 13.3336774193548  L 14.9922580645161 13.3646451612903  Z " fill-rule="nonzero" fill="#1989fa" stroke="none" transform="matrix(1 0 0 1 438 415 )" />
  </g>
</svg>