<?xml version="1.0" encoding="utf-8"?>
<svg version="1.1" xmlns:xlink="http://www.w3.org/1999/xlink" width="15px" height="13px" xmlns="http://www.w3.org/2000/svg">
  <g transform="matrix(1 0 0 1 -625 -537 )">
    <path d="M 0.115111111111105 10.7375555555556  L 0.115111111111105 10.7251111111111  C 0.113333333333344 8.05133333333333  2.13822222222223 5.84866666666667  4.7391111111111 5.56955555555555  L 4.7391111111111 6.56511111111111  C 2.69288888888889 6.83888888888889  1.11244444444444 8.58644444444445  1.10177777777778 10.7055555555556  C 1.10177777777778 10.7162222222222  1.10355555555554 10.7268888888889  1.10355555555554 10.7375555555556  C 1.10355555555554 11.0095555555556  0.883111111111106 11.2317777777778  0.609333333333325 11.2317777777778  C 0.337333333333333 11.2317777777778  0.115111111111105 11.0113333333333  0.115111111111105 10.7375555555556  Z M 2.23244444444444 4.09044444444444  C 2.23244444444444 2.72688888888889  3.33822222222221 1.62111111111111  4.70177777777778 1.62111111111111  C 4.97377777777777 1.62111111111111  5.196 1.84155555555556  5.196 2.11533333333333  C 5.196 2.38911111111111  4.97555555555556 2.60955555555555  4.70177777777778 2.60955555555555  C 3.88400000000001 2.60955555555555  3.22088888888888 3.27266666666667  3.22088888888888 4.09044444444444  C 3.22088888888888 4.90822222222222  3.88400000000001 5.57133333333334  4.70177777777778 5.57133333333334  L 4.70177777777778 6.55977777777778  C 3.33822222222221 6.55977777777778  2.23244444444444 5.454  2.23244444444444 4.09044444444444  Z M 5.196 6.06555555555556  C 5.19422222222221 6.33933333333334  4.97377777777777 6.55977777777778  4.70177777777778 6.55977777777778  C 4.42977777777779 6.55977777777778  4.20755555555556 6.33933333333334  4.20755555555556 6.06555555555556  C 4.20755555555556 5.79355555555556  4.428 5.57133333333334  4.70177777777778 5.57133333333334  C 4.97555555555556 5.57133333333334  5.196 5.79177777777778  5.196 6.06555555555556  Z M 8.95777777777778 7.50555555555556  C 6.23066666666665 7.50555555555556  4.02266666666668 9.71711111111111  4.02266666666668 12.4442222222222  L 3.03422222222221 12.4442222222222  C 3.03422222222221 9.17133333333334  5.68666666666667 6.51888888888889  8.95955555555557 6.51888888888889  C 12.2324444444444 6.51888888888889  14.8848888888889 9.17133333333334  14.8848888888889 12.4442222222222  L 13.8964444444445 12.4442222222222  C 13.8964444444445 9.71711111111111  11.6848888888889 7.50555555555556  8.95777777777778 7.50555555555556  Z M 4.02266666666668 12.4442222222222  C 4.02266666666668 12.7162222222222  3.80222222222221 12.9384444444444  3.52844444444443 12.9384444444444  C 3.25644444444444 12.9384444444444  3.03422222222221 12.718  3.03422222222221 12.4442222222222  C 3.03422222222221 12.1722222222222  3.25466666666668 11.95  3.52844444444443 11.95  C 3.80044444444445 11.95  4.02266666666668 12.1704444444444  4.02266666666668 12.4442222222222  Z M 14.8866666666667 12.4442222222222  C 14.8866666666667 12.7162222222222  14.6662222222222 12.9384444444444  14.3924444444444 12.9384444444444  C 14.1204444444444 12.9384444444444  13.8982222222222 12.718  13.8982222222222 12.4442222222222  C 13.8982222222222 12.1722222222222  14.1186666666667 11.95  14.3924444444444 11.95  C 14.6644444444445 11.95  14.8866666666667 12.1704444444444  14.8866666666667 12.4442222222222  Z M 6.51866666666666 3.57488888888889  C 6.51866666666666 4.93844444444444  7.62444444444444 6.04422222222222  8.988 6.04422222222222  C 10.3515555555556 6.04422222222222  11.4573333333333 4.93844444444444  11.4573333333333 3.57488888888889  C 11.4573333333333 2.21133333333334  10.3515555555556 1.10555555555555  8.988 1.10555555555555  C 7.62444444444444 1.10555555555555  6.51866666666666 2.21133333333334  6.51866666666666 3.57488888888889  Z M 12.444 3.57488888888889  C 12.444 5.48422222222222  10.8973333333333 7.03088888888889  8.988 7.03088888888889  C 7.07866666666666 7.03088888888889  5.53200000000001 5.48244444444445  5.53200000000001 3.57488888888889  C 5.53200000000001 1.66555555555556  7.08044444444445 0.11888888888889  8.988 0.11888888888889  C 10.8955555555555 0.11888888888889  12.444 1.66733333333333  12.444 3.57488888888889  Z " fill-rule="nonzero" fill="#07c160" stroke="none" transform="matrix(1 0 0 1 625 537 )" />
  </g>
</svg>