<?xml version="1.0" encoding="utf-8"?>
<svg version="1.1" xmlns:xlink="http://www.w3.org/1999/xlink" width="8px" height="14px" xmlns="http://www.w3.org/2000/svg">
  <g transform="matrix(1 0 0 1 -351 -15 )">
    <path d="M 6.99920149393091 6.76905299145295  C 7.18162838468717 6.95459829059826  7.24530569561159 7.21541196581194  7.190233426704 7.45347008547009  C 7.15925527544351 7.58650256410255  7.09385695611576 7.70728205128194  6.99920149393091 7.80355555555565  L 1.25275443510736 13.6499829059829  C 0.97223006535944 13.9353025641027  0.517883846872081 13.9353025641027  0.239080485527552 13.6499829059829  C -0.0397228758169916 13.3646632478632  -0.0414438842203708 12.9025504273504  0.239080485527552 12.6189811965812  L 5.47955107376281 7.28717948717946  L 0.239080485527552 1.95537777777776  C -0.0414438842203708 1.67005811965817  -0.0414438842203708 1.20794529914536  0.239080485527552 0.924376068375977  C 0.519604855275418 0.639056410256444  0.973951073762834 0.639056410256444  1.25275443510736 0.924376068375977  L 6.99920149393091 6.76905299145295  Z " fill-rule="nonzero" fill="#969799" stroke="none" transform="matrix(1 0 0 1 351 15 )" />
  </g>
</svg>