<?xml version="1.0" encoding="utf-8"?>
<svg version="1.1" xmlns:xlink="http://www.w3.org/1999/xlink" width="14px" height="14px" xmlns="http://www.w3.org/2000/svg">
  <g transform="matrix(1 0 0 1 -57 -15 )">
    <path d="M 11.9593817123894 2.15360892699115  C 10.6018550951327 0.796066466814157  8.82813717477877 0.122255557522136  7.05441926991153 0.122255557522136  C 5.28070134955751 0.122255557522136  3.50699928761065 0.796066466814157  2.14945682743365 2.15360892699115  C -0.555707435840709 4.85877319026549  -0.555707435840709 9.25836953318583  2.14945682743365 11.9635337964602  C 3.50699928761065 13.3210762566372  5.28070134955751 13.9948871659292  7.05441926991153 13.9948871659292  C 8.82813719026549 13.9948871659292  10.6018550951327 13.3210762566372  11.9593817123894 11.9635337964602  C 14.6645459756637 9.25836953318583  14.6645459756637 4.85877319026549  11.9593817123894 2.15360892699115  Z M 4.70598587831858 1.27170235840708  C 5.4491620022124 0.974431902654869  6.24187791592919 0.81589189159291  7.05441926991153 0.81589189159291  C 7.86696060840709 0.81589189159291  8.6596765376106 0.974431902654869  9.40285266150443 1.27170235840708  C 10.1757590088496 1.58879823893804  10.8693794845133 2.04460870575222  11.4639203960177 2.64905438495575  C 12.068366090708 3.24359528097346  12.5241924004425 3.93723161504426  12.8412724225664 4.71012211946902  C 13.1385428783186 5.45329824336283  13.2970828893805 6.24601417256636  13.2970828893805 7.05855551106195  C 13.2970828893805 7.87109684955751  13.1385428783186 8.66381277876107  12.8412724225664 9.40698890265488  C 12.5241924004425 10.17989525  12.0683660752213 10.8735157256637  11.4639203960177 11.4680566371682  C 10.8693795 12.0725023318584  10.1757431659292 12.5283286415929  9.40285266150443 12.8454086637168  C 8.6596765376106 13.142679119469  7.86696060840709 13.301219130531  7.05441926991153 13.301219130531  C 6.24187793141591 13.301219130531  5.4491620022124 13.142679119469  4.70598587831858 12.8454086637168  C 3.93307953097346 12.5283127831859  3.23945905530973 12.0725023163717  2.64491814380529 11.4680566371682  C 2.04047244911504 10.8735157411504  1.58464613938055 10.1798794070796  1.26756611725664 9.40698890265488  C 0.970295661504444 8.66381277876107  0.811755650442485 7.87109684955751  0.811755650442485 7.05855551106195  C 0.811755650442485 6.24601417256636  0.970295661504444 5.45329824336283  1.26756611725664 4.71012211946902  C 1.5846619977876 3.93721577212391  2.04047246460175 3.24359529646017  2.64491814380529 2.64905438495575  C 3.23945903982301 2.04460869026548  3.93309537389379 1.58878238053097  4.70598587831858 1.27170235840708  Z M 7.5894997345133 10.1105300044248  C 7.58951557743362 9.81327540707965  7.351689710177 9.57544953982301  7.05441926991153 9.57544953982301  C 6.76705361283184 9.57544953982301  6.51933880530976 9.8132595641593  6.51933880530976 10.1105300044248  C 6.51933880530976 10.3978956615044  6.76706945575222 10.6357056858407  7.05441926991153 10.6357056858407  C 7.35168972566373 10.6357056858407  7.5894997345133 10.3978956615044  7.5894997345133 10.1105300044248  Z M 8.7191369380531 4.04621599336283  C 8.31286627654868 3.669675539823  7.75796038716814 3.48140530530973  7.06433989601769 3.48140530530973  C 6.41033856858409 3.48140530530973  5.88516288716816 3.6498659579646  5.4888128517699 4.00658098672566  C 5.09244697345132 4.35339123230088  4.84473215044246 4.8587573318584  4.76546215265489 5.52266345796461  L 5.66717828761063 5.63166367920354  C 5.73654350221241 5.13621820575221  5.90498831194688 4.76958253539822  6.15271896238939 4.5416773097345  C 6.40044961283186 4.30386728539823  6.70762486725665 4.1948670641593  7.0742605221239 4.1948670641593  C 7.46070577433628 4.1948670641593  7.78770643805308 4.32367686725663  8.05524667035399 4.58131231637168  C 8.31288211946901 4.82904296681416  8.44169192256636 5.12631342256637  8.44169192256636 5.4731236681416  C 8.44169192256636 5.6514891039823  8.40205691592919 5.82985455530973  8.31288211946901 5.98839456637169  C 8.22370732300883 6.14693457743363  8.02551646238938 6.35503023672566  7.72824600663719 6.62257046902655  C 7.42107076769911 6.89011070132743  7.21297510840709 7.08830157743364  7.0940701039823 7.22701616371682  C 6.94543487610618 7.41528639823008  6.82652987168139 7.60355661725663  6.75716465707966 7.79182685176992  C 6.65806921902655 8.03955750221238  6.60852942920354 8.3368279579646  6.60852942920354 8.67373342035398  L 6.61843421238938 8.94127365265487  L 7.45078513274334 8.94127365265487  C 7.46068991592918 8.59446340707964  7.48051534070794 8.3368279579646  7.52015034734512 8.1881927300885  C 7.56969013716813 8.02965271902654  7.62915056858407 7.89092227433629  7.71832536504425 7.7720172699115  C 7.80750016150443 7.65311226548673  7.98586559734511 7.46484203097344  8.27323126991151 7.21711136504426  C 8.68940673008849 6.84057091150443  8.97677238716813 6.52347503097346  9.12540761504425 6.26583958185842  C 9.2641380442478 6.00820413274337  9.3434080575221 5.72083847566371  9.3434080575221 5.41366323672566  C 9.3434080575221 4.87858277212389  9.13531239823008 4.42275644690264  8.7191369380531 4.04621599336283  Z " fill-rule="nonzero" fill="#1989fa" stroke="none" transform="matrix(1 0 0 1 57 15 )" />
  </g>
</svg>