<?xml version="1.0" encoding="utf-8"?>
<svg version="1.1" xmlns:xlink="http://www.w3.org/1999/xlink" width="12px" height="13px" xmlns="http://www.w3.org/2000/svg">
  <g transform="matrix(1 0 0 1 -15 -16 )">
    <path d="M 0.878976000000002 12.24  L 0.880511999999996 7.36166400000002  C 0.359808000000001 6.93619200000012  0.0264960000000016 6.289536  0.0264960000000016 5.56608000000006  C 0.0264960000000016 5.22047999999995  0.103296 4.88563199999999  0.247680000000003 4.57843200000002  L 0.783743999999999 2.43263999999999  C 0.878976000000002 2.05324799999994  1.219968 1.7859840000001  1.611648 1.7859840000001  L 10.388352 1.7859840000001  C 10.780032 1.7859840000001  11.121024 2.05324799999994  11.216256 2.43263999999999  L 11.75232 4.57843200000002  C 11.896704 4.884096  11.973504 5.22047999999995  11.973504 5.56608000000006  C 11.973504 6.29107199999999  11.640192 6.93772800000011  11.119488 7.36166400000002  L 11.119488 12.24  C 11.119488 12.59328  10.832256 12.880512  10.478976 12.880512  L 1.519488 12.880512  C 1.166208 12.880512  0.878976000000002 12.59328  0.878976000000002 12.24  Z M 2.345856 7.88236800000004  C 2.132352 7.88236800000004  1.928064 7.85318400000006  1.732992 7.80096000000003  L 1.732992 12.026496  L 10.267008 12.026496  L 10.267008 7.80096000000003  C 10.073472 7.85318400000006  9.867648 7.88236800000004  9.657216 7.88236800000004  C 8.913792 7.88236800000004  8.251776 7.53215999999998  7.829376 6.98841599999991  C 7.40544 7.53215999999998  6.743424 7.88236800000004  6.001536 7.88236800000004  C 5.259648 7.88236800000004  4.596096 7.53215999999998  4.173696 6.98841599999991  C 3.74976 7.53215999999998  3.087744 7.88236800000004  2.345856 7.88236800000004  Z M 1.305984 0.50649599999997  C 1.305984 0.269952000000103  1.497984 0.079488000000083  1.732992 0.079488000000083  L 10.267008 0.079488000000083  C 10.502016 0.079488000000083  10.694016 0.269952000000103  10.694016 0.50649599999997  C 10.694016 0.743040000000065  10.503552 0.933504000000085  10.267008 0.933504000000085  L 1.732992 0.933504000000085  C 1.497984 0.933504000000085  1.305984 0.743040000000065  1.305984 0.50649599999997  Z M 11.116416 5.56608000000006  C 11.119488 5.31571200000008  11.058048 5.08223999999996  10.947456 4.87641600000006  L 10.388352 2.6400000000001  L 1.611648 2.6400000000001  L 1.052544 4.87641600000006  C 0.941952000000001 5.08223999999996  0.880511999999996 5.31724800000006  0.880511999999996 5.56608000000006  C 0.880511999999996 6.37401599999998  1.534848 7.02835200000004  2.342784 7.02835200000004  C 3.15072 7.02835200000004  3.805056 6.37401599999998  3.805056 5.56608000000006  L 4.536192 5.56608000000006  C 4.536192 6.37401599999998  5.190528 7.02835200000004  5.998464 7.02835200000004  C 6.8064 7.02835200000004  7.460736 6.37401599999998  7.460736 5.56608000000006  L 8.191872 5.56608000000006  C 8.191872 6.37401599999998  8.846208 7.02835200000004  9.654144 7.02835200000004  C 10.46208 7.02835200000004  11.116416 6.37401599999998  11.116416 5.56608000000006  Z " fill-rule="nonzero" fill="#323233" stroke="none" transform="matrix(1 0 0 1 15 16 )" />
  </g>
</svg>