<?xml version="1.0" encoding="utf-8"?>
<svg version="1.1" xmlns:xlink="http://www.w3.org/1999/xlink" width="16px" height="14px" xmlns="http://www.w3.org/2000/svg">
  <g transform="matrix(1 0 0 1 -464 -181 )">
    <path d="M 0.538924137931019 0  L 1.91426206896551 0  C 2.66284137931035 0.0307720696743559  3.29136551724139 0.594453991128432  3.37611034482757 1.33893954776588  C 3.37611034482757 1.34071213242453  3.4520275862069 2.00543137942228  3.4520275862069 2  L 14.4794482758621 2  C 14.567724137931 2.00543137942228  14.6542344827586 2.01252171805692  14.7407448275862 2.02847497998485  C 15.540524137931 2.17382692199502  16.0719448275862 2.94135607919506  15.9271724137931 3.74433692956833  L 14.8678620689655 9.65236159688413  C 14.7425103448276 10.3560777063724  14.1316413793103 10.8683546727253  13.4201379310345 10.940170940171  L 4.78852413793106 10.940170940171  C 4.03994482758623 10.8683546727253  3.41142068965519 10.3046727512712  3.32667586206895 9.56018719463378  L 2.40154482758618 1.45238496592015  C 2.37329655172414 1.20422311370768  2.16320000000002 1.01632913988965  1.91426206896551 0.957264957264954  L 0.538924137931019 0.957264957264954  C 0.268799999999999 1.01632913988965  0.0481103448275917 0.796528642215719  0.0481103448275917 0.523550604782002  C 0.0481103448275917 0.250572567348257  0.267034482758618 0.0307720696743559  0.538924137931019 0  Z M 12.2704665527065 13.7799633321937  C 12.8438044601393 13.7799633321937  13.3085866666667 13.3151811256664  13.3085866666667 12.7418432182336  C 13.3085866666667 12.1685053108008  12.8438044601393 11.7037231042735  12.2704665527065 11.7037231042735  C 11.6971286452738 11.7037231042735  11.2323464387464 12.1685053108008  11.2323464387464 12.7418432182336  C 11.2323464387464 13.3151811256664  11.6971286452738 13.7799633321937  12.2704665527065 13.7799633321937  Z M 5.4650675783476 13.7799633321937  C 6.03840548578034 13.7799633321937  6.50318769230768 13.3151811256664  6.50318769230768 12.7418432182336  C 6.50318769230768 12.1685053108008  6.03840548578034 11.7037231042735  5.4650675783476 11.7037231042735  C 4.8917296709148 11.7037231042735  4.42694746438747 12.1685053108008  4.42694746438747 12.7418432182336  C 4.42694746438747 13.3151811256664  4.8917296709148 13.7799633321937  5.4650675783476 13.7799633321937  Z M 14.9614344827586 3.56885104836093  C 15.0091034482759 3.30119076490317  14.8325517241379 3.04593857405604  14.5659586206896 2.99630620361356  C 14.5377103448276 2.99098844963757  14.5076965517242 2.98921586497892  14.4794482758621 3  L 3.56502068965517 3  L 4.30300689655172 9.44674177647951  C 4.33125517241376 9.69490362869197  4.54135172413794 9.88279760251001  4.79028965517239 9.98290598290598  L 13.4201379310345 9.98290598290598  C 13.6567172413793 9.88279760251001  13.8615172413793 9.71262947527859  13.902124137931 9.47687571567673  L 14.9614344827586 3.56885104836093  Z " fill-rule="nonzero" fill="#646566" stroke="none" transform="matrix(1 0 0 1 464 181 )" />
  </g>
</svg>