<?xml version="1.0" encoding="utf-8"?>
<svg version="1.1" xmlns:xlink="http://www.w3.org/1999/xlink" width="16px" height="15px" xmlns="http://www.w3.org/2000/svg">
  <g transform="matrix(1 0 0 1 -416 -180 )">
    <path d="M 0.422400000000039 13.3489152  L 1.31345964912282 11.1204864  C 0.492463157894747 9.99244800000002  0.0163929824561251 8.64691199999999  0.0163929824561251 7.19999999999999  C 0.0163929824561251 3.2408064  3.59141052631583 0.0317951999999764  8 0.0317951999999764  C 12.4085894736842 0.0317951999999764  15.9836070175439 3.2408064  15.9836070175439 7.19999999999999  C 15.9836070175439 11.1591936  12.4103859649123 14.3682048  8 14.3682048  C 6.37237894736847 14.3682048  4.85973333333334 13.9313664  3.59859649122808 13.181184  L 1.03859649122808 14.029056  C 0.927214035087729 14.06592  0.805052631578974 14.0622336  0.695466666666675 14.0161536  C 0.4403649122807 13.909248  0.318203508771944 13.6106496  0.422400000000039 13.3489152  Z M 14.986554385965 7.19999999999999  C 14.986554385965 3.8398464  11.8858105263158 1.0566144  8 1.0566144  C 4.11418947368418 1.0566144  1.01344561403505 3.8398464  1.01344561403505 7.19999999999999  C 1.01344561403505 8.38702080000002  1.39609824561404 9.52243200000001  2.11289824561402 10.5048576  L 2.45063859649122 10.969344  L 1.75360000000001 12.7166976  L 3.71357192982452 12.066048  L 4.09802105263157 12.2946048  C 5.24058947368422 12.9747456  6.58795789473686 13.3433856  8 13.3433856  C 11.8858105263158 13.3433856  14.986554385965 10.5601536  14.986554385965 7.19999999999999  Z M 10.900376115942 7.19999999999999  C 10.900376115942 6.6045876074632  11.3732414912785 6.12191049504949  11.9565504927536 6.12191049504949  C 12.5398594942287 6.12191049504949  13.0127248695652 6.6045876074632  13.0127248695652 7.19999999999999  C 13.0127248695652 7.79541239253678  12.5398594942287 8.27808950495051  11.9565504927536 8.27808950495051  C 11.3732414912785 8.27808950495051  10.900376115942 7.79541239253678  10.900376115942 7.19999999999999  Z M 4.04344950724641 8.27808950495051  C 3.46014050577128 8.27808950495051  2.9872751304348 7.79541239253678  2.9872751304348 7.19999999999999  C 2.9872751304348 6.6045876074632  3.46014050577128 6.12191049504949  4.04344950724641 6.12191049504949  C 4.62675850872148 6.12191049504949  5.09962388405796 6.6045876074632  5.09962388405796 7.19999999999999  C 5.09962388405796 7.79541239253678  4.62675850872148 8.27808950495051  4.04344950724641 8.27808950495051  Z M 7.99991914235045 8.27813766952812  C 7.72088386577946 8.27813766952812  7.45327838080442 8.16454170008328  7.25597855434785 7.96234200371288  C 7.05864702034239 7.76015635573057  6.94778483047565 7.48591556500469  6.94778483047565 7.19996043220456  C 6.94778483047565 6.60454803966778  7.41880307543977 6.12187092725407  7.99983352612787 6.12187092725407  C 8.27886880269875 6.12187092725407  8.54647428767385 6.23546689669888  8.74377411413042 6.43766659306931  C 8.94110564813587 6.63985224105164  9.05196783800261 6.9140930317775  9.05196783800261 7.20004816457762  C 9.05196783800261 7.79546055711441  8.58094959303855 8.27813766952812  7.99991914235045 8.27813766952812  Z " fill-rule="nonzero" fill="#646566" stroke="none" transform="matrix(1 0 0 1 416 180 )" />
  </g>
</svg>