<?xml version="1.0" encoding="utf-8"?>
<svg version="1.1" xmlns:xlink="http://www.w3.org/1999/xlink" width="14px" height="16px" xmlns="http://www.w3.org/2000/svg">
  <g transform="matrix(1 0 0 1 -514 -288 )">
    <path d="M 1.02547199999998 14.28  L 1.027264 8.58860799999999  C 0.419776000000013 8.09222400000002  0.0309120000000007 7.33779200000001  0.0309120000000007 6.49376000000001  C 0.0309120000000007 6.09056000000001  0.120512000000019 5.699904  0.288959999999975 5.34150400000001  L 0.914368000000024 2.83807999999999  C 1.02547199999998 2.395456  1.42329599999999 2.08364800000001  1.88025599999997 2  L 12.119744 2  C 12.576704 2.08364800000001  12.974528 2.395456  13.085632 2.83807999999999  L 13.71104 5.34150400000001  C 13.879488 5.69811200000001  13.969088 6.09056000000001  13.969088 6.49376000000001  C 13.969088 7.339584  13.580224 8.09401600000001  12.972736 8.58860799999999  L 12.972736 14.28  C 12.972736 14.69216  12.637632 15.027264  12.225472 15  L 1.77273600000001 15  C 1.36057599999998 15.027264  1.02547199999998 14.69216  1.02547199999998 14.28  Z M 2.73683199999999 9.19609600000001  C 2.48774400000002 9.19609600000001  2.24940800000002 9.162048  2.02182399999998 9.10112000000001  L 2.02182399999998 14.030912  L 11.978176 14.030912  L 11.978176 9.10112000000001  C 11.752384 9.162048  11.512256 9.19609600000001  11.266752 9.19609600000001  C 10.399424 9.19609600000001  9.627072 8.78752  9.13427200000001 8.15315200000001  C 8.63968 8.78752  7.86732799999999 9.19609600000001  7.00179200000002 9.19609600000001  C 6.136256 9.19609600000001  5.36211200000002 8.78752  4.86931199999998 8.15315200000001  C 4.37472000000002 8.78752  3.60236800000001 9.19609600000001  2.73683199999999 9.19609600000001  Z M 1.52364799999998 0.590912000000003  C 1.52364799999998 0.314943999999997  1.74764800000003 0.0927360000000022  2.02182399999998 0.0927360000000022  L 11.978176 0.0927360000000022  C 12.252352 0.0927360000000022  12.476352 0.314943999999997  12.476352 0.590912000000003  C 12.476352 0.866880000000009  12.254144 1.089088  11.978176 1.089088  L 2.02182399999998 1.089088  C 1.74764800000003 1.089088  1.52364799999998 0.866880000000009  1.52364799999998 0.590912000000003  Z M 12.969152 6.49376000000001  C 12.972736 6.20166399999999  12.901056 5.92928000000001  12.772032 5.68915200000001  L 12.119744 3  L 1.88025599999997 3  L 1.22796799999998 5.68915200000001  C 1.09894400000002 5.92928000000001  1.027264 6.20345599999999  1.027264 6.49376000000001  C 1.027264 7.436352  1.79065600000001 8.19974400000001  2.733248 8.19974400000001  C 3.67583999999999 8.19974400000001  4.439232 7.436352  4.439232 6.49376000000001  L 5.29222399999998 6.49376000000001  C 5.29222399999998 7.436352  6.05561599999999 8.19974400000001  6.99820799999998 8.19974400000001  C 7.94080000000002 8.19974400000001  8.70419199999998 7.436352  8.70419199999998 6.49376000000001  L 9.55718400000001 6.49376000000001  C 9.55718400000001 7.436352  10.320576 8.19974400000001  11.263168 8.19974400000001  C 12.20576 8.19974400000001  12.969152 7.436352  12.969152 6.49376000000001  Z " fill-rule="nonzero" fill="#646566" stroke="none" transform="matrix(1 0 0 1 514 288 )" />
  </g>
</svg>