<?xml version="1.0" encoding="utf-8"?>
<svg version="1.1" xmlns:xlink="http://www.w3.org/1999/xlink" width="16px" height="16px" xmlns="http://www.w3.org/2000/svg">
  <g transform="matrix(1 0 0 1 -512 -396 )">
    <path d="M 12.417324137931 15.2770206896552  L 8 13.3296551724138  L 3.5809103448276 15.2770206896552  C 3.33373793103448 15.3864827586207  3.04419310344826 15.2734896551724  2.93473103448275 15.0263172413793  C 2.90118620689657 14.9486344827586  2.88706206896552 14.8638896551724  2.89588965517243 14.7791448275862  L 3.38140689655171 9.97517241379308  L 0.164634482758629 6.37351724137932  C -0.0154482758620702 6.17224827586205  0.00220689655174056 5.86151724137932  0.203475862068956 5.68143448275862  C 0.267034482758618 5.62493793103448  0.342951724137947 5.58609655172415  0.425931034482744 5.56844137931034  L 5.14692413793102 4.54620689655172  L 7.57627586206894 0.37428965517239  C 7.71222068965517 0.139475862068991  8.01235862068967 0.0617931034482808  8.24717241379312 0.19773793103451  C 8.32132413793101 0.240110344827599  8.38135172413791 0.30190344827588  8.42372413793106 0.37428965517239  L 10.853075862069 4.54620689655172  L 15.5723034482759 5.56844137931034  C 15.8371310344828 5.62493793103448  16.0048551724138 5.8862344827586  15.9483586206896 6.15106206896553  C 15.9307034482758 6.23404137931033  15.8918620689655 6.30995862068966  15.8353655172414 6.37351724137932  L 12.6168275862069 9.97517241379308  L 13.1023448275862 14.7791448275862  C 13.1288275862069 15.0492689655172  12.9328551724138 15.2893793103448  12.6644965517241 15.3158620689655  C 12.5797517241379 15.3246896551724  12.4950068965517 15.3105655172413  12.417324137931 15.2770206896552  Z " fill-rule="nonzero" fill="#ff5000" stroke="none" transform="matrix(1 0 0 1 512 396 )" />
  </g>
</svg>