<?xml version="1.0" encoding="utf-8"?>
<svg version="1.1" xmlns:xlink="http://www.w3.org/1999/xlink" width="13px" height="13px" xmlns="http://www.w3.org/2000/svg">
  <g transform="matrix(1 0 0 1 -54 -1250 )">
    <path d="M 12.9866807017544 6.5  C 12.9866807017544 10.0819789473685  10.0834385964912 12.9866807017545  6.5 12.9866807017545  C 2.91656140350877 12.9866807017545  0.0133192982456194 10.0819789473685  0.0133192982456194 6.5  C 0.0133192982456194 2.9180210526315  2.91656140350877 0.0133192982455057  6.5 0.0133192982455057  C 10.0834385964912 0.0133192982455057  12.9866807017544 2.9180210526315  12.9866807017544 6.5  Z M 0.925600000000003 6.5  C 0.925600000000003 9.5784000000001  3.4216 12.0744  6.5 12.0744  C 9.5784 12.0744  12.0744 9.5784000000001  12.0744 6.5  C 12.0744 3.4215999999999  9.5784 0.925600000000031  6.5 0.925600000000031  C 3.4216 0.925600000000031  0.925600000000003 3.4215999999999  0.925600000000003 6.5  Z M 8.8565555942029 6.5  C 8.8565555942029 6.027912758816  9.24075871166382 5.64521043478271  9.71469727536231 5.64521043478271  C 10.1886358390608 5.64521043478271  10.5728389565217 6.027912758816  10.5728389565217 6.5  C 10.5728389565217 6.972087241184  10.1886358390608 7.35478956521729  9.71469727536231 7.35478956521729  C 9.24075871166382 7.35478956521729  8.8565555942029 6.972087241184  8.8565555942029 6.5  Z M 3.28530272463769 7.35478956521729  C 2.81136416093918 7.35478956521729  2.42716104347826 6.972087241184  2.42716104347826 6.5  C 2.42716104347826 6.027912758816  2.81136416093918 5.64521043478271  3.28530272463769 5.64521043478271  C 3.75924128833618 5.64521043478271  4.1434444057971 6.027912758816  4.1434444057971 6.5  C 4.1434444057971 6.972087241184  3.75924128833618 7.35478956521729  3.28530272463769 7.35478956521729  Z M 6.49993430315972 7.35482775367768  C 6.27321814094586 7.35482775367768  6.05578868440359 7.26476041800083  5.89548257540761 7.10444145584233  C 5.73515070402819 6.94413363229114  5.64507517476147 6.72669513094888  5.64507517476147 6.49996862770809  C 5.64507517476147 6.02788138652409  6.0277774987948 5.6451790624908  6.49986473997888 5.6451790624908  C 6.72658090219274 5.6451790624908  6.944010358735 5.73524639816765  7.10431646773098 5.89556536032615  C 7.2646483391104 6.05587318387734  7.35472386837711 6.27331168521982  7.35472386837711 6.50003818846039  C 7.35472386837711 6.97212542964439  6.97202154434378 7.35482775367768  6.49993430315972 7.35482775367768  Z " fill-rule="nonzero" fill="#ee0a24" stroke="none" transform="matrix(1 0 0 1 54 1250 )" />
  </g>
</svg>