<?xml version="1.0" encoding="utf-8"?>
<svg version="1.1" xmlns:xlink="http://www.w3.org/1999/xlink" width="24px" height="24px" xmlns="http://www.w3.org/2000/svg">
  <g transform="matrix(1 0 0 1 -57 -321 )">
    <path d="M 11.3018181818182 5.48363637272729  L 11.3018181818182 0.829090909090894  C 11.3018181818182 0.44349573829993  11.614404829209 0.130909090909086  12 0.130909090909086  C 12.385595170791 0.130909090909086  12.6981818181818 0.44349573829993  12.6981818181818 0.829090909090894  L 12.6981818181818 5.48363637272729  C 12.6981818181818 5.8692315435182  12.385595170791 6.1818181909091  12 6.1818181909091  C 11.614404829209 6.1818181909091  11.3018181818182 5.8692315435182  11.3018181818182 5.48363637272729  Z M 14.6530909090909 6.00773817272727  L 16.9803636272727 1.97690181818183  C 17.1051217648796 1.76065437641438  17.335799685758 1.6274231301129  17.5854545454546 1.6274231301129  C 17.9712638806614 1.6274231301129  18.2840241426144 1.94018339206593  18.2840241426144 2.32599272727271  C 18.2840241426144 2.44854138978599  18.251785781249 2.56893375090687  18.1905454636364 2.67508363636364  L 15.8632727181818 6.70591999090908  C 15.7385145817916 6.92216742569428  15.507836666677 7.0553986671664  15.2581818136364 7.0553986671664  C 14.8723724849529 7.0553986671664  14.5596122282882 6.74263841050163  14.5596122282882 6.35682908181815  C 14.5596122282882 6.23428041906624  14.5918505903235 6.11388805779342  14.6530909090909 6.00773817272727  Z M 17.2940800090909 8.1367272818182  L 21.3249163636364 5.80945453636366  C 21.4310662490931 5.74821421875095  21.551458610214 5.71597585738562  21.6740072727273 5.71597585738562  C 22.0598166079341 5.71597585738562  22.3725768698871 6.02873611933865  22.3725768698871 6.41454545454548  C 22.3725768698871 6.66420031424195  22.2393456235856 6.89487823512042  22.0230981818182 7.01963637272729  L 17.9922618272728 9.34690909090909  C 17.8861119422066 9.40814940967653  17.7657195809338 9.44038777171187  17.6431709181818 9.44038777171187  C 17.2573615894984 9.44038777171187  16.9446013328336 9.1276275150471  16.9446013328336 8.74181818636362  C 16.9446013328336 8.49216333332305  17.0778325743057 8.26148541820834  17.2940800090909 8.1367272818182  Z M 18.5163636272727 11.3018181818182  L 23.1709090909091 11.3018181818182  C 23.5565042617 11.3018181818182  23.8690909090909 11.614404829209  23.8690909090909 12  C 23.8690909090909 12.385595170791  23.5565042617 12.6981818181818  23.1709090909091 12.6981818181818  L 18.5163636272727 12.6981818181818  C 18.1307684564818 12.6981818181818  17.8181818090909 12.385595170791  17.8181818090909 12  C 17.8181818090909 11.614404829209  18.1307684564818 11.3018181818182  18.5163636272727 11.3018181818182  Z M 17.9922618272728 14.6530909090909  L 22.0230981818182 16.9803636272727  C 22.2393456235856 17.1051217648795  22.3725768698871 17.335799685758  22.3725768698871 17.5854545454545  C 22.3725768698871 17.9712638806614  22.0598166079341 18.2840241426144  21.6740072727273 18.2840241426144  C 21.551458610214 18.2840241426144  21.4310662490931 18.2517857812491  21.3249163636364 18.1905454636363  L 17.2940800090909 15.8632727181818  C 17.0778325743057 15.7385145817917  16.9446013328336 15.507836666677  16.9446013328336 15.2581818136364  C 16.9446013328336 14.872372484953  17.2573615894984 14.5596122282882  17.6431709181818 14.5596122282882  C 17.7657195809338 14.5596122282882  17.8861119422066 14.5918505903235  17.9922618272728 14.6530909090909  Z M 15.8632727181818 17.2940800090909  L 18.1905454636364 21.3249163636364  C 18.251785781249 21.4310662490931  18.2840241426144 21.551458610214  18.2840241426144 21.6740072727273  C 18.2840241426144 22.0598166079341  17.9712638806614 22.3725768698871  17.5854545454546 22.3725768698871  C 17.335799685758 22.3725768698871  17.1051217648796 22.2393456235856  16.9803636272727 22.0230981818182  L 14.6530909090909 17.9922618272727  C 14.5918505903235 17.8861119422066  14.5596122282882 17.7657195809338  14.5596122282882 17.6431709181818  C 14.5596122282882 17.2573615894984  14.8723724849529 16.9446013328336  15.2581818136364 16.9446013328336  C 15.507836666677 16.9446013328336  15.7385145817916 17.0778325743057  15.8632727181818 17.2940800090909  Z M 12.6981818181818 18.5163636272727  L 12.6981818181818 23.1709090909091  C 12.6981818181818 23.5565042617001  12.385595170791 23.8690909090909  12 23.8690909090909  C 11.614404829209 23.8690909090909  11.3018181818182 23.5565042617001  11.3018181818182 23.1709090909091  L 11.3018181818182 18.5163636272727  C 11.3018181818182 18.1307684564817  11.614404829209 17.8181818090909  12 17.8181818090909  C 12.385595170791 17.8181818090909  12.6981818181818 18.1307684564817  12.6981818181818 18.5163636272727  Z M 9.34690909090908 17.9922618272727  L 7.01963637272726 22.0230981818182  C 6.89487823512046 22.2393456235856  6.66420031424195 22.3725768698871  6.41454545454545 22.3725768698871  C 6.02873611933863 22.3725768698871  5.71597585738565 22.0598166079341  5.71597585738565 21.6740072727273  C 5.71597585738565 21.551458610214  5.74821421875097 21.4310662490931  5.80945453636362 21.3249163636364  L 8.1367272818182 17.2940800090909  C 8.26148541820837 17.0778325743057  8.49216333332302 16.9446013328336  8.74181818636364 16.9446013328336  C 9.12762751504707 16.9446013328336  9.44038777171184 17.2573615894984  9.44038777171184 17.6431709181818  C 9.44038777171184 17.7657195809338  9.40814940967654 17.8861119422066  9.34690909090908 17.9922618272727  Z M 6.7059199909091 15.8632727181818  L 2.67508363636364 18.1905454636363  C 2.56893375090687 18.2517857812491  2.44854138978597 18.2840241426144  2.32599272727273 18.2840241426144  C 1.94018339206592 18.2840241426144  1.62742313011289 17.9712638806614  1.62742313011289 17.5854545454545  C 1.62742313011289 17.335799685758  1.7606543764144 17.1051217648795  1.97690181818183 16.9803636272727  L 6.00773817272726 14.6530909090909  C 6.1138880577934 14.5918505903235  6.23428041906622 14.5596122282882  6.35682908181818 14.5596122282882  C 6.74263841050161 14.5596122282882  7.05539866716637 14.872372484953  7.05539866716637 15.2581818136364  C 7.05539866716637 15.507836666677  6.92216742569428 15.7385145817917  6.7059199909091 15.8632727181818  Z M 5.48363637272727 12.6981818181818  L 0.829090909090915 12.6981818181818  C 0.443495738299951 12.6981818181818  0.130909090909086 12.385595170791  0.130909090909086 12  C 0.130909090909086 11.614404829209  0.443495738299951 11.3018181818182  0.829090909090915 11.3018181818182  L 5.48363637272727 11.3018181818182  C 5.86923154351823 11.3018181818182  6.18181819090908 11.614404829209  6.18181819090908 12  C 6.18181819090908 12.385595170791  5.86923154351823 12.6981818181818  5.48363637272727 12.6981818181818  Z M 6.00773817272726 9.34690909090909  L 1.97690181818183 7.01963637272729  C 1.7606543764144 6.89487823512042  1.62742313011289 6.66420031424195  1.62742313011289 6.41454545454548  C 1.62742313011289 6.02873611933865  1.94018339206592 5.71597585738562  2.32599272727273 5.71597585738562  C 2.44854138978597 5.71597585738562  2.56893375090687 5.74821421875095  2.67508363636364 5.80945453636366  L 6.7059199909091 8.1367272818182  C 6.92216742569428 8.26148541820834  7.05539866716637 8.49216333332305  7.05539866716637 8.74181818636362  C 7.05539866716637 9.1276275150471  6.74263841050161 9.44038777171187  6.35682908181818 9.44038777171187  C 6.23428041906622 9.44038777171187  6.1138880577934 9.40814940967653  6.00773817272726 9.34690909090909  Z M 8.13672728181817 6.70591999090908  L 5.80945453636362 2.67508363636364  C 5.74821421875097 2.56893375090687  5.71597585738565 2.44854138978599  5.71597585738565 2.32599272727271  C 5.71597585738565 1.94018339206593  6.02873611933863 1.6274231301129  6.41454545454545 1.6274231301129  C 6.66420031424195 1.6274231301129  6.89487823512044 1.76065437641438  7.01963637272726 1.97690181818183  L 9.34690909090908 6.00773817272727  C 9.40814940967654 6.11388805779342  9.44038777171184 6.23428041906624  9.44038777171184 6.35682908181815  C 9.44038777171184 6.74263841050163  9.12762751504707 7.0553986671664  8.74181818636364 7.0553986671664  C 8.49216333332302 7.0553986671664  8.26148541820837 6.92216742569428  8.13672728181817 6.70591999090908  Z " fill-rule="nonzero" fill="#969799" stroke="none" fill-opacity="0.6" transform="matrix(1 0 0 1 57 321 )" />
  </g>
</svg>