<?xml version="1.0" encoding="utf-8"?>
<svg version="1.1" xmlns:xlink="http://www.w3.org/1999/xlink" width="30px" height="30px" xmlns="http://www.w3.org/2000/svg">
  <g transform="matrix(1 0 0 1 -67 -112 )">
    <path d="M 14.1272727272727 6.85454546590908  L 14.1272727272727 1.03636363636363  C 14.1272727272727 0.554369672874941  14.5180060365113 0.163636363636371  15 0.163636363636371  C 15.4819939634887 0.163636363636371  15.8727272727273 0.554369672874941  15.8727272727273 1.03636363636363  L 15.8727272727273 6.85454546590908  C 15.8727272727273 7.33653942939777  15.4819939634887 7.72727273863636  15 7.72727273863636  C 14.5180060365113 7.72727273863636  14.1272727272727 7.33653942939777  14.1272727272727 6.85454546590908  Z M 18.3163636363636 7.50967271590909  L 21.2254545340909 2.47112727272727  C 21.3814022060994 2.200817970518  21.6697496071976 2.03427891264114  21.9818181818182 2.03427891264114  C 22.4640798508267 2.03427891264114  22.855030178268 2.4252292400824  22.855030178268 2.90749090909091  C 22.855030178268 3.06067673723246  22.8147322265613 3.2111671886336  22.7381818295455 3.34385454545455  L 19.8290908977273 8.38239998863637  C 19.6731432272395 8.65270928211784  19.3847958333462 8.81924833395797  19.0727272670455 8.81924833395797  C 18.5904656061912 8.81924833395797  18.1995152853602 8.42829801312702  18.1995152853602 7.94603635227271  C 18.1995152853602 7.79285052383281  18.2398132379043 7.64236007224177  18.3163636363636 7.50967271590909  Z M 21.6176000113636 10.1709091022727  L 26.6561454545455 7.26181817045456  C 26.7888328113664 7.1852677734387  26.9393232627675 7.14496982173203  27.0925090909091 7.14496982173203  C 27.5747707599176 7.14496982173203  27.9657210873589 7.53592014917329  27.9657210873589 8.01818181818183  C 27.9657210873589 8.33025039280244  27.799182029482 8.61859779390055  27.5288727272727 8.7745454659091  L 22.4903272840909 11.6836363636364  C 22.3576399277583 11.7601867620956  22.2071494761672 11.8004847146398  22.0539636477273 11.8004847146398  C 21.571701986873 11.8004847146398  21.180751666042 11.4095343938088  21.180751666042 10.9272727329545  C 21.180751666042 10.6152041666538  21.3472907178821 10.3268567727604  21.6176000113636 10.1709091022727  Z M 23.1454545340909 14.1272727272727  L 28.9636363636364 14.1272727272727  C 29.4456303271251 14.1272727272727  29.8363636363636 14.5180060365113  29.8363636363636 15  C 29.8363636363636 15.4819939634887  29.4456303271251 15.8727272727273  28.9636363636364 15.8727272727273  L 23.1454545340909 15.8727272727273  C 22.6634605706022 15.8727272727273  22.2727272613637 15.4819939634887  22.2727272613637 15  C 22.2727272613637 14.5180060365113  22.6634605706022 14.1272727272727  23.1454545340909 14.1272727272727  Z M 22.4903272840909 18.3163636363636  L 27.5288727272727 21.2254545340909  C 27.799182029482 21.3814022060994  27.9657210873589 21.6697496071976  27.9657210873589 21.9818181818182  C 27.9657210873589 22.4640798508267  27.5747707599176 22.855030178268  27.0925090909091 22.855030178268  C 26.9393232627675 22.855030178268  26.7888328113664 22.8147322265613  26.6561454545455 22.7381818295455  L 21.6176000113636 19.8290908977273  C 21.3472907178821 19.6731432272396  21.180751666042 19.3847958333462  21.180751666042 19.0727272670455  C 21.180751666042 18.5904656061912  21.571701986873 18.1995152853602  22.0539636477273 18.1995152853602  C 22.2071494761672 18.1995152853602  22.3576399277583 18.2398132379043  22.4903272840909 18.3163636363636  Z M 19.8290908977273 21.6176000113636  L 22.7381818295455 26.6561454545455  C 22.8147322265613 26.7888328113664  22.855030178268 26.9393232627675  22.855030178268 27.0925090909091  C 22.855030178268 27.5747707599176  22.4640798508267 27.9657210873589  21.9818181818182 27.9657210873589  C 21.6697496071976 27.9657210873589  21.3814022060994 27.799182029482  21.2254545340909 27.5288727272727  L 18.3163636363636 22.4903272840909  C 18.2398132379043 22.3576399277582  18.1995152853602 22.2071494761672  18.1995152853602 22.0539636477273  C 18.1995152853602 21.571701986873  18.5904656061912 21.180751666042  19.0727272670455 21.180751666042  C 19.3847958333462 21.180751666042  19.6731432272395 21.3472907178821  19.8290908977273 21.6176000113636  Z M 15.8727272727273 23.1454545340909  L 15.8727272727273 28.9636363636364  C 15.8727272727273 29.4456303271251  15.4819939634887 29.8363636363636  15 29.8363636363636  C 14.5180060365113 29.8363636363636  14.1272727272727 29.4456303271251  14.1272727272727 28.9636363636364  L 14.1272727272727 23.1454545340909  C 14.1272727272727 22.6634605706022  14.5180060365113 22.2727272613636  15 22.2727272613636  C 15.4819939634887 22.2727272613636  15.8727272727273 22.6634605706022  15.8727272727273 23.1454545340909  Z M 11.6836363636364 22.4903272840909  L 8.77454546590909 27.5288727272727  C 8.61859779390058 27.799182029482  8.33025039280244 27.9657210873589  8.01818181818182 27.9657210873589  C 7.53592014917329 27.9657210873589  7.14496982173206 27.5747707599176  7.14496982173206 27.0925090909091  C 7.14496982173206 26.9393232627675  7.18526777343871 26.7888328113664  7.26181817045453 26.6561454545455  L 10.1709091022727 21.6176000113636  C 10.3268567727605 21.3472907178821  10.6152041666538 21.180751666042  10.9272727329545 21.180751666042  C 11.4095343938088 21.180751666042  11.8004847146398 21.571701986873  11.8004847146398 22.0539636477273  C 11.8004847146398 22.2071494761672  11.7601867620957 22.3576399277582  11.6836363636364 22.4903272840909  Z M 8.38239998863638 19.8290908977273  L 3.34385454545455 22.7381818295455  C 3.21116718863358 22.8147322265613  3.06067673723246 22.855030178268  2.90749090909091 22.855030178268  C 2.4252292400824 22.855030178268  2.03427891264111 22.4640798508267  2.03427891264111 21.9818181818182  C 2.03427891264111 21.6697496071976  2.200817970518 21.3814022060994  2.47112727272729 21.2254545340909  L 7.50967271590908 18.3163636363636  C 7.64236007224174 18.2398132379043  7.79285052383278 18.1995152853602  7.94603635227273 18.1995152853602  C 8.42829801312702 18.1995152853602  8.81924833395797 18.5904656061912  8.81924833395797 19.0727272670455  C 8.81924833395797 19.3847958333462  8.65270928211785 19.6731432272396  8.38239998863638 19.8290908977273  Z M 6.85454546590908 15.8727272727273  L 1.03636363636365 15.8727272727273  C 0.554369672874941 15.8727272727273  0.163636363636357 15.4819939634887  0.163636363636357 15  C 0.163636363636357 14.5180060365113  0.554369672874941 14.1272727272727  1.03636363636365 14.1272727272727  L 6.85454546590908 14.1272727272727  C 7.33653942939779 14.1272727272727  7.72727273863634 14.5180060365113  7.72727273863634 15  C 7.72727273863634 15.4819939634887  7.33653942939779 15.8727272727273  6.85454546590908 15.8727272727273  Z M 7.50967271590908 11.6836363636364  L 2.47112727272729 8.7745454659091  C 2.200817970518 8.61859779390055  2.03427891264111 8.33025039280243  2.03427891264111 8.01818181818183  C 2.03427891264111 7.53592014917329  2.4252292400824 7.14496982173203  2.90749090909091 7.14496982173203  C 3.06067673723246 7.14496982173203  3.21116718863358 7.1852677734387  3.34385454545455 7.26181817045456  L 8.38239998863638 10.1709091022727  C 8.65270928211785 10.3268567727604  8.81924833395797 10.6152041666538  8.81924833395797 10.9272727329545  C 8.81924833395797 11.4095343938088  8.42829801312702 11.8004847146398  7.94603635227273 11.8004847146398  C 7.79285052383278 11.8004847146398  7.64236007224174 11.7601867620956  7.50967271590908 11.6836363636364  Z M 10.1709091022727 8.38239998863637  L 7.26181817045453 3.34385454545455  C 7.18526777343871 3.21116718863358  7.14496982173206 3.06067673723248  7.14496982173206 2.90749090909091  C 7.14496982173206 2.4252292400824  7.53592014917329 2.03427891264114  8.01818181818182 2.03427891264114  C 8.33025039280244 2.03427891264114  8.61859779390055 2.200817970518  8.77454546590909 2.47112727272727  L 11.6836363636364 7.50967271590909  C 11.7601867620957 7.64236007224177  11.8004847146398 7.79285052383278  11.8004847146398 7.94603635227271  C 11.8004847146398 8.42829801312702  11.4095343938088 8.81924833395797  10.9272727329545 8.81924833395797  C 10.6152041666538 8.81924833395797  10.3268567727605 8.65270928211784  10.1709091022727 8.38239998863637  Z " fill-rule="nonzero" fill="#969799" stroke="none" fill-opacity="0.6" transform="matrix(1 0 0 1 67 112 )" />
  </g>
</svg>