<?xml version="1.0" encoding="utf-8"?>
<svg version="1.1" xmlns:xlink="http://www.w3.org/1999/xlink" width="10px" height="10px" xmlns="http://www.w3.org/2000/svg">
  <g transform="matrix(1 0 0 1 -351 -533 )">
    <path d="M 9.78780952380953 1.10971428571429  L 5.89752380952382 5  L 9.78780952380953 8.89028571428571  C 10.0361904761905 9.13866666666667  10.0361904761905 9.54095238095238  9.78780952380953 9.78780952380953  C 9.53942857142857 10.0346666666667  9.13714285714286 10.0361904761905  8.89028571428571 9.78780952380953  L 5 5.89752380952382  L 1.10971428571429 9.78933333333333  C 0.861333333333334 10.0377142857143  0.459047619047624 10.0377142857143  0.212190476190472 9.78933333333333  C -0.0361904761904839 9.54095238095238  -0.0361904761904839 9.13866666666667  0.212190476190472 8.89180952380951  L 4.10247619047618 5  L 0.210666666666668 1.10971428571429  C -0.0377142857142871 0.861333333333334  -0.0377142857142871 0.459047619047624  0.210666666666668 0.212190476190472  C 0.459047619047624 -0.0361904761904839  0.861333333333334 -0.0361904761904839  1.10819047619049 0.212190476190472  L 5 4.10247619047618  L 8.89028571428571 0.212190476190472  C 9.13866666666667 -0.0361904761904839  9.54095238095238 -0.0361904761904839  9.78780952380953 0.212190476190472  C 10.0361904761905 0.460571428571427  10.0361904761905 0.862857142857138  9.78780952380953 1.10971428571429  Z " fill-rule="nonzero" fill="#969799" stroke="none" transform="matrix(1 0 0 1 351 533 )" />
  </g>
</svg>