<?xml version="1.0" encoding="utf-8"?>
<svg version="1.1" xmlns:xlink="http://www.w3.org/1999/xlink" width="10px" height="10px" xmlns="http://www.w3.org/2000/svg">
  <g transform="matrix(1 0 0 1 -351 -533 )">
    <path d="M 0.0102456140351137 5  C 0.0102456140351137 2.24463157894741  2.24350877192984 0.0102456140350569  5 0.0102456140350569  C 7.75649122807016 0.0102456140350569  9.98975438596489 2.24463157894741  9.98975438596489 5  C 9.98975438596489 7.75536842105259  7.75649122807016 9.98975438596494  5 9.98975438596494  C 2.24350877192984 9.98975438596494  0.0102456140351137 7.75536842105259  0.0102456140351137 5  Z M 9.36659649122805 5  C 9.36659649122805 2.58821052631583  7.41178947368422 0.633403508771949  5 0.633403508771949  C 2.58821052631578 0.633403508771949  0.633403508771949 2.58821052631583  0.633403508771949 5  C 0.633403508771949 7.41178947368417  2.58821052631578 9.36659649122805  5 9.36659649122805  C 7.41178947368422 9.36659649122805  9.36659649122805 7.41178947368417  9.36659649122805 5  Z M 3.12017777777777 3.58008888888889  C 2.99537777777778 3.45528888888884  2.99537777777778 3.2519111111111  3.12017777777777 3.12595555555561  C 3.24497777777776 3.00115555555556  3.44835555555557 3.00115555555556  3.57431111111111 3.12595555555561  L 5.16320000000002 4.71484444444445  L 6.75208888888886 3.12595555555561  C 6.87688888888891 3.00115555555556  7.08026666666666 3.00115555555556  7.20622222222221 3.12595555555561  C 7.3310222222222 3.25075555555554  7.3310222222222 3.45413333333329  7.20622222222221 3.58008888888889  L 5.61617777777781 5.16897777777774  L 7.20506666666665 6.7578666666667  C 7.32986666666665 6.88266666666664  7.32986666666665 7.0860444444445  7.20506666666665 7.21199999999999  C 7.08026666666666 7.3379555555556  6.87688888888891 7.33680000000004  6.75093333333331 7.21199999999999  L 5.16320000000002 5.62311111111114  L 3.57431111111111 7.21199999999999  C 3.44951111111112 7.33680000000004  3.24613333333332 7.33680000000004  3.12017777777777 7.21199999999999  C 2.99537777777778 7.08720000000005  2.99537777777778 6.88382222222219  3.12017777777777 6.7578666666667  L 4.70906666666667 5.16897777777774  L 3.12017777777777 3.58008888888889  Z " fill-rule="nonzero" fill="#969799" stroke="none" fill-opacity="0.698039215686274" transform="matrix(1 0 0 1 351 533 )" />
  </g>
</svg>