<?xml version="1.0" encoding="utf-8"?>
<svg version="1.1" xmlns:xlink="http://www.w3.org/1999/xlink" width="15px" height="15px" xmlns="http://www.w3.org/2000/svg">
  <g transform="matrix(1 0 0 1 -734 -312 )">
    <path d="M 1.14553846153842 5.7550588235294  C 1.14553846153842 8.3545882352941  3.21138461538459 10.4609411764706  5.76092307692306 10.4609411764706  C 8.31046153846154 10.4609411764706  10.3763076923077 8.3545882352941  10.3763076923077 5.7550588235294  C 10.3763076923077 3.15552941176472  8.31046153846154 1.04917647058824  5.76092307692306 1.04917647058824  C 3.21138461538459 1.04917647058824  1.14553846153842 3.15552941176472  1.14553846153842 5.7550588235294  Z M 11.4027692307693 5.7550588235294  C 11.400923076923 7.1404705882353  10.920923076923 8.4110588235294  10.1215384615385 9.40494117647057  L 14.7313846153846 14.1051764705882  C 14.9307692307692 14.3084705882353  14.9307692307692 14.6397647058824  14.7313846153846 14.8449411764706  C 14.532 15.0482352941176  14.207076923077 15.0482352941176  14.0058461538462 14.8449411764706  L 9.40153846153845 10.1484705882353  C 8.41938461538462 10.9955294117647  7.14923076923071 11.5056470588235  5.76092307692306 11.5056470588235  C 2.64461538461541 11.5056470588235  0.119076923076932 8.93058823529412  0.119076923076932 5.7550588235294  C 0.119076923076932 2.5795294117647  2.64461538461541 0.00258823529409824  5.76092307692306 0.00258823529409824  C 8.87723076923078 0.00258823529409824  11.4027692307693 2.57764705882352  11.4027692307693 5.7550588235294  Z " fill-rule="nonzero" fill="#1989fa" stroke="none" transform="matrix(1 0 0 1 734 312 )" />
  </g>
</svg>