<?xml version="1.0" encoding="utf-8"?>
<svg version="1.1" xmlns:xlink="http://www.w3.org/1999/xlink" width="16px" height="16px" xmlns="http://www.w3.org/2000/svg">
  <g transform="matrix(1 0 0 1 -719 -415 )">
    <path d="M 727 416  C 730.92 416  734 419.08  734 423  C 734 426.92  730.92 430  727 430  C 723.08 430  720 426.92  720 423  C 720 419.08  723.08 416  727 416  Z " fill-rule="nonzero" fill="#ffffff" stroke="none" />
    <path d="M 727 416  C 730.92 416  734 419.08  734 423  C 734 426.92  730.92 430  727 430  C 723.08 430  720 426.92  720 423  C 720 419.08  723.08 416  727 416  Z " stroke-width="2" stroke="#000000" fill="none" />
  </g>
</svg>