<?xml version="1.0" encoding="utf-8"?>
<svg version="1.1" xmlns:xlink="http://www.w3.org/1999/xlink" width="16px" height="16px" xmlns="http://www.w3.org/2000/svg">
  <g transform="matrix(1 0 0 1 -719 -479 )">
    <path d="M 727 480  C 730.92 480  734 483.08  734 487  C 734 490.92  730.92 494  727 494  C 723.08 494  720 490.92  720 487  C 720 483.08  723.08 480  727 480  Z " fill-rule="nonzero" fill="#ffffff" stroke="none" fill-opacity="0" />
    <path d="M 727 480  C 730.92 480  734 483.08  734 487  C 734 490.92  730.92 494  727 494  C 723.08 494  720 490.92  720 487  C 720 483.08  723.08 480  727 480  Z " stroke-width="2" stroke="#ffffff" fill="none" />
  </g>
</svg>