<?xml version="1.0" encoding="utf-8"?>
<svg version="1.1" xmlns:xlink="http://www.w3.org/1999/xlink" width="9px" height="16px" xmlns="http://www.w3.org/2000/svg">
  <g transform="matrix(1 0 0 1 -425 -663 )">
    <path d="M 0.310133333333358 8.61857959183672  C 0.192800000000023 8.50364081632654  0.10959999999999 8.3573551020408  0.0733333333333412 8.19853061224489  C 0.00506666666668565 7.91431836734694  0.0839999999999748 7.60293877551021  0.310133333333358 7.38142040816328  L 7.43333333333332 0.403591836734705  C 7.78106666666667 0.062955102040803  8.34426666666668 0.062955102040803  8.68986666666665 0.403591836734705  C 9.03546666666666 0.744228571428579  9.0376 1.29593469387754  8.68986666666665 1.63448163265306  L 2.19386666666665 8  L 8.69199999999999 14.3655183673469  C 9.03973333333335 14.7061551020408  9.03973333333335 15.2578612244898  8.69199999999999 15.5964081632653  C 8.34426666666668 15.9349551020408  7.78106666666667 15.9370448979592  7.43546666666666 15.5964081632653  L 0.310133333333358 8.61857959183672  Z " fill-rule="nonzero" fill="#ffffff" stroke="none" transform="matrix(1 0 0 1 425 663 )" />
  </g>
</svg>