<?xml version="1.0" encoding="utf-8"?>
<svg version="1.1" xmlns:xlink="http://www.w3.org/1999/xlink" width="11px" height="16px" xmlns="http://www.w3.org/2000/svg">
  <g transform="matrix(1 0 0 1 -672 -761 )">
    <path d="M 10.8948292682927 5.89026548672564  C 10.8948292682927 5.5764955752212  10.6555121951219 5.32389380530969  10.358243902439 5.32389380530969  C 10.0618959878957 5.32389380530969  9.82165853658535 5.57746704434362  9.82165853658535 5.89026548672564  L 9.82165853658535 7.50782300884953  C 9.82165853658535 9.79596460176992  7.88243902439024 11.6570619469027  5.5 11.6570619469027  C 3.11756097560976 11.6570619469027  1.17834146341465 9.79483185840706  1.17834146341465 7.50782300884953  L 1.17834146341465 5.8268318584071  C 1.17834146341465 5.51403341602497  0.938104012104304 5.26046017699116  0.641756097561029 5.26046017699116  C 0.345408183017639 5.26046017699116  0.10517073170729 5.51403341602497  0.10517073170729 5.8268318584071  L 0.10517073170729 7.50782300884953  C 0.10517073170729 10.3023008849558  2.33951219512198 12.5734513274336  5.1469268292683 12.7546902654867  L 5.1469268292683 14.7279292035398  L 2.91151219512199 14.7279292035398  C 2.64107317073172 14.7279292035398  2.42214634146342 14.9816637168142  2.42214634146342 15.2954336283186  C 2.42214634146342 15.6080707964602  2.64107317073172 15.8606725663717  2.91151219512199 15.8606725663717  L 8.26126829268298 15.8606725663717  C 8.53063414634141 15.8606725663717  8.75063414634144 15.6080707964602  8.75063414634144 15.2954336283186  C 8.75063414634144 14.9816637168142  8.53063414634141 14.7279292035398  8.26126829268298 14.7279292035398  L 6.22009756097566 14.7279292035398  L 6.22009756097566 12.719575221239  C 8.85258536585366 12.3695575221238  10.8948292682927 10.1799646017699  10.8948292682927 7.50782300884953  L 10.8948292682927 5.89026548672564  Z M 2.25258536585363 7.35943362831858  C 2.25435910459487 9.30194498691742  3.74550248131425 10.8763697508018  5.58585365853662 10.8788672566371  C 7.42679819743114 10.8769950546581  8.91890213284955 9.30256988019937  8.92126829268295 7.35943362831858  L 8.92126829268295 3.62364601769912  C 8.91831238501777 1.68076819363296  7.42655355050829 0.106707159731513  5.58585365853662 0.104212389380564  C 3.74550248131425 0.106709895215886  2.25435910459487 1.68113465910028  2.25258536585363 3.62364601769912  L 2.25258536585363 7.35943362831858  Z " fill-rule="nonzero" fill="#000000" stroke="none" transform="matrix(1 0 0 1 672 761 )" />
  </g>
</svg>