<?xml version="1.0" encoding="utf-8"?>
<svg version="1.1" xmlns:xlink="http://www.w3.org/1999/xlink" width="12px" height="12px" xmlns="http://www.w3.org/2000/svg">
  <g transform="matrix(1 0 0 1 -671 -999 )">
    <path d="M 11.8821705465117 0.399999996093811  C 11.9813953488372 0.1999999921876  11.8325581395349 0  11.6341085232558 0  C 11.5844961162792 0  11.5348837209302 0  11.5100775232559 0.0249999960938112  L 0.148837209302314 6.22499999999991  C -0.0992248023256934 6.375  0 6.75  0.272868220930263 6.75  L 4.93643410465108 6.75  C 5.08527131395351 6.75  5.20930232558146 6.87500000390628  5.20930232558146 7.02500000390626  L 5.20930232558146 11.7249999960937  C 5.20930232558146 11.8999999921874  5.35813953488366 12  5.48217054651161 12  C 5.58139534883719 12  5.6558139534884 11.9499999960938  5.73023255813951 11.8499999999999  L 11.8821705465117 0.399999996093811  Z " fill-rule="nonzero" fill="#ffffff" stroke="none" transform="matrix(1 0 0 1 671 999 )" />
  </g>
</svg>