<?xml version="1.0" encoding="utf-8"?>
<svg version="1.1" xmlns:xlink="http://www.w3.org/1999/xlink" width="5px" height="30px" xmlns="http://www.w3.org/2000/svg">
  <g transform="matrix(1 0 0 1 -186 -163 )">
    <path d="M 0.748000000000019 22.3368510638298  L 0.280000000000001 0.857361702127662  C 0.271999999999991 0.5223829787234  0.50800000000001 0.248680851063824  0.851999999999975 0.248680851063824  L 4.15199999999999 0.248680851063824  C 4.476 0.248680851063824  4.732 0.501957446808504  4.72399999999999 0.857361702127662  L 4.25199999999998 22.3368510638298  C 4.244 22.671829787234  3.964 22.9455319148936  3.66399999999999 22.9455319148936  L 1.33599999999998 22.9455319148936  C 1.02000000000001 22.9455319148936  0.756 22.692255319149  0.748000000000019 22.3368510638298  Z M 4.72399999999999 27.48  C 4.72399999999999 28.7382127659575  3.72800000000001 29.7513191489362  2.5 29.7513191489362  C 1.27199999999999 29.7513191489362  0.27600000000001 28.7341276595745  0.27600000000001 27.48  C 0.27600000000001 26.2258723404256  1.27199999999999 25.2086808510638  2.5 25.2086808510638  C 3.72800000000001 25.2086808510638  4.72399999999999 26.2258723404256  4.72399999999999 27.48  Z " fill-rule="nonzero" fill="#f8f8f8" stroke="none" transform="matrix(1 0 0 1 186 163 )" />
  </g>
</svg>