<?xml version="1.0" encoding="utf-8"?>
<svg version="1.1" xmlns:xlink="http://www.w3.org/1999/xlink" width="62px" height="62px" xmlns="http://www.w3.org/2000/svg">
  <g transform="matrix(1 0 0 1 -157 -398 )">
    <path d="M 61.9919202477876 31.2505444004425  C 61.9919202477876 14.2720630464602  48.2292714225664 0.510607309734496  31.2519831570796 0.510607309734496  C 14.2746948915929 0.510607309734496  0.512046066371681 14.2720630464602  0.512046066371681 31.2505444004425  C 0.512046066371681 48.2265693473452  14.2746948915929 61.9904814911504  31.2519831570796 61.9904814911504  C 48.2292714225664 61.9904814911504  61.9919202477876 48.2265694159292  61.9919202477876 31.2505444004425  Z M 42.3067803362832 43.3834852986726  C 43.3055475951327 44.3915867809735  43.2855455995575 46.0276111637168  42.286778409292 47.0381690530974  C 41.2874497212389 48.0464109269911  39.6463722013274 48.0464109269911  38.6475347809734 47.0381690530974  L 29.5610058561947 37.9023720066372  C 28.8824814225663 37.2194962566372  28.9438208893805 36.2688741924779  28.9438208893805 34.8229040884956  C 28.9438208893805 33.3744073473451  28.6159984269912 16.6335639690266  28.6159984269912 16.6335639690266  C 28.6159984269912 15.1977000707965  29.7649562278761 14.0344250707965  31.1820111504425 14.0344250707965  C 32.5991363030973 14.0344250707965  33.7480238738938 15.1977000707965  33 16.6335639690266  L 33 34.8229040884956  C 33.7480238738938 34.8979291637168  42.3067803362832 43.3834852986726  42.3067803362832 43.3834852986726  Z " fill-rule="nonzero" fill="#1989fa" stroke="none" transform="matrix(1 0 0 1 157 398 )" />
  </g>
</svg>