<?xml version="1.0" encoding="utf-8"?>
<svg version="1.1" xmlns:xlink="http://www.w3.org/1999/xlink" width="30px" height="22px" xmlns="http://www.w3.org/2000/svg">
  <g transform="matrix(1 0 0 1 -173 -702 )">
    <path d="M 8.60640000000001 20.99904  L 0.384959999999978 12.78912  C 0.0124799999999823 12.41664  -0.0489600000000223 11.8368  0.281279999999981 11.4220800000001  L 1.04928000000001 10.4544  C 1.36416000000003 10.05888  1.95168000000001 9.95903999999996  2.37024000000002 10.2355200000001  L 9.02112 14.67456  C 9.37056000000001 14.9088  9.97728000000001 14.8780800000001  10.30368 14.61312  L 27.87552 0.355199999999968  C 28.27104 0.0364799999999832  28.88928 0.0633599999999888  29.23488 0.408959999999979  L 29.6688 0.842880000000037  C 30.04512 1.2192  30.01824 1.81439999999998  29.62272 2.20992000000001  L 10.76064 21.04128  C 10.17312 21.6288000000001  9.20927999999998 21.6019200000001  8.60640000000001 20.99904  Z " fill-rule="nonzero" fill="#ffffff" stroke="none" transform="matrix(1 0 0 1 173 702 )" />
  </g>
</svg>