<?xml version="1.0" encoding="utf-8"?>
<svg version="1.1" xmlns:xlink="http://www.w3.org/1999/xlink" width="30px" height="30px" xmlns="http://www.w3.org/2000/svg">
  <g transform="matrix(1 0 0 1 -173 -968 )">
    <path d="M 29.3634285714286 3.32914285714287  L 17.6925714285715 15  L 29.3634285714286 26.6708571428571  C 30.1085714285714 27.4160000000001  30.1085714285714 28.6228571428571  29.3634285714286 29.3634285714286  C 28.6182857142857 30.104  27.4114285714286 30.1085714285714  26.6708571428571 29.3634285714286  L 15 17.6925714285715  L 3.32914285714287 29.3680000000001  C 2.584 30.1131428571429  1.37714285714287 30.1131428571429  0.636571428571415 29.3680000000001  C -0.108571428571452 28.6228571428571  -0.108571428571452 27.4160000000001  0.636571428571415 26.6754285714286  L 12.3074285714285 15  L 0.632000000000005 3.32914285714287  C -0.113142857142861 2.58399999999995  -0.113142857142861 1.37714285714287  0.632000000000005 0.636571428571415  C 1.37714285714287 -0.108571428571395  2.584 -0.108571428571395  3.3245714285714 0.636571428571415  L 15 12.3074285714285  L 26.6708571428571 0.636571428571415  C 27.416 -0.108571428571395  28.6228571428571 -0.108571428571395  29.3634285714286 0.636571428571415  C 30.1085714285714 1.38171428571434  30.1085714285714 2.58857142857141  29.3634285714286 3.32914285714287  Z " fill-rule="nonzero" fill="#ffffff" stroke="none" transform="matrix(1 0 0 1 173 968 )" />
  </g>
</svg>