<?xml version="1.0" encoding="utf-8"?>
<svg version="1.1" xmlns:xlink="http://www.w3.org/1999/xlink" width="80px" height="80px" xmlns="http://www.w3.org/2000/svg">
  <g transform="matrix(1 0 0 1 -16 -114 )">
    <path d="M 56 114.5  C 78.12 114.5  95.5 131.88  95.5 154  C 95.5 176.12  78.12 193.5  56 193.5  C 33.88 193.5  16.5 176.12  16.5 154  C 16.5 131.88  33.88 114.5  56 114.5  Z " fill-rule="nonzero" fill="#f3f3f3" stroke="none" />
    <path d="M 56 114.5  C 78.12 114.5  95.5 131.88  95.5 154  C 95.5 176.12  78.12 193.5  56 193.5  C 33.88 193.5  16.5 176.12  16.5 154  C 16.5 131.88  33.88 114.5  56 114.5  Z " stroke-width="1" stroke="#000000" fill="none" stroke-opacity="0.0470588235294118" />
  </g>
</svg>