<?xml version="1.0" encoding="utf-8"?>
<svg version="1.1" xmlns:xlink="http://www.w3.org/1999/xlink" width="80px" height="80px" xmlns="http://www.w3.org/2000/svg">
  <g transform="matrix(1 0 0 1 -16 -212 )">
    <path d="M 17 214  A 1 1 0 0 1 18 213 L 94 213  A 1 1 0 0 1 95 214 L 95 290  A 1 1 0 0 1 94 291 L 18 291  A 1 1 0 0 1 17 290 L 17 214  Z " fill-rule="nonzero" fill="#f3f3f3" stroke="none" />
    <path d="M 16.5 214  A 1.5 1.5 0 0 1 18 212.5 L 94 212.5  A 1.5 1.5 0 0 1 95.5 214 L 95.5 290  A 1.5 1.5 0 0 1 94 291.5 L 18 291.5  A 1.5 1.5 0 0 1 16.5 290 L 16.5 214  Z " stroke-width="1" stroke="#000000" fill="none" stroke-opacity="0.0470588235294118" />
  </g>
</svg>