<?xml version="1.0" encoding="utf-8"?>
<svg version="1.1" xmlns:xlink="http://www.w3.org/1999/xlink" width="50px" height="50px" xmlns="http://www.w3.org/2000/svg">
  <g transform="matrix(1 0 0 1 -142 -227 )">
    <path d="M 143 229  A 1 1 0 0 1 144 228 L 190 228  A 1 1 0 0 1 191 229 L 191 275  A 1 1 0 0 1 190 276 L 144 276  A 1 1 0 0 1 143 275 L 143 229  Z " fill-rule="nonzero" fill="#f3f3f3" stroke="none" />
    <path d="M 142.5 229  A 1.5 1.5 0 0 1 144 227.5 L 190 227.5  A 1.5 1.5 0 0 1 191.5 229 L 191.5 275  A 1.5 1.5 0 0 1 190 276.5 L 144 276.5  A 1.5 1.5 0 0 1 142.5 275 L 142.5 229  Z " stroke-width="1" stroke="#000000" fill="none" stroke-opacity="0.0470588235294118" />
  </g>
</svg>