<?xml version="1.0" encoding="utf-8"?>
<svg version="1.1" xmlns:xlink="http://www.w3.org/1999/xlink" width="37px" height="37px" xmlns="http://www.w3.org/2000/svg">
  <g transform="matrix(1 0 0 1 -244 -234 )">
    <path d="M 245 236  A 1 1 0 0 1 246 235 L 279 235  A 1 1 0 0 1 280 236 L 280 269  A 1 1 0 0 1 279 270 L 246 270  A 1 1 0 0 1 245 269 L 245 236  Z " fill-rule="nonzero" fill="#f3f3f3" stroke="none" />
    <path d="M 244.5 236  A 1.5 1.5 0 0 1 246 234.5 L 279 234.5  A 1.5 1.5 0 0 1 280.5 236 L 280.5 269  A 1.5 1.5 0 0 1 279 270.5 L 246 270.5  A 1.5 1.5 0 0 1 244.5 269 L 244.5 236  Z " stroke-width="1" stroke="#000000" fill="none" stroke-opacity="0.0470588235294118" />
  </g>
</svg>