<?xml version="1.0" encoding="utf-8"?>
<svg version="1.1" xmlns:xlink="http://www.w3.org/1999/xlink" width="50px" height="50px" xmlns="http://www.w3.org/2000/svg">
  <g transform="matrix(1 0 0 1 -142 -387 )">
    <path d="M 143 412  A 24 24 0 0 1 167 388 A 24 24 0 0 1 191 412 A 24 24 0 0 1 167 436 A 24 24 0 0 1 143 412 Z " fill-rule="nonzero" fill="#119fff" stroke="none" />
    <path d="M 142.5 412  A 24.5 24.5 0 0 1 167 387.5 A 24.5 24.5 0 0 1 191.5 412 A 24.5 24.5 0 0 1 167 436.5 A 24.5 24.5 0 0 1 142.5 412 Z " stroke-width="1" stroke="#000000" fill="none" stroke-opacity="0.0470588235294118" />
  </g>
</svg>