<?xml version="1.0" encoding="utf-8"?>
<svg version="1.1" xmlns:xlink="http://www.w3.org/1999/xlink" width="37px" height="37px" xmlns="http://www.w3.org/2000/svg">
  <g transform="matrix(1 0 0 1 -244 -136 )">
    <path d="M 262.5 136.5  C 272.58 136.5  280.5 144.42  280.5 154.5  C 280.5 164.58  272.58 172.5  262.5 172.5  C 252.42 172.5  244.5 164.58  244.5 154.5  C 244.5 144.42  252.42 136.5  262.5 136.5  Z " fill-rule="nonzero" fill="#f3f3f3" stroke="none" />
    <path d="M 262.5 136.5  C 272.58 136.5  280.5 144.42  280.5 154.5  C 280.5 164.58  272.58 172.5  262.5 172.5  C 252.42 172.5  244.5 164.58  244.5 154.5  C 244.5 144.42  252.42 136.5  262.5 136.5  Z " stroke-width="1" stroke="#000000" fill="none" stroke-opacity="0.0470588235294118" />
  </g>
</svg>