<?xml version="1.0" encoding="utf-8"?>
<svg version="1.1" xmlns:xlink="http://www.w3.org/1999/xlink" width="12px" height="12px" xmlns="http://www.w3.org/2000/svg">
  <g transform="matrix(1 0 0 1 -415 -297 )">
    <path d="M 0.0122947368420796 6  C 0.0122947368420796 2.69355789473678  2.69221052631576 0.0122947368420796  6 0.0122947368420796  C 9.30778947368424 0.0122947368420796  11.9877052631579 2.69355789473678  11.9877052631579 6  C 11.9877052631579 9.30644210526322  9.30778947368424 11.9877052631579  6 11.9877052631579  C 2.69221052631576 11.9877052631579  0.0122947368420796 9.30644210526322  0.0122947368420796 6  Z M 11.2399157894737 6  C 11.2399157894737 3.1058526315789  8.8941473684211 0.760084210526372  6 0.760084210526372  C 3.1058526315789 0.760084210526372  0.760084210526372 3.1058526315789  0.760084210526372 6  C 0.760084210526372 8.8941473684211  3.1058526315789 11.2399157894737  6 11.2399157894737  C 8.8941473684211 11.2399157894737  11.2399157894737 8.8941473684211  11.2399157894737 6  Z M 6.33676363636357 7.9796363636363  L 5.62636363636364 7.9796363636363  C 5.53036363636363 7.9796363636363  5.45007272727275 7.91563636363634  5.44658181818181 7.82836363636363  L 5.30170909090907 2.47418181818182  C 5.2999636363636 2.39127272727274  5.37152727272729 2.32290909090909  5.47625454545454 2.32290909090909  L 6.48512727272725 2.32290909090909  C 6.58287272727273 2.32290909090909  6.66141818181814 2.38690909090911  6.65967272727272 2.47418181818182  L 6.51654545454551 7.82836363636363  C 6.51480000000004 7.91127272727266  6.42927272727275 7.9796363636363  6.33676363636357 7.9796363636363  Z M 5.30170909090907 9.11127272727271  C 5.30170909090907 8.79854545454543  5.60541818181815 8.5454545454545  5.98069090909087 8.5454545454545  C 6.35596363636364 8.5454545454545  6.65967272727272 8.79854545454543  6.65967272727272 9.11127272727271  C 6.65967272727272 9.42399999999992  6.35596363636364 9.67709090909091  5.98069090909087 9.67709090909091  C 5.60541818181815 9.67709090909091  5.30170909090907 9.42399999999992  5.30170909090907 9.11127272727271  Z " fill-rule="nonzero" fill="#ed6a0c" stroke="none" transform="matrix(1 0 0 1 415 297 )" />
  </g>
</svg>