<?xml version="1.0" encoding="utf-8"?>
<svg version="1.1" xmlns:xlink="http://www.w3.org/1999/xlink" width="24px" height="25px" xmlns="http://www.w3.org/2000/svg">
  <g transform="matrix(1 0 0 1 -692 -440 )">
    <path d="M 12.1247165775401 24.3246860970819  C 9.5259625668449 24.3246860970819  7.00764705882352 23.4893189451707  4.89060160427812 21.8992405674391  C 2.30310160427803 19.9552322654651  0.624501336898447 17.1151258293722  0.165300802139086 13.904588161022  C -0.293899732620275 10.6931868728131  0.520724598930428 7.49480156961772  2.45878208556155 4.89845183864793  C 6.46108957219258 -0.46253012147622  14.0644959893049 -1.55556442694922  19.4072606951871 2.45650500099026  C 21.6471163101604 4.13939166996767  23.2452780748663 6.56573166303559  23.9085882352941 9.28786145771437  C 24.0218663101605 9.75369184079352  23.7373489304813 10.223007546874  23.2738128342246 10.3366352454281  C 22.8102767379679 10.4468084645474  22.3415441176471 10.1657310441011  22.2282660427808 9.69990066102196  C 21.6609532085562 7.36726342262494  20.2911002673796 5.28791355136332  18.3703542780748 3.84529826450779  C 13.7929237967915 0.405747115765507  7.27488368983961 1.34351490806762  3.84333288770051 5.93852774064169  C 2.18204411764702 8.16361346306195  1.48414171122988 10.9048354253317  1.87849331550797 13.6573152893312  C 2.27198395721928 16.409825996897  3.7110213903743 18.8430749488347  5.92922994652406 20.508627533505  C 10.5109652406417 23.9524967815409  17.0281443850267 23.0130325930877  20.4579732620321 18.4180197605136  C 21.3556497326202 17.2148430794877  21.97139171123 15.8667633235954  22.2861657754011 14.4102684318677  C 22.3882205882353 13.941816345646  22.8508957219251 13.6442993043177  23.3144318181818 13.745774637717  C 23.781442513369 13.8472808146828  24.0780441176471 14.3096258747606  23.9768810160427 14.7772143411237  C 23.6076203208556 16.479193177692  22.8898235294117 18.0528010909751  21.8425240641711 19.4580956625074  C 19.9044973262032 22.0535817736185  17.0731296791444 23.7382265258797  13.8707486631016 24.1979807263814  C 13.2870160427807 24.2829855953324  12.7041136363637 24.3246244099491  12.1247165775401 24.3246244099491  Z " fill-rule="nonzero" fill="#ffffff" stroke="none" transform="matrix(1 0 0 1 692 440 )" />
  </g>
</svg>