<?xml version="1.0" encoding="utf-8"?>
<svg version="1.1" xmlns:xlink="http://www.w3.org/1999/xlink" width="10px" height="8px" xmlns="http://www.w3.org/2000/svg">
  <g transform="matrix(1 0 0 1 -21 -109 )">
    <path d="M 2.89993846153846 7.11162828282828  L 0.190276923076919 4.35613737373735  C 0.0681846153846202 4.23201616161616  0.0465230769230836 4.03755959595958  0.156799999999993 3.89688888888888  L 0.410830769230767 3.57210505050504  C 0.515200000000004 3.43970909090909  0.708184615384614 3.40454141414142  0.846030769230776 3.49763232323231  L 3.03778461538462 4.98708686868684  C 3.15396923076923 5.06569696969697  3.35286153846154 5.05535353535353  3.46116923076924 4.96640000000001  L 9.25267692307693 0.183595959595976  C 9.38264615384615 0.0760242424242534  9.58744615384615 0.084298989898997  9.70166153846155 0.202214141414146  L 9.84344615384616 0.347022222222222  C 9.96750769230768 0.473212121212114  9.95766153846153 0.673874747474741  9.82769230769231 0.806270707070723  L 3.61083076923076 7.12610909090908  C 3.41784615384615 7.32263434343433  3.09883076923077 7.31435959595957  2.89993846153846 7.11162828282828  Z " fill-rule="nonzero" fill="#c8c9cc" stroke="none" transform="matrix(1 0 0 1 21 109 )" />
  </g>
</svg>