<?xml version="1.0" encoding="utf-8"?>
<svg version="1.1" xmlns:xlink="http://www.w3.org/1999/xlink" width="16px" height="15px" xmlns="http://www.w3.org/2000/svg">
  <g>
    <path d="M 2.00346853146853 6.9788959276018  L 6.31787412587413 11.4061900452489  L 7.97918881118881 13.1246334841629  L 13.9441678321678 6.98758371040725  C 15.3118881118881 5.58016289592757  15.2796643356643 3.37172850678735  13.868979020979 2.00427149321268  C 12.4815664335664 0.65766515837106  10.2330629370629 0.65766515837106  8.84744055944056 2.00427149321268  L 7.97023776223777 2.85567420814482  L 7.09303496503496 2.00427149321268  C 5.70741258741258 0.659402714932128  3.4606993006993 0.659402714932128  2.07507692307692 2.00427149321268  C 0.667972027972027 3.36999095022622  0.635748251748254 5.57668778280544  2.00346853146853 6.9788959276018  Z M 1.36794405594405 1.32141176470589  C 3.14383216783217 -0.402244343891368  6.0206993006993 -0.402244343891368  7.7947972027972 1.31967420814482  L 7.97023776223777 1.48995475113122  L 8.14567832167833 1.31967420814482  C 9.92156643356643 -0.403981900452493  12.7984335664336 -0.403981900452493  14.5743216783217 1.31967420814482  C 16.3645314685315 3.05723076923073  16.4057062937063 5.86164705882356  14.6692027972028 7.64785520361994  L 8.70243356643357 13.7866425339367  L 8.65946853146853 13.8283438914027  C 8.25846153846154 14.1932307692308  7.63009790209791 14.1741176470588  7.25415384615384 13.7849049773756  L 5.59641958041958 12.0699366515837  L 1.27843356643357 7.64264253393662  C -0.459860139860137 5.85990950226244  -0.420475524475524 3.05723076923073  1.36794405594405 1.32141176470589  Z " fill-rule="nonzero" fill="#c8c9cc" stroke="none" />
  </g>
</svg>