<?xml version="1.0" encoding="utf-8"?>
<svg version="1.1" xmlns:xlink="http://www.w3.org/1999/xlink" width="12px" height="9px" xmlns="http://www.w3.org/2000/svg">
  <g transform="matrix(1 0 0 1 -22 -432 )">
    <path d="M 3.47992615384615 8.53395393939394  L 0.228332307692302 5.22736484848485  C 0.0818215384615435 5.07841939393938  0.0558276923077017 4.84507151515152  0.188159999999993 4.67626666666666  L 0.49299692307692 4.28652606060604  C 0.618240000000004 4.1276509090909  0.849821538461537 4.0854496969697  1.01523692307693 4.19715878787878  L 3.64534153846154 5.98450424242424  C 3.78476307692307 6.07883636363636  4.02343384615385 6.06642424242426  4.15340307692309 5.95968000000005  L 11.1032123076923 0.220315151515194  C 11.2591753846154 0.0912290909091098  11.5049353846154 0.101158787878774  11.6419938461539 0.242656969696952  L 11.8121353846154 0.416426666666666  C 11.9610092307692 0.567854545454566  11.9491938461538 0.808649696969667  11.7932307692308 0.967524848484857  L 4.33299692307692 8.55133090909089  C 4.10141538461538 8.78716121212119  3.71859692307692 8.77723151515153  3.47992615384615 8.53395393939394  Z " fill-rule="nonzero" fill="#ffffff" stroke="none" fill-opacity="0" transform="matrix(1 0 0 1 22 432 )" />
  </g>
</svg>