<?xml version="1.0" encoding="utf-8"?>
<svg version="1.1" xmlns:xlink="http://www.w3.org/1999/xlink" width="8px" height="8px" xmlns="http://www.w3.org/2000/svg">
  <g transform="matrix(1 0 0 1 -111 -688 )">
    <path d="M 7.83024761904767 0.887771428571455  L 4.71801904761901 4  L 7.83024761904767 7.11222857142855  C 8.02895238095243 7.31093333333331  8.02895238095243 7.63276190476188  7.83024761904767 7.83024761904755  C 7.6315428571429 8.02773333333334  7.30971428571434 8.02895238095232  7.11222857142866 7.83024761904755  L 4 4.71801904761912  L 0.887771428571341 7.83146666666664  C 0.68906666666669 8.03017142857141  0.367238095238008 8.03017142857141  0.169752380952332 7.83146666666664  C -0.0289523809524326 7.63276190476188  -0.0289523809524326 7.31093333333331  0.169752380952332 7.11344761904763  L 3.28198095238099 4  L 0.168533333333357 0.887771428571455  C -0.0301714285715207 0.68906666666669  -0.0301714285715207 0.367238095238122  0.168533333333357 0.169752380952445  C 0.367238095238008 -0.0289523809523189  0.68906666666669 -0.0289523809523189  0.886552380952367 0.169752380952445  L 4 3.28198095238088  L 7.11222857142866 0.169752380952445  C 7.31093333333331 -0.0289523809523189  7.63276190476199 -0.0289523809523189  7.83024761904767 0.169752380952445  C 8.02895238095243 0.368457142857096  8.02895238095243 0.690285714285778  7.83024761904767 0.887771428571455  Z " fill-rule="nonzero" fill="#ffffff" stroke="none" transform="matrix(1 0 0 1 111 688 )" />
  </g>
</svg>