<?xml version="1.0" encoding="utf-8"?>
<svg version="1.1" xmlns:xlink="http://www.w3.org/1999/xlink" width="13px" height="12px" xmlns="http://www.w3.org/2000/svg">
  <g transform="matrix(1 0 0 1 -15 -121 )">
    <path d="M 3.45955087719299 8.76622222222221  L 3.45955087719299 8.76480000000001  L 6.66056140350877 10.9536  L 6.66056140350877 1.04640000000001  L 3.45955087719299 3.23519999999999  L 0.823424561403503 3.23519999999999  L 0.823424561403503 8.76622222222221  L 3.45955087719299 8.76622222222221  Z M 6.70289122807018 11.9264  L 3.45955087719299 9.55555555555557  L 0.620533333333327 9.55555555555557  C 0.284814035087724 9.55555555555557  0.0118596491228118 9.31662222222221  0.0118596491228118 9.02222222222221  L 0.0118596491228118 2.97777777777779  C 0.0118596491228118 2.68337777777779  0.284814035087724 2.44444444444446  0.620533333333327 2.44444444444446  L 3.45809122807018 2.44444444444446  L 6.70289122807018 0.073599999999999  C 7.15100350877194 0.073599999999999  7.51445614035088 0.322488888888898  7.51445614035088 0.629688888888893  L 7.51445614035088 11.3703111111111  C 7.51445614035088 11.6775111111111  7.15100350877194 11.9264  6.70289122807018 11.9264  Z M 10.5140350877193 2.08888888888887  L 11.0876771929825 1.52995555555555  C 12.2612350877193 2.67342222222223  12.9881403508772 4.25351111111112  12.9881403508772 6  C 12.9881403508772 7.7464888888889  12.2626947368421 9.32515555555557  11.0876771929825 10.4700444444445  L 10.5140350877193 9.9111111111111  C 11.5416280701754 8.90986666666666  12.1765754385965 7.52746666666667  12.1765754385965 6  C 12.1765754385965 4.47253333333333  11.5416280701754 3.09013333333334  10.5140350877193 2.08888888888887  Z M 8.79310877192982 3.76568888888889  L 9.36675087719299 3.20675555555556  C 10.1009543859649 3.92213333333333  10.5549052631579 4.90915555555554  10.5549052631579 6  C 10.5549052631579 7.09084444444446  10.1009543859649 8.0792888888889  9.36675087719299 8.79324444444444  L 8.79310877192982 8.23431111111111  C 9.37988771929825 7.66257777777778  9.74334035087719 6.87182222222222  9.74334035087719 6  C 9.74334035087719 5.12817777777778  9.37988771929825 4.33742222222222  8.79310877192982 3.76568888888889  Z M 9.48206315789474 8.52017777777777  C 9.48206315789474 8.73777777777778  9.29960701754386 8.91555555555556  9.07628070175438 8.91555555555556  C 8.85295438596492 8.91555555555556  8.67049824561404 8.73920000000001  8.67049824561404 8.52017777777777  C 8.67049824561404 8.30257777777777  8.8514947368421 8.12479999999999  9.07628070175438 8.12479999999999  C 9.29960701754386 8.12479999999999  9.48206315789474 8.30115555555557  9.48206315789474 8.52017777777777  Z M 9.49665964912281 3.49262222222222  C 9.49665964912281 3.71164444444443  9.31566315789474 3.88800000000001  9.09087719298245 3.88800000000001  C 8.86755087719298 3.88800000000001  8.6850947368421 3.71164444444443  8.6850947368421 3.49262222222222  C 8.6850947368421 3.27502222222222  8.86609122807018 3.09724444444444  9.09087719298245 3.09724444444444  C 9.31566315789474 3.09724444444444  9.49665964912281 3.27360000000002  9.49665964912281 3.49262222222222  Z M 11.2000701754386 10.1941333333333  C 11.2000701754386 10.4131555555556  11.0176140350877 10.5895111111111  10.7942877192982 10.5895111111111  C 10.5709614035088 10.5895111111111  10.3885052631579 10.4131555555556  10.3885052631579 10.1941333333333  C 10.3885052631579 9.97511111111112  10.569501754386 9.79875555555557  10.7942877192982 9.79875555555557  C 11.0176140350877 9.79875555555557  11.2000701754386 9.97511111111112  11.2000701754386 10.1941333333333  Z M 11.2015298245614 1.80444444444444  C 11.2015298245614 2.02346666666668  11.0190736842105 2.19982222222222  10.7957473684211 2.19982222222222  C 10.5724210526316 2.19982222222222  10.3899649122807 2.02346666666668  10.3899649122807 1.80444444444444  C 10.3899649122807 1.58684444444444  10.5709614035088 1.40906666666666  10.7957473684211 1.40906666666666  C 11.0190736842105 1.40906666666666  11.2015298245614 1.58542222222223  11.2015298245614 1.80444444444444  Z " fill-rule="nonzero" fill="#ed6a0c" stroke="none" transform="matrix(1 0 0 1 15 121 )" />
  </g>
</svg>