<?xml version="1.0" encoding="utf-8"?>
<svg version="1.1" xmlns:xlink="http://www.w3.org/1999/xlink" width="12px" height="12px" xmlns="http://www.w3.org/2000/svg">
  <g transform="matrix(1 0 0 1 -15 -547 )">
    <path d="M 0.012294736842108 6  C 0.012294736842108 2.69355789473684  2.69221052631579 0.0122947368421364  6 0.0122947368421364  C 9.30778947368421 0.0122947368421364  11.9877052631579 2.69355789473684  11.9877052631579 6  C 11.9877052631579 9.30644210526316  9.30778947368421 11.9877052631579  6 11.9877052631579  C 2.69221052631579 11.9877052631579  0.012294736842108 9.30644210526316  0.012294736842108 6  Z M 11.2399157894737 6  C 11.2399157894737 3.10585263157895  8.89414736842105 0.760084210526315  6 0.760084210526315  C 3.10585263157894 0.760084210526315  0.760084210526315 3.10585263157895  0.760084210526315 6  C 0.760084210526315 8.89414736842105  3.10585263157894 11.2399157894737  6 11.2399157894737  C 8.89414736842105 11.2399157894737  11.2399157894737 8.89414736842105  11.2399157894737 6  Z M 6.33329833992094 7.84536537549411  L 5.74026877470355 7.84536537549411  C 5.66012964426878 7.84536537549411  5.59310418972332 7.78570624505926  5.59019003952569 7.70435288537544  L 5.46925280632411 2.71332426877473  C 5.46779573122529 2.63603857707506  5.52753581027667 2.57231177865617  5.61496031620553 2.57231177865617  L 6.45714972332016 2.57231177865617  C 6.53874592885376 2.57231177865617  6.60431430830039 2.63197090909091  6.60285723320158 2.71332426877473  L 6.48337707509882 7.70435288537544  C 6.48192 7.78163857707511  6.41052332015811 7.84536537549411  6.33329833992094 7.84536537549411  Z M 5.46925280632411 8.90024727272726  C 5.46925280632411 8.60873106719373  5.72278387351778 8.37280632411068  6.03605501976284 8.37280632411068  C 6.3493261660079 8.37280632411068  6.60285723320158 8.60873106719373  6.60285723320158 8.90024727272726  C 6.60285723320158 9.1917634782609  6.3493261660079 9.42768822134383  6.03605501976284 9.42768822134383  C 5.72278387351778 9.42768822134383  5.46925280632411 9.1917634782609  5.46925280632411 8.90024727272726  Z " fill-rule="nonzero" fill="#1989fa" stroke="none" transform="matrix(1 0 0 1 15 547 )" />
  </g>
</svg>