<?xml version="1.0" encoding="utf-8"?>
<svg version="1.1" xmlns:xlink="http://www.w3.org/1999/xlink" width="8px" height="12px" xmlns="http://www.w3.org/2000/svg">
  <g transform="matrix(1 0 0 1 -325 -310 )">
    <path d="M 6.93327620278876 5.5360653061224  C 7.11369840243788 5.70220408163266  7.1766759626928 5.93573877551023  7.1222088835533 6.14889795918367  C 7.09157115153744 6.26801632653059  7.02689149505954 6.3761632653061  6.93327620278876 6.46236734693878  L 1.24997691384249 11.697306122449  C 0.972535229476421 11.9527836734694  0.523181826576774 11.9527836734694  0.247442238433905 11.697306122449  C -0.0282973497090779 11.4418285714286  -0.0299994459321624 11.0280489795919  0.247442238433905 10.7741387755102  L 5.43032523778732 6  L 0.247442238433905 1.22586122448979  C -0.0299994459321624 0.970383673469371  -0.0299994459321624 0.556604081632656  0.247442238433905 0.302693877551008  C 0.524883922799859 0.047216326530588  0.974237325699505 0.047216326530588  1.24997691384249 0.302693877551008  L 6.93327620278876 5.5360653061224  Z " fill-rule="nonzero" fill="#b9c6d4" stroke="none" transform="matrix(1 0 0 1 325 310 )" />
  </g>
</svg>