<?xml version="1.0" encoding="utf-8"?>
<svg version="1.1" xmlns:xlink="http://www.w3.org/1999/xlink" width="12px" height="16px" xmlns="http://www.w3.org/2000/svg">
  <g transform="matrix(1 0 0 1 -17 -503 )">
    <path d="M 5.90389016018306 14.3122066985646  C 9.18326773455377 11.036876555024  10.7860503432494 8.12166124401915  10.7860503432494 5.59742775119616  C 10.7860503432494 3.04061244019135  8.6050709382151 0.960520574162672  5.90389016018306 0.960520574162672  C 3.20270938215103 0.960520574162672  1.02172997711671 3.04061244019135  1.02172997711671 5.59742775119616  C 1.02172997711671 8.10965741626791  2.6262700228833 11.0248727272727  5.90389016018306 14.3122066985646  Z M 11.7614279176201 5.59742775119616  C 11.7614279176201 8.41489760765546  10.0426544622426 11.5410373205742  6.60335011441647 14.977561722488  L 6.58577574370709 14.9947100478468  C 6.19913958810068 15.3616842105263  5.58052173913044 15.3531100478468  5.20443020594966 14.9758468899522  C 1.76512585812357 11.5290334928229  0.0463524027459989 8.40117894736835  0.0463524027459989 5.59742775119616  C 0.0463524027459989 2.51072918660287  2.66844851258582 0.00707368421052479  5.90389016018306 0.00707368421052479  C 9.13933180778031 0.00707368421052479  11.7614279176201 2.50901435406701  11.7614279176201 5.59742775119616  Z M 8.34497025171624 6.19933397129182  C 8.34497025171624 7.51461052631578  7.25184439359268 8.58123636363632  5.90389016018306 8.58123636363632  C 4.55593592677345 8.58123636363632  3.46281006864988 7.51461052631578  3.46281006864988 6.19933397129182  C 3.46281006864988 4.88405741626798  4.55593592677345 3.81743157894732  5.90389016018306 3.81743157894732  C 7.25184439359268 3.81743157894732  8.34497025171624 4.88405741626798  8.34497025171624 6.19933397129182  Z M 4.43994508009153 6.19933397129182  C 4.43994508009153 6.98815693779903  5.09546910755148 7.6295043062201  5.90389016018306 7.6295043062201  C 6.71231121281464 7.6295043062201  7.3678352402746 6.9898717703349  7.3678352402746 6.2010488038278  C 7.3678352402746 5.41222583732059  6.71231121281464 4.77087846889958  5.90389016018306 4.77087846889958  C 5.09546910755148 4.77087846889958  4.43994508009153 5.41051100478472  4.43994508009153 6.19933397129182  Z " fill-rule="nonzero" fill="#323233" stroke="none" transform="matrix(1 0 0 1 17 503 )" />
  </g>
</svg>