<?xml version="1.0" encoding="utf-8"?>
<svg version="1.1" xmlns:xlink="http://www.w3.org/1999/xlink" width="9px" height="15px" xmlns="http://www.w3.org/2000/svg">
  <g transform="matrix(1 0 0 1 -347 -741 )">
    <path d="M 8.44993037214886 6.92008163265302  C 8.66981992797116 7.12775510204074  8.74657382953183 7.4196734693877  8.68019207683074 7.68612244897963  C 8.64285234093637 7.83502040816325  8.56402400960383 7.97020408163257  8.44993037214886 8.07795918367356  L 1.52340936374549 14.6216326530613  C 1.18527731092433 14.9409795918368  0.637627851140451 14.9409795918368  0.301570228091236 14.6216326530613  C -0.0344873949579778 14.3022857142856  -0.0365618247299153 13.7850612244898  0.301570228091236 13.4676734693878  L 6.61820888355339 7.5  L 0.301570228091236 1.53232653061218  C -0.0365618247299153 1.21297959183676  -0.0365618247299153 0.695755102040835  0.301570228091236 0.378367346938717  C 0.639702280912331 0.0590204081632919  1.18735174069627 0.0590204081632919  1.52340936374549 0.378367346938717  L 8.44993037214886 6.92008163265302  Z " fill-rule="nonzero" fill="#969799" stroke="none" transform="matrix(1 0 0 1 347 741 )" />
  </g>
</svg>