<?xml version="1.0" encoding="utf-8"?>
<svg version="1.1" xmlns:xlink="http://www.w3.org/1999/xlink" width="12px" height="12px" xmlns="http://www.w3.org/2000/svg">
  <g transform="matrix(1 0 0 1 -344 -1363 )">
    <path d="M 0.916430769230772 4.51550769230766  C 0.916430769230772 6.55513846153849  2.56910769230768 8.20781538461529  4.60873846153845 8.20781538461529  C 6.64836923076922 8.20781538461529  8.30104615384613 6.55513846153849  8.30104615384613 4.51550769230766  C 8.30104615384613 2.47587692307684  6.64836923076922 0.823200000000043  4.60873846153845 0.823200000000043  C 2.56910769230768 0.823200000000043  0.916430769230772 2.47587692307684  0.916430769230772 4.51550769230766  Z M 9.1222153846154 4.51550769230766  C 9.12073846153845 5.60252307692303  8.73673846153844 6.5994461538462  8.09723076923075 7.37926153846161  L 11.7851076923077 11.0671384615384  C 11.9446153846154 11.2266461538461  11.9446153846154 11.4865846153846  11.7851076923077 11.6475692307692  C 11.6256 11.8070769230769  11.3656615384616 11.8070769230769  11.2046769230769 11.6475692307692  L 7.52123076923078 7.96264615384621  C 6.73550769230769 8.62726153846143  5.71938461538463 9.02750769230761  4.60873846153845 9.02750769230761  C 2.11569230769231 9.02750769230761  0.0952615384615569 7.00707692307697  0.0952615384615569 4.51550769230766  C 0.0952615384615569 2.02393846153836  2.11569230769231 0.00203076923071421  4.60873846153845 0.00203076923071421  C 7.10178461538464 0.00203076923071421  9.1222153846154 2.02246153846158  9.1222153846154 4.51550769230766  Z " fill-rule="nonzero" fill="#333333" stroke="none" transform="matrix(1 0 0 1 344 1363 )" />
  </g>
</svg>