<?xml version="1.0" encoding="utf-8"?>
<svg version="1.1" xmlns:xlink="http://www.w3.org/1999/xlink" width="24px" height="24px" xmlns="http://www.w3.org/2000/svg">
  <g transform="matrix(1 0 0 1 -176 -153 )">
    <path d="M 23.9932232142857 12  C 23.9932232142857 10.3812857142857  23.6760267857143 8.81057142857142  23.0504196428572 7.33143750000002  C 22.4463214285714 5.90319642857145  21.5816785714286 4.62066964285711  20.4805178571428 3.51950892857144  C 19.3793571428571 2.41834821428571  18.0968303571428 1.55370535714283  16.6685625 0.949607142857133  C 15.1894285714286 0.323973214285701  13.6187142857143 0.00675000000001091  12 0.00675000000001091  C 10.3812857142857 0.00675000000001091  8.81057142857142 0.323973214285701  7.33143750000002 0.949580357142821  C 5.90319642857145 1.55367857142861  4.62066964285714 2.41832142857143  3.51950892857144 3.51948214285716  C 2.41834821428571 4.62064285714288  1.55370535714286 5.90316964285714  0.949607142857161 7.33141071428571  C 0.323973214285729 8.81057142857142  0.00675000000001091 10.3812857142857  0.00675000000001091 12  C 0.00675000000001091 13.6187142857143  0.323973214285729 15.1894285714286  0.94958035714285 16.6685625  C 1.55367857142858 18.0968035714286  2.41832142857143 19.3793303571429  3.51948214285716 20.4805178571428  C 4.62064285714285 21.5816785714286  5.90316964285714 22.4463482142857  7.33141071428571 23.0504196428571  C 8.81054464285714 23.6760267857143  10.3812857142857 23.99325  11.9999732142857 23.99325  C 13.6186607142857 23.99325  15.1894017857143 23.6760267857143  16.6685357142857 23.0504196428571  C 18.0967767857143 22.4463214285714  19.3793035714286 21.5816785714286  20.4804910714286 20.4805178571428  C 21.5816785714286 19.3793571428571  22.4463214285714 18.0968303571428  23.0503928571429 16.6685625  C 23.676 15.1894285714286  23.9932232142857 13.6187142857143  23.9932232142857 12  Z M 22.2924642857143 12  C 22.2924642857143 17.6752767857143  17.6752767857143 22.2924642857143  12 22.2924642857143  C 6.32472321428571 22.2924642857143  1.70753571428571 17.6752767857143  1.70753571428571 12  C 1.70753571428571 6.32472321428571  6.32472321428571 1.70753571428571  12 1.70753571428571  C 17.6752767857143 1.70753571428571  22.2924642857143 6.32472321428571  22.2924642857143 12  Z M 16.9245 8.28768749999998  C 17.217375 7.99481249999999  17.1834642857143 7.4859910714286  16.84875 7.15124999999998  C 16.5140089285714 6.81650892857144  16.0052142857143 6.78259821428574  15.7123125 7.07550000000001  L 12 10.7878125  L 8.2876875 7.07550000000001  C 7.99478571428571 6.78259821428574  7.48599107142857 6.81653571428572  7.15124999999998 7.15124999999998  C 6.81650892857144 7.48596428571429  6.78259821428571 7.99478571428571  7.07550000000001 8.28768749999998  L 10.7878125 12  L 7.07550000000001 15.7123125  C 6.78259821428571 16.0052142857143  6.81653571428572 16.5140089285714  7.15124999999998 16.84875  C 7.48599107142857 17.1834642857143  7.99478571428571 17.2174017857143  8.2876875 16.9245  L 12 13.2121875  L 15.7123125 16.9245  C 16.0052142857143 17.2174017857143  16.5140089285714 17.1834642857143  16.84875 16.84875  C 17.1834642857143 16.5140089285714  17.2174017857143 16.0052142857143  16.9245 15.7123125  L 13.2121875 12  L 16.9245 8.28768749999998  Z " fill-rule="nonzero" fill="#ffffff" stroke="none" transform="matrix(1 0 0 1 176 153 )" />
  </g>
</svg>