<?xml version="1.0" encoding="utf-8"?>
<svg version="1.1" xmlns:xlink="http://www.w3.org/1999/xlink" width="11px" height="11px" xmlns="http://www.w3.org/2000/svg">
  <g transform="matrix(1 0 0 1 -331 -138 )">
    <path d="M 10.9887298245614 5.5  C 10.9887298245614 8.5309052631579  8.5321403508772 10.9887298245614  5.5 10.9887298245614  C 2.4678596491228 10.9887298245614  0.0112701754385967 8.5309052631579  0.0112701754385967 5.5  C 0.0112701754385967 2.4690947368421  2.4678596491228 0.0112701754385967  5.5 0.0112701754385967  C 8.5321403508772 0.0112701754385967  10.9887298245614 2.4690947368421  10.9887298245614 5.5  Z M 7.1933052631579 3.31883508771929  L 5.49629473684212 5.0170807017544  L 3.79804912280702 3.31883508771929  C 3.6646596491228 3.18544561403508  3.44728421052631 3.18544561403508  3.31265964912282 3.31883508771929  C 3.1792701754386 3.45222456140351  3.1792701754386 3.6696  3.31265964912282 3.80422456140352  L 5.01090526315789 5.50247017543859  L 3.31265964912282 7.20071578947369  C 3.1792701754386 7.33410526315788  3.1792701754386 7.55148070175437  3.31265964912282 7.68610526315788  C 3.44604912280701 7.8194947368421  3.6634245614035 7.8194947368421  3.79804912280702 7.68610526315788  L 5.49629473684212 5.98785964912281  L 7.19454035087719 7.68610526315788  C 7.32792982456141 7.8194947368421  7.5453052631579 7.8194947368421  7.67992982456141 7.68610526315788  C 7.81455438596493 7.55271578947369  7.8133192982456 7.3353403508772  7.67992982456141 7.20071578947369  L 5.98044912280702 5.50247017543859  L 7.67869473684209 3.80422456140352  C 7.81208421052631 3.6708350877193  7.81208421052631 3.45345964912281  7.67869473684209 3.31883508771929  C 7.5453052631579 3.18544561403508  7.32792982456141 3.18544561403508  7.1933052631579 3.31883508771929  Z " fill-rule="nonzero" fill="#c8c9cc" stroke="none" transform="matrix(1 0 0 1 331 138 )" />
  </g>
</svg>