<?xml version="1.0" encoding="utf-8"?>
<svg version="1.1" xmlns:xlink="http://www.w3.org/1999/xlink" width="11px" height="11px" xmlns="http://www.w3.org/2000/svg">
  <g transform="matrix(1 0 0 1 -25 -138 )">
    <path d="M 0.840061538461541 4.1392153846154  C 0.840061538461541 6.00887692307691  2.35501538461538 7.52383076923076  4.22467692307693 7.52383076923076  C 6.09433846153846 7.52383076923076  7.6092923076923 6.00887692307691  7.6092923076923 4.1392153846154  C 7.6092923076923 2.26955384615383  6.09433846153846 0.754599999999982  4.22467692307693 0.754599999999982  C 2.35501538461538 0.754599999999982  0.840061538461541 2.26955384615383  0.840061538461541 4.1392153846154  Z M 8.36203076923077 4.1392153846154  C 8.36067692307692 5.13564615384615  8.00867692307692 6.04949230769233  7.42246153846153 6.76432307692306  L 10.8030153846154 10.1448769230769  C 10.9492307692308 10.2910923076923  10.9492307692308 10.5293692307692  10.8030153846154 10.6769384615384  C 10.6568 10.8231538461538  10.4185230769231 10.8231538461538  10.2709538461538 10.6769384615384  L 6.89446153846154 7.29909230769232  C 6.17421538461538 7.90832307692307  5.24276923076923 8.27521538461536  4.22467692307693 8.27521538461536  C 1.93938461538461 8.27521538461536  0.0873230769230844 6.42315384615387  0.0873230769230844 4.1392153846154  C 0.0873230769230844 1.85527692307693  1.93938461538461 0.00186153846152592  4.22467692307693 0.00186153846152592  C 6.50996923076923 0.00186153846152592  8.36203076923077 1.85392307692308  8.36203076923077 4.1392153846154  Z " fill-rule="nonzero" fill="#333333" stroke="none" transform="matrix(1 0 0 1 25 138 )" />
  </g>
</svg>