<?xml version="1.0" encoding="utf-8"?>
<svg version="1.1" xmlns:xlink="http://www.w3.org/1999/xlink" width="7px" height="4px" xmlns="http://www.w3.org/2000/svg">
  <g transform="matrix(1 0 0 1 -115 -366 )">
    <path d="M 6.76206140350877 0.904034690799392  C 7.03070175438597 0.67307692307692  6.99232456140351 0.376131221719461  6.80043859649123 0.178167420814475  C 6.68530701754386 0.0791855203619889  6.53179824561403 0.0461915535444888  6.37828947368422 0.0461915535444888  L 0.62171052631578 0.0791855203619889  C 0.468201754385973 0.0791855203619889  0.314692982456137 0.112179487179489  0.199561403508767 0.211161387631975  C -0.0307017543859729 0.409125188536962  -0.0307017543859729 0.70607088989442  0.199561403508767 0.904034690799392  L 3.07785087719299 3.37858220211163  C 3.11622807017544 3.41157616892912  3.19298245614036 3.4445701357466  3.23135964912282 3.47756410256412  L 3.26973684210526 3.5105580693816  C 3.46162280701756 3.5765460030166  3.73026315789474 3.54355203619909  3.88377192982456 3.41157616892912  L 6.76206140350877 0.904034690799392  Z " fill-rule="nonzero" fill="#ee0a24" stroke="none" transform="matrix(1 0 0 1 115 366 )" />
  </g>
</svg>