<?xml version="1.0" encoding="utf-8"?>
<svg version="1.1" xmlns:xlink="http://www.w3.org/1999/xlink" width="10px" height="8px" xmlns="http://www.w3.org/2000/svg">
  <g transform="matrix(1 0 0 1 -346 -16 )">
    <path d="M 2.86880000000002 6.99968000000001  L 0.128319999999974 4.26304000000002  C 0.00416000000001304 4.13888  -0.0163200000000074 3.94560000000001  0.0937599999999748 3.80735999999999  L 0.349760000000003 3.48480000000001  C 0.454720000000009 3.35296  0.650559999999984 3.31968000000001  0.790079999999989 3.41184000000001  L 3.00704000000002 4.89152000000001  C 3.12351999999998 4.96960000000001  3.32576 4.95936  3.43455999999998 4.87103999999999  L 9.29183999999998 0.118400000000008  C 9.42367999999999 0.0121599999999944  9.62976000000003 0.0211199999999963  9.74495999999999 0.136319999999984  L 9.88959999999997 0.280959999999993  C 10.01504 0.406399999999991  10.00608 0.604800000000012  9.87423999999999 0.736639999999994  L 3.58688000000001 7.01375999999999  C 3.39103999999998 7.20959999999999  3.06975999999997 7.20063999999999  2.86880000000002 6.99968000000001  Z " fill-rule="nonzero" fill="#1989fa" stroke="none" transform="matrix(1 0 0 1 346 16 )" />
  </g>
</svg>