<?xml version="1.0" encoding="utf-8"?>
<svg version="1.1" xmlns:xlink="http://www.w3.org/1999/xlink" width="16px" height="16px" xmlns="http://www.w3.org/2000/svg">
  <g>
    <path d="M 7.53454545454545 3.65575758181819  L 7.53454545454545 0.552727272727267  C 7.53454545454545 0.295663825533282  7.74293655280601 0.087272727272719  8 0.087272727272719  C 8.25706344719399 0.087272727272719  8.46545454545455 0.295663825533282  8.46545454545455 0.552727272727267  L 8.46545454545455 3.65575758181819  C 8.46545454545455 3.91282102901214  8.25706344719399 4.12121212727273  8 4.12121212727273  C 7.74293655280601 4.12121212727273  7.53454545454545 3.91282102901214  7.53454545454545 3.65575758181819  Z M 9.76872727272726 4.00515878181818  L 11.3202424181818 1.31793454545455  C 11.4034145099197 1.17376958427626  11.5571997905054 1.0849487534086  11.7236363636364 1.0849487534086  C 11.9808425871076 1.0849487534086  12.1893494284096 1.29345559471062  12.1893494284096 1.55066181818181  C 12.1893494284096 1.63236092652399  12.1678571874994 1.71262250060458  12.1270303090909 1.7833890909091  L 10.5755151454545 4.47061332727272  C 10.4923430545278 4.61477828379618  10.3385577777846 4.70359911144426  10.1721212090909 4.70359911144426  C 9.91491498996862 4.70359911144426  9.7064081521921 4.49509227366775  9.7064081521921 4.23788605454543  C 9.7064081521921 4.15618694604416  9.72790039354899 4.07592537186228  9.76872727272726 4.00515878181818  Z M 11.5293866727273 5.42448485454547  L 14.2166109090909 3.8729696909091  C 14.2873774993954 3.83214281250063  14.367639073476 3.81065057159041  14.4493381818182 3.81065057159041  C 14.7065444052894 3.81065057159041  14.9150512465914 4.01915741289243  14.9150512465914 4.27636363636366  C 14.9150512465914 4.44280020949464  14.8262304157237 4.59658549008027  14.6820654545455 4.67975758181819  L 11.9948412181818 6.23127272727272  C 11.9240746281377 6.27209960645102  11.8438130539558 6.29359184780792  11.7621139454546 6.29359184780792  C 11.5049077263323 6.29359184780792  11.2964008885558 6.08508501003139  11.2964008885558 5.82787879090908  C 11.2964008885558 5.66144222221537  11.3852217162038 5.50765694547222  11.5293866727273 5.42448485454547  Z M 12.3442424181818 7.53454545454547  L 15.4472727272727 7.53454545454547  C 15.7043361744667 7.53454545454547  15.9127272727273 7.74293655280603  15.9127272727273 8  C 15.9127272727273 8.25706344719397  15.7043361744667 8.46545454545453  15.4472727272727 8.46545454545453  L 12.3442424181818 8.46545454545453  C 12.0871789709878 8.46545454545453  11.8787878727273 8.25706344719397  11.8787878727273 8  C 11.8787878727273 7.74293655280603  12.0871789709878 7.53454545454547  12.3442424181818 7.53454545454547  Z M 11.9948412181818 9.76872727272728  L 14.6820654545455 11.3202424181818  C 14.8262304157237 11.4034145099197  14.9150512465914 11.5571997905054  14.9150512465914 11.7236363636363  C 14.9150512465914 11.9808425871076  14.7065444052894 12.1893494284096  14.4493381818182 12.1893494284096  C 14.367639073476 12.1893494284096  14.2873774993954 12.1678571874994  14.2166109090909 12.1270303090909  L 11.5293866727273 10.5755151454545  C 11.3852217162038 10.4923430545278  11.2964008885558 10.3385577777846  11.2964008885558 10.1721212090909  C 11.2964008885558 9.91491498996864  11.5049077263323 9.70640815219213  11.7621139454546 9.70640815219213  C 11.8438130539558 9.70640815219213  11.9240746281377 9.72790039354898  11.9948412181818 9.76872727272728  Z M 10.5755151454545 11.5293866727273  L 12.1270303090909 14.2166109090909  C 12.1678571874994 14.2873774993954  12.1893494284096 14.367639073476  12.1893494284096 14.4493381818182  C 12.1893494284096 14.7065444052894  11.9808425871076 14.9150512465914  11.7236363636364 14.9150512465914  C 11.5571997905054 14.9150512465914  11.4034145099197 14.8262304157237  11.3202424181818 14.6820654545455  L 9.76872727272726 11.9948412181818  C 9.72790039354899 11.9240746281377  9.7064081521921 11.8438130539558  9.7064081521921 11.7621139454545  C 9.7064081521921 11.5049077263322  9.91491498996862 11.2964008885557  10.1721212090909 11.2964008885557  C 10.3385577777846 11.2964008885557  10.4923430545278 11.3852217162038  10.5755151454545 11.5293866727273  Z M 8.46545454545455 12.3442424181818  L 8.46545454545455 15.4472727272727  C 8.46545454545455 15.7043361744667  8.25706344719399 15.9127272727273  8 15.9127272727273  C 7.74293655280601 15.9127272727273  7.53454545454545 15.7043361744667  7.53454545454545 15.4472727272727  L 7.53454545454545 12.3442424181818  C 7.53454545454545 12.0871789709878  7.74293655280601 11.8787878727273  8 11.8787878727273  C 8.25706344719399 11.8787878727273  8.46545454545455 12.0871789709878  8.46545454545455 12.3442424181818  Z M 6.23127272727271 11.9948412181818  L 4.67975758181817 14.6820654545455  C 4.59658549008032 14.8262304157237  4.44280020949464 14.9150512465914  4.27636363636364 14.9150512465914  C 4.01915741289241 14.9150512465914  3.81065057159043 14.7065444052894  3.81065057159043 14.4493381818182  C 3.81065057159043 14.367639073476  3.83214281250065 14.2873774993954  3.87296969090909 14.2166109090909  L 5.42448485454545 11.5293866727273  C 5.50765694547223 11.3852217162038  5.66144222221536 11.2964008885557  5.8278787909091 11.2964008885557  C 6.08508501003138 11.2964008885557  6.2935918478079 11.5049077263322  6.2935918478079 11.7621139454545  C 6.2935918478079 11.8438130539558  6.27209960645104 11.9240746281377  6.23127272727271 11.9948412181818  Z M 4.47061332727273 10.5755151454545  L 1.78338909090908 12.1270303090909  C 1.71262250060457 12.1678571874994  1.63236092652397 12.1893494284096  1.55066181818182 12.1893494284096  C 1.29345559471062 12.1893494284096  1.08494875340858 11.9808425871076  1.08494875340858 11.7236363636363  C 1.08494875340858 11.5571997905054  1.17376958427627 11.4034145099197  1.31793454545456 11.3202424181818  L 4.00515878181818 9.76872727272728  C 4.07592537186227 9.72790039354898  4.15618694604416 9.70640815219213  4.23788605454547 9.70640815219213  C 4.49509227366775 9.70640815219213  4.70359911144425 9.91491498996864  4.70359911144425 10.1721212090909  C 4.70359911144425 10.3385577777846  4.6147782837962 10.4923430545278  4.47061332727273 10.5755151454545  Z M 3.65575758181819 8.46545454545453  L 0.552727272727282 8.46545454545453  C 0.295663825533296 8.46545454545453  0.0872727272727332 8.25706344719397  0.0872727272727332 8  C 0.0872727272727332 7.74293655280603  0.295663825533296 7.53454545454547  0.552727272727282 7.53454545454547  L 3.65575758181819 7.53454545454547  C 3.91282102901215 7.53454545454547  4.12121212727271 7.74293655280603  4.12121212727271 8  C 4.12121212727271 8.25706344719397  3.91282102901215 8.46545454545453  3.65575758181819 8.46545454545453  Z M 4.00515878181818 6.23127272727272  L 1.31793454545456 4.67975758181819  C 1.17376958427627 4.59658549008027  1.08494875340858 4.44280020949464  1.08494875340858 4.27636363636366  C 1.08494875340858 4.01915741289243  1.29345559471062 3.81065057159041  1.55066181818182 3.81065057159041  C 1.63236092652397 3.81065057159041  1.71262250060457 3.83214281250063  1.78338909090908 3.8729696909091  L 4.47061332727273 5.42448485454547  C 4.6147782837962 5.50765694547222  4.70359911144425 5.66144222221537  4.70359911144425 5.82787879090908  C 4.70359911144425 6.08508501003139  4.49509227366775 6.29359184780792  4.23788605454547 6.29359184780792  C 4.15618694604416 6.29359184780792  4.07592537186227 6.27209960645102  4.00515878181818 6.23127272727272  Z M 5.42448485454545 4.47061332727272  L 3.87296969090909 1.7833890909091  C 3.83214281250065 1.71262250060458  3.81065057159043 1.63236092652399  3.81065057159043 1.55066181818181  C 3.81065057159043 1.29345559471062  4.01915741289241 1.0849487534086  4.27636363636364 1.0849487534086  C 4.44280020949464 1.0849487534086  4.59658549008029 1.17376958427626  4.67975758181817 1.31793454545455  L 6.23127272727271 4.00515878181818  C 6.27209960645104 4.07592537186228  6.2935918478079 4.15618694604416  6.2935918478079 4.23788605454543  C 6.2935918478079 4.49509227366775  6.08508501003138 4.70359911144426  5.8278787909091 4.70359911144426  C 5.66144222221536 4.70359911144426  5.50765694547223 4.61477828379618  5.42448485454545 4.47061332727272  Z " fill-rule="nonzero" fill="#969799" stroke="none" fill-opacity="0.6" />
  </g>
</svg>