<?xml version="1.0" encoding="utf-8"?>
<svg version="1.1" xmlns:xlink="http://www.w3.org/1999/xlink" width="14px" height="14px" xmlns="http://www.w3.org/2000/svg">
  <g transform="matrix(1 0 0 1 -342 -479 )">
    <path d="M 0.0143438596491592 7  C 0.0143438596491592 3.14248421052639  3.1409122807018 0.0143438596491023  7 0.0143438596491023  C 10.8590877192982 0.0143438596491023  13.9856561403508 3.14248421052639  13.9856561403508 7  C 13.9856561403508 10.8575157894736  10.8590877192982 13.9856561403509  7 13.9856561403509  C 3.1409122807018 13.9856561403509  0.0143438596491592 10.8575157894736  0.0143438596491592 7  Z M 13.1132350877193 7  C 13.1132350877193 3.62349473684219  10.3765052631579 0.886764912280739  7 0.886764912280739  C 3.62349473684208 0.886764912280739  0.886764912280739 3.62349473684219  0.886764912280739 7  C 0.886764912280739 10.3765052631578  3.62349473684208 13.1132350877193  7 13.1132350877193  C 10.3765052631579 13.1132350877193  13.1132350877193 10.3765052631578  13.1132350877193 7  Z M 4.3682488888889 5.01212444444445  C 4.19352888888886 4.83740444444436  4.19352888888886 4.55267555555554  4.3682488888889 4.37633777777785  C 4.54296888888888 4.20161777777776  4.82769777777781 4.20161777777776  5.00403555555556 4.37633777777785  L 7.22848000000005 6.60078222222222  L 9.45292444444442 4.37633777777785  C 9.62764444444446 4.20161777777776  9.91237333333333 4.20161777777776  10.0887111111111 4.37633777777785  C 10.2634311111111 4.55105777777777  10.2634311111111 4.83578666666659  10.0887111111111 5.01212444444445  L 7.86264888888894 7.23656888888883  L 10.0870933333333 9.46101333333337  C 10.2618133333333 9.63573333333329  10.2618133333333 9.92046222222228  10.0870933333333 10.0968  C 9.91237333333333 10.2731377777778  9.62764444444446 10.2715200000001  9.45130666666665 10.0968  L 7.22848000000005 7.8723555555556  L 5.00403555555556 10.0968  C 4.82931555555558 10.2715200000001  4.54458666666665 10.2715200000001  4.3682488888889 10.0968  C 4.19352888888886 9.92208000000005  4.19352888888886 9.63735111111106  4.3682488888889 9.46101333333337  L 6.59269333333333 7.23656888888883  L 4.3682488888889 5.01212444444445  Z " fill-rule="nonzero" fill="#969799" stroke="none" transform="matrix(1 0 0 1 342 479 )" />
  </g>
</svg>