<?xml version="1.0" encoding="utf-8"?>
<svg version="1.1" xmlns:xlink="http://www.w3.org/1999/xlink" width="18px" height="17px" xmlns="http://www.w3.org/2000/svg">
  <g>
    <path d="M 13.9694896551724 16.7915529131986  L 9 14.65112960761  L 4.02852413793103 16.7915529131986  C 3.75045517241379 16.9118668252081  3.42471724137931 16.7876718192628  3.3015724137931 16.5159952437574  C 3.26383448275862 16.4306111771701  3.24794482758621 16.3374649227111  3.25787586206896 16.2443186682521  L 3.80408275862069 10.9640903686088  L 0.185213793103451 7.00537455410225  C -0.017379310344829 6.78415219976219  0.00248275862069036 6.4426159334126  0.22891034482759 6.24468014268727  C 0.300413793103449 6.18258263971462  0.385820689655173 6.13989060642093  0.479172413793105 6.12048513674198  L 5.79028965517242 4.99690844233056  L 8.52331034482759 0.411395957193818  C 8.67624827586206 0.153303210463733  9.01390344827586 0.0679191438763382  9.27806896551724 0.217341260404282  C 9.36148965517242 0.263914387633776  9.42902068965518 0.3318335315101  9.47668965517241 0.411395957193818  L 12.2097103448276 4.99690844233056  L 17.5188413793103 6.12048513674198  C 17.8167724137931 6.18258263971462  18.0054620689655 6.46978359096315  17.9419034482759 6.76086563614744  C 17.9220413793103 6.85207134363853  17.8783448275862 6.93551486325802  17.8147862068965 7.00537455410227  L 14.1939310344828 10.9640903686088  L 14.7401379310345 16.2443186682521  C 14.7699310344828 16.5412223543401  14.5494620689655 16.8051367419739  14.2475586206897 16.8342449464923  C 14.1522206896552 16.8439476813317  14.0568827586207 16.8284233055886  13.9694896551724 16.7915529131986  Z " fill-rule="nonzero" fill="#ffd21e" stroke="none" />
  </g>
</svg>