<?xml version="1.0" encoding="utf-8"?>
<svg version="1.1" xmlns:xlink="http://www.w3.org/1999/xlink" width="80px" height="80px" xmlns="http://www.w3.org/2000/svg">
  <g transform="matrix(1 0 0 1 -206 -905 )">
    <path d="M 207 909  A 3 3 0 0 1 210 906 L 282 906  A 3 3 0 0 1 285 909 L 285 981  A 3 3 0 0 1 282 984 L 210 984  A 3 3 0 0 1 207 981 L 207 909  Z " fill-rule="nonzero" fill="#ffffff" stroke="none" />
    <path d="M 206.5 909  A 3.5 3.5 0 0 1 210 905.5 L 282 905.5  A 3.5 3.5 0 0 1 285.5 909 L 285.5 981  A 3.5 3.5 0 0 1 282 984.5 L 210 984.5  A 3.5 3.5 0 0 1 206.5 981 L 206.5 909  Z " stroke-width="1" stroke-dasharray="3,1" stroke="#ebedf0" fill="none" stroke-dashoffset="0.5" />
  </g>
</svg>