<?xml version="1.0" encoding="utf-8"?>
<svg version="1.1" xmlns:xlink="http://www.w3.org/1999/xlink" width="20px" height="20px" xmlns="http://www.w3.org/2000/svg">
  <g transform="matrix(1 0 0 1 -236 -935 )">
    <path d="M 18.8364950406504 10.846732899729  L 10.8196326287263 10.846732899729  L 10.8196326287263 18.8635953116531  C 10.8196326287263 19.3744544444444  10.4054691869919 19.7886178861789  9.89461005420054 19.7886178861789  C 9.38375092140922 19.7886178861789  8.96958747967483 19.3744544444444  8.96958747967483 18.8635953116531  L 8.96958747967483 10.846732899729  L 0.952725094850962 10.846732899729  C 0.44186596205958 10.846732899729  0.0277025203251924 10.4325694579946  0.0277024932249219 9.92171032520324  C 0.0277024661247083 9.41085119241194  0.441865934959367 8.99668775067749  0.952725094850962 8.99668775067749  L 8.96958747967483 8.99668775067749  L 8.96958747967483 0.979825365853657  C 8.96958747967483 0.468966233062332  9.38375092140922 0.0548027913279157  9.89461005420054 0.0548027642276452  C 10.4054691869919 0.0548027371273747  10.8196326287263 0.468966205962062  10.8196326287263 0.979825365853657  L 10.8196326287263 8.99668775067749  L 18.8364950406504 8.99668775067749  C 19.3473541734418 8.99668775067749  19.7615176151762 9.41085119241194  19.7615176151762 9.92171032520324  C 19.7615176151762 10.4325694579946  19.3473541734418 10.846732899729  18.8364950406504 10.846732899729  Z " fill-rule="nonzero" fill="#979899" stroke="none" transform="matrix(1 0 0 1 236 935 )" />
  </g>
</svg>