<?xml version="1.0" encoding="utf-8"?>
<svg version="1.1" xmlns:xlink="http://www.w3.org/1999/xlink" width="14px" height="14px" xmlns="http://www.w3.org/2000/svg">
  <g transform="matrix(1 0 0 1 -73 -1 )">
    <path d="M 13.9856561403509 7  C 13.9856561403509 10.8575157894737  10.8590877192982 13.9856561403509  7 13.9856561403509  C 3.14091228070176 13.9856561403509  0.0143438596491166 10.8575157894737  0.0143438596491166 7  C 0.0143438596491166 3.14248421052632  3.14091228070176 0.0143438596491166  7 0.0143438596491166  C 10.8590877192982 0.0143438596491166  13.9856561403509 3.14248421052632  13.9856561403509 7  Z M 9.15511578947368 4.22397192982456  L 6.99528421052631 6.3853754385965  L 4.83388070175438 4.22397192982456  C 4.66411228070176 4.05420350877193  4.38745263157895 4.05420350877193  4.21611228070175 4.22397192982456  C 4.04634385964913 4.3937403508772  4.04634385964913 4.6704  4.21611228070175 4.84174035087719  L 6.37751578947369 7.00314385964913  L 4.21611228070175 9.16454736842105  C 4.04634385964913 9.33431578947368  4.04634385964913 9.61097543859648  4.21611228070175 9.78231578947369  C 4.38588070175439 9.95208421052631  4.66254035087719 9.95208421052631  4.83388070175438 9.78231578947369  L 6.99528421052631 7.62091228070176  L 9.15668771929825 9.78231578947369  C 9.32645614035087 9.95208421052632  9.60311578947369 9.95208421052632  9.77445614035088 9.78231578947369  C 9.94579649122807 9.61254736842105  9.94422456140352 9.33588771929824  9.77445614035088 9.16454736842105  L 7.61148070175439 7.00314385964913  L 9.77288421052631 4.84174035087719  C 9.94265263157895 4.67197192982456  9.94265263157895 4.39531228070176  9.77288421052631 4.22397192982456  C 9.60311578947369 4.05420350877193  9.32645614035087 4.05420350877193  9.15511578947368 4.22397192982456  Z " fill-rule="nonzero" fill="#969799" stroke="none" transform="matrix(1 0 0 1 73 1 )" />
  </g>
</svg>