<?xml version="1.0" encoding="utf-8"?>
<svg version="1.1" xmlns:xlink="http://www.w3.org/1999/xlink" width="28px" height="28px" xmlns="http://www.w3.org/2000/svg">
  <g transform="matrix(1 0 0 1 -77 -118 )">
    <path d="M 17.4928280701754 8.75918596491228  C 17.4928280701754 10.6863719298246  15.9271859649123 12.2551578947368  14 12.2551578947368  C 12.0728140350877 12.2551578947368  10.5071719298246 10.6895157894737  10.5071719298246 8.76232982456142  C 10.5071719298246 6.83514385964912  12.0728140350877 5.26635789473683  14 5.26635789473683  C 15.9271859649123 5.26635789473683  17.4928280701754 6.83199999999999  17.4928280701754 8.75918596491228  Z M 14 14  C 16.8954947368421 14  19.2408140350877 11.6546807017544  19.2408140350877 8.75918596491228  C 19.2408140350877 5.86369122807017  16.8954947368421 3.51837192982457  14 3.51837192982457  C 11.1045052631579 3.51837192982457  8.75918596491228 5.86369122807017  8.75918596491228 8.75918596491228  C 8.75918596491228 11.6546807017544  11.1045052631579 14  14 14  Z M 22.8436771929824 22.4003929824561  C 22.8405333333333 22.4224  22.8216701754386 22.4444070175439  22.7996631578947 22.4664140350877  C 22.5953122807017 22.6801964912281  22.3815298245614 22.8782596491228  22.1614596491228 23.0763228070176  C 22.0702877192982 23.1580631578948  21.9791157894737 23.2460912280702  21.8848 23.3278315789474  C 21.6930245614035 23.4913122807017  21.4949614035088 23.6359298245614  21.296898245614 23.7868350877193  C 21.1617122807018 23.8842947368421  21.0359578947368 23.9880421052632  20.8976280701754 24.0823578947368  C 20.7310035087719 24.1955368421052  20.5612350877193 24.2961403508772  20.3883228070175 24.4030315789473  C 20.2122666666667 24.5099228070175  20.0393543859649 24.6262456140351  19.8570105263158 24.726849122807  C 19.7186807017544 24.802301754386  19.5709192982456 24.8651789473684  19.4294456140351 24.9374877192982  C 19.2125192982456 25.0475228070175  18.9955929824561 25.160701754386  18.7660912280702 25.2581614035088  C 18.6466245614035 25.3084631578947  18.5240140350877 25.3461894736842  18.3982596491228 25.393347368421  C 18.146750877193 25.4908070175439  17.892098245614 25.5914105263158  17.634301754386 25.673150877193  C 17.5148350877193 25.7108771929825  17.3859368421053 25.7360280701754  17.2633263157895 25.7706105263158  C 16.9992421052631 25.8429192982456  16.7320140350877 25.9215157894737  16.458498245614 25.9781052631579  C 16.2635789473684 26.0189754385965  16.0592280701754 26.0378385964912  15.8611649122807 26.0692771929825  C 15.6536701754386 26.1007157894737  15.4524631578947 26.1415859649123  15.2418245614035 26.1635929824562  C 14.8268350877193 26.2044631578947  14.408701754386 26.2264701754386  13.9905684210526 26.2264701754386  C 13.5692912280702 26.2264701754386  13.1511578947368 26.2044631578947  12.7393122807017 26.1635929824562  C 12.5286736842105 26.1415859649123  12.3274666666667 26.1007157894737  12.1199719298245 26.0692771929825  C 11.9187649122807 26.0378385964912  11.7175578947368 26.0158315789474  11.5226385964912 25.9781052631579  C 11.2491228070175 25.9215157894737  10.9850385964912 25.8460631578947  10.7178105263158 25.7706105263158  C 10.5952 25.7360280701754  10.4694456140351 25.7108771929825  10.3468350877193 25.673150877193  C 10.0858947368421 25.5914105263158  9.83438596491227 25.4908070175439  9.58287719298245 25.393347368421  C 9.46026666666666 25.3461894736842  9.33451228070174 25.3084631578947  9.21504561403508 25.2581614035088  C 8.98868771929824 25.160701754386  8.77176140350878 25.0475228070175  8.55169122807017 24.9374877192982  C 8.41021754385963 24.8683228070176  8.26559999999999 24.802301754386  8.12412631578947 24.726849122807  C 7.94492631578946 24.6262456140351  7.77201403508772 24.5130666666666  7.59595789473684 24.4030315789473  C 7.4261894736842 24.2992842105263  7.25327719298244 24.1955368421052  7.08665263157894 24.0823578947368  C 6.95146666666666 23.9880421052632  6.82256842105262 23.8842947368421  6.68738245614034 23.7868350877193  C 6.48931929824562 23.6390736842105  6.29125614035087 23.4913122807017  6.09948070175439 23.3278315789474  C 6.0051649122807 23.2460912280702  5.91399298245614 23.1580631578948  5.82282105263157 23.0763228070176  C 5.60589473684209 22.8782596491228  5.38896842105262 22.677052631579  5.18461754385964 22.4664140350877  C 5.1657543859649 22.4444070175439  5.14374736842105 22.4224  5.12488421052632 22.4003929824561  C 7.03320701754384 19.3477052631579  10.3342596491228 17.4928280701754  13.9842807017544 17.4928280701754  C 17.634301754386 17.4928280701754  20.9353543859649 19.3477052631579  22.8436771929824 22.4003929824561  Z M 3.98995087719298 20.9982315789474  C 2.59722105263158 19.0113122807018  1.77352982456139 16.6031157894737  1.77352982456139 14  C 1.77352982456139 7.2595649122807  7.2595649122807 1.77352982456139  14 1.77352982456139  C 20.7404350877193 1.77352982456139  26.2264701754386 7.25956491228071  26.2264701754386 14  C 26.2264701754386 16.6031157894737  25.4027789473684 19.0113122807018  24.010049122807 20.9982315789474  C 21.8030596491228 17.8323649122807  18.1530385964912 15.7479859649123  14 15.7479859649123  C 9.84696140350877 15.7479859649123  6.19694035087718 17.8323649122807  3.98995087719298 20.9982315789474  Z M 21.5892771929825 25.723452631579  C 22.8876912280702 24.880898245614  24.0289122807017 23.8339929824561  24.981501754386 22.6236070175439  C 26.8489543859649 20.246849122807  27.9744561403509 17.2601824561404  27.9744561403509 14  C 27.9744561403509 6.28496842105262  21.7181754385965 0.0286877192982473  14.0031438596491 0.0286877192982473  C 6.28811228070174 0.0286877192982473  0.0286877192982473 6.28496842105262  0.0286877192982473 14  C 0.0286877192982473 17.2601824561404  1.1510456140351 20.246849122807  3.02164210526317 22.6236070175439  C 3.97423157894737 23.8339929824561  5.11545263157895 24.880898245614  6.41072280701755 25.723452631579  C 6.46102456140352 25.7517473684211  6.50818245614035 25.7800421052632  6.5553403508772 25.8083368421053  C 6.91688421052632 26.0378385964912  7.29100350877194 26.2516210526316  7.67455438596491 26.4465403508772  C 7.78773333333334 26.5031298245614  7.90091228070176 26.5565754385965  8.01409122807017 26.6100210526316  C 8.34419649122808 26.7640701754386  8.67744561403509 26.9118315789474  9.01698245614034 27.0407298245614  C 9.16474385964912 27.0973192982456  9.3125052631579 27.1539087719298  9.4634105263158 27.2042105263158  C 9.78408421052632 27.3142456140351  10.1110456140351 27.4117052631579  10.4442947368421 27.4965894736842  C 10.6109192982456 27.5406035087719  10.7712561403509 27.5877614035088  10.9378807017544 27.6254877192983  C 11.2837052631579 27.7009403508772  11.6358175438597 27.7606736842105  11.9879298245614 27.8109754385965  C 12.1419789473684 27.8329824561404  12.2928842105263 27.8644210526316  12.4500771929824 27.8832842105263  C 12.9593824561403 27.9398736842105  13.4749754385965 27.9713122807018  14 27.9713122807018  C 14.5250245614035 27.9713122807018  15.0406175438596 27.9367298245614  15.5499228070175 27.8832842105263  C 15.7039719298245 27.8644210526316  15.8580210526316 27.8329824561403  16.0120701754386 27.8109754385965  C 16.3641824561404 27.7575298245614  16.7162947368421 27.7009403508772  17.0621192982456 27.6254877192983  C 17.2287438596491 27.5877614035088  17.3890807017544 27.5406035087719  17.5557052631579 27.4965894736842  C 17.8889543859649 27.4085614035088  18.2159157894737 27.3142456140351  18.5365894736842 27.2042105263158  C 18.684350877193 27.1507649122807  18.8321122807018 27.0973192982456  18.9830175438597 27.0407298245614  C 19.325698245614 26.9118315789474  19.6558035087719 26.7672140350877  19.9859087719298 26.6100210526316  C 20.0990877192982 26.5565754385965  20.2154105263158 26.5031298245614  20.3254456140351 26.4465403508772  C 20.7089964912281 26.2516210526316  21.0831157894737 26.0378385964912  21.4446596491228 25.8083368421053  C 21.4918175438597 25.7800421052632  21.5389754385965 25.7517473684211  21.5892771929825 25.723452631579  Z " fill-rule="nonzero" fill="#323233" stroke="none" transform="matrix(1 0 0 1 77 118 )" />
  </g>
</svg>