<?xml version="1.0" encoding="utf-8"?>
<svg version="1.1" xmlns:xlink="http://www.w3.org/1999/xlink" width="30px" height="26px" xmlns="http://www.w3.org/2000/svg">
  <g transform="matrix(1 0 0 1 -17 -311 )">
    <path d="M 4.59494736842105 19.80576  L 3.288 22.960704  L 6.96294736842106 21.78592  L 7.68378947368421 22.198592  C 9.82610526315789 23.426624  12.3524210526316 24.092224  15 24.092224  C 22.2858947368421 24.092224  28.0997894736842 19.066944  28.0997894736842 13  C 28.0997894736842 6.93305599999999  22.2858947368421 1.907776  15 1.907776  C 7.71410526315789 1.907776  1.90021052631579 6.93305599999999  1.90021052631579 13  C 1.90021052631579 15.143232  2.61768421052631 17.19328  3.96168421052631 18.967104  L 4.59494736842105 19.80576  Z M 29.9692631578947 13  C 29.9692631578947 20.148544  23.2694736842105 25.942592  15 25.942592  C 11.9482105263158 25.942592  9.11199999999999 25.153856  6.74736842105263 23.79936  L 1.94736842105263 25.33024  C 1.73852631578947 25.3968  1.50947368421053 25.390144  1.304 25.306944  C 0.825684210526319 25.11392  0.596631578947367 24.574784  0.791999999999998 24.102208  L 2.46273684210527 20.078656  C 0.923368421052629 18.04192  0.030736842105263 15.61248  0.030736842105263 13  C 0.030736842105263 5.851456  6.7338947368421 0.0574079999999952  15 0.0574079999999952  C 23.2661052631579 0.0574079999999952  29.9692631578947 5.851456  29.9692631578947 13  Z " fill-rule="nonzero" fill="#1989fa" stroke="none" transform="matrix(1 0 0 1 17 311 )" />
  </g>
</svg>