<?xml version="1.0" encoding="utf-8"?>
<svg version="1.1" xmlns:xlink="http://www.w3.org/1999/xlink" width="40px" height="35px" xmlns="http://www.w3.org/2000/svg">
  <g transform="matrix(1 0 0 1 -17 -412 )">
    <path d="M 6.12659649122807 26.6616  L 4.384 30.90864  L 9.2839298245614 29.3272  L 10.245052631579 29.88272  C 13.1014736842105 31.53584  16.4698947368421 32.43184  20 32.43184  C 29.7145263157895 32.43184  37.4663859649123 25.66704  37.4663859649123 17.5  C 37.4663859649123 9.33296000000001  29.7145263157895 2.56815999999998  20 2.56815999999998  C 10.2854736842105 2.56815999999998  2.53361403508772 9.33296000000001  2.53361403508772 17.5  C 2.53361403508772 20.38512  3.49024561403509 23.1448  5.28224561403508 25.53264  L 6.12659649122807 26.6616  Z M 39.9590175438596 17.5  C 39.9590175438596 27.12304  31.0259649122807 34.92272  20 34.92272  C 15.9309473684211 34.92272  12.1493333333333 33.86096  8.99649122807018 32.0376  L 2.59649122807017 34.0984  C 2.3180350877193 34.188  2.01263157894737 34.17904  1.73866666666667 34.06704  C 1.10091228070176 33.8072  0.795508771929821 33.08144  1.056 32.44528  L 3.28364912280702 27.02896  C 1.23115789473684 24.2872  0.0409824561403518 21.0168  0.0409824561403518 17.5  C 0.0409824561403518 7.87696  8.97852631578947 0.0772799999999734  20 0.0772799999999734  C 31.0214736842105 0.0772799999999734  39.9590175438596 7.87696  39.9590175438596 17.5  Z " fill-rule="nonzero" fill="#323233" stroke="none" transform="matrix(1 0 0 1 17 412 )" />
  </g>
</svg>