<?xml version="1.0" encoding="utf-8"?>
<svg version="1.1" xmlns:xlink="http://www.w3.org/1999/xlink" width="48px" height="42px" xmlns="http://www.w3.org/2000/svg">
  <g transform="matrix(1 0 0 1 -91 -409 )">
    <path d="M 7.35191578947368 31.9939199999999  L 5.26079999999999 37.090368  L 11.1407157894737 35.19264  L 12.2940631578947 35.859264  C 15.7217684210526 37.843008  19.7638736842105 38.9182079999999  24 38.9182079999999  C 35.6574315789474 38.9182079999999  44.9596631578947 30.800448  44.9596631578947 21  C 44.9596631578947 11.199552  35.6574315789474 3.08179199999995  24 3.08179199999995  C 12.3425684210526 3.08179199999995  3.04033684210526 11.199552  3.04033684210526 21  C 3.04033684210526 24.462144  4.1882947368421 27.77376  6.3386947368421 30.639168  L 7.35191578947368 31.9939199999999  Z M 47.9508210526316 21  C 47.9508210526316 32.547648  37.2311578947368 41.9072639999999  24 41.9072639999999  C 19.1171368421053 41.9072639999999  14.5792 40.6331520000001  10.7957894736842 38.44512  L 3.1157894736842 40.91808  C 2.78164210526316 41.0256  2.41515789473685 41.014848  2.0864 40.880448  C 1.32109473684211 40.56864  0.95461052631579 39.697728  1.2672 38.934336  L 3.94037894736843 32.434752  C 1.47738947368421 29.14464  0.0491789473684179 25.22016  0.0491789473684179 21  C 0.0491789473684179 9.45235200000002  10.7742315789474 0.0927359999999453  24 0.0927359999999453  C 37.2257684210526 0.0927359999999453  47.9508210526316 9.45235200000002  47.9508210526316 21  Z " fill-rule="nonzero" fill="#323233" stroke="none" transform="matrix(1 0 0 1 91 409 )" />
  </g>
</svg>