<?xml version="1.0" encoding="utf-8"?>
<svg version="1.1" xmlns:xlink="http://www.w3.org/1999/xlink" width="25px" height="18px" xmlns="http://www.w3.org/2000/svg">
  <g transform="matrix(1 0 0 1 -33 -548 )">
    <path d="M 7.172 17.1810327272727  L 0.320799999999998 10.4638254545455  C 0.0104000000000042 10.159069090909  -0.0408000000000044 9.68465454545458  0.234400000000001 9.34533818181819  L 0.874400000000001 8.55359999999996  C 1.1368 8.2299927272727  1.6264 8.14830545454549  1.9752 8.3745163636363  L 7.5176 12.0064581818182  C 7.80880000000001 12.198109090909  8.3144 12.1729745454545  8.5864 11.9561890909091  L 23.2296 0.290618181818218  C 23.5592 0.0298472727272383  24.0744 0.0518399999999701  24.3624 0.334603636363681  L 24.724 0.689629090909079  C 25.0376 0.997527272727325  25.0152 1.48450909090911  24.6856 1.80811636363637  L 8.96720000000001 17.2155927272727  C 8.4776 17.6962909090909  7.6744 17.6742981818181  7.172 17.1810327272727  Z " fill-rule="nonzero" fill="#323233" stroke="none" transform="matrix(1 0 0 1 33 548 )" />
  </g>
</svg>