<?xml version="1.0" encoding="utf-8"?>
<svg version="1.1" xmlns:xlink="http://www.w3.org/1999/xlink" width="28px" height="28px" xmlns="http://www.w3.org/2000/svg">
  <g transform="matrix(1 0 0 1 -129 -544 )">
    <path d="M 26.3710930569106 15  L 15 15  L 15 26.4090334363143  C 15.1474856802168 27.1242362222222  14.5676568617886 27.7040650406504  13.8524540758808 27.7040650406504  C 13.1372512899729 27.7040650406504  12.5574224715447 27.1242362222222  13 26.4090334363143  L 13 15  L 1.33381513279133 15  C 0.618612346883467 15.1854260596206  0.0387835284552835 14.6055972411924  0.038783490514902 13.8903944552845  C 0.0387834525745205 13.1751916693767  0.618612308943085 12.5953628509485  1.33381513279133 13  L 13 13  L 13 1.37175551219514  C 12.5574224715447 0.656552726287259  13.1372512899729 0.0767239078591047  13.8524540758808 0.0767238699187374  C 14.5676568617886 0.0767238319783701  15.1474856802168 0.656552688346892  15 1.37175551219514  L 15 13  L 26.3710930569106 13  C 27.0862958428184 12.5953628509485  27.6661246612466 13.1751916693767  27.6661246612466 13.8903944552845  C 27.6661246612466 14.6055972411924  27.0862958428184 15.1854260596206  26.3710930569106 15  Z " fill-rule="nonzero" fill="#323233" stroke="none" transform="matrix(1 0 0 1 129 544 )" />
  </g>
</svg>