<?xml version="1.0" encoding="utf-8"?>
<svg version="1.1" xmlns:xlink="http://www.w3.org/1999/xlink" width="24px" height="24px" xmlns="http://www.w3.org/2000/svg">
  <g transform="matrix(1 0 0 1 -221 -546 )">
    <path d="M 23.4907428571429 2.66331428571425  L 14.1540571428571 12  L 23.4907428571429 21.3366857142857  C 24.0868571428571 21.9328  24.0868571428571 22.8982857142857  23.4907428571429 23.4907428571429  C 22.8946285714286 24.0832  21.9291428571429 24.0868571428572  21.3366857142857 23.4907428571429  L 12 14.1540571428571  L 2.66331428571428 23.4944  C 2.06720000000001 24.0905142857143  1.10171428571428 24.0905142857143  0.509257142857138 23.4944  C -0.0868571428571556 22.8982857142857  -0.0868571428571556 21.9328  0.509257142857138 21.3403428571429  L 9.84594285714286 12  L 0.505599999999987 2.66331428571425  C -0.0905142857142778 2.06719999999996  -0.0905142857142778 1.10171428571425  0.505599999999987 0.509257142857109  C 1.10171428571428 -0.086857142857184  2.06720000000001 -0.086857142857184  2.65965714285716 0.509257142857109  L 12 9.84594285714286  L 21.3366857142857 0.509257142857109  C 21.9328 -0.086857142857184  22.8982857142857 -0.086857142857184  23.4907428571429 0.509257142857109  C 24.0868571428571 1.1053714285714  24.0868571428571 2.07085714285711  23.4907428571429 2.66331428571425  Z " fill-rule="nonzero" fill="#323233" stroke="none" transform="matrix(1 0 0 1 221 546 )" />
  </g>
</svg>