<?xml version="1.0" encoding="utf-8"?>
<svg version="1.1" xmlns:xlink="http://www.w3.org/1999/xlink" width="4px" height="24px" xmlns="http://www.w3.org/2000/svg">
  <g transform="matrix(1 0 0 1 -314 -545 )">
    <path d="M 0.611131914893605 17.8694808510638  L 0.228765957446797 0.685889361702152  C 0.222229787234056 0.417906382978686  0.415046808510624 0.198944680851014  0.696102127659572 0.198944680851014  L 3.39227234042551 0.198944680851014  C 3.65698723404256 0.198944680851014  3.86614468085105 0.401565957446792  3.85960851063828 0.685889361702152  L 3.47397446808509 17.8694808510638  C 3.46743829787232 18.1374638297873  3.23867234042552 18.3564255319149  2.99356595744678 18.3564255319149  L 1.09154042553192 18.3564255319149  C 0.833361702127661 18.3564255319149  0.617668085106374 18.1538042553192  0.611131914893605 17.8694808510638  Z M 3.85960851063828 21.984  C 3.85960851063828 22.990570212766  3.04585531914893 23.801055319149  2.04255319148933 23.801055319149  C 1.03925106382979 23.801055319149  0.225497872340412 22.9873021276596  0.225497872340412 21.984  C 0.225497872340412 20.9806978723404  1.03925106382979 20.1669446808511  2.04255319148933 20.1669446808511  C 3.04585531914893 20.1669446808511  3.85960851063828 20.9806978723404  3.85960851063828 21.984  Z " fill-rule="nonzero" fill="#323233" stroke="none" transform="matrix(1 0 0 1 314 545 )" />
  </g>
</svg>