<?xml version="1.0" encoding="utf-8"?>
<svg version="1.1" xmlns:xlink="http://www.w3.org/1999/xlink" width="14px" height="25px" xmlns="http://www.w3.org/2000/svg">
  <g transform="matrix(1 0 0 1 -39 -648 )">
    <path d="M 13.1443361344538 11.5334693877551  C 13.4863865546218 11.8795918367347  13.605781512605 12.3661224489796  13.5025210084034 12.8102040816326  C 13.4444369747899 13.0583673469388  13.3218151260504 13.2836734693877  13.1443361344538 13.4632653061225  L 2.36974789915966 24.369387755102  C 1.84376470588235 24.9016326530613  0.991865546218484 24.9016326530613  0.469109243697481 24.369387755102  C -0.0536470588235289 23.8371428571429  -0.0568739495798312 22.9751020408163  0.469109243697481 22.4461224489796  L 10.2949915966387 12.5  L 0.469109243697481 2.55387755102038  C -0.0568739495798312 2.02163265306126  -0.0568739495798312 1.15959183673465  0.469109243697481 0.630612244897975  C 0.995092436974787 0.098367346938744  1.84699159663866 0.098367346938744  2.36974789915966 0.630612244897975  L 13.1443361344538 11.5334693877551  Z " fill-rule="nonzero" fill="#323233" stroke="none" transform="matrix(1 0 0 1 39 648 )" />
  </g>
</svg>