<?xml version="1.0" encoding="utf-8"?>
<svg version="1.1" xmlns:xlink="http://www.w3.org/1999/xlink" width="15px" height="27px" xmlns="http://www.w3.org/2000/svg">
  <g transform="matrix(1 0 0 1 -135 -647 )">
    <path d="M 0.502617046818727 14.5438530612245  C 0.312460984393766 14.349893877551  0.17762304921969 14.1030367346939  0.118847539015604 13.8350204081632  C 0.00821128451380559 13.3554122448979  0.136134453781509 12.8299591836735  0.502617046818727 12.4561469387755  L 12.046818727491 0.681061224489781  C 12.6103721488595 0.10623673469388  13.5231212484994 0.10623673469388  14.0832172869148 0.681061224489781  C 14.6433133253301 1.25588571428568  14.6467707082833 2.18688979591832  14.0832172869148 2.75818775510209  L 3.55548619447779 13.5  L 14.0866746698679 24.2418122448979  C 14.6502280912365 24.8166367346939  14.6502280912365 25.7476408163266  14.0866746698679 26.3189387755102  C 13.5231212484994 26.8902367346939  12.6103721488595 26.8937632653061  12.0502761104442 26.3189387755102  L 0.502617046818727 14.5438530612245  Z " fill-rule="nonzero" fill="#323233" stroke="none" transform="matrix(1 0 0 1 135 647 )" />
  </g>
</svg>