<?xml version="1.0" encoding="utf-8"?>
<svg version="1.1" xmlns:xlink="http://www.w3.org/1999/xlink" width="27px" height="15px" xmlns="http://www.w3.org/2000/svg">
  <g transform="matrix(1 0 0 1 -219 -653 )">
    <path d="M 12.4596734693878 0.502617046818727  C 12.8299591836735 0.136134453781551  13.355412244898 0.00821128451377717  13.8350204081632 0.118847539015633  C 14.1030367346939 0.181080432172848  14.3463673469388 0.312460984393738  14.5403265306122 0.502617046818727  L 26.315412244898 12.046818727491  C 26.8902367346939 12.6103721488596  26.8902367346939 13.5231212484994  26.315412244898 14.0832172869148  C 25.740587755102 14.6433133253302  24.8095836734694 14.6467707082833  24.2382857142857 14.0832172869148  L 13.5 3.55548619447779  L 2.76171428571428 14.0832172869148  C 2.18688979591838 14.6467707082833  1.25588571428571 14.6467707082833  0.684587755102029 14.0832172869148  C 0.109763265306128 13.5196638655462  0.109763265306128 12.6069147659064  0.684587755102029 12.046818727491  L 12.4596734693878 0.502617046818727  Z " fill-rule="nonzero" fill="#323233" stroke="none" transform="matrix(1 0 0 1 219 653 )" />
  </g>
</svg>