<?xml version="1.0" encoding="utf-8"?>
<svg version="1.1" xmlns:xlink="http://www.w3.org/1999/xlink" width="25px" height="14px" xmlns="http://www.w3.org/2000/svg">
  <g transform="matrix(1 0 0 1 -304 -654 )">
    <path d="M 13.4665306122449 13.1443361344537  C 13.1204081632653 13.4863865546218  12.6338775510204 13.6057815126051  12.1897959183673 13.5025210084034  C 11.9416326530612 13.4444369747899  11.7163265306122 13.3218151260504  11.5367346938775 13.1443361344537  L 0.630612244897947 2.36974789915962  C 0.0983673469387725 1.84376470588234  0.0983673469387725 0.991865546218492  0.630612244897947 0.469109243697517  C 1.16285714285715 -0.0568739495798809  2.02489795918368 -0.0568739495798809  2.55387755102041 0.469109243697517  L 12.5 10.2949915966386  L 22.4428571428571 0.469109243697517  C 22.9751020408163 -0.0568739495798809  23.8371428571429 -0.0568739495798809  24.3661224489796 0.469109243697517  C 24.8951020408163 0.995092436974801  24.8983673469388 1.84699159663865  24.3661224489796 2.36974789915962  L 13.4665306122449 13.1443361344537  Z " fill-rule="nonzero" fill="#323233" stroke="none" transform="matrix(1 0 0 1 304 654 )" />
  </g>
</svg>