<?xml version="1.0" encoding="utf-8"?>
<svg version="1.1" xmlns:xlink="http://www.w3.org/1999/xlink" width="24px" height="32px" xmlns="http://www.w3.org/2000/svg">
  <g transform="matrix(1 0 0 1 -30 -805 )">
    <path d="M 11.8077803203661 29.3355789473684  C 18.3665354691075 22.6221693363843  21.5721006864988 16.6468832951945  21.5721006864988 11.4729885583523  C 21.5721006864988 6.23231121281458  17.2101418764302 1.96876887871849  11.8077803203661 1.96876887871849  C 6.40541876430206 1.96876887871849  2.04345995423341 6.23231121281458  2.04345995423341 11.4729885583523  C 2.04345995423341 16.6222791762013  5.25254004576659 22.5975652173912  11.8077803203661 29.3355789473684  Z M 23.5228558352403 11.4729885583523  C 23.5228558352403 17.2479267734553  20.0853089244851 23.6555423340961  13.2067002288329 30.6993501144165  L 13.1715514874142 30.7344988558351  C 12.3982791762014 31.4866819221968  11.1610434782609 31.4691075514874  10.4088604118993 30.6958352402745  C 3.53025171624714 23.6309382151029  0.0927048054919943 17.2198077803203  0.0927048054919943 11.4729885583523  C 0.0927048054919943 5.14621510297479  5.33689702517163 0.0144988558353134  11.8077803203661 0.0144988558353134  C 18.2786636155606 0.0144988558353134  23.5228558352403 5.14270022883284  23.5228558352403 11.4729885583523  Z M 16.6899405034325 12.706709382151  C 16.6899405034325 15.4026178489703  14.5036887871854 17.5888695652174  11.8077803203661 17.5888695652174  C 9.1118718535469 17.5888695652174  6.92562013729977 15.4026178489703  6.92562013729977 12.706709382151  C 6.92562013729977 10.0108009153317  9.1118718535469 7.82454919908469  11.8077803203661 7.82454919908469  C 14.5036887871854 7.82454919908469  16.6899405034325 10.0108009153317  16.6899405034325 12.706709382151  Z M 8.87989016018307 12.706709382151  C 8.87989016018307 14.3235514874141  10.190938215103 15.638114416476  11.8077803203661 15.638114416476  C 13.4246224256293 15.638114416476  14.7356704805492 14.327066361556  14.7356704805492 12.7102242562929  C 14.7356704805492 11.0933821510298  13.4246224256293 9.77881922196786  11.8077803203661 9.77881922196786  C 10.190938215103 9.77881922196786  8.87989016018307 11.0898672768878  8.87989016018307 12.706709382151  Z " fill-rule="nonzero" fill="#000000" stroke="none" transform="matrix(1 0 0 1 30 805 )" />
  </g>
</svg>