<?xml version="1.0" encoding="utf-8"?>
<svg version="1.1" xmlns:xlink="http://www.w3.org/1999/xlink" width="30px" height="28px" xmlns="http://www.w3.org/2000/svg">
  <g transform="matrix(1 0 0 1 -128 -807 )">
    <path d="M 3.75650349650351 13.481958041958  L 11.846013986014 22.0346853146852  L 14.960979020979 25.3544055944055  L 26.1453146853147 13.4987412587412  C 28.7097902097902 10.7798601398601  28.6493706293706 6.51356643356644  26.0043356643357 3.8718881118881  C 23.402937062937 1.27048951048948  19.186993006993 1.27048951048948  16.5889510489511 3.8718881118881  L 14.9441958041958 5.51664335664339  L 13.2994405594405 3.8718881118881  C 10.7013986013986 1.27384615384619  6.48881118881121 1.27384615384619  3.89076923076925 3.8718881118881  C 1.25244755244756 6.51020979020973  1.19202797202797 10.7731468531468  3.75650349650351 13.481958041958  Z M 2.56489510489513 2.55272727272722  C 5.89468531468532 -0.777062937062965  11.2888111888112 -0.777062937062965  14.6152447552448 2.54937062937063  L 14.9441958041958 2.87832167832164  L 15.2731468531468 2.54937062937063  C 18.602937062937 -0.780419580419561  23.9970629370629 -0.780419580419561  27.3268531468532 2.54937062937063  C 30.6834965034965 5.90601398601393  30.7606993006993 11.3236363636364  27.5047552447552 14.7742657342658  L 16.3170629370629 26.6332867132867  L 16.2365034965035 26.7138461538461  C 15.4846153846154 27.4187412587412  14.3064335664336 27.3818181818182  13.6015384615384 26.6299300699301  L 10.4932867132867 23.3169230769231  L 2.39706293706291 14.7641958041958  C -0.862237762237783 11.3202797202797  -0.788391608391635 5.90601398601393  2.56489510489513 2.55272727272722  Z " fill-rule="nonzero" fill="#323233" stroke="none" transform="matrix(1 0 0 1 128 807 )" />
  </g>
</svg>