<?xml version="1.0" encoding="utf-8"?>
<svg version="1.1" xmlns:xlink="http://www.w3.org/1999/xlink" width="30px" height="30px" xmlns="http://www.w3.org/2000/svg">
  <g transform="matrix(1 0 0 1 -302 -806 )">
    <path d="M 10.08864 3.99456  C 9.00960000000001 2.91936  8.16480000000001 2.43168  7.36608 2.43168  C 7.33920000000001 2.43168  7.31232 2.43552  7.28544 2.43552  C 6.39072 2.47392  5.30016000000001 3.14208  3.95616 4.48608  C -1.40832 9.8544  9.19776 20.5872  9.30528 20.69472  C 9.4128 20.7984  20.14176 31.416  25.51392 26.04384  C 26.85792 24.69984  27.52608 23.61312  27.56448 22.7184  C 27.5952 21.8928  27.1152 21.03264  26.0016 19.9152  C 24.89568 18.80928  23.97408 18.28704  23.20608 18.35616  C 22.50336 18.42528  21.75456 19.04352  20.98272 20.19552  C 20.28384 21.36288  19.32 21.72  18.64416 21.80448  C 16.87776 22.03104  14.7888 20.81376  11.98944 18.0144  C 9.19008000000001 15.2112  7.98432000000001 13.09536  8.19936000000001 11.36352  C 8.28384 10.68384  8.63712000000001 9.72  9.85440000000001 8.9904  C 10.96416 8.24544  11.5824 7.49664  11.65152 6.79392  C 11.72448 6.04512  11.1984 5.10432  10.08864 3.99456  Z M 27.02304 27.5568  C 25.47552 29.09664  23.67456 29.69952  21.80832 29.69952  C 15.39168 29.69952  8.18400000000001 22.58784  7.79616000000001 22.2  C 7.29696000000001 21.7008  -4.41119999999999 9.83519999999999  2.44704000000001 2.97695999999999  C 4.20960000000001 1.2144  5.71872 0.361919999999998  7.19712000000001 0.300479999999993  C 9.17088000000001 0.227519999999991  10.6224 1.51007999999999  11.59392 2.48544  C 13.19904 4.08671999999999  13.90944 5.56511999999999  13.7712 7.00127999999999  C 13.63296 8.38751999999999  12.72672 9.62783999999999  10.99488 10.79136  C 10.43808 11.12544  10.34592 11.4096  10.3152 11.62464  C 10.24608 12.18912  10.56864 13.57536  13.49856 16.50912  C 16.42848 19.4352  17.81472 19.74624  18.38304 19.69248  C 18.59808 19.6656  18.8784 19.5696  19.1856 19.05888  C 20.37984 17.28096  21.61632 16.37088  23.00256 16.23648  C 24.41568 16.0752  25.90944 16.8048  27.51456 18.40992  C 28.48992 19.38528  29.78016 20.90208  29.69952 22.81056  C 29.63808 24.28512  28.78944 25.79424  27.02304 27.5568  Z " fill-rule="nonzero" fill="#323233" stroke="none" transform="matrix(1 0 0 1 302 806 )" />
  </g>
</svg>