<?xml version="1.0" encoding="utf-8"?>
<svg version="1.1" xmlns:xlink="http://www.w3.org/1999/xlink" width="30px" height="23px" xmlns="http://www.w3.org/2000/svg">
  <g transform="matrix(1 0 0 1 -218 -916 )">
    <path d="M 0.030736842105263 8.64842790697674  L 0.030736842105263 9.12426046511628  L 0.030736842105263 8.64842790697674  Z M 0.030736842105263 14.3515720930233  L 0.030736842105263 13.8757395348837  L 0.030736842105263 14.3515720930233  Z M 29.9692631578947 14.3515720930233  L 29.9692631578947 13.8757395348837  L 29.9692631578947 14.3515720930233  Z M 29.9692631578947 8.64842790697674  L 29.9692631578947 9.12426046511628  L 29.9692631578947 8.64842790697674  Z M 29.976 9.59666976744186  L 29.9692631578947 9.12426046511628  L 29.9692631578947 9.60009302325582  C 28.9351578947368 9.60009302325582  28.0964210526316 10.4524837209302  28.0964210526316 11.5034232558139  C 28.0964210526316 12.5543627906977  28.9351578947368 13.4067534883721  29.9692631578947 13.4067534883721  L 29.9692631578947 21.0132279069767  C 29.9692631578947 22.0641674418605  29.1305263157895 22.9165581395349  28.0964210526316 23  L 1.90021052631579 23  C 0.866105263157891 22.9165581395349  0.0273684210526284 22.0641674418605  0.0273684210526284 21.0132279069767  L 0.0273684210526284 13.4033302325581  C 1.06147368421053 13.4033302325581  1.90021052631579 12.5509395348837  1.90021052631579 11.5  C 1.90021052631579 10.4490604651163  1.06147368421053 9.59666976744186  0.0273684210526284 9.59666976744186  L 0.0273684210526284 1.99019534883721  C 0.0273684210526284 0.939255813953487  0.866105263157891 0.0868651162790712  1.90021052631579 0  L 28.0997894736842 0  C 29.1338947368421 0.0868651162790712  29.9726315789474 0.939255813953487  29.9726315789474 1.99019534883721  L 29.9726315789474 9.59666976744186  L 28.0997894736842 9.59666976744186  L 28.0997894736842 2  L 1.90021052631579 2  L 1.90021052631579 9.59666976744186  L 0.030736842105263 9.59666976744186  L 0.030736842105263 9.12083720930232  L 0.030736842105263 9.59666976744186  C 1.06484210526316 9.59666976744186  1.90357894736842 10.4490604651163  1.90357894736842 11.5  C 1.90357894736842 12.5509395348837  1.06484210526316 13.4033302325581  0.030736842105263 13.4033302325581  L 0.030736842105263 13.8791627906977  L 0.030736842105263 13.4033302325581  L 1.90357894736842 13.4033302325581  L 1.90357894736842 21  L 28.1031578947368 21  L 28.1031578947368 13.4033302325581  L 29.976 13.4033302325581  L 29.976 13.8791627906977  L 29.976 13.4033302325581  C 28.9418947368421 13.4033302325581  28.1031578947368 12.5509395348837  28.1031578947368 11.5  C 28.1031578947368 10.4490604651163  28.9418947368421 9.59666976744186  29.976 9.59666976744186  Z M 9.38484210526316 8.64842790697674  C 9.38484210526316 8.1212465116279  9.80589473684211 7.69676279069768  10.3212631578947 7.69676279069768  L 19.6787368421053 7.69676279069768  C 20.1941052631579 7.69676279069768  20.6151578947368 8.1212465116279  20.6151578947368 8.64842790697674  C 20.6151578947368 9.17218604651163  20.1974736842105 9.60009302325581  19.6787368421053 9.60009302325581  L 10.3212631578947 9.60009302325581  C 9.80589473684211 9.60009302325581  9.38484210526316 9.17560930232558  9.38484210526316 8.64842790697674  Z M 9.38484210526316 14.3549953488372  C 9.38484210526316 13.8278139534884  9.80589473684211 13.4033302325581  10.3212631578947 13.4033302325581  L 19.6787368421053 13.4033302325581  C 20.1941052631579 13.4033302325581  20.6151578947368 13.8278139534884  20.6151578947368 14.3549953488372  C 20.6151578947368 14.8787534883721  20.1974736842105 15.3066604651163  19.6787368421053 15.3066604651163  L 10.3212631578947 15.3066604651163  C 9.80589473684211 15.3066604651163  9.38484210526316 14.8821767441861  9.38484210526316 14.3549953488372  Z " fill-rule="nonzero" fill="#323233" stroke="none" transform="matrix(1 0 0 1 218 916 )" />
  </g>
</svg>