<?xml version="1.0" encoding="utf-8"?>
<svg version="1.1" xmlns:xlink="http://www.w3.org/1999/xlink" width="30px" height="8px" xmlns="http://www.w3.org/2000/svg">
  <g transform="matrix(1 0 0 1 -218 -923 )">
    <path d="M 0.030736842105263 2.09877333333333  L 0.030736842105263 0.207786666666671  C 2.09894736842105 0.207786666666671  3.77305263157895 1.90421333333334  3.77305263157895 4  C 3.77305263157895 6.09578666666666  2.09557894736842 7.79221333333334  0.030736842105263 7.79221333333334  L 0.030736842105263 5.8944  C 1.06484210526316 5.8944  1.90357894736842 5.04448  1.90357894736842 3.99658666666667  C 1.90357894736842 2.94869333333334  1.06484210526316 2.09877333333333  0.030736842105263 2.09877333333333  Z M 26.2269473684211 4.00682666666667  C 26.2269473684211 1.91104  27.9044210526316 0.207786666666664  29.9692631578947 0.207786666666671  L 29.9692631578947 2.1056  C 28.9351578947368 2.1056  28.0964210526316 2.95552  28.0964210526316 4.00341333333333  C 28.0964210526316 5.05130666666666  28.9351578947368 5.90122666666667  29.9692631578947 5.90122666666667  L 29.9692631578947 7.79904000000001  C 27.9010526315789 7.79904000000001  26.2269473684211 6.10261333333333  26.2269473684211 4.00682666666667  Z " fill-rule="nonzero" fill="#323233" stroke="none" transform="matrix(1 0 0 1 218 923 )" />
  </g>
</svg>