<?xml version="1.0" encoding="utf-8"?>
<svg version="1.1" xmlns:xlink="http://www.w3.org/1999/xlink" width="30px" height="34px" xmlns="http://www.w3.org/2000/svg">
  <g transform="matrix(1 0 0 1 -128 -911 )">
    <path d="M 19.5368888888889 31.1204444444444  C 25.1297777777778 28.4395555555555  27.8391111111111 25.3924444444444  27.8391111111111 22.0146666666667  C 27.8391111111111 19.6431111111111  26.9324444444444 17.3746666666667  25.4035555555556 15.2946666666667  C 24.8981829774709 14.608072769298  24.3406826393217 13.9614199250481  23.736 13.3604444444444  C 23.0248888888889 14.2955555555556  22.3493333333333 14.9533333333333  21.8408888888889 15.3444444444444  C 21.1048888888889 15.9062222222222  20.0702222222222 15.2413333333333  20.2764444444445 14.3382222222222  C 21.2897777777778 9.94  19.8213333333333 6.66533333333333  16.696 4.244  C 15.8248888888889 3.56844444444445  14.8826666666667 3.01377777777778  13.944 2.57644444444444  C 13.9155555555556 2.56222222222222  13.8871111111111 2.55155555555555  13.8622222222222 2.53733333333333  C 13.3004444444444 6.22088888888889  11.5973333333333 8.276  7.72888888888889 11.2911111111111  L 7.63288888888889 11.3657777777778  C 3.46933333333333 14.612  2.16088888888888 16.4928888888889  2.16088888888888 20.8946666666667  C 2.16088888888888 25.1471111111111  5.00533333333333 28.5853333333333  9.81244444444444 30.8111111111111  C 8.25866666666667 28.2973333333333  7.77866666666667 25.8831111111111  8.26933333333334 23.604  C 8.696 21.6128888888889  9.83022222222222 19.8706666666667  11.4302222222222 18.3737777777778  C 12.1413333333333 17.7088888888889  12.8986666666667 17.1364444444444  13.6595555555556 16.6564444444444  C 14.1182222222222 16.3648888888889  14.4844444444444 16.1657777777778  14.7048888888889 16.0555555555555  C 15.6151111111111 15.6146666666667  16.5253333333333 16.6671111111111  15.9493333333333 17.5026666666667  C 15.9386666666667 17.5168888888889  15.8924444444444 17.6022222222222  15.8391111111111 17.7515555555555  C 15.3093333333333 19.2022222222222  15.8248888888889 21.1791111111111  18.4666666666667 23.7106666666667  C 20.472 25.7622222222222  20.8026666666667 28.2831111111111  19.5368888888889 31.1204444444444  Z M 22.5697777777778 11.5968888888889  C 22.6302222222222 11.5115555555556  22.6906666666667 11.4262222222222  22.7475555555556 11.3373333333333  C 23.064 10.8502222222222  23.7324444444444 10.74  24.1875555555555 11.1026666666667  C 24.376 11.2555555555556  24.6924444444444 11.5293333333333  25.0871111111111 11.9168888888889  C 25.7804444444444 12.5995555555556  26.4204444444444 13.3391111111111  26.9964444444444 14.1248888888889  C 28.7528888888889 16.5177777777778  29.8124444444445 19.1702222222222  29.8124444444445 22.0146666666667  C 29.8124444444445 26.676  26.0328888888889 30.5373333333333  18.7048888888889 33.6555555555556  L 18.3173333333333 33.7337777777778  L 17.4675555555555 33.7337777777778  C 16.6711111111111 33.7337777777778  16.2017777777778 32.8413333333333  16.6533333333333 32.1835555555556  C 18.744 29.1613333333333  18.8222222222222 26.8964444444444  17.0728888888889 25.108  C 14.7902222222222 22.9213333333333  13.7768888888889 20.8555555555556  13.6915555555556 19.0422222222222  C 13.3751111111111 19.2875555555556  13.0728888888889 19.5435555555556  12.7813333333333 19.8173333333333  C 11.4515555555556 21.0617777777778  10.5342222222222 22.4697777777778  10.2035555555556 24.02  C 9.69155555555555 26.4093333333333  10.5662222222222 29.0795555555556  13.2506666666667 32.0911111111111  C 13.8195555555556 32.7275555555556  13.368 33.7373333333333  12.5146666666667 33.7373333333333  L 12.0417777777778 33.7373333333333  L 11.7288888888889 33.6875555555555  C 4.67466666666667 31.3337777777778  0.183999999999997 26.8537777777778  0.183999999999997 20.8946666666667  C 0.183999999999997 15.7462222222222  1.82311111111111 13.3924444444444  6.41688888888889 9.80844444444444  L 6.51288888888889 9.73377777777777  C 10.424 6.68666666666667  11.7431111111111 4.92666666666666  12.0382222222222 1.06533333333334  C 12.088 0.432444444444442  12.7102222222222 0.00933333333333053  13.3146666666667 0.19777777777778  C 13.6204444444444 0.293777777777777  14.1288888888889 0.485777777777777  14.776 0.784444444444446  C 15.8426666666667 1.27866666666667  16.9057777777778 1.908  17.9048888888889 2.67955555555555  C 20.8062222222222 4.92666666666666  22.5448888888889 7.89555555555555  22.5697777777778 11.5968888888889  Z " fill-rule="nonzero" fill="#323233" stroke="none" transform="matrix(1 0 0 1 128 911 )" />
  </g>
</svg>