<?xml version="1.0" encoding="utf-8"?>
<svg version="1.1" xmlns:xlink="http://www.w3.org/1999/xlink" width="30px" height="20px" xmlns="http://www.w3.org/2000/svg">
  <g transform="matrix(1 0 0 1 -302 -915 )">
    <path d="M 27.1489655172414 5.46466025316456  L 6.68441379310345 5.46790075949367  L 8.06813793103449 17.2698248101266  C 8.12110344827586 17.7234956962025  8.51503448275862 18.0669893670886  8.98179310344828 18  L 25.1627586206897 18  C 25.6063448275862 18.0669893670886  25.9903448275862 17.7559007594937  26.0664827586207 17.3249134177215  L 28.0526896551724 6.52430582278481  C 28.1420689655172 6.03498936708861  27.8110344827586 5.5683564556962  27.3111724137931 5.47762227848101  C 27.2582068965517 5.46790075949367  27.2019310344828 5.46466025316456  27.1489655172414 5.46466025316456  Z M 6.33020689655172 2.4477488607595  C 6.33020689655172 2.45098936708861  6.47255172413793 3.66617924050633  6.47255172413793 4  L 27.1489655172414 4  C 27.3144827586207 3.66617924050633  27.4766896551724 3.67914126582279  27.6388965517241 3.70830582278481  C 29.1384827586207 3.97402734177215  30.1348965517241 5.37716658227848  29.8634482758621 6.84511594936708  L 27.8772413793103 17.6457235443038  C 27.6422068965517 18.932204556962  26.4968275862069 19.8687108860759  25.1627586206897 19.8687108860759  L 8.97848275862069 19.8687108860759  C 7.57489655172414 19.8687108860759  6.39641379310345 18.8382298734177  6.23751724137931 17.4772172151899  L 4.50289655172413 2.65514126582278  C 4.44993103448276 2.20147037974684  4.056 1.85797670886076  3.58924137931034 1.85797670886076  L 1.01048275862069 1.85797670886076  C 0.503999999999998 1.85797670886076  0.0902068965517273 1.45615392405063  0.0902068965517273 0.957115949367086  C 0.0902068965517273 0.458077974683547  0.500689655172415 0.0562551898734185  1.01048275862069 0.0562551898734185  L 3.58924137931034 0.0562551898734185  C 4.9928275862069 0.0562551898734185  6.17131034482759 1.08673620253165  6.33020689655172 2.4477488607595  Z " fill-rule="nonzero" fill="#323233" stroke="none" transform="matrix(1 0 0 1 302 915 )" />
  </g>
</svg>