<?xml version="1.0" encoding="utf-8"?>
<svg version="1.1" xmlns:xlink="http://www.w3.org/1999/xlink" width="24px" height="32px" xmlns="http://www.w3.org/2000/svg">
  <g transform="matrix(1 0 0 1 -30 -1058 )">
    <path d="M 0.112074418604664 11.6597581395349  C 0.112074418604664 17.4929860465115  3.60200930232557 23.9977674418606  10.5818790697674 31.1741023255813  L 10.5961674418605 31.1883906976743  C 11.3534511627907 31.9671069767442  12.600111627907 31.9849674418604  13.3788279069767 31.2276837209301  L 13.4145488372093 31.1919627906977  C 20.4015627906977 24.033488372093  23.8950697674419 17.525134883721  23.8950697674419 11.6633302325581  C 23.8950697674419 5.24070697674415  18.5726511627907 0.0361674418604707  12.0071441860465 0.0361674418604707  C 5.44163720930231 0.0361674418604707  0.112074418604664 5.23713488372096  0.112074418604664 11.6597581395349  Z M 15.9864558139535 11.9240930232559  C 15.9864558139535 14.1245023255815  14.2004093023256 15.9105488372093  12 15.9105488372093  C 9.79959069767443 15.9105488372093  8.01354418604652 14.1245023255815  8.01354418604652 11.9240930232559  C 8.01354418604652 9.72368372093024  9.7995906976744 7.93763720930224  12 7.93763720930224  C 14.2004093023256 7.93763720930224  15.9864558139535 9.72368372093024  15.9864558139535 11.9240930232559  Z " fill-rule="nonzero" fill="#323233" stroke="none" transform="matrix(1 0 0 1 30 1058 )" />
  </g>
</svg>