<?xml version="1.0" encoding="utf-8"?>
<svg version="1.1" xmlns:xlink="http://www.w3.org/1999/xlink" width="30px" height="29px" xmlns="http://www.w3.org/2000/svg">
  <g transform="matrix(1 0 0 1 -218 -1060 )">
    <path d="M 23.2824827586207 28.6444137931035  L 15 24.9931034482759  L 6.71420689655172 28.6444137931035  C 6.25075862068965 28.8496551724138  5.70786206896552 28.6377931034483  5.50262068965517 28.1743448275862  C 5.43972413793104 28.0286896551724  5.41324137931034 27.8697931034483  5.42979310344828 27.7108965517241  L 6.34013793103448 18.7034482758621  L 0.308689655172415 11.9503448275862  C -0.0289655172413816 11.5729655172414  0.00413793103448512 10.9903448275862  0.381517241379314 10.6526896551724  C 0.500689655172415 10.5467586206897  0.643034482758623 10.4739310344828  0.798620689655174 10.4408275862069  L 9.65048275862069 8.52413793103449  L 14.2055172413793 0.701793103448274  C 14.4604137931034 0.261517241379309  15.0231724137931 0.115862068965519  15.4634482758621 0.370758620689656  C 15.6024827586207 0.450206896551727  15.7150344827586 0.566068965517239  15.7944827586207 0.701793103448274  L 20.3495172413793 8.52413793103449  L 29.1980689655172 10.4408275862069  C 29.6946206896552 10.5467586206897  30.0091034482759 11.0366896551724  29.9031724137931 11.5332413793103  C 29.8700689655172 11.6888275862069  29.7972413793103 11.8311724137931  29.6913103448276 11.9503448275862  L 23.6565517241379 18.7034482758621  L 24.5668965517241 27.7108965517241  C 24.6165517241379 28.2173793103448  24.2491034482759 28.6675862068966  23.7459310344828 28.7172413793104  C 23.5870344827586 28.7337931034483  23.4281379310345 28.7073103448276  23.2824827586207 28.6444137931035  Z " fill-rule="nonzero" fill="#323233" stroke="none" transform="matrix(1 0 0 1 218 1060 )" />
  </g>
</svg>