<?xml version="1.0" encoding="utf-8"?>
<svg version="1.1" xmlns:xlink="http://www.w3.org/1999/xlink" width="30px" height="30px" xmlns="http://www.w3.org/2000/svg">
  <g transform="matrix(1 0 0 1 -305 -1059 )">
    <path d="M 25.6697142857143 18.710693877551  L 27.4564897959184 20.0977959183674  C 27.5975510204082 20.2153469387755  27.738612244898 20.3368163265306  27.8757551020408 20.4543673469388  C 28.7926530612245 21.2497959183673  29.1609795918367 21.6886530612245  29.2001632653061 21.7356734693877  C 29.2001632653061 21.7356734693877  29.2785306122449 21.8336326530612  29.3608163265306 21.9315918367347  C 29.4 21.978612244898  29.4352653061224 22.0256326530612  29.4744489795918 22.0726530612245  C 29.4940408163265 22.0961632653061  29.5097142857143 22.1196734693877  29.5214693877551 22.1314285714286  C 29.5449795918367 22.1627755102041  29.5645714285714 22.1941224489796  29.5841632653061 22.229387755102  L 29.7800816326531 22.5271836734694  L 29.7800816326531 22.554612244898  C 30.1640816326531 23.3617959183673  29.8976326530612 24.4236734693878  29.654693877551 24.9604897959184  C 29.2315102040816 25.9087346938775  28.4360816326531 26.8687346938775  27.8287346938775 27.4525714285714  C 26.6101224489796 28.6241632653061  24.9487346938776 29.9720816326531  22.8641632653061 29.9720816326531  C 22.6447346938776 29.9720816326531  22.425306122449 29.9564081632653  22.2058775510204 29.9289795918367  C 20.6894693877551 29.7291428571429  18.3697959183673 28.7769795918367  15.8424489795918 27.3115102040816  C 13.1035102040816 25.7206530612245  10.458612244898 23.7183673469388  8.39755102040817 21.6729795918367  C 6.33648979591837 19.6236734693878  4.3185306122449 16.9983673469388  2.71591836734694 14.2790204081633  C 1.23477551020409 11.7673469387755  0.266938775510205 9.45159183673469  0.0671020408163301 7.93126530612245  C -0.0661224489795913 6.936  0.168979591836738 5.82710204081633  0.74889795918368 4.72604081632653  C 1.26612244897959 3.7425306122449  2.03804081632654 2.79428571428571  2.98236734693878 1.98318367346939  L 3.14693877551021 1.84212244897959  C 3.87183673469388 1.21518367346939  4.49877551020408 0.674448979591837  5.5410612244898 0.270857142857146  C 5.9054693877551 0.110204081632652  6.25028571428572 0.0318367346938757  6.59118367346939 0.0318367346938757  C 6.90465306122449 0.0318367346938757  7.2181224489796 0.0984489795918364  7.52767346938776 0.235591836734692  L 7.54334693877551 0.243428571428574  C 7.68048979591837 0.310040816326534  7.91167346938776 0.431510204081633  7.97044897959184 0.46677551020408  C 8.15069387755102 0.556897959183672  9.12636734693878 1.09763265306123  10.2117551020408 2.60228571428571  C 10.5565714285714 3.08424489795918  11.1012244897959 3.89534693877551  11.5008979591837 4.60065306122449  C 12.1670204081633 5.78791836734694  12.6019591836735 6.8145306122449  12.6215510204082 6.85763265306122  L 12.633306122449 6.88897959183674  L 12.7155918367347 7.15151020408163  C 12.9937959183674 7.896  12.8292244897959 8.67183673469388  12.2728163265306 9.22824489795919  C 12.2414693877551 9.25959183673469  12.2022857142857 9.30269387755102  12.2022857142857 9.30269387755102  L 12.1552653061225 9.34971428571428  L 12.12 9.37322448979592  C 12.0964897959184 9.39281632653061  12.0494693877551 9.43591836734694  12.0181224489796 9.46334693877551  C 11.9319183673469 9.53779591836735  11.9084081632653 9.56130612244898  11.8770612244898 9.58481632653061  L 11.8496326530612 9.6044081632653  C 11.4930612244898 9.85126530612245  11.3637551020408 9.92179591836734  11.226612244898 10.0001632653061  C 11.1325714285714 10.0511020408163  11.0385306122449 10.1059591836735  10.8308571428571 10.2431020408163  L 10.8230204081633 10.2509387755102  C 10.4703673469388 10.4742857142857  10.137306122449 10.6114285714286  9.78073469387756 10.7603265306122  C 9.5025306122449 10.8778775510204  9.18514285714286 11.0071836734694  8.80114285714286 11.2031020408163  C 8.24865306122449 11.4852244897959  8.2290612244898 12.2845714285714  8.34269387755103 12.5471020408163  C 9.02448979591837 14.1340408163265  10.2313469387755 15.7366530612245  12.2571428571429 17.7467755102041  C 14.0439183673469 19.5217959183673  15.8032653061225 20.6581224489796  17.2844081632653 21.5358367346939  C 17.4646530612245 21.6416326530612  17.6409795918367 21.6925714285714  17.8290612244898 21.6925714285714  C 18.3541224489796 21.6925714285714  18.8556734693878 21.2654693877551  19.0829387755102 20.8462040816326  C 19.2553469387755 20.5209795918367  19.419918367347 20.184  19.5648979591837 19.8822857142857  C 19.6824489795918 19.6393469387755  19.7921632653061 19.4081632653061  19.8979591836735 19.2083265306123  L 19.9018775510204 19.2044081632653  C 20.1644081632653 18.714612244898  20.3564081632653 18.4011428571429  20.4700408163265 18.2248163265306  C 20.5523265306122 18.0994285714286  20.630693877551 17.9740408163265  20.7247346938776 17.8760816326531  C 20.952 17.5430204081633  21.3085714285714 17.2608979591837  21.6847346938775 17.1276734693878  C 21.8963265306122 17.049306122449  22.1431836734694 17.0101224489796  22.3978775510204 17.0101224489796  C 22.7231020408163 17.0101224489796  23.0365714285714 17.0806530612245  23.2755918367347 17.2021224489796  L 23.9221224489796 17.5391020408163  C 23.9730612244898 17.5665306122449  24.0200816326531 17.5978775510204  24.0788571428571 17.6370612244898  C 24.149387755102 17.6840816326531  24.2512653061224 17.750693877551  24.3844897959184 17.8368979591837  C 24.7371428571429 18.072  25.0897959183673 18.3071020408163  25.4385306122449 18.5461224489796  C 25.5168979591837 18.6009795918367  25.5952653061224 18.6558367346939  25.6697142857143 18.710693877551  Z " fill-rule="nonzero" fill="#333333" stroke="none" transform="matrix(1 0 0 1 305 1059 )" />
  </g>
</svg>