<?xml version="1.0" encoding="utf-8"?>
<svg version="1.1" xmlns:xlink="http://www.w3.org/1999/xlink" width="30px" height="31px" xmlns="http://www.w3.org/2000/svg">
  <g transform="matrix(1 0 0 1 -27 -1165 )">
    <path d="M 4.03972881355932 8.70017627118644  C 4.72962711864407 7.46269830508475  4.66128813559322 5.98646779661017  3.97789830508474 4.85323389830509  C 6.02155932203389 2.53968813559322  8.73884745762712 0.871783050847461  11.807593220339 0.179064406779658  C 12.4161355932203 1.35937627118644  13.6169491525424 2.15970169491526  15 2.15970169491526  C 16.3830508474576 2.15970169491526  17.5838644067797 1.35601355932203  18.192406779661 0.179064406779658  C 21.2611525423729 0.871783050847461  23.9784406779661 2.53968813559322  26.0221016949152 4.85323389830509  C 25.3387118644068 5.98646779661017  25.2671186440678 7.46269830508475  25.9602711864407 8.69681355932204  C 26.6534237288136 9.93429152542373  27.9258305084746 10.6101966101695  29.2177627118644 10.5631186440678  C 29.6701016949153 12.035986440678  29.9141694915254 13.6063728813559  29.9141694915254 15.2339254237288  C 29.9141694915254 16.8614779661017  29.6701016949153 18.4318644067797  29.2177627118644 19.9047322033898  C 27.9258305084746 19.8576542372881  26.6501694915254 20.5335593220339  25.9602711864407 21.7710372881356  C 25.2703728813559 23.0085152542373  25.3387118644068 24.4813830508475  26.0221016949152 25.6146169491525  C 23.9784406779661 27.9281627118644  21.2611525423729 29.5960677966102  18.192406779661 30.288786440678  C 17.5838644067797 29.1084745762712  16.3830508474576 28.3081491525424  15 28.3081491525424  C 13.6169491525424 28.3081491525424  12.4161355932203 29.1118372881356  11.807593220339 30.288786440678  C 8.73884745762712 29.5960677966102  6.02155932203389 27.9281627118644  3.97789830508474 25.6146169491525  C 4.66128813559322 24.4813830508475  4.72962711864407 23.0051525423729  4.03972881355932 21.7710372881356  C 3.34657627118644 20.5335593220339  2.07416949152542 19.8576542372881  0.78223728813559 19.9047322033898  C 0.329898305084747 18.4352271186441  0.0858305084745723 16.8648406779661  0.0858305084745723 15.2372881355932  C 0.0858305084745723 13.6097355932203  0.329898305084747 12.0393491525424  0.78223728813559 10.5664813559322  C 2.07416949152542 10.6135593220339  3.34983050847458 9.93765423728813  4.03972881355932 8.70017627118644  Z M 11.3845423728814 15.2372881355932  C 11.3845423728814 17.301993220339  13.0018983050847 18.9732610169491  15 18.9732610169491  C 16.9981016949152 18.9732610169491  18.6154576271186 17.301993220339  18.6154576271186 15.2372881355932  C 18.6154576271186 13.1725830508475  16.9981016949152 11.5013152542373  15 11.5013152542373  C 13.0018983050847 11.5013152542373  11.3845423728814 13.1725830508475  11.3845423728814 15.2372881355932  Z " fill-rule="nonzero" fill="#323233" stroke="none" transform="matrix(1 0 0 1 27 1165 )" />
  </g>
</svg>