<?xml version="1.0" encoding="utf-8"?>
<svg version="1.1" xmlns:xlink="http://www.w3.org/1999/xlink" width="30px" height="35px" xmlns="http://www.w3.org/2000/svg">
  <g transform="matrix(1 0 0 1 -128 -1163 )">
    <path d="M 18.58656 34.16496  L 17.6688 34.16496  C 20.19168 30.51696  20.29536 27.51024  17.98368 25.14864  C 12.94176 20.32176  15.14976 17.1  15.14976 17.1  C 15.14976 17.1  9.81216 19.692  8.77536 24.51504  C 8.21856 27.10704  8.90208 30.34032  12.312 34.16496  L 11.80128 34.16496  C 5.4 32.03376  0.0662400000000005 27.80592  0.0662400000000005 21.36624  C 0.0662400000000005 9.33168  11.99712 11.34  12.86496 0.0311999999999983  C 12.86496 0.0311999999999983  24.25824 3.57168  21.7392 14.52336  C 21.7392 14.52336  22.99872 13.55568  24.26208 11.62416  C 24.26208 11.62416  29.93376 16.13232  29.93376 22.572  C 29.93376 27.08016  26.15136 30.9432  18.58656 34.16496  Z " fill-rule="nonzero" fill="#323233" stroke="none" transform="matrix(1 0 0 1 128 1163 )" />
  </g>
</svg>