<?xml version="1.0" encoding="utf-8"?>
<svg version="1.1" xmlns:xlink="http://www.w3.org/1999/xlink" width="30px" height="23px" xmlns="http://www.w3.org/2000/svg">
  <g transform="matrix(1 0 0 1 -218 -1169 )">
    <path d="M 3.74776744186047 11.25  C 3.74776744186047 9.19381395348842  2.0833953488372 7.52944186046511  0.0305581395348895 7.52944186046511  L 0.0305581395348895 1.94693023255809  C 0.0305581395348895 0.91883720930241  0.864418604651149 0.0849767441859512  1.89251162790697 0  L 27.9397674418605 0  C 28.9678604651163 0.0849767441859512  29.8017209302325 0.91883720930241  29.8017209302325 1.94693023255809  L 29.8017209302325 7.52944186046511  C 27.7455348837209 7.52944186046511  26.0811627906977 9.19381395348842  26.0811627906977 11.25  C 26.0811627906977 13.3061860465116  27.7455348837209 14.9705581395349  29.8017209302325 14.9705581395349  L 29.8017209302325 20.5530697674419  C 29.8017209302325 21.5811627906976  28.9678604651163 22.415023255814  27.9397674418605 22  L 1.88916279069767 22  C 0.861069767441847 22.415023255814  0.0272093023255877 21.5811627906976  0.0272093023255877 20.5530697674419  L 0.0272093023255877 14.9705581395349  C 2.0833953488372 14.9705581395349  3.74776744186047 13.3061860465116  3.74776744186047 11.25  Z M 19.5643255813953 7.52944186046511  L 10.2612558139535 7.52944186046511  C 9.74888372093022 7.52944186046511  9.33027906976744 7.94469767441865  9.33027906976744 8.46041860465107  C 9.33027906976744 8.97279069767433  9.74553488372092 9.39139534883725  10.2612558139535 9.39139534883725  L 19.5643255813953 9.39139534883725  C 20.0766976744186 9.39139534883725  20.4953023255814 8.97613953488371  20.4953023255814 8.46041860465107  C 20.4953023255814 7.94804651162781  20.0800465116279 7.52944186046511  19.5643255813953 7.52944186046511  Z M 19.5643255813953 13.1119534883721  L 10.2612558139535 13.1119534883721  C 9.74888372093022 13.1119534883721  9.33027906976744 13.5272093023257  9.33027906976744 14.0429302325581  C 9.33027906976744 14.5553023255814  9.74553488372092 14.9739069767443  10.2612558139535 14.9739069767443  L 19.5643255813953 14.9739069767443  C 20.0766976744186 14.9739069767443  20.4953023255814 14.5586511627907  20.4953023255814 14.0429302325581  C 20.4953023255814 13.5305581395348  20.0800465116279 13.1119534883721  19.5643255813953 13.1119534883721  Z " fill-rule="nonzero" fill="#323233" stroke="none" transform="matrix(1 0 0 1 218 1169 )" />
  </g>
</svg>