<?xml version="1.0" encoding="utf-8"?>
<svg version="1.1" xmlns:xlink="http://www.w3.org/1999/xlink" width="35px" height="24px" xmlns="http://www.w3.org/2000/svg">
  <g transform="matrix(1 0 0 1 -300 -1165 )">
    <path d="M 7.38524137931034 2.93729863291139  C 7.38524137931034 2.94118724050633  7.55131034482758 4.3994150886076  7.55131034482758 4.3994150886076  L 31.6737931034483 4.3994150886076  C 31.8668965517241 4.3994150886076  32.0561379310345 4.41496951898734  32.2453793103448 4.44996698734177  C 33.9948965517241 4.76883281012658  35.1573793103448 6.45259989873418  34.8406896551724 8.2141391392405  L 32.5234482758621 21.1748682531646  C 32.2492413793103 22.7186454683544  30.9129655172414 23.8424530632911  29.3565517241379 23.8424530632911  L 10.4748965517241 23.8424530632911  C 8.83737931034483 23.8424530632911  7.46248275862069 22.6058758481013  7.27710344827587 20.9726606582279  L 5.25337931034483 3.18616951898734  C 5.19158620689655 2.6417644556962  4.732 2.22957205063291  4.18744827586207 2.22957205063291  L 1.17889655172414 2.22957205063291  C 0.588000000000001 2.22957205063291  0.105241379310343 1.74738470886076  0.105241379310343 1.1485391392405  C 0.105241379310343 0.549693569620253  0.584137931034484 0.0675062278480993  1.17889655172414 0.0675062278480993  L 4.18744827586207 0.0675062278480993  C 5.82496551724138 0.0675062278480993  7.19986206896552 1.30408344303797  7.38524137931034 2.93729863291139  Z " fill-rule="nonzero" fill="#323233" stroke="none" transform="matrix(1 0 0 1 300 1165 )" />
  </g>
</svg>