<?xml version="1.0" encoding="utf-8"?>
<svg version="1.1" xmlns:xlink="http://www.w3.org/1999/xlink" width="26px" height="27px" xmlns="http://www.w3.org/2000/svg">
  <g transform="matrix(1 0 0 1 -176 -2346 )">
    <path d="M 13.1351096256685 26.2706609848485  C 10.3197927807487 26.2706609848485  7.59161764705883 25.3684644607843  5.2981517379679 23.6511798128342  C 2.4950267379679 21.5516508467023  0.676543114973267 18.4843358957219  0.179075868983965 15.0169552139037  C -0.318391377005337 11.5486418226381  0.564118315508026 8.09438569518716  2.66368059269163 5.29032798573974  C 6.99951370320857 -0.499532531194305  15.2365373217469 -1.68000958110518  21.0245324197861 2.65302540106951  C 23.4510426693405 4.47054300356507  25.1823845811052 7.09099019607842  25.9009705882353 10.0308903743315  C 26.0236885026738 10.533987188057  25.7154613413547 11.0408481506239  25.2132972370766 11.1635660650624  C 24.7111331327986 11.2825531417112  24.2033394607843 10.9789895276292  24.0806215463458 10.4758927139037  C 23.4660326426025 7.95664449643495  21.9820252896613 5.71094663547235  19.9012171345811 4.15292212566844  C 14.9423341131907 0.43820688502673  7.88112399732619 1.45099610071301  4.16361062834223 6.41360995989304  C 2.36388112745096 8.81670254010693  1.60782018716576 11.7772222593583  2.03503442513369 14.7499005124777  C 2.46131595365419 17.7226120766488  4.02027317290551 20.3505209447415  6.42333244206774 22.1493177361854  C 11.3868790106952 25.8686965240641  18.4471564171123 24.8540752005347  22.1628043672014 19.8914613413547  C 23.1352872103386 18.5920305258467  23.8023410204991 17.1361043894831  24.1433462566845 15.5630899064171  C 24.2539056372549 15.0571616532977  24.7551370320856 14.7358432486631  25.2573011363636 14.8454366087344  C 25.7632293894831 14.9550632798574  26.0845477941176 15.4543959447415  25.9749544340463 15.9593914884136  C 25.5749220142602 17.7975286319073  24.7973088235294 19.4970251782531  23.6627344028521 21.014743315508  C 21.5632054367201 23.817868315508  18.4958904857398 25.6372846479501  15.0266443850267 26.133819184492  C 14.3942673796791 26.225624442959  13.7627897727273 26.2705943627451  13.1351096256685 26.2705943627451  Z " fill-rule="nonzero" fill="#1989fa" stroke="none" transform="matrix(1 0 0 1 176 2346 )" />
  </g>
</svg>