<?xml version="1.0" encoding="utf-8"?>
<svg version="1.1" xmlns:xlink="http://www.w3.org/1999/xlink" width="4px" height="4px" xmlns="http://www.w3.org/2000/svg">
  <g transform="matrix(1 0 0 1 -61 -981 )">
    <path d="M 2.66821818181818 2.0401454545455  C 2.66821818181818 2.3962181818182  2.37730909090909 2.68712727272725  2.02123636363636 2.68712727272725  C 1.66516363636364 2.68712727272725  1.37425454545454 2.3962181818182  1.37425454545454 2.0401454545455  C 1.37425454545454 1.68407272727268  1.66283636363637 1.39316363636362  2.02123636363636 1.39316363636362  C 2.37730909090909 1.39316363636362  2.66821818181818 1.68407272727268  2.66821818181818 2.0401454545455  Z M 3.95985454545454 2.0401454545455  C 3.95985454545454 0.969600000000014  3.09178181818182 0.101527272727253  2.02123636363636 0.101527272727253  C 0.948363636363631 0.101527272727253  0.0826181818181837 0.969600000000014  0.0826181818181837 2.0401454545455  C 0.0826181818181837 3.11069090909086  0.950690909090909 3.97876363636362  2.02123636363636 3.97876363636362  C 3.09410909090909 3.97876363636362  3.95985454545454 3.11069090909086  3.95985454545454 2.0401454545455  Z " fill-rule="nonzero" fill="#969799" stroke="none" transform="matrix(1 0 0 1 61 981 )" />
  </g>
</svg>