<?xml version="1.0" encoding="utf-8"?>
<svg version="1.1" xmlns:xlink="http://www.w3.org/1999/xlink" width="20px" height="15px" xmlns="http://www.w3.org/2000/svg">
  <g transform="matrix(1 0 0 1 -57 -978 )">
    <path d="M 18.7331929824561 9.77274418604657  L 13.456 3.65330232558142  C 13.2067368421053 3.36530232558141  12.8586666666667 3.22018604651157  12.508350877193 3.22018604651157  C 12.1535438596491 3.22018604651157  11.7987368421053 3.36976744186052  11.5494736842105 3.66893023255818  L 6.25656140350878 9.98037209302322  L 4.64421052631579 8.37739534883724  C 4.39943859649123 8.13404651162796  4.08056140350877 8.01348837209298  3.76168421052632 8.01348837209298  C 3.44280701754386 8.01348837209298  3.1239298245614 8.13404651162796  2.87915789473684 8.37739534883724  L 1.26680701754386 9.98037209302322  L 1.26680701754386 1.29795348837206  L 18.7331929824561 1.29795348837206  L 18.7331929824561 9.77274418604657  Z M 18.7331929824561 11.6793488372093  L 18.7331929824561 13.7020465116279  L 1.26680701754386 13.7020465116279  L 1.26680701754386 11.7351627906977  L 3.76168421052632 9.25479069767437  L 5.3740350877193 10.8577674418605  C 5.89277192982456 11.373488372093  6.74610526315789 11.3333023255814  7.21543859649123 10.7729302325581  L 12.5061052631579 4.45925581395352  L 12.508350877193 4.45925581395352  L 18.7331929824561 11.6793488372093  Z M 20 1.29795348837206  C 19.9795087719298 0.612558139534826  19.4225964912281 0.0588837209302255  18.7331929824561 0  L 1.26680701754386 0  C 0.57740350877193 0.0588837209302255  0.018245614035088 0.612558139534826  0 1.30018604651161  L 0 13.7042790697674  C 0.018245614035088 14.3896744186046  0.57740350877193 14.9455813953489  1.26680701754386 15  L 18.7331929824561 15  C 19.4225964912281 14.9455813953489  19.9817543859649 14.3896744186046  20 13.7042790697674  L 20 1.29795348837206  Z " fill-rule="nonzero" fill="#969799" stroke="none" transform="matrix(1 0 0 1 57 978 )" />
  </g>
</svg>