<?xml version="1.0" encoding="utf-8"?>
<svg version="1.1" xmlns:xlink="http://www.w3.org/1999/xlink" width="20px" height="20px" xmlns="http://www.w3.org/2000/svg">
  <g transform="matrix(1 0 0 1 -178 -975 )">
    <path d="M 14.2363333333334 17.2955000000001  C 14.6025461783424 17.0861821613344  15.0689949021551 17.2102416244284  15.2828333333333 17.5738333333334  C 15.4956666666667 17.9331666666667  15.3756666666667 18.4126666666666  15.0041666666667 18.6145  C 14.8888443673793 18.6824557257734  14.7574304163099 18.718294959277  14.6235752207503 18.718294959277  C 14.3526062405015 18.718294959277  14.1027272237798 18.5720698087658  13.97 18.3358333333334  C 13.7466666666667 17.9768333333333  13.8768333333333 17.5081666666666  14.2363333333334 17.2955000000001  Z M 10.7886666666667 18.6640000000001  L 10.7886666666667 19.1981666666667  C 10.7886666666667 19.6128333333332  10.4455 19.9601666666667  10.0145 19.9601666666667  C 9.59411510408745 19.9590676155581  9.25359905110861 19.6185515625792  9.25250000000003 19.1981666666667  L 9.25250000000003 18.6640000000001  C 9.25323020339496 18.2431913421543  9.59369394189471 17.9019829323105  10.0145 17.9003333333334  C 10.4396666666667 17.9003333333334  10.7886666666667 18.2384999999999  10.7886666666667 18.6640000000001  Z M 6.649 17.3449999999999  L 6.08199999999999 18.3375  C 5.94716753744854 18.5766491331783  5.69392995052775 18.7245867322536  5.41939015221502 18.7245867322536  C 5.28825064572939 18.7245867322536  5.15933847968691 18.6906830775478  5.04516666666666 18.6261666666666  L 5.03516666666667 18.6206666666667  C 4.79534687733269 18.4870531673502  4.6466849436608 18.2340497205204  4.6466849436608 17.9595208539948  C 4.6466849436608 17.8238115079913  4.68317490850538 17.6905986486798  4.75233333333333 17.5738333333334  L 5.31966666666665 16.5813333333334  C 5.53714659694421 16.2162200986894  6.00584835264735 16.0907304138606  6.37666666666667 16.2983333333333  C 6.73599999999999 16.511  6.86766666666665 16.9856666666666  6.649 17.3449999999999  Z M 3.94566666666665 14.3706666666667  L 2.43066666666667 15.2534999999999  C 2.06100000000001 15.4601666666667  1.58633333333333 15.3358333333334  1.38400000000001 14.9706666666666  C 1.167 14.6113333333333  1.29133333333334 14.1366666666667  1.65633333333335 13.924  L 3.18200000000002 13.0410000000001  C 3.54733333333334 12.8389999999999  4.02033333333335 12.9523333333333  4.22866666666667 13.3238333333334  C 4.43533333333335 13.6831666666667  4.30933333333334 14.158  3.94566666666665 14.3706666666667  Z M 3.19066666666666 10.7473333333334  L 0.807666666666677 10.7473333333334  C 0.806999126567035 10.7473350923292  0.806331584439135 10.7473359718283  0.805664042022016 10.7473359718283  C 0.386707439123597 10.7473359718283  0.0467677295494013 10.4082884893736  0.0456666666666479 9.98933333333332  L 0.0456666666666479 9.98533333333341  C 0.0456489672948237 9.98321356463839  0.0456401174932353 9.98109373128921  0.0456401174932353 9.97897388870354  C 0.0456401174932353 9.56077787823335  0.382818326037409 9.22079609741377  0.801000000000016 9.21733333333339  L 3.18333333333331 9.21733333333339  C 3.18400087343295 9.21733157433744  3.18466841556085 9.21733069483832  3.18533595797797 9.21733069483832  C 3.60429256087639 9.21733069483832  3.94423227045058 9.55637817729303  3.94533333333334 9.97533333333331  L 3.94533333333334 9.97933333333333  C 3.9489390581127 10.3997753453908  3.61110734950816 10.7435758120978  3.19066666666666 10.7473333333334  Z M 4.25133333333335 7.5286666666666  L 1.65800000000002 6.03466666666657  C 1.28666666666666 5.82799999999997  1.167 5.35933333333332  1.38566666666668 4.99400000000003  C 1.58766666666668 4.62433333333331  2.06100000000001 4.49833333333333  2.43233333333333 4.7109999999999  L 5.01333333333332 6.20966666666664  C 5.37866666666665 6.41766666666672  5.49833333333333 6.8846666666667  5.29633333333334 7.24566666666669  C 5.08430543037187 7.61029423903517  4.61838375525474 7.73647207066972  4.25133333333335 7.5286666666666  Z M 4.75066666666666 2.38183333333336  L 4.75233333333333 2.3846666666667  L 6.55033333333333 5.50599999999997  C 6.76900000000001 5.87133333333338  7.23766666666666 6.00133333333326  7.60133333333332 5.78433333333339  C 7.96666666666667 5.57766666666669  8.08633333333333 5.10333333333335  7.87366666666665 4.73799999999994  L 6.06966666666665 1.62266666666665  C 5.86299999999997 1.26166666666666  5.39466666666667 1.13166666666666  5.035 1.34433333333334  C 4.79753195738974 1.4796368341257  4.65090584604806 1.7319374873473  4.65090584604806 2.00524703454209  C 4.65090584604806 2.13730735779291  4.68528703255163 2.26709261510268  4.75066666666666 2.38183333333336  Z M 9.25266666666667 4.37300000000005  L 9.25266666666667 0.772333333333336  C 9.25266666666667 0.35766666666666  9.60133333333332 0.00433333333330665  10.0146666666667 0.00433333333330665  C 10.4398333333333 0.00433333333330665  10.7888333333333 0.348666666666645  10.7888333333333 0.772333333333336  L 10.7888333333333 4.36833333333334  C 10.7888333333333 4.79333333333341  10.4456666666667 5.13633333333337  10.0146666666667 5.14233333333334  C 9.59323322962993 5.14031998220423  9.25265784515616 4.79811365037915  9.25265784515616 4.37667540408995  C 9.25265784515616 4.37545026409998  9.25266078566816 4.37422512587466  9.25266666666667 4.37300000000005  Z M 12.1618333333333 4.73833333333334  L 13.9593333333333 1.62266666666665  C 14.1711749597249 1.25673797842228  14.6386219252832 1.13034865556904  15.006 1.33966666666663  C 15.3709439383463 1.54245697631222  15.5024787352903 2.00264224435023  15.2998333333333 2.36766666666665  L 15.2891666666667 2.38633333333337  L 13.4866666666667 5.50766666666675  C 13.2833333333333 5.87133333333338  12.804 6.00166666666667  12.4401666666667 5.79066666666665  C 12.0746666666667 5.57799999999997  11.9551666666667 5.10333333333335  12.1618333333333 4.73833333333334  Z M 18.657 4.99533333333329  C 18.4491666666667 4.62433333333331  17.9793333333333 4.49266666666665  17.6215 4.7109999999999  L 14.4936666666667 6.51366666666672  C 14.1283333333333 6.72033333333331  14.0026666666667 7.18866666666656  14.2106666666666 7.55999999999995  C 14.4292253106607 7.91742775995283  14.8901020925573 8.03998575768662  15.2573333333333 7.83833333333325  L 18.3848333333333 6.03600000000006  C 18.6188490854389 5.90098271422539  18.7630259473911 5.6513458675181  18.7630259473911 5.38117362673177  C 18.7630259473911 5.24853044079953  18.7281269051456 5.11822187545431  18.6618333333333 5.00333333333344  L 18.657 4.99533333333329  Z M 15.6273333333333 9.21733333333339  L 19.2276666666667 9.21733333333339  C 19.2302080897257 9.21730764428958  19.2327496263863 9.21729479952148  19.2352911792762 9.21729479952148  C 19.6518979755652 9.21729479952148  19.9896245126095 9.55502133656591  19.9896245126095 9.97162813285479  C 19.9896245126095 9.9761968158117  19.9895830066936 9.98076540449756  19.9895 9.98533333333341  C 19.9895103411156 9.98694885052782  19.9895155117132 9.98856439668214  19.9895155117132 9.99017994697363  C 19.9895155117132 10.4066013103835  19.6532473929304 10.7448669850261  19.2368333333334 10.7473333333334  L 15.6273333333333 10.7473333333334  C 15.205327975662 10.7438635630419  14.8647485573703 10.4013515683915  14.8636666666667 9.97933333333333  C 14.8636666666667 9.56033333333335  15.2126666666667 9.21733333333339  15.6273333333333 9.21733333333339  Z " fill-rule="nonzero" fill="#969799" stroke="none" transform="matrix(1 0 0 1 178 975 )" />
  </g>
</svg>