<?xml version="1.0" encoding="utf-8"?>
<svg version="1.1" xmlns:xlink="http://www.w3.org/1999/xlink" width="20px" height="20px" xmlns="http://www.w3.org/2000/svg">
  <g transform="matrix(1 0 0 1 -57 -1172 )">
    <path d="M 1.26680701754385 10  C 1.26680701754385 14.8235789473683  5.17642105263158 18.7331929824561  10 18.7331929824561  C 14.8235789473684 18.7331929824561  18.7331929824561 14.8235789473683  18.7331929824561 10  C 18.7331929824561 5.17642105263167  14.8235789473684 1.2668070175439  10 1.2668070175439  C 5.17642105263158 1.2668070175439  1.26680701754385 5.17642105263167  1.26680701754385 10  Z M 19.9795087719298 10  C 19.9795087719298 15.5107368421052  15.5129824561403 19.9795087719299  10 19.9795087719299  C 4.48701754385965 19.9795087719299  0.0204912280701706 15.5107368421052  0.0204912280701706 10  C 0.0204912280701706 4.48926315789481  4.48701754385965 0.0204912280701137  10 0.0204912280701137  C 15.5129824561403 0.0204912280701137  19.9795087719298 4.48926315789481  19.9795087719298 10  Z " fill-rule="nonzero" fill="#969799" stroke="none" transform="matrix(1 0 0 1 57 1172 )" />
  </g>
</svg>