<?xml version="1.0" encoding="utf-8"?>
<svg version="1.1" xmlns:xlink="http://www.w3.org/1999/xlink" width="2px" height="11px" xmlns="http://www.w3.org/2000/svg">
  <g transform="matrix(1 0 0 1 -66 -1176 )">
    <path d="M 0.262109090909092 8.18159999999989  L 0.0689454545454566 0.328800000000001  C 0.0666181818181855 0.207200000000057  0.162036363636361 0.106933333333245  0.301672727272731 0.106933333333245  L 1.64683636363635 0.106933333333245  C 1.77716363636364 0.106933333333245  1.8818909090909 0.200800000000072  1.87956363636364 0.328800000000001  L 1.68872727272726 8.18159999999989  C 1.68640000000001 8.30320000000006  1.57236363636363 8.40346666666665  1.44901818181818 8.40346666666665  L 0.50181818181818 8.40346666666665  C 0.37381818181818 8.40346666666665  0.266763636363635 8.30960000000005  0.262109090909092 8.18159999999989  Z M 1.87956363636364 10.0632000000001  C 1.87956363636364 10.5218666666667  1.47461818181819 10.8930666666668  0.974254545454542 10.8930666666668  C 0.473890909090912 10.8930666666668  0.0689454545454566 10.5218666666667  0.0689454545454566 10.0632000000001  C 0.0689454545454566 9.60453333333339  0.473890909090912 9.23333333333335  0.974254545454542 9.23333333333335  C 1.47461818181817 9.23333333333335  1.87956363636364 9.60453333333339  1.87956363636364 10.0632000000001  Z " fill-rule="nonzero" fill="#969799" stroke="none" transform="matrix(1 0 0 1 66 1176 )" />
  </g>
</svg>