<?xml version="1.0" encoding="utf-8"?>
<svg version="1.1" xmlns:xlink="http://www.w3.org/1999/xlink" width="30px" height="28px" xmlns="http://www.w3.org/2000/svg">
  <g transform="matrix(1 0 0 1 -35 0 )">
    <path d="M 29.9269268035714 15.0387298711864  C 30.0591732053571 16.1862505220339  29.0106346875 18.0758014101695  27.9630394553571 19.1690784271186  C 26.6890595089286 20.4988119050848  24.9655172410714 20.8976173559322  24.2295782678572 21.0677972610169  L 24.1893949821429 21.0771562033898  C 26.3757053303572 23.0910472949153  26.6283129375 23.8676483254237  26.3085445178571 24.3858279864407  C 26.1440382857143 24.6522712677966  25.8114414375 24.7601856  25.3818764464286 24.7601856  C 24.5453849464286 24.7601856  23.3415842410714 24.3518302101695  22.2885180267857 23.9132970305085  C 22.0401577087231 24.2030694227183  21.7774667820217 24.4799263191531  21.5014538571428 24.7428047186441  C 19.380229125 26.7597518101695  16.6562550803571 27.8474898440678  13.7645676964286 27.8474898169491  C 13.5195062410714 27.8474898169491  13.2736901785714 27.8396588745763  13.0265535535714 27.8238059661017  C 10.7225231517857 27.6773099118644  8.60167572321427 26.8134224271186  6.87171924107145 25.4580951322034  C 5.73904106250001 26.0534383186441  4.92726324107144 26.347194440678  4.36658375892858 26.3475764338983  C 4.02870458035716 26.3475764338983  3.78081332142858 26.2423361084746  3.60517652678573 26.0349114305085  C 3.01374648214284 25.3371928949153  3.86117989285714 23.8307855457627  4.48128535714284 22.9166654101695  C 3.24447021428574 21.1250968949153  2.49626874107145 18.9704397016949  2.44325700000002 16.6622194711864  C 2.42939492910227 16.0520077864257  2.46326979490925 15.4416426446556  2.54456413392859 14.8368441762712  C 2.46174506250003 14.9197376542373  2.37949194642857 14.9984291525424  2.29912540178572 15.0708176813559  C 2.08085282142855 15.2675464135593  1.8148507767857 15.3678207728814  1.54488699107145 15.3678207728814  C 1.32771149408779 15.3665965599175  1.1152278662301 15.3037333071802  0.931573071428545 15.1863719322034  C 0.492764035714288 14.9113336949152  0.288074544642882 14.3900980338983  0.422396142857167 13.8898722440678  C 0.557283696428556 13.3875454644068  0.853847678571412 12.9627641762712  1.07325216964284 12.6986128542373  C 0.748767428571455 12.4526064271186  0.522571366071418 12.1510193627119  0.367120526785698 11.8620382101695  C -0.219593169642849 10.7708622101695  -0.0516911785714456 9.40311997288137  0.74518301785713 8.48880884067796  C 0.736693580357155 8.46130500338984  0.723676473214311 8.4357111864407  0.717262232142843 8.40706134237288  C 0.569923526785715 7.75136254915256  1.02325891071428 7.08611381694917  1.7276926607143 6.92338286101696  C 2.22743691964286 6.80801960677968  2.71699384821426 6.98010950508476  3.01450106250002 7.32142429830509  C 4.32507988392859 7.0467680542373  5.79431665178572 7.14016645423729  6.88171789285713 7.29201049491527  C 8.24248983907745 6.23842749165027  9.8214792716463 5.51088774890451  11.499966 5.16409312542373  L 13.8526690982143 1.63042475932204  C 14.0628295714286 1.31508577627119  14.4414579910714 1.19150955932204  14.7940521696428 1.32253472542374  C 15.1217440446429 1.44458294237288  15.3251129732143 1.74827099661016  15.3192647142857 2.09397879322034  L 15.7499616160714 4.14282267118645  C 16.4374165178571 2.85797391186441  17.2701349553572 1.76049494237287  17.8402471071428 1.07576431186442  C 18.4001719553571 0.402875633898304  19.2557175 0.0571678372881479  20.0737209375 0.173677098305092  C 20.6387394375 0.253705572881358  21.0767938660714 0.519384894915248  21.3758103214286 0.962884040677977  C 22.0125173303571 1.90718199322035  21.8295230089286 3.45121610847457  21.5640869464286 4.58001887457627  C 21.4412732410714 5.10259153898306  21.0528348214286 5.53463075254237  20.4987582321428 5.76535728813559  C 20.4773647793475 5.77412519236438  20.4573956238384 5.78610107320046  20.4395209017857 5.80088303728814  C 20.3765104821429 5.85092471864408  20.3476464375 5.9200662779661  20.3533060446429 6.00620672542374  C 20.3614181517857 6.12825494237288  20.4385776160714 6.25030315932204  20.5498834553571 6.3171527322034  C 20.8932335892857 6.52324040677965  21.1347106339285 6.84526435254239  21.2486575982143 7.2486537762712  C 21.3048087746824 7.45009323085739  21.3262517905775 7.65982295864163  21.3120452946429 7.86863579661016  C 23.702101875 10.0412468881356  25.0719180267857 13.1340900610169  25.0719180267857 16.3902372067797  C 25.0717518362027 16.9763070800448  25.0268442421882 17.5614873692255  24.9375964553572 18.1405499932203  C 25.4647402952614 17.9688404304561  25.9408676622338 17.6658874185608  26.3223162589286 17.2594726508474  C 26.8086660803571 16.7422479728814  27.2138947232143 16.1054580338983  27.57120525 15.5439216271186  C 28.1639558839286 14.6118475932203  28.7238807321428 13.7317252338983  29.4434068125 14.1968072677966  C 29.6339472857143 14.3200014915254  29.8724058482143 14.5656258983051  29.9269268035714 15.0387298711864  Z M 22.8408967232143 23.2111855186441  C 24.01017375 23.6724475661017  25.1636038660714 23.9702146440678  25.5480805446429 23.9106230508474  C 25.4794105178572 23.7156132881356  25.159642125 23.1493019389831  23.71908075 21.8077265084746  C 23.4601357320128 22.2963575782117  23.166642979505 22.7653994138212  22.8408967232143 23.2111855186441  Z M 24.1107262767857 20.9975096949153  C 24.1205362767857 20.9824208  24.1311009107143 20.9682868881356  24.1394016964286 20.9505240135593  L 24.1335534107143 20.9476590101695  C 24.1263845625 20.9644669016949  24.1180837767857 20.9807018033898  24.1107262767857 20.9975096949153  Z M 5.02687250892859 23.6451347525424  C 4.50788555357144 24.4696764745763  4.15755522321427 25.2730173288136  4.25471199107142 25.4827339661017  C 4.25622123214288 25.4833069559322  4.28282142857142 25.4947668881356  4.36469721428574 25.4947668881356  C 4.55769018749999 25.4947668881356  5.04988826785711 25.4153114033898  6.16634220535713 24.8574039864407  C 5.75839516536985 24.4813996394854  5.37759601202458 24.0762716230564  5.02687250892859 23.6451347525424  Z M 1.24190879464288 14.1154417898305  C 1.18757646428571 14.3173274847458  1.33283999999998 14.4269607864407  1.37868289285717 14.4556106033898  C 1.42339387499999 14.4838784271186  1.58280642857142 14.5650529084746  1.73448417857145 14.428870779661  C 2.08066414285713 14.1167787661017  2.4764600625 13.6868405423729  2.6709622767857 13.2238594983051  C 2.36873868750001 13.2129725559322  2.1006614732143 13.1671328542373  1.86239156250002 13.0949353220339  C 1.73354091964285 13.2282524745763  1.3707594375 13.6352708610169  1.24190879464288 14.1154417898305  Z M 2.20894880357145 8.41374630508474  C 2.38137849107142 8.32359487457626  2.47796930357146 8.15742595254238  2.44476621428572 8.00901990508476  C 2.4092992767857 7.85201890169492  2.2380015 7.74735159322034  2.04199009821428 7.74735159322034  C 2.00067490178571 7.74735159322034  1.95841641964284 7.75212656271185  1.91596925892856 7.76186749830509  C 1.67241704464288 7.81783012881357  1.50243985714286 8.02620981694915  1.54526429464283 8.21625358644067  C 1.57073258035712 8.32894286101694  1.65902260714284 8.39216347118645  1.70958187500003 8.42024027118646  C 1.81315288392858 8.47734890847457  1.94615389285713 8.49320181694915  2.07368394642856 8.46321499661016  C 2.12216801785712 8.45213705762711  2.1678222589286 8.4353291661017  2.20894880357145 8.41374630508474  Z M 19.7335779107143 8.83661760000001  C 20.2785991071428 8.58564520677965  20.5789361517857 8.00462692881356  20.4323520535714 7.48491926779661  C 20.3776424196428 7.29143750508476  20.2744487142857 7.15124439322034  20.1169226785714 7.05670001355932  C 19.766781 6.84679235254237  19.5326614821429 6.46613179661017  19.5060612857143 6.06369735593219  C 19.4815362857143 5.69449673220339  19.62981825 5.35279991864408  19.9126104910714 5.12627536271188  C 19.992976081834 5.06201623865061  20.0817285547133 5.0093112317704  20.1763486607143 4.96965637966102  C 20.3512308482143 4.8970768542373  20.6574161785715 4.72326795932204  20.7381600535714 4.38080713220339  C 21.0526461428572 3.04324271186442  21.0294417053572 1.97422253559321  20.6743950267857 1.44744794576272  C 20.5136618839286 1.20889046779661  20.2787877321429 1.07098936949151  19.9558122321429 1.02514964067797  C 19.4245627767857 0.949514115254232  18.8629400357143 1.18119563389831  18.4895939196429 1.62985176949152  C 17.5989587410714 2.69963590508476  16.0310559642857 4.82163232542374  15.5350847946428 7.01334329491524  C 15.4137803303572 7.5494768542373  15.5303684464286 8.10451929491526  15.8548532142857 8.53598551864405  C 16.1768854553571 8.96420477288135  16.6692722142857 9.22339012881355  17.205992625 9.24783796610168  C 18.194161875 9.29081269152542  19.0442364642857 9.15348458305084  19.7335779107143 8.83661760000001  Z M 24.1827920892857 15.5101148474576  C 23.9733900001278 12.9513545941007  22.8527330139687 10.5568112272523  21.0294417321429 8.7722510101695  C 20.806132756317 9.14452366726897  20.4768618505992 9.43973715216126  20.0848515267857 9.61913957966101  C 19.3681552767857 9.94918546440678  18.5197785535714 10.1153544135593  17.5585868035714 10.1153544135593  C 17.4304907946429 10.1153544135593  17.3005082410714 10.1126804338983  17.1682618392857 10.1063774644068  C 16.379311125 10.0712336813559  15.6541254375 9.6886631322034  15.1792835089286 9.05683918644067  C 14.7016117767857 8.42157724745763  14.5297480446429 7.60696748474575  14.7074600357143 6.82119850847457  C 14.8146154553571 6.34713955254236  14.96817975 5.8784285559322  15.1506080892857 5.4219414779661  L 14.4791887767857 2.22767793898305  L 12.0065017767857 5.94164913898305  L 11.8314309375 5.9746919322034  C 10.1628516433752 6.29160463467105  8.59532113355033 7.01425574840275  7.26374209821427 8.08045345084747  L 7.11961050000002 8.19600770169492  L 6.93793676785714 8.1686948881356  C 5.9348638392857 8.01818785084745  4.53014670535714 7.90454359322032  3.29370889285713 8.14080905762711  C 3.26597675892856 8.56310736271186  3.01053934821431 8.96248580338982  2.5988964642857 9.17755042711863  C 2.49246805904806 9.23295193061492  2.37958669167432 9.27459740390262  2.26290383035712 9.30150863728812  C 2.15669166964284 9.32614747118643  2.05029085714284 9.33818039322034  1.94483333035714 9.33818039322034  C 1.7209991778405 9.33897865178162  1.5005371989111 9.28296469032813  1.30359862500001 9.17525844067796  C 1.29925958035716 9.1729664542373  1.29586382142855 9.1695284881356  1.29152477678571 9.1670454779661  C 0.803854392857147 9.81128433898306  0.719148776785687 10.7185285423729  1.11305815178571 11.4506268474576  C 1.5154569642857 12.1989600542373  2.28893807142856 12.4915701694915  3.41124026785712 12.3190983050847  L 4.10888249999999 12.2121389830508  L 4.10586404464289 12.2209249355932  C 6.36178767857143 11.8013006101695  7.3458065625 10.4591522169491  7.35637116964284 10.4442542915254  C 7.43616922756257 10.3319351289576  7.56447800330699 10.2653557038487  7.70113621874998 10.2653557038487  C 7.93568485437561 10.2653557038487  8.12582409162263 10.4578582536491  8.12582409162263 10.6953221830508  C 8.12582409162263 10.7854223815335  8.09786706401576 10.8732460049226  8.04590126785712 10.9463900745763  C 7.99138028571429 11.0229805830508  6.70947685714287 12.7725293830509  3.79496236607145 13.1371460610169  C 3.43408858793384 14.2685966888212  3.2641212431285 15.4535268345249  3.29219965178572 16.6421646101695  C 3.41708855357143 22.0900227254237  7.71613419642858 26.6247156610169  13.0797539732143 26.9658394847458  C 16.0042671160714 27.1505352949152  18.7916288839286 26.1399607864407  20.9200224375 24.1157557152542  C 21.8893262946428 23.1939956067797  22.6580910535714 22.1223014779661  23.2106584017857 20.9505240135593  C 22.8378782410715 20.8391717152542  22.4056720982143 20.4925089355932  21.9204542142857 19.9099626576271  C 21.7434968303571 19.6973810169492  21.4737217232143 19.5961516745763  21.1954571785714 19.6396993898305  C 21.0717002142857 19.6593722576271  20.6943923571429 19.7187728813559  20.5678055625 19.429600759322  C 20.4449918571428 19.1488325694915  20.6921285089286 18.8697833491526  21.1305602410714 18.511087620339  C 21.2011102172943 18.4546104537104  21.2615972661571 18.3863304074181  21.3094041428571 18.3092019254237  C 21.4737217232143 18.0377926508475  21.7118029553571 17.5079620610169  21.4608932410714 17.0123202440678  C 21.4093907142857 16.9105178847458  21.3575108839286 16.798783620339  21.3282695357143 16.6729154169492  C 21.1194296517857 15.7769401491526  21.1882883303571 15.2110107932203  21.5327704017857 14.9905981830509  C 21.9447905625 14.7256828745763  22.4852840625 15.0954565152543  22.8559890267857 15.3957065762712  C 23.0335123660714 15.5397196474576  23.259331125 15.5995022644068  23.4740192946429 15.5574825491526  C 23.6526745714286 15.5240577627119  23.9184879375 15.4745890711864  24.1827920892857 15.5101148474576  Z M 24.2227867232143 16.3902372067797  C 24.2227867232143 16.2949288135593  24.2176930714286 16.2005754305085  24.2152405714286 16.1056490305085  C 24.0824282142857 16.0540793491525  23.8871713928571 16.0628653016949  23.5783449107143 16.1213109423729  C 23.1968499583687 16.1909627911548  22.804271052289 16.0896471308847  22.5022629107143 15.8435987254237  C 21.9970476964286 15.4340973559322  21.8346166607143 15.4743981016949  21.8331074464286 15.4761170711865  C 21.7829255089285 15.5208107932203  21.7191604821429 15.854485640678  21.8791390178571 16.541317261017  C 21.8938540178572 16.6037738576271  21.9240386517857 16.6702414372881  21.9647878928571 16.7510338983051  C 22.3417184464286 17.4957381152542  22.0185542678572 18.2345213830508  21.7923582053571 18.608688  C 21.7106947131635 18.7413802694138  21.6073501243541 18.8590557096086  21.4867388303571 18.9566877830509  C 21.4420278482143 18.9929775457627  21.4024105178572 19.0265933288136  21.3671322589286 19.057153138983  C 21.7488634647723 19.0684529197005  22.1076552895197 19.2442757645886  22.3532263125 19.540380040678  C 22.9997433214286 20.3167900745763  23.3425275 20.4098064813559  23.4432687053571 20.4184014101695  C 23.9532002678571 19.1602924745763  24.2227867232143 17.8001901830509  24.2227867232143 16.3902372067797  Z M 27.353498625 18.5701062508475  C 28.3290280714286 17.552846779661  29.1694813125 15.8846634576271  29.0834551071429 15.1382402440678  C 29.0736451071429 15.0534368  29.0538364285715 15.0020581152542  29.0340277767857 14.9703522983051  C 28.8517880892857 15.1187583457627  28.5282466071429 15.6275790915254  28.2850716964286 16.0091946576271  C 27.9071978839286 16.603200840678  27.4789534821429 17.2762805423729  26.9369507410714 17.8521418576271  C 26.1325303928571 18.7074343864407  25.2222752142857 18.9855285966102  24.7504517410714 19.076062020339  C 24.6648571420519 19.4328139983723  24.5624902091155 19.7852258191715  24.4437004553571 20.1320942372881  C 25.2309532767857 19.9305905355932  26.4311695714285 19.533122061017  27.353498625 18.5701062508475  Z M 15.0176070803572 24.9061086644068  C 14.6980273392857 25.3352829016949  14.2311088660715 25.4634430915254  13.9373747142857 25.4752850169492  C 13.7113673035714 25.5640994440678  13.4863031785714 25.6086021694915  13.2667100089286 25.6086021694915  C 13.0069278252384 25.6087977860009  12.7509714719767 25.5452258038766  12.5207723839285 25.4233333423729  C 11.314141875 24.7917003932203  10.8711824464286 22.7623383864407  10.8245849464286 22.5329488542373  C 10.8187688235305 22.5043877780196  10.8158381239487 22.4753016828313  10.8158381239487 22.4461399186441  C 10.8158381239487 22.2087058894718  11.0059534198466 22.0162275785966  11.2404725223215 22.0162275785966  C 11.4419423668215 22.0162275785966  11.6156788217633 22.1595585474056  11.6563600982143 22.3593309830509  C 11.7612516696428 22.8717806915254  12.1911939642857 24.2840256542373  12.9114746517857 24.6601022372881  C 13.1474807142857 24.783296461017  13.3927308214286 24.7810044745763  13.6832578660714 24.6515073084746  L 13.7796600267857 24.608723579661  L 13.8845515982143 24.6161725288136  C 13.8887019910714 24.6177005288136  14.1705509464286 24.6238124745763  14.3458104642857 24.3800980338983  C 14.5214472589286 24.1348555932204  14.7233069732143 23.4667418847458  14.1001830535714 21.7435509152542  C 14.0196487247119 21.5206598268587  14.132827830171 21.2738726926505  14.3529793125 21.192328461017  C 14.5731766619082 21.110864361246  14.8169455547042 21.2252908123121  14.8978118303571 21.4480758237288  C 15.4820730267857 23.0643074711865  15.5224449642857 24.2278720271187  15.0176070803572 24.9061086644068  Z M 11.4146944017857 20.4352093016949  C 11.196799125 20.795624  10.6387607946428 21.0708532338983  9.75604909821431 21.2524930711864  C 9.48683994642857 21.3080737084746  9.26932197321429 21.5006004881356  9.17442905357143 21.7674257627119  C 9.1334911607143 21.8827890169491  9.01143206249998 22.2256318372881  8.72298021428571 22.2256318372881  C 8.71260425892859 22.2256318372881  8.70222827678572 22.2252498440678  8.6914749910714 22.2244858305085  C 8.38925140178571 22.1988919864407  8.26587174107141 21.8457352677966  8.16475323214286 21.2838168677966  C 8.14979651274894 21.1941113337772  8.11974144358561 21.1076707354844  8.07589725000003 21.0282605016949  C 7.91912584821427 20.7522672813559  7.57388914285713 20.2866122576271  7.0241515982143 20.2720963525424  C 6.91171384821428 20.269040379661  6.79022073214287 20.2617824271186  6.66608646428574 20.2270206372881  C 5.78978898214285 19.9834971932203  5.33211455357144 19.6509683254237  5.3060803125 19.2389839728814  C 5.27476376785717 18.7463981288136  5.8535540089286 18.4430920677966  6.2917970625 18.2574412474576  C 6.50120292857144 18.1690088135593  6.66023817857143 17.9973009084746  6.72815359821431 17.7858652745763  C 6.98811870535712 16.9773674576271  7.50144602678569 16.580472  8.13758708035715 16.6994642440678  C 8.71524541071426 16.8069965559322  9.1412259642857 17.3498150779661  9.36930854464288 18.2694741694915  C 9.44910916071427 18.5911161220339  9.69454791964284 18.8264266033898  9.99507361607141 18.8694013288136  C 11.0534221339286 19.0216273627119  11.3950744017857 19.4865183728814  11.4954383035714 19.8497980474576  C 11.5520020547851 20.0476792962913  11.5226366000351 20.2605853773237  11.4146944017857 20.4352093016949  Z M 10.9319290178572 20.136105220339  C 10.9578199799731 20.097179053529  10.9645040044833 20.0483290578524  10.9500398035714 20.0037430779661  C 10.8455255357143 19.6246104949153  10.2571139464285 19.4859453830508  9.91565033035715 19.4368587118644  C 9.38628741964288 19.3610321898305  8.95615647321426 18.9576427932203  8.82032563392858 18.4092852881356  C 8.72316886607143 18.0177377898305  8.49187915178572 17.3480960813559  8.0355253125 17.2631016135593  C 7.69632554464283 17.198926020339  7.43636043750001 17.4355735050848  7.26638324999999 17.9633031322034  C 7.14734263392859 18.3336497627119  6.87153058928573 18.6337088271187  6.51006966964286 18.7865078779661  C 5.91392327678574 19.0390082711864  5.87109881250001 19.2032672  5.87091016071429 19.2046041762712  C 5.88562516071431 19.2712627525424  6.14426970535715 19.4874733559322  6.81625497321431 19.674461179661  C 6.87813345535716 19.6916510644068  6.95001061607144 19.6966170305085  7.03886662500003 19.6989090169492  C 7.86498216964287 19.7212558644068  8.35076603571429 20.362438779661  8.56677476785717 20.7425263457627  C 8.64072709821431 20.8729785220339  8.69279558035714 21.020429559322  8.72184827678569 21.1810595254237  C 8.73203558035715 21.2385501559322  8.74203425892858 21.2897378169492  8.75165560714288 21.3355775457627  C 8.94437727697073 21.0018252337303  9.26870534736514 20.7672828932899  9.64304539285712 20.6909566644068  C 10.6534758214286 20.482768  10.8849541875 20.2134597152542  10.9319290178572 20.136105220339  Z M 10.8775966875 9.86247202711866  C 10.82003820414 9.98037160714367  10.7481716782325 10.0905378662909  10.663663125 10.1904169220339  C 10.4233180178571 10.4738590915254  10.098644625 10.6570269288136  9.74906890178573 10.7066866169492  C 9.68492657142855 10.716045559322  9.62097289285714 10.7204385355932  9.55833977678572 10.7204385355932  C 9.25913464285713 10.7204385355932  8.97917223214284 10.6180631864407  8.75524001785715 10.4232444474576  C 8.48433297321429 10.1881249627119  8.3324665714286 9.85043910508475  8.32775022321431 9.47226153220339  C 8.32322252678574 9.1149028338983  8.45282777678574 8.76212808135594  8.69260692857142 8.47906790508475  C 9.2012179017857 7.87856775593221  10.056952125 7.77390042033898  10.6006527321429 8.24585838644069  C 11.0400277232143 8.62785594576272  11.1537860357143 9.2925316881356  10.8775966875 9.86247202711866  Z M 10.1152461696428 9.48314847457627  C 10.220892375 9.26540987118645  10.1931602410714 9.02475140338984  10.0475194285714 8.89831021016948  C 9.97866075000002 8.83852759322033  9.89018204464287 8.81006877288135  9.79585508035711 8.81006877288135  C 9.63738578571429 8.81006877288135  9.46269224999998 8.89028827118645  9.33723739285716 9.03869431864408  C 9.23196849107143 9.16303452203391  9.17499500892859 9.31296856949152  9.17688155357143 9.46137458983051  C 9.17782481249998 9.53529111864407  9.19593559821431 9.67338324067796  9.30818466964286 9.77079262372882  C 9.42062241964288 9.868584  9.55833977678572 9.86667400677968  9.63078289285716 9.85540507118645  C 9.77548044642856 9.83496818983051  9.91319783035715 9.75513071186441  10.0184667053571 9.63117250169492  C 10.0575180803571 9.58495080677966  10.0899665357143 9.53529111864407  10.1152461696428 9.48314847457627  Z M 5.67584199107142 10.7639862508475  C 5.70715853571431 10.9032243525424  5.62943311607143 11.0445634440678  5.49511154464284 11.1146600135593  C 5.46624750000001 11.1297489084746  5.4347422767857 11.1415908338983  5.40116188392858 11.149230779661  C 5.21156469642858 11.1929694915254  5.02706116071431 11.0913581559322  4.98895307142857 10.9223242305085  C 4.95103363392855 10.7532903050847  5.07384733928569 10.5808184135593  5.26363317857141 10.5370797016949  C 5.45323036607141 10.4933409898305  5.63773390178574 10.5949523254237  5.67584199107142 10.7639862508475  Z M 4.62277577678572 11.2305962576271  C 4.65409232142855 11.3696433627119  4.57636690178572 11.5111734508475  4.44204533035713 11.5810790237288  C 4.4131812857143 11.5961679186441  4.38167606249999 11.6080098440678  4.34809566964287 11.6158407864407  C 4.15849848214287 11.6593885016949  3.97399494642855 11.5577771661017  3.93588685714286 11.3887432677966  C 3.89796741964284 11.2197093423729  4.02096977678571 11.0472374508475  4.2105669642857 11.0034987118644  C 4.4001641517857 10.9599509966102  4.58485633928569 11.0615623322034  4.62277577678572 11.2305962576271  Z M 4.49109535714285 10.2389306305085  C 4.52241190178569 10.3779777355932  4.44468648214286 10.5195078237288  4.31036488392857 10.5894133694915  C 4.28150083928574 10.604693261017  4.25018429464285 10.6163441898305  4.21641522321431 10.624175159322  C 4.02681803571431 10.6677228745763  3.84231449999999 10.5661115389831  3.8042064107143 10.3970776135593  C 3.76628697321428 10.2280436881356  3.88928933035714 10.0555717966102  4.07888651785714 10.0118330847458  C 4.26867235714286 9.96828536949153  4.45317589285713 10.0698967050847  4.49109535714285 10.2389306305085  Z M 3.49009762499998 9.92263663728812  C 3.52141416964287 10.0616837423729  3.44368874999998 10.2032138305085  3.30936715178569 10.2733104  C 3.28050310714286 10.2883992949153  3.24899788392855 10.3000502237288  3.21541751785713 10.3078811661017  C 3.02582033035713 10.3516198779661  2.84131679464286 10.2500085423729  2.80320867857142 10.0809746440678  C 2.76528924107146 9.91194071864408  2.88829159821427 9.73946882711863  3.07788878571426 9.6957300881356  C 3.26748597321426 9.65199137627118  3.45217816071431 9.7536027118644  3.49009762499998 9.92263663728812  Z M 2.73302941071427 11.3060407864407  C 2.69492132142858 11.1370068610169  2.81792367857145 10.9645349694915  3.00752089285714 10.9207962576271  C 3.19730673214286 10.8772485423729  3.38181026785713 10.9788598779661  3.41972970535716 11.1478938033898  C 3.45104624999999 11.2869409084746  3.37332083035716 11.4284709966102  3.23918791071429 11.4985675389831  C 3.21032386607141 11.5136564338983  3.17881864285715 11.5253073627119  3.14523824999998 11.5331383322034  C 2.95545241071426 11.5766860474576  2.77094887499999 11.4752657084746  2.73302941071427 11.3060407864407  Z M 2.40062121428571 10.5968623186441  C 2.43174910714288 10.7359094237288  2.35402368749999 10.8774395118644  2.21989074107142 10.9473450847458  C 2.19102669642859 10.962433979661  2.15952147321428 10.9742759050847  2.12594108035717 10.9821068474576  C 1.93634389285717 11.0256545627118  1.75184035714284 10.9240432271186  1.71373226785715 10.7550093016949  C 1.67581283035713 10.5859753762712  1.79862653571428 10.4135034847458  1.988412375 10.3697647728814  C 2.17800956249999 10.3262170576271  2.36251309821427 10.4278283932204  2.40062121428571 10.5968623186441  Z " fill-rule="nonzero" fill="#454545" stroke="none" transform="matrix(1 0 0 1 35 0 )" />
  </g>
</svg>