<?xml version="1.0" encoding="utf-8"?>
<svg version="1.1" xmlns:xlink="http://www.w3.org/1999/xlink" width="20px" height="22px" xmlns="http://www.w3.org/2000/svg">
  <g transform="matrix(1 0 0 1 -37 -8 )">
    <path d="M 17.8358531402439 21.7799282421875  C 16.4015733815927 21.9359695583821  14.9584328872404 22.0089331317867  13.5146137195122 21.9984052864583  C 12.0707945517839 22.0089331317867  10.6276540574318 21.9359695583821  9.1933742987805 21.7799282421875  C 7.47064923780488 21.5710195364583  7.1244069512195 21.3015113723958  7.1244069512195 20.9426987057292  C 7.1244069512195 20.5838860390625  7.46386015243905 20.3159725885417  9.1933742987805 20.1054691692708  C 10.6277302849152 19.9502748361713  12.0708154977429 19.8773140577389  13.5146137195122 19.886992125  C 14.9584119412815 19.8773140577389  16.4014971541092 19.9502748361713  17.8358531402439 20.1054691692708  C 19.5585782012195 20.3159725885417  19.9048204878049 20.5838860390625  19.9048204878049 20.9426987057292  C 19.9048204878049 21.3015113723958  19.5653672865853 21.5710195364583  17.8358531402439 21.7799282421875  Z M 13.5146137195122 20.5248812942708  C 10.7888043902439 20.5248812942708  8.84882926829266 20.7385741692708  8.08336228658538 20.9426987057292  C 8.84882929878052 21.1468232421875  10.7888044207317 21.3605161171875  13.5146137195122 21.3605161171875  C 16.2404230182927 21.3605161171875  18.1803981707317 21.1468232421875  18.9458651829268 20.9426987057292  C 18.1803981707317 20.7385741692708  16.2404230487805 20.5248812942708  13.5146137195122 20.5248812942708  Z M 9.64824161585364 2.01333767708334  C 9.93978270272953 1.494265316064  9.82115559159814 0.855664778808546  9.35970637195123 0.460077549479166  C 8.79621402439022 0.00398678385417384  7.90854387195122 0.106049052083335  7.38069411585366 0.683338763020828  C 7.13590479691419 0.948990977351059  7.00149259577375 1.28878864428188  7.00220378048783 1.64017253124999  C 7.00215428381989 1.6444610107842  7.00212953494025 1.6487497109577  7.00212953494025 1.65303844265205  C 7.00212953494025 2.30830984831357  7.56748910596565 2.83951227858952  8.26489548006219 2.83951227858952  C 8.27057798373556 2.83951227858952  8.27626042267991 2.83947623872476  8.28194240853657 2.83940416145833  C 8.72305085043206 2.83441311551331  9.14000974731886 2.64929854383701  9.42420246951218 2.33228227604167  C 9.51340882218352 2.23563278372541  9.58873151943936 2.12840256141362  9.64824161585364 2.01333767708334  Z M 8.85731560975609 1.65133558333332  L 8.85052655487806 1.65133558333332  C 8.82355280581316 1.70237117089147  8.78991394317751 1.75004879799994  8.75038786585367 1.79326591927082  C 8.63178325795775 1.92768092392268  8.45749560796338 2.00781770021814  8.2717588109756 2.01333767708334  C 8.1810850469368 2.0161495139061  8.09222100400768 1.98906999373941  8.02056344512198 1.93679096874999  C 7.93155979846074 1.86036438197499  7.88153725358711 1.75185741626822  7.88308487804881 1.63857778906251  C 7.88607885156227 1.48831656212678  7.9462957563494 1.34404063350104  8.05281149390242 1.23192345833334  C 8.17060964261793 1.09741975831412  8.34444203551618 1.01720786467823  8.5297432621951 1.01185170052082  C 8.62514351646405 1.00957332878897  8.71812752164351 1.04020823221211  8.79112222560974 1.09796671875  C 8.94000579343873 1.24880277961717  8.96684917332578 1.47321026144115  8.85731560975609 1.65133558333332  Z M 0.851311524390269 2.72298938541667  C 0.876476241218825 2.86221051346618  0.801208981972707 3.00040622646182  0.666309542682939 3.06266537499999  C 0.633937802946889 3.07590889728695  0.600440800829517 3.08657777961474  0.566170823170751 3.09455981770833  C 0.53127634994928 3.1062286562439  0.494511646494175 3.11219255031642  0.457473019762801 3.11219255031642  C 0.278434545057053 3.11219255031642  0.133295184396957 2.9758220260295  0.133295184396957 2.80760045917057  C 0.133295184396957 2.65108632471907  0.259542014885028 2.52004667108031  0.425297743902433 2.50451234114584  C 0.457475237455185 2.49526476064074  0.490937314925134 2.49056387374463  0.524586390296747 2.49056387374463  C 0.676597571689342 2.49056387374463  0.810075944477319 2.58551763106263  0.851311524390269 2.72298938541667  Z M 1.99017707317074 2.07872133333333  C 2.01898823576659 2.21805559055036  1.94155164146792 2.35761891850177  1.80347780487807 2.41520786718749  C 1.77395645969654 2.43237339406335  1.74105141505157 2.44376387936424  1.70673362804877 2.44869705208333  C 1.6719845415891 2.46033258565211  1.6353682623062 2.46627977608298  1.59847848807851 2.46627977608298  C 1.42037739887002 2.46627977608298  1.27599793929801 2.3306232421935  1.27599793929801 2.16328242712464  C 1.27599793929801 2.00780864706897  1.40123818268785 1.87756470866449  1.56586054878051 1.86183900260417  C 1.59769732299634 1.85280166944884  1.63077479420946 1.84820940963201  1.66403279668566 1.84820940963201  C 1.81525880655045 1.84820940963201  1.94824716580257 1.94220278842579  1.99017707317074 2.07872133333333  Z M 1.90870829268295 3.24765323437501  C 1.94079800037838 3.3890478597996  1.86382330784852 3.53236909542571  1.72370631097561 3.59211336458333  C 1.69166162818277 3.60652836842823  1.65809923173993 3.61775257126902  1.62356759146343 3.62560254947917  C 1.59139009791068 3.63485012998427  1.55792802044073 3.63955101688038  1.52427894506911 3.63955101688038  C 1.37226776367652 3.63955101688038  1.23878939088854 3.54459725956238  1.19755381097559 3.40712550520834  C 1.19448590803779 3.38911900262346  1.1929446903124 3.37091202838687  1.1929446903124 3.35267626044185  C 1.1929446903124 3.1624361677824  1.35708134612941 3.00821610158769  1.55955417201972 3.00821610158769  C 1.71896485840915 3.00821610158769  1.86010530554006 3.10500506090787  1.90870829268295 3.24765323437501  Z M 4.2492382317073 2.89362473697918  C 4.2734466635012 3.02979433034841  4.19767517356075 3.16434374563963  4.06423621951217 3.22213764583333  C 4.03219154646655 3.23655264780359  3.99862916034135 3.24777685061113  3.96409753048778 3.25562683072917  C 3.95316599304005 3.256674659655  3.94218482367364 3.25719959054766  3.93119654831821 3.25719959054766  C 3.75215807361252 3.25719959054766  3.60701871295237 3.12082906626074  3.60701871295237 2.95260749940184  C 3.60701871295237 2.7843859325429  3.75215807361252 2.64801540825599  3.93119654831821 2.64801540825599  C 4.08603307397527 2.64801540825599  4.21925489900548 2.75089664906778  4.2492382317073 2.89362473697918  Z M 3.16129067073172 3.3321735390625  C 3.18589882451795 3.47216861116567  3.10911740185054 3.61060429404247  2.97289411585365 3.67184952864582  C 2.94076439166611 3.68607158199541  2.90722323785434 3.69728867452727  2.87275542682926 3.70533868489582  C 2.86375612341692 3.70604688872777  2.85472925397659 3.7064014545698  2.84569844063725 3.7064014545698  C 2.6666599659315 3.7064014545698  2.52152060527141 3.57003093028288  2.52152060527141 3.40180936342398  C 2.52152060527141 3.23358779656505  2.6666599659315 3.09721727227813  2.84569844063725 3.09721727227813  C 2.99618584305574 3.09721727227813  3.12688625043307 3.19452283577499  3.16129067073172 3.3321735390625  Z M 3.022114847561 2.37852922656251  C 3.04591237520464 2.51798581797246  2.96925953130727 2.65554085706316  2.83371832317073 2.71661050260417  C 2.80311005154311 2.73157849289913  2.77060166736197 2.7428316596835  2.73697414634148 2.75009965885417  C 2.72674681721128 2.75101586211986  2.71647891480472 2.75147474060597  2.70620520498608 2.75147474060597  C 2.52716673028038 2.75147474060597  2.38202736962023 2.61510421631905  2.38202736962023 2.44688264946015  C 2.38202736962023 2.27866108260125  2.52716673028038 2.1422905583143  2.70620520498608 2.1422905583143  C 2.85721651888781 2.1422905583143  2.98822644237413 2.24026037525138  3.022114847561 2.37852922656251  Z M 13.8218188719512 13.1795875520833  C 14.4260456097561 14.7296582239583  14.4667799695122 15.84915371875  13.9440220426829 16.5013953958333  C 13.6746674568782 16.8309936047763  13.2639808869818 17.0318116703049  12.8221291768293 17.0499800625  C 12.6007487556523 17.1331700680126  12.3646763896708 17.1764500003538  12.1262500914634 17.177557890625  C 11.8574604011416 17.1774984049902  11.5926162175474 17.1167916104612  11.3539940243903 17.00054365625  C 10.0997143902439 16.3897647890625  9.64145256097561 14.4362292135417  9.59223182926831 14.2161574557292  C 9.58676089069053 14.1898899994098  9.58400619155282 14.1631870116867  9.58400619155282 14.1364213059896  C 9.58400619155282 13.907123517041  9.78184131525427 13.7212409320632  10.0258833079268 13.7212409320632  C 10.237206241413 13.7212409320632  10.4189498309226 13.8618258035193  10.4595347865854 14.05668515625  C 10.5681598170732 14.5478598203125  11.0145407926829 15.9081584635417  11.7630351219512 16.2701605572917  C 12.0146713635441 16.3888470277722  12.3118582126087 16.3858764727391  12.5607501829268 16.2621869322917  L 12.660888902439 16.2207241510417  L 12.7695139329268 16.2286977760417  C 12.9582886848446 16.2289566394956  13.1359569039237 16.1448976186916  13.2481429573171 16.0022471067708  C 13.4314476829268 15.7646333854167  13.6419086890244 15.121960046875  12.9969475609756 13.4634482239583  C 12.9749578320674 13.4134366175285  12.9636414130294 13.3598525215688  12.9636414130294 13.3057411063976  C 12.9636414130294 13.0776291455642  13.1604534197922 12.8927078642101  13.4032333337611 12.8927078642101  C 13.5942865771611 12.8927078642101  13.7634651046116 13.0086552124145  13.8218188719512 13.1795875520833  Z " fill-rule="nonzero" fill="#231815" stroke="none" transform="matrix(1 0 0 1 37 8 )" />
  </g>
</svg>