<?xml version="1.0" encoding="utf-8"?>
<svg version="1.1" xmlns:xlink="http://www.w3.org/1999/xlink" width="24px" height="24px" xmlns="http://www.w3.org/2000/svg">
  <g transform="matrix(1 0 0 1 -35 -2 )">
    <path d="M 23.7988840396039 12.9192935714286  C 23.5863691954704 10.4632545317679  22.4547729552424 8.16477064587471  20.6141003762376 6.45040151428572  C 20.3871845154803 6.8060232146758  20.0541124609086 7.08760603743627  19.6583345643564 7.25841657142857  C 18.8513452812095 7.59109594035235  17.979684056786 7.75379744223952  17.101909039604 7.73559080000001  L 16.710011970297 7.73559080000001  C 15.279576949695 7.6782999582305  14.1505875145792 6.54616113703403  14.1505875145792 5.1690266709561  C 14.1505875145792 4.97120537591556  14.1743434538211 4.77404617099751  14.221383 4.58146911428571  C 14.3329576457498 4.12292571687792  14.4833844504525 3.67394173592805  14.6711551485149 3.23901894285714  L 13.9915361881188 0.164426285714285  L 11.4913321782178 3.73209897142857  L 11.3143997524753 3.75913885714286  C 9.62669117098585 4.06382594065801  8.04152983593104 4.75933699679874  6.69596735643563 5.78553877142858  L 6.55210642574258 5.89847  L 6.36690611881187 5.86983954285714  C 5.35326519801981 5.72509668571428  3.93449866336636 5.6169372  2.68439664356436 5.84279965714285  C 2.64846789477076 6.27093586547389  2.38082968083381 6.64924335652145  1.97997409900989 6.83850322857143  C 1.87531085632361 6.89131783402848  1.76421791695429 6.93139065029951  1.64925929702969 6.95779680000001  C 1.54518761448304 6.98119933846371  1.43865060873821 6.99294165912264  1.33177306930691 6.99278957142857  C 1.10070654434833 6.99568285396481  0.872810193907981 6.94087920532641  0.670343435643588 6.83373148571428  C 0.165917981770519 7.46793988462355  0.0953588552579276 8.32784875303474  0.490103851485173 9.03032354285713  C 0.895229495049534 9.7476754857143  1.67737003960394 10.0292082857143  2.80510755445545 9.86378788571429  L 3.51118369306931 9.7619907142857  C 5.78650161386139 9.35957377142856  6.77864607920793 8.06961277142858  6.79022108910891 8.05370694285713  C 6.87189433222062 7.96243229180575  6.99087316114918 7.90993706781251  7.11607113920525 7.90993706781251  C 7.35351451158755 7.90993706781251  7.54600039663097 8.09509015723523  7.54600039663097 8.32348806781252  C 7.54600039663097 8.39632341202403  7.52600238923236 8.46786687009524  7.48802934653463 8.53088120000001  C 7.43180783168316 8.60563848571428  6.13871290099013 10.2805200571429  3.18873674257424 10.6368101428571  C 2.82538610105649 11.7236084843896  2.65325204796193 12.8611409736622  2.67943592079206 14.0024790571429  C 2.80510755445545 19.2338992285714  7.15235379207923 23.5889094285714  12.5744232178218 23.9165690571429  C 16.8929289848874 24.1783979786206  20.9444672720368 21.8928161200272  22.8150074851485 18.1395796857143  C 22.4379925841585 18.0314202  22.001449039604 17.6989888  21.5103375148515 17.1406949428572  C 21.3314409709212 16.9351510812548  21.0525352287859 16.8364382952553  20.7778042277228 16.8814302857143  C 20.6537861584159 16.8973360857143  20.2718105643564 16.9561875714286  20.1444853366337 16.6778359428571  C 20.0171601089109 16.3994843142857  20.2685034059406 16.1402196285714  20.7116612376238 15.7966542  C 20.7839448367581 15.7419348050574  20.8460141581855 15.6757754588461  20.895207980198 15.6010127428571  C 21.0605653960396 15.3433386571429  21.3019872178218 14.8343528  21.0473367920792 14.3571785714286  C 20.9890258932701 14.2534115388422  20.9435196513329 14.1434460566959  20.9117437128713 14.0295189428572  C 20.7000862277227 13.1706053142857  20.7711899108911 12.6266266857143  21.1184404752476 12.4150794571429  C 21.5351411287129 12.1605865428571  22.0824741683168 12.5168766285714  22.4578354752475 12.8047717428572  C 22.6306079417832 12.9445058796866  22.8591748163312 13.0028240706181  23.0812328910891 12.9638298285714  C 23.3166534283187 12.9136265522357  23.558708699769 12.8986049977738  23.7988840396039 12.9192935714286  Z M 1.77989162376235 8.20163097142859  C 1.8044085359993 8.34049048615847  1.73107884976349 8.47832724925024  1.59965206930696 8.5404246857143  C 1.56811366148486 8.55363380924206  1.53547895843195 8.56427498018718  1.50209117821782 8.5722362857143  C 1.46809497856447 8.58387481557833  1.43227669321806 8.58982321901689  1.39619153608572 8.58982321901689  C 1.22176197261007 8.58982321901689  1.08035887271939 8.45380690388396  1.08035887271939 8.28602227615974  C 1.08035887271939 8.12991467192759  1.20335578479887 7.99921538102558  1.36484453465346 7.98372140000001  C 1.39619369668901 7.97449783918452  1.42879437414484 7.96980916238425  1.46157723569502 7.96980916238425  C 1.60967525796264 7.96980916238425  1.7397175538274 8.06451628656637  1.77989162376235 8.20163097142859  Z M 2.81006827722774 8.72493205714287  C 2.84133191323991 8.86595942380012  2.76633874744846 9.00890839647656  2.62982872277229 9.06849748571429  C 2.59860895260579 9.08287504799077  2.56591053864565 9.09407009705794  2.53226783168316 9.10189968571427  C 2.5009186696476 9.11112324652976  2.46831799219177 9.11581192333003  2.4355351306416 9.11581192333003  C 2.28743710837398 9.11581192333003  2.15739481250921 9.02110479914793  2.11722074257426 8.88399011428572  C 2.11423181535559 8.86603038183742  2.11273027254197 8.84787069844299  2.11273027254197 8.82968229612902  C 2.11273027254197 8.63993633358038  2.27264162830824 8.48611683898616  2.46990228244294 8.48611683898616  C 2.62520932740057 8.48611683898616  2.76271645609052 8.58265439841202  2.81006827722774 8.72493205714287  Z M 2.88943984158414 7.55903634285715  C 2.91750933068744 7.69800869291257  2.84206615366776 7.83720951871345  2.70754669306933 7.89464888571428  C 2.6787853033083 7.91176982680605  2.6467273192186 7.92313072643083  2.61329296039605 7.92805108571429  C 2.57943840487491 7.93965639711794  2.5437647228805 7.94558814030094  2.50782458640521 7.94558814030094  C 2.33430827771099 7.94558814030094  2.19364551709828 7.81028396104495  2.19364551709828 7.6433777974438  C 2.19364551709828 7.48830784538828  2.31566175422262 7.35840220292769  2.47604631683168 7.34271734285716  C 2.50706353052317 7.33370348329441  2.53928950247735 7.32912315142516  2.57169135835517 7.32912315142516  C 2.7190244214313 7.32912315142516  2.84858931796998 7.42287239157275  2.88943984158414 7.55903634285715  Z M 3.20361891089107 8.0107612857143  L 3.20361891089107 8.01553302857144  C 3.20215834902922 8.0028530674264  3.20142639864196 7.99010523349784  3.20142639864196 7.97734767813611  C 3.20142639864196 7.78584481890042  3.36281840636724 7.6306010781361  3.56190553725583 7.6306010781361  C 3.71252595831641 7.6306010781361  3.84726868456835 7.72068020463786  3.8997736039604 7.85647494285715  C 3.92295850784325 7.99556929969472  3.8482789077122 8.13276703722903  3.71622689108909 8.19367805714285  C 3.68640655660249 8.20860717941281  3.65473502186285 8.21983112681175  3.62197315841581 8.22708025714286  C 3.44453614008575 8.27670911917511  3.25846618586763 8.18049768747966  3.20361891089107 8.0107612857143  Z M 3.84685921782176 9.14802654285714  L 3.85181994059405 9.15279828571428  C 3.82051731821724 9.16698339866556  3.78783960004819 9.17817135589215  3.75425907920794 9.18620045714286  C 3.74427722021227 9.18711757431674  3.73425561833227 9.18757691334099  3.7242283278577 9.18757691334099  C 3.54979876438205 9.18757691334099  3.40839566449137 9.05156059820808  3.40839566449137 8.88377597048384  C 3.40839566449137 8.71599134275965  3.54979876438205 8.57997502762672  3.7242283278577 8.57997502762672  C 3.86880986627057 8.57997502762672  3.99493022409825 8.67441065197403  4.03040596039602 8.80923282857142  C 4.05438063695613 8.94886427711069  3.97957576576329 9.08694038678522  3.84685921782176 9.14802654285714  Z M 4.91010736633666 8.69948274285716  L 4.9150680891089 8.7042544857143  C 4.88384832843872 8.71863204612097  4.8511499245306 8.729827095155  4.81750722772279 8.73765668571428  C 4.80558759921109 8.73896862472344  4.79359993877478 8.73962619283142  4.78160253243607 8.73962619283142  C 4.60717296896041 8.73962619283142  4.46576986906973 8.60360987769849  4.46576986906973 8.43582524997427  C 4.46576986906973 8.26804062225006  4.60717296896041 8.13202430711715  4.78160253243607 8.13202430711715  C 4.93039120480421 8.13202430711715  5.05900144936442 8.23191464174761  5.09034695049507 8.37182311428572  C 5.11393219493578 8.50763902039947  5.04011125820176 8.6418389566899  4.91010736633666 8.69948274285716  Z M 7.7724440792079 7.12480777142858  C 7.77095203062237 6.77324248921076  7.90195447474304 6.43306693544457  8.14119109900992 6.16727814285716  C 8.65545264356433 5.59148791428572  9.52027188118814 5.48969074285714  10.0692584851485 5.94459682857143  C 10.5204535804108 6.33963298671824  10.6361373576286 6.9784925781448  10.3503660891089 7.49700368571428  C 10.292387933519 7.61176969021042  10.2190042364696 7.71872138274321  10.1320942871287 7.81511982857143  C 9.85521741718986 8.13131267748938  9.44899211566849 8.31594643209641  9.01923894059405 8.32092451428571  C 9.01370322368018 8.32099640433847  9.00816706534243 8.32103235059321  9.00263084394174 8.32103235059321  C 8.32317750521804 8.32103235059321  7.77237174493189 7.79120966688939  7.77237174493189 7.13764026487891  C 7.77237174493189 7.1333626727475  7.77239585671163 7.12908511205481  7.7724440792079 7.12480777142858  Z M 9.21270712871285 18.4322465428571  C 8.94120238090301 18.4896434861078  8.71981552321961 18.6779324961972  8.62734190099007 18.9300983142857  C 8.58765611881188 19.0398484  8.46198448514849 19.3706892  8.17260902970298 19.3706892  C 8.16219858817209 19.3722419177687  8.15160154054081 19.3722419177687  8.14119109900992 19.3706892  C 7.83527988118811 19.3484210571428  7.70960827722774 19.0080367714286  7.60874025742572 18.4672393142857  C 7.59353780279287 18.3811048948629  7.56275647263186 18.2982005161639  7.51779368316829 18.2222898857143  C 7.35243626732671 17.9582534857143  7.01014645544552 17.5097096857143  6.45619912871285 17.4969850285714  C 6.33367981189036 17.496821254225  6.21159654204956 17.4829428752708  6.09241283168319 17.4556299428571  C 5.20775070297032 17.2218145714286  4.74474995049508 16.9021078285714  4.71829277227721 16.5012814857143  L 4.71829277227721 16.4646981142857  C 4.71829277227721 16.0129731714286  5.28216154455447 15.7298498  5.71043720792079 15.5564764857143  C 5.91928093872212 15.4753663449112  6.08065410830119 15.3102574517539  6.15194150495051 15.1047515428571  C 6.41485978217821 14.3285481142857  6.93573561386137 13.9468087428571  7.57732235643567 14.0629211428571  C 8.161034019802 14.1647183142857  8.59261684158417 14.6864288  8.82081005940591 15.5676105428572  C 8.88823651959251 15.8671189867193  9.13959327234858 16.0962745969844  9.45412892079207 16.1449913714286  C 10.5239913564357 16.2913248  10.8695883267327 16.7366874285714  10.9704563465347 17.0866152  C 11.0282651846999 17.27630018997  10.9987654790388 17.4807225505646  10.8894312178218 17.6480902285714  C 10.6695058514852 17.9948368285714  10.1056371089109 18.2588732571429  9.21270712871285 18.4322465428571  Z M 14.5355620693069 21.9442489142857  L 14.5355620693069 21.9522018  C 14.2731413697876 22.2809439204422  13.8730269285347 22.4812403915046  13.4425496138614 22.4993616  C 13.2268680946157 22.5823355275762  12.9968728390456 22.6255030445087  12.7645842475247 22.6266080571428  C 12.5027138957657 22.6265487260162  12.2446874832343 22.565999611473  12.0122080396039 22.4500536  C 10.7902167920792 21.8408611714286  10.3437518019802 19.8923997142857  10.2957981386139 19.6728995428572  C 10.2899286716662 19.6454229827699  10.2869712415273 19.6174446753541  10.2869712415273 19.5893940571429  C 10.2869712415273 19.3602599399182  10.4800775761526 19.1745100370882  10.7182863118812 19.1745100370882  C 10.9230330209007 19.1745100370882  11.0995642370825 19.3129722696077  11.1407744851485 19.5058885714286  C 11.2466032277227 19.9957874571429  11.6814932079208 21.3525528571429  12.4107193663367 21.7136146857143  C 12.6558778432944 21.8319928796481  12.9454143378287 21.8290300403424  13.1878991881188 21.7056617714286  L 13.285460079208 21.6643066857143  L 13.3912888217822 21.6722596  C 13.5752040256308 21.6725177910813  13.7482986073871 21.5886771053963  13.8575967029703 21.4463971142857  C 14.0361826930693 21.2094005714286  14.2412258910891 20.5683965142857  13.6128677227723 18.9141925142857  C 13.5914440660935 18.8643108081324  13.5804189608128 18.8108658916426  13.5804189608128 18.7568950256017  C 13.5804189608128 18.5293755633679  13.7721645198768 18.3449345970303  14.0086946538821 18.3449345970303  C 14.1948296949768 18.3449345970303  14.3596531316215 18.4605807832913  14.4165047227723 18.6310691428571  C 15.0051771089109 20.1771136571429  15.0448628613862 21.2937013714286  14.5355620693069 21.9442489142857  Z " fill-rule="nonzero" fill="#ffffff" stroke="none" transform="matrix(1 0 0 1 35 2 )" />
  </g>
</svg>