<?xml version="1.0" encoding="utf-8"?>
<svg version="1.1" xmlns:xlink="http://www.w3.org/1999/xlink" width="2px" height="8px" xmlns="http://www.w3.org/2000/svg">
  <g transform="matrix(1 0 0 1 -37 -8 )">
    <path d="M 1.62434957142858 0.53481206666666  C 1.65020251596894 0.728919461209017  1.53260496881626 0.914897786043326  1.33804500000002 0.987597399999999  C 1.28639113965886 1.01429011750466  1.23077719162688 1.03367682615232  1.17302224999997 1.04512339999999  C 0.876776571428593 1.10636076666665  0.576554464285721 0.982030366666663  0.530825285714286 0.770483133333329  C 0.485096107142851 0.558935899999994  0.685906928571455 0.323264833333326  0.980164357142883 0.260171799999995  C 1.03101179470178 0.249130670694001  1.08304058217198 0.243527569214564  1.13524596428573 0.243470699999989  C 1.23620070035668 0.242967383627587  1.33578957858464 0.265249820905126  1.42552696428572 0.308419399999991  C 1.52223512218757 0.355272213491162  1.59410749361047 0.437110883951789  1.62434957142858 0.53481206666666  Z M 0.918529321428593 6.23174223333334  C 1.23755772165805 6.31777506022317  1.56682254262694 6.36639672554656  1.89872474999999 6.3764851  C 1.62547236657196 6.89633032634094  1.23797365916886 7.35663180674044  0.761459464285736 7.72741836666665  C 0.642219988566353 7.82986836347985  0.463654902331996 7.84362934449229  0.328026214285728 7.76082056666667  C 0.186780534958359 7.6827923994768  0.118503560241891 7.52651396634695  0.161015249999991 7.37855096666667  C 0.312408263495797 6.94558025033118  0.572072215159267 6.55247218972713  0.918529321428593 6.23174223333334  Z " fill-rule="nonzero" fill="#ea5514" stroke="none" transform="matrix(1 0 0 1 37 8 )" />
  </g>
</svg>