<?xml version="1.0" encoding="utf-8"?>
<svg version="1.1" xmlns:xlink="http://www.w3.org/1999/xlink" width="18px" height="18px" xmlns="http://www.w3.org/2000/svg">
  <g transform="matrix(1 0 0 1 -41 -8 )">
    <path d="M 16.3288865192308 11.7672589577922  C 16.4892446700169 11.8965086745183  16.6707990183982 11.9961736668556  16.8652487019231 12.0616971428572  C 15.1655594429914 15.6841702929188  11.5596224761729 17.9923831110586  7.60021057230898 17.9923831110586  C 4.71844685332428 17.9923831110586  1.96957981323834 16.7645198662112  0.0260452788461407 14.6091568441558  C 1.93995107185049 16.4700003509402  4.49003866475169 17.5091024074696  7.14287769643818 17.5091024074696  C 11.0304728585383 17.5091024074696  14.5853508823962 15.2870761184196  16.3288865192308 11.7672589577922  Z M 14.7262234326923 0.106855860389601  C 16.5136921088324 1.85911406874015  17.6131722169229 4.20858505984719  17.8207442307692 6.71951469155843  C 17.5874970257372 6.69835592304787  17.3524241178864 6.71371887647487  17.1237945576923 6.76506313636364  C 16.9081882633137 6.80379053030529  16.686692378859 6.74427528925332  16.5183797307693 6.60239009415585  C 16.1538461538461 6.3063251590909  15.6239074615385 5.95169795454547  15.217621125 6.20221444480518  C 14.8819932980769 6.41856959415585  14.8113347884615 6.97653809415584  15.0184926634615 7.8549724577922  C 15.0487522058345 7.97381473246648  15.0918350276862 8.08892141559195  15.1469626442308 8.19821258766234  C 15.3942673557692 8.68623168506494  15.1614155192308 9.20515868181818  14.9992221634615 9.47031568831167  C 14.9521806939817 9.54349194148969  14.8935886225388 9.6083405944714  14.8257876634615 9.66226987987014  C 14.5206714519231 9.91278634090909  14.3103018461538 10.1242612987013  14.2589138653846 10.3129620194805  C 14.0820234418297 10.3362938183197  13.9093516656064 10.2462453603245  13.8253276442308 10.086846487013  C 13.7032811538461 9.81192906818183  13.9457682692308 9.53863837012986  14.3761427307692 9.18563788636362  C 14.4462887895607 9.13025551087208  14.5065741573778 9.0631353989412  14.5543948269231 8.98717678246754  C 14.7149823173077 8.72201974675323  14.9494400480769 8.20146602922077  14.7021353076923 7.71344693181817  C 14.6460758156023 7.61046967435749  14.6018917020987 7.50130399209434  14.5704535673077 7.38810087662338  C 14.3649015865385 6.50966648376624  14.4339542019231 5.95169798376622  14.7711879230769 5.73534283441558  C 15.1758683653846 5.47669271103896  15.7074129519231 5.83945357792209  16.0719465288462 6.13551851298701  C 16.240051509275 6.27781058429329  16.4617363554973 6.33737658807257  16.6773613557692 6.29819152597403  C 16.905964607407 6.2466034982948  17.1411584300097 6.23178159856798  17.3743110288461 6.25426980194806  C 17.1873651920743 3.96477916663454  16.2560445297991 1.80276094954573  14.7262234326923 0.106855860389601  Z " fill-rule="nonzero" fill="#c9caca" stroke="none" transform="matrix(1 0 0 1 41 8 )" />
  </g>
</svg>