<?xml version="1.0" encoding="utf-8"?>
<svg version="1.1" xmlns:xlink="http://www.w3.org/1999/xlink" width="8px" height="20px" xmlns="http://www.w3.org/2000/svg">
  <g transform="matrix(1 0 0 1 -51 0 )">
    <path d="M 7.85111849999998 15.429887439759  C 7.85404852631581 15.5254660240964  7.85844355263157 15.6193677710843  7.85844355263157 15.7182999698795  C 7.85829284029086 17.1165398501919  7.61941489982627 18.5012704302957  7.15523942105261 19.7946423192771  C 7.06587389473685 19.7946423192771  6.75968710526314 19.6923564759036  6.1795436842105 18.905929246988  C 5.95974046982144 18.6084928214493  5.64066195567938 18.4307571285422  5.30053850000002 18.4162986746988  L 5.40748413157894 18.3140128313253  C 5.51508892309664 18.2153168946665  5.60766160401994 18.0968947111843  5.68144073684209 17.9635580421687  C 5.88361192105265 17.5829205722892  6.17368363157897 16.8350601506024  5.83673165789475 16.0838460843374  C 5.80373582623645 16.0161529667125  5.77814974048317 15.9440661248503  5.76055121052633 15.8692134939759  C 5.61405034210526 15.1750112349398  5.67411571052634 14.8362941566265  5.71953097368419 14.7926969277108  C 5.71953097368419 14.7926969277108  5.86603184210526 14.7507765060241  6.31725447368422 15.1632735240964  C 6.58791168010612 15.4122141951645  6.93943581359258 15.5149410615559  7.28123015789475 15.4449787951807  C 7.46696115545075 15.3844123852647  7.66313899277691 15.3792173509919  7.85111849999998 15.429887439759  Z M 4.67790984210524 0.590056204819291  C 5.00021173684212 1.12328403614458  5.01925684210528 2.20483105421687  4.73797521052632 3.55802246987952  C 4.66290718209717 3.83918005296232  4.47599112935461 4.06307079978328  4.23401223684209 4.16167659638555  C 4.14964828685942 4.20205197488053  4.07033480480294 4.25505424999318  3.99814584210526 4.31929740963855  C 3.74990873787181 4.54706588158902  3.61564930440522 4.9001942728537  3.63921873684211 5.26334542168675  C 3.66811094584796 5.68071319220257  3.87246594017552 6.05595432107211  4.18713194736841 6.26943569277108  C 4.3279917047837 6.36474335785209  4.42977506663982 6.5204777937787  4.46987863157892 6.70205448795181  C 4.60026439473683 7.23025186746989  4.33070281578949 7.81546102409638  3.84431994736843 8.07033722891566  C 3.22608631578947 8.39396292168675  2.46574684210526 8.52978512048193  1.58088163157896 8.4895415060241  C 0.71769189649234 8.44840845026644  0.0364062910399525 7.63548331721631  0.0364062910399525 6.64663918774221  C 0.0364062910399525 6.5043936687901  0.0507823461946941 6.3626255884644  0.079247815789472 6.22416162650603  C 0.518750394736855 4.00405581325302  1.92662368421054 1.86443719879517  2.71626331578949 0.772829277108428  C 3.03579053991149 0.324628909814948  3.53263848893374 0.0933651405972569  4.03477105263158 0.159114216867465  C 4.29437735233279 0.186489709176044  4.52997249850551 0.344352743260089  4.67790984210524 0.590056204819291  Z " fill-rule="nonzero" fill="#8b7929" stroke="none" transform="matrix(1 0 0 1 51 0 )" />
  </g>
</svg>