<?xml version="1.0" encoding="utf-8"?>
<svg version="1.1" xmlns:xlink="http://www.w3.org/1999/xlink" width="6px" height="6px" xmlns="http://www.w3.org/2000/svg">
  <g transform="matrix(1 0 0 1 -41 -16 )">
    <path d="M 5.75596079464287 4.05607806250001  C 5.85398522534217 3.87203648899569  5.87951140892699 3.6477319052351  5.82604574999999 3.44022506249999  C 5.73508441071431 3.05749156249999  5.42343 2.57037618750002  4.45864333928569 2.41032403125001  C 4.17499958488577 2.35704005920167  3.94832965606111 2.10640111047425  3.88752543750002 1.77881375000001  C 3.68174405357144 0.81502121874999  3.29105764285714 0.244400343749987  2.76616599107143 0.133059687500008  C 2.18759223214283 0.00606175000001485  1.72234735714284 0.42358921875001  1.4807779017857 1.27256171875001  C 1.41649194587876 1.49733380660587  1.27096792688337 1.67792165849667  1.08263563392859 1.76663587499999  C 0.693440410714288 1.95626293750001  0.187933955357153 2.26592912500001  0.187933955357153 2.76000325000001  L 0.187933955357153 2.80001631250002  C 0.211792660714309 3.23320103125002  0.635284794642871 3.58288028125  1.42709579464287 3.84383493749999  C 1.53457396096627 3.87370846785012  1.64466690967618 3.88888795532048  1.75515308035716 3.88906709375001  C 2.25469486607142 3.90298468750001  2.56933162500002 4.39357943750002  2.7124838839286 4.68236925000002  C 2.7530306851412 4.76539650205422  2.78078884894717 4.85607316625629  2.79449820535717 4.95028268750002  C 2.88545954464286 5.54177990625001  2.9987884285714 5.91407521875001  3.27465476785716 5.93843100000001  C 3.28404275530909 5.94012928505956  3.29359902147661 5.94012928505956  3.3029870089286 5.93843100000001  C 3.5654328482143 5.93843100000001  3.67727054464285 5.57657387500001  3.71305861607141 5.45653475  C 3.79742271772653 5.18049901563293  3.99829124494443 4.97511658494125  4.24391493749999 4.91374906250002  C 5.04914646428574 4.72412200000002  5.55763524107141 4.43533218750002  5.75596079464287 4.05607806250001  Z M 5.31159227678569 3.74119278124999  L 5.31308346428574 3.74119278124999  C 5.27133072321431 3.82295856249999  5.05958464285715 4.10652931250002  4.13804191071426 4.32225181250001  C 3.79698891832925 4.4038734991808  3.50162555125002 4.65046127144242  3.3253545535714 5.0007339375  C 3.3253545535714 4.95202240624999  3.30746051785712 4.89809178125  3.30000466071431 4.83720234374999  C 3.2742954978105 4.67565586408833  3.22646322823749 4.51999119176656  3.15834356250002 4.37618243750001  C 2.95852684821426 3.97953134375001  2.51863186607142 3.30452862499999  1.76410009821427 3.28191259375001  C 1.69595670033226 3.28208243689127  1.62798570231149 3.27391924945476  1.56130103571428 3.25755681250001  C 0.94843036607142 3.05749156249999  0.714316767857156 2.83307056249998  0.699405080357167 2.76348265625001  C 0.699405080357167 2.76348265625001  0.739666660714306 2.589512875  1.28245234821429 2.32333912499999  C 1.61045368861232 2.16551176901021  1.86238597278339 1.84741545541112  1.97137264285715 1.45349028125  C 2.12048959821431 0.896786999999989  2.36355021428574 0.64974993749999  2.6722223035714 0.715858437500003  C 3.08825858035715 0.806322718749982  3.30000466071431 1.51090031249998  3.3879836517857 1.91972924999999  C 3.50173337017725 2.48269752951745  3.8959127550005 2.90957790350004  4.38557603571428 3.00008156249999  C 4.69872163392859 3.05053278124998  5.23554265178569 3.19666740624999  5.33097750000002 3.59679787499999  C 5.34534880403601 3.64571120273942  5.33809424984918 3.69974827314709  5.31159227678569 3.74119278124999  Z " fill-rule="nonzero" fill="#231815" stroke="none" transform="matrix(1 0 0 1 41 16 )" />
  </g>
</svg>