<?xml version="1.0" encoding="utf-8"?>
<svg version="1.1" xmlns:xlink="http://www.w3.org/1999/xlink" width="2px" height="2px" xmlns="http://www.w3.org/2000/svg">
  <g transform="matrix(1 0 0 1 -45 -8 )">
    <path d="M 1.61744045 0.316451000000001  C 1.86160950123946 0.579728488059033  1.9056326442543 0.971421547242755  1.72599760000003 1.28233119999999  C 1.68176065153364 1.37141149828329  1.62659291681109 1.45463062923628  1.56177014999997 1.53006414999999  C 1.36725860448104 1.76467941800732  1.08142687942342 1.9045545171162  0.776818549999973 1.9141894  C 0.624337555728857 1.9217575440282  0.474204615781787 1.87434713820443  0.353724049999983 1.78058060000001  C 0.207758069475631 1.64718146672001  0.125721095882852 1.4577874902136  0.128259200000002 1.26006304999999  C 0.133169316562089 0.997788908439475  0.231925040412989 0.745961833020004  0.406610849999993 0.550266399999998  C 0.599799813893412 0.315496305421021  0.884884938246557 0.175490091074721  1.18877895000003 0.166141149999987  C 1.34523536700107 0.162164355704363  1.49772913549532 0.215636187133867  1.61744045 0.316451000000001  Z " fill-rule="nonzero" fill="#f8b62d" stroke="none" transform="matrix(1 0 0 1 45 8 )" />
  </g>
</svg>