<?xml version="1.0" encoding="utf-8"?>
<svg version="1.1" xmlns:xlink="http://www.w3.org/1999/xlink" width="6px" height="6px" xmlns="http://www.w3.org/2000/svg">
  <g transform="matrix(1 0 0 1 -41 -16 )">
    <path d="M 4.24391493749999 4.9172284375  C 5.04467295535716 4.72238228124999  5.55316173214283 4.43359246874999  5.75148728571429 4.05607806250001  C 5.85047224475466 3.87258779773265  5.87759891009642 3.64852151108366  5.82604574999999 3.44022506249999  C 5.73359325000001 3.05923124999998  5.42343 2.57037618749999  4.45715217857145 2.41032403125001  C 4.17508382904339 2.35528134119153  3.94979075588174 2.10620077277247  3.88752543750002 1.7805534375  C 3.67876170535715 0.815021187500008  3.29105764285714 0.244400343749987  2.76467480357144 0.131319999999988  C 2.18460988392854 0.00606174999998643  1.72085616964284 0.42358921875001  1.47928671428571 1.27256171875001  C 1.41517320860191 1.49727173029646  1.27037034397603 1.67827530863417  1.08263563392859 1.76837556250001  C 0.683002205357127 1.96322171874999  0.15512820535713 2.290284875  0.187933955357153 2.798276625  C 0.211792660714309 3.23146134375  0.635284794642871 3.58114059375001  1.42709579464287 3.84209525  C 1.53388768278978 3.87332059756167  1.64356718916594 3.88909641826592  1.75366191964287 3.88906709374999  C 2.25469486607142 3.904724375  2.56933162500002 4.39357943749999  2.7124838839286 4.68410893749999  C 2.75286431656804 4.7672251927566  2.78061179875664 4.85786697424976  2.79449820535712 4.95202240624999  C 2.88545954464286 5.5417799375  2.9987884285714 5.9123355625  3.27465476785716 5.94017071874998  L 3.3029870089286 5.94017071874998  C 3.5654328482143 5.94017071874998  3.67727054464285 5.58005328125  3.7145497767857 5.45827443749999  C 3.79757354053794 5.18218306566979  3.99839960243571 4.97692562610021  4.24391493749999 4.9172284375  Z M 5.31159227678569 3.74119278124999  L 5.30413644642857 3.74119278124999  C 5.26089254464284 3.82295856249999  5.05063762499998 4.10478959375001  4.12909489285715 4.32399153124999  C 3.7879227921207 4.40417251651991  3.49227815406482 4.65036222526135  3.31640753571429 5.0007339375  C 3.30746051785712 4.95202240624999  3.29851350000001 4.89983146874999  3.28956648214285 4.83894203124999  C 3.26247564545446 4.67656596246647  3.21206021967407 4.52069828641527  3.14044952678569 4.37792215625001  C 2.94361516071427 3.9777916875  2.50073783035714 3.30452865625  1.74769722321429 3.28191259375001  C 1.67941656743807 3.28343442571312  1.61125328532063 3.2746634136019  1.5448981875 3.25581712499999  C 0.932027517857136 3.05923128124999  0.696422758928577 2.83307056249998  0.683002232142883 2.76348265625001  C 0.683002232142883 2.76348265625001  0.723263812500022 2.589512875  1.26604950000001 2.32333912499999  C 1.59393233141122 2.16531317713188  1.84580408546708 1.84729329044478  1.95496979464286 1.45349028125  C 2.10408675000002 0.898526718749991  2.34714736607145 0.651489625000011  2.65581945535712 0.717598124999995  C 3.07185573214286 0.80632271875001  3.28360181250002 1.51090028125  3.37158080357142 1.92146896874999  C 3.48443061242102 2.48570751996954  3.87986860878266 2.91331174161138  4.37066434821429 3.00182125000001  C 4.68231875892855 3.05227246875  5.21764861607141 3.19840709375001  5.31308346428574 3.59679787499999  C 5.33252684558977 3.64240647352392  5.33197189073707 3.6961439504876  5.31159227678569 3.74119278124999  Z " fill-rule="nonzero" fill="#231815" stroke="none" transform="matrix(1 0 0 1 41 16 )" />
  </g>
</svg>