<?xml version="1.0" encoding="utf-8"?>
<svg version="1.1" xmlns:xlink="http://www.w3.org/1999/xlink" width="6px" height="4px" xmlns="http://www.w3.org/2000/svg">
  <g transform="matrix(1 0 0 1 -41 -16 )">
    <path d="M 5.96480076136362 2.6078297894737  C 5.98363134867685 2.6487821902129  5.97511225229056 2.69426718365429  5.94202653409093 2.72942549999999  C 5.88888668181818 2.79828089473685  5.61939167045455 3.03707731578947  4.44651913636363 3.21873836842104  C 4.01245167890056 3.28747241352522  3.63653465237832 3.49512527519798  3.41218973863636 3.7900917368421  C 3.41218973863636 3.74907149999999  3.38941551136361 3.70365623684211  3.37992627272729 3.65238092105264  C 3.34720551994059 3.5163417802849  3.28632808593864 3.38525574043501  3.19963032954547 3.26415363157895  C 2.94531814772728 2.93013165789475  2.3854518068182 2.36170831578946  1.42513864772729 2.3426632368421  C 1.33841068678652 2.3428062626453  1.251902143851 2.33593199954083  1.16703074999998 2.32215310526314  C 0.387013534090897 2.15367710526314  0.089050772727262 1.96469099999999  0.0700722613636344 1.90609065789474  C 0.0700722613636344 1.90609065789474  0.121314272727261 1.75958978947367  0.812132420454532 1.53544347368421  C 1.22958867187026 1.40253622653489  1.55022976081523 1.134665646662  1.68894006818181 0.802939184210516  C 1.87872528409093 0.334136421052619  2.18807515909089 0.126105210526305  2.58093054545452 0.181775526315789  C 3.11043126136366 0.257955973684204  3.37992627272729 0.851284473684217  3.49189953409092 1.19556147368422  C 3.63667190295291 1.66964002485679  4.13835475636427 2.02911823452635  4.76156256818183 2.10533184210527  C 5.16011151136365 2.14781707894736  5.84333826136361 2.27087781578948  5.96480076136362 2.6078297894737  Z " fill-rule="nonzero" fill="#8b7929" stroke="none" transform="matrix(1 0 0 1 41 16 )" />
  </g>
</svg>