<?xml version="1.0" encoding="utf-8"?>
<svg version="1.1" xmlns:xlink="http://www.w3.org/1999/xlink" width="14px" height="18px" xmlns="http://www.w3.org/2000/svg">
  <g transform="matrix(1 0 0 1 -37 -8 )">
    <path d="M 8.0573473601695 2.97697074000001  L 8.0573473601695 2.97530064  C 8.48703540165508 2.96881637057157  8.89291157933013 2.77452229809617  9.1702821355932 2.44253562  C 9.25552817453746 2.34049154196802  9.32816720812696 2.2283248300742  9.38659438559324 2.10851364000001  C 9.67054136967243 1.5641515590091  9.55591348325578 0.894592978192662  9.10753505508472 0.478486470000007  C 8.55767262711862 0.00584538000001089  7.69902860169492 0.111062309999994  7.18053969915252 0.717312179999993  C 6.94160254802966 0.995050864604337  6.81072171956987 1.3512211095948  6.81231350847457 1.71937806  C 6.81227690662297 1.72329895045806  6.81225860539132 1.72721999383452  6.81225860539132 1.73114105905665  C 6.81225860539132 2.41923368925757  7.36376496536218 2.97704297905665  8.0440825375947 2.97704297905665  C 8.04850424126107 2.97704297905665  8.0529259128794 2.97701889902206  8.0573473601695 2.97697074000001  Z M 7.66930630508477 1.7076873  C 7.67056861878768 1.5506094168959  7.72805669295485 1.39931353574013  7.83112767796609 1.28180928  C 7.94600341116086 1.1412954803684  8.114955713688 1.05737420240123  8.29512570338983 1.05133413000001  C 8.38758860941806 1.04938524921511  8.47772302832982 1.08076004793998  8.54941645338982 1.13984994  C 8.70068356668077 1.29851716488577  8.7284014009652 1.53988836528762  8.61711722033897 1.72939872000001  C 8.59087496277419 1.78284689896998  8.55814834048118 1.83277837754176  8.51969415677968 1.87803848999999  C 8.31659182627118 2.11519407  7.9879953644068 2.18032836  7.80305663983051 2.01999782999999  C 7.71681540468359 1.93970723821937  7.66822031318242 1.8262364285128  7.66930630508477 1.7076873  Z M 0.51187983157547 2.60782548208044  C 0.47861023498649 2.60782548208044  0.445531630733967 2.6129102105219  0.413764245762707 2.62290747  C 0.253519336842658 2.64029131402273  0.132012232355123 2.77707340418078  0.132012232355123 2.9400792885753  C 0.132012232355123 3.11625314768574  0.273215610353304 3.25907027857531  0.447398804389024 3.25907027857531  C 0.483190538335066 3.25907027857531  0.518721145075347 3.25290821338186  0.552468296610186 3.24084809999999  C 0.585183876051701 3.23323651072747  0.616810666876688 3.22145136601137  0.646588872881352 3.20577578999999  C 0.77845438693538 3.14181922864779  0.853028520644671 2.9977616019741  0.829876368644079 2.85171252000001  C 0.78992022070247 2.70750649726136  0.659949321431156 2.60782548208044  0.51187983157547 2.60782548208044  Z M 1.6183735149807 1.92587948454673  C 1.58271829011852 1.92587948454673  1.54729835105161 1.93171950835992  1.51348910169492 1.94317278  C 1.35324419277487 1.96055662402273  1.23173708828733 2.09733871418078  1.23173708828733 2.2603445985753  C 1.23173708828733 2.43651845768574  1.37294046628551 2.5793355885753  1.54712366032123 2.5793355885753  C 1.58291539426727 2.5793355885753  1.61844600100756 2.57317352338185  1.6521931525424 2.56111340999999  C 1.68758091888458 2.55526913999785  1.72202079746722 2.54459436603059  1.75456993220337 2.52938133000001  C 1.88643544655997 2.46542475576069  1.96100956926688 2.32136711482207  1.93785739830508 2.17531803  C 1.89982711909209 2.02837000885066  1.76855602524785 1.92587948454673  1.6183735149807 1.92587948454673  Z M 1.54060143327035 3.16397205208042  C 1.50733183668143 3.16397205208042  1.47425323242891 3.16905678052188  1.44248584745765 3.17905404000001  C 1.2822409385376 3.19643788402274  1.16073383405006 3.33321997418079  1.16073383405006 3.49622585857529  C 1.16073383405006 3.67239971768572  1.30193721204819 3.81521684857529  1.47612040608396 3.81521684857529  C 1.51191214003001 3.81521684857529  1.54744274677023 3.80905478338184  1.58118989830507 3.79699467  C 1.61390547774658 3.78938308072748  1.64553226857163 3.77759793601135  1.67531047457629 3.76192236  C 1.80717598863026 3.6979657986478  1.88175012233961 3.55390817197411  1.85859797033896 3.40785908999999  C 1.81864182239741 3.26365306726137  1.6886709231261 3.16397205208042  1.54060143327035 3.16397205208042  Z M 3.81765934428734 2.77650657208045  C 3.78438974769836 2.77650657208045  3.75131114344583 2.78159130052191  3.71954375847457 2.79158856000001  C 3.55929884955452 2.80897240402274  3.43779174506699 2.94575449418079  3.43779174506699 3.10876037857531  C 3.43779174506699 3.28493423768572  3.57899512306517 3.42775136857531  3.75317831710089 3.42775136857531  C 3.78897005104693 3.42775136857531  3.82450065778721 3.42158930338184  3.85824780932205 3.40952919  C 3.89140847710638 3.40163448945461  3.92354847096573 3.38986460083314  3.95401964406778 3.37445688  C 4.08524089844695 3.30996991988238  4.15907892030799 3.16603756441862  4.13565588135594 3.02039361000001  C 4.09569973341434 2.87618758726137  3.96572883414302 2.77650657208045  3.81765934428734 2.77650657208045  Z M 2.75729664547731 3.24650619709556  C 2.72295972118013 3.24650619709556  2.68883284200751 3.25192238351178  2.65614617372881 3.26255952  C 2.49323023454735 3.27696498365208  2.36822705064236 3.41493212335553  2.36822705064236 3.58033844880194  C 2.36822705064236 3.75651230791237  2.50943042864054 3.89932943880194  2.68361362267626 3.89932943880194  C 2.72161065145457 3.89932943880194  2.75929497763218 3.89238472953497  2.79485019491523 3.87883005  C 2.82815429682847 3.87225375850139  2.86038877338518 3.86101139490867  2.89062202966102 3.84542787000001  C 3.02313247433369 3.78200503666383  3.09844460445265 3.63782073247853  3.0755607542373 3.49136457  C 3.03593642884772 3.34667657497931  2.90573611891688 3.24650619709556  2.75729664547731 3.24650619709556  Z M 2.58358104852203 2.88906127303173  C 2.610218199884 2.88906127303173  2.63677229310201 2.88605707665192  2.66275111864405 2.88010437  C 2.69538066845786 2.87220304708759  2.72697312386481 2.86043071061624  2.75687172457629 2.84503208999999  C 2.88873723893283 2.7810755157607  2.9633113616398 2.63701787482208  2.94015919067795 2.49096879000001  C 2.92202201082409 2.30553602990483  2.76781347485235 2.16423361303171  2.58358104852203 2.16423361303171  C 2.38568706263823 2.16423361303171  2.22526229004745 2.32649181159493  2.22526229004745 2.52664744303172  C 2.22526229004745 2.72680307446848  2.38568706263823 2.88906127303173  2.58358104852203 2.88906127303173  Z M 13.0420299881146 13.5102717572445  C 12.9914499248044 13.5102717572445  12.9412708815673 13.5193468101108  12.893825 13.53707514  C 12.6721461943955 13.6200462765125  12.5584770097785 13.868646460119  12.63953425 14.09322171  C 13.2686561355932 15.83013591  13.0639025466102 16.50319017  12.8872200550848 16.75036641  C 12.7779021769267 16.8997638401796  12.6053304465245 16.9882737283388  12.4215707711865 16.98919212  L 12.3158915042373 16.98084159  L 12.218468440678 17.02426443  C 11.975372719631 17.1546704307519  11.6848563291294 17.1577831103684  11.4390838432203 17.03261499  C 10.7125388940678 16.65350007  10.2832168813559 15.2305665  10.1725838983051 14.71283244  C 10.1289321206174 14.5147422511273  9.95516841996039 14.3738516436353  9.75451090765984 14.3738516436353  C 9.51795007636775 14.3738516436353  9.32617963223612 14.5678137499856  9.32617963223612 14.8070781336353  C 9.32617963223612 14.8342974024056  9.32871588079581 14.8614560982204  9.33375473728813 14.88819399  C 9.37998941101694 15.12033924  9.82912628813557 17.16622377  11.0444378432204 17.80253562  C 11.2767779863706 17.9255540180201  11.5351520307852 17.9897395614374  11.7974026313559 17.9895879  C 12.0292820161884 17.9876074524285  12.2588038517018 17.9423108798281  12.4744104194915 17.85597912  C 12.9039796352964 17.8358221048575  13.3030863505824 17.6257437892477  13.5658790720339 17.28146136  C 14.0744605423729 16.59671634  14.0348308135593 15.42429924  13.4436874279661 13.79427204  C 13.3820208881392 13.6237112108419  13.2215851305828 13.5102717572445  13.0420299881146 13.5102717572445  Z " fill-rule="nonzero" fill="#231815" stroke="none" transform="matrix(1 0 0 1 37 8 )" />
  </g>
</svg>