<?xml version="1.0" encoding="utf-8"?>
<svg version="1.1" xmlns:xlink="http://www.w3.org/1999/xlink" width="30px" height="28px" xmlns="http://www.w3.org/2000/svg">
  <g transform="matrix(1 0 0 1 -35 0 )">
    <path d="M 24.215776875 21.0367222991453  C 24.9578666894531 20.8601950128205  26.6769055078125 20.4588452564103  27.9457975488281 19.1215678888889  C 28.9912471582031 18.0224357863248  30.0366967675781 16.1239348846154  29.9029575 14.9681808290598  C 29.8794957712277 14.623220812875  29.6981835680643 14.3097259941787  29.4136674902344 14.1221821581197  C 28.6960421777344 13.6542183376068  28.1382515917969 14.5401854230769  27.5478416894532 15.4761130641025  C 27.1856388852078 16.0893257287346  26.7684983504866 16.6669024417356  26.3017831933594 17.2014173931624  C 25.922053131915 17.6104177042059  25.4475114231685 17.9151205816109  24.9219854296875 18.087384508547  C 25.5068133837162 14.2428371163077  24.1466981601442 10.3572332591668  21.3077634082031 7.76220412393161  C 21.3215019667052 7.55240559198523  21.299989102393 7.34175336145967  21.244155703125 7.1393626111111  C 21.1394867364982 6.74663608465085  20.8898780568412 6.41058826713453  20.5477329492188 6.20176962820511  C 20.4372448639462 6.13585809931143  20.3639956030702 6.02026806360999  20.3503860058594 5.89034887179486  C 20.3428836595582 5.78594843044436  20.4012220570895 5.68822960189874  20.49554203125 5.64720752136753  C 21.0181938651617 5.4499464417639  21.4146350961793 5.00603314773841  21.5589322558594 4.45648107692307  C 21.8231488476562 3.32071124358976  22.0058171191406 1.76860348717949  21.3713711132813 0.817687679487165  C 21.0715217509504 0.37066380267666  20.5944094028458 0.0807969809360429  20.0665978125 0.0249802777777859  C 19.2215861197752 -0.0791230357251322  18.3827495145356 0.262858062500612  17.8403283691406 0.932596927350431  C 17.0523413065383 1.88929876983093  16.3585499764361 2.92292007251348  15.7690007519531 4.0184935897436  L 15.3400565332031 1.95678822649572  C 15.3401872961536 1.95076295575129  15.3402526836471 1.94473639071069  15.3402526836471 1.93870964075117  C 15.3402526836471 1.48803296469097  14.9824504607038 1.12268733305885  14.5410790508346 1.12268733305885  C 14.2713379341225 1.12268733305885  14.0197979035541 1.26162735182388  13.8721865917969 1.49215508974359  L 11.5284875390625 5.03935414529914  C 9.85596267335916 5.38973093651691  8.28292823601134 6.12251257947784  6.92753071289064 7.18266176923078  C 5.84456888671872 7.02944941880341  4.37996085937499 6.93618973504275  3.07355660156247 7.21263807264958  C 2.98151523719559 7.10260144455185  2.87106980195222 7.01012684600204  2.74736326171876 6.93952041880343  C 2.45474644392402 6.77922771171791  2.11485538188862 6.73362467870672  1.79161684570312 6.81128834615384  C 1.088670234375 6.97782352136753  0.636892470703117 7.64396419230769  0.783679453124989 8.31010483333333  C 0.783679453124989 8.34008116666666  0.801620097656269 8.36506144444445  0.80977491210939 8.39337240598292  C 0.0109479675705302 9.33235834151972  -0.137013003386755 10.6775038679727  0.43791454101563 11.7740363162393  C 0.610787811540092 12.100531656091  0.851216902610076 12.384672829238  1.14249210937498 12.6067121623932  C 0.844476689293344 12.9554539113759  0.622140427152942 13.3646641070688  0.490105458984374 13.8074306880342  C 0.454847646169924 13.9211963076216  0.436905195683892 14.0398149855835  0.436905195683892 14.1591410023435  C 0.436905195683892 14.8029648323672  0.948051234081447 15.3248871690102  1.57858182654326 15.3248871690102  C 1.86852800758146 15.3248871690102  2.14761235262432 15.2122423627628  2.35919320312502 15.0098146153846  C 2.43911056640627 14.9365391538462  2.52228987304687 14.8566022649573  2.60383822265624 14.7733346623932  C 2.52283902390855 15.3802819504977  2.48902673858811 15.992824576459  2.50271827148435 16.6052215  C 2.5569459553621 18.860803011453  3.26406514852414 21.0494839256737  4.53490268554685 22.8952547564103  C 3.91676633789064 23.8145288888889  3.06703271484372 25.328333542735  3.66070458984376 26.031111974359  C 3.8557497890676 26.2448656309164  4.13543981900705 26.3564037523355  4.42073501953126 26.3342059615385  C 4.97852560546875 26.3342059615385  5.78911602539063 26.0394387136752  6.91774491210936 25.4399121367521  C 8.68199925190783 26.8483677832228  10.8204683735322 27.6822148693008  13.0550723144531 27.8330224786325  C 13.3013482617188 27.8480106452992  13.5443622949219 27.8563374145299  13.7906382421875 27.8563373846154  C 16.6587829591645 27.8648310132011  19.4202994900705 26.7468344031179  21.5034793945313 24.7338030213675  C 21.7794429294426 24.470307815283  22.041837316808 24.1923759171846  22.2896053125 23.9011271752137  C 23.3383168359375 24.3424453760684  24.5387082714844 24.7537872435898  25.3737631933594 24.7537872435898  C 25.8010764550781 24.7537872435898  26.1321626660156 24.6455393931624  26.2968902929687 24.3774177649573  C 26.6149287890625 23.8561627051282  26.3637599121093 23.0751127564102  24.176633671875 21.0467144102564  L 24.215776875 21.0367222991453  Z M 24.1277046972656 20.9101555683761  L 24.1342285546875 20.9134862820513  C 24.1253984579237 20.929635676249  24.1155937504666 20.9452089873019  24.1048711523438 20.9601161239316  C 24.1048711523438 20.9434626153846  24.1211808105469 20.9268090769231  24.1277046972656 20.9101555683761  Z M 21.7937914453125 18.5586790128205  C 22.0188648339844 18.1823095341881  22.3417962304687 17.4395626880342  21.9666739160156 16.6901544444444  C 21.9300113717467 16.6232730591153  21.9010069049079 16.5523065078998  21.8802326953125 16.4786547692308  C 21.7171360253906 15.7891991923077  21.7840056738281 15.4527981282051  21.8345656054688 15.4078336581197  C 21.8345656054688 15.4078336581197  21.9976622753906 15.3678652136752  22.5016309570312 15.7775417393162  C 22.8026527435754 16.0253840049919  23.1942699216056 16.1274793636905  23.5748070117187 16.0573208205128  C 23.8830597070312 15.999033525641  24.0771447363281 15.9890414145299  24.2092530175781 16.0423326538462  C 24.2092530175781 16.1372577094017  24.2174078613281 16.2321827350427  24.2174078613281 16.3271077905983  C 24.2182102066984 17.7164229654443  23.9522391298752 19.0924204217554  23.4345438867188 20.3772430555556  C 23.335054921875 20.3772430555556  22.9925519238282 20.2756566025641  22.3483201171875 19.4946066538461  C 22.1042576745275 19.1983640988162  21.7486453804424 19.0216508020877  21.3697401269531 19.008323982906  L 21.4888006933594 18.9084028717949  C 21.6094269604809 18.8106292078268  21.7126072778113 18.6923153949786  21.7937914453125 18.5586790128205  Z M 24.7425791015625 19.0266428333333  C 25.5767845583932 18.8580719718785  26.3389097784608 18.4285235138159  26.923181484375 17.7976133162393  C 27.4271649553327 17.2242319065907  27.8771251009109 16.603644587092  28.2670979589844 15.9440768846154  C 28.5101119921875 15.561046008547  28.8330433886719 15.0497830299145  29.0140806738281 14.8999013931624  C 29.0421116676613 14.9510957171073  29.0588131854043 15.0079411454139  29.0630096777344 15.0664365683761  C 29.1494508984375 15.8175101837607  28.3111340625 17.4945192991453  27.3390779589844 18.5170452264957  C 26.4192127734375 19.4862798846154  25.2188213671875 19.8859642991453  24.4375883496094 20.0891372051282  C 24.5550179589844 19.7394133461538  24.6577688378906 19.3863588034188  24.7425791015625 19.0266428333333  Z M 15.5537131640625 6.89955197435899  C 16.0495270019532 4.69629171367521  17.6136239941407 2.56131085897437  18.5008698632813 1.4854936923077  C 18.8558202552341 1.03942375263489  19.4097656094015 0.810031798899843  19.9687398046875 0.877640316239308  C 20.2577758956544 0.903564320477784  20.5206423631244 1.05911918397229  20.6863651171875 1.30230500854699  C 21.0402848730469 1.83188683760685  21.0631184179687 2.90770400427351  20.7499728222656 4.25164282905982  C 20.6655296956776 4.53264539011377  20.4545773235379 4.75547276017738  20.1823964355469 4.85116940598292  C 20.0881603553134 4.89061978792995  19.9997789491165 4.94330925111444  19.9198108007812 5.00771247008547  C 19.6430201408994 5.23285313220364  19.4933816697605 5.58334212620804  19.520223984375 5.94364011111111  C 19.5520320220691 6.35783168626031  19.7788877261569 6.73044039708128  20.12857453125 6.94285110256411  C 20.2852680426681 7.03764704542363  20.3985383410457 7.19225767537318  20.4433510839844 7.37251185042734  C 20.588507109375 7.89543228205127  20.2900402148438 8.47997072222222  19.746928359375 8.7314388119658  C 19.0586604492187 9.05118633760685  18.2121887695313 9.18941052136751  17.2254539648437 9.14611136324785  C 16.6948086351279 9.1241929405698  16.2014271960679 8.86161503147423  15.8799065039062 8.43001016666668  C 15.5522993290587 7.99543160910227  15.4326052904863 7.43384220941911  15.5537131640625 6.89955197435899  Z M 1.97754703125003 7.65229093162392  L 1.97754703125003 7.64729487606837  C 2.01925781987256 7.63738617028096  2.06193768459423 7.63235774587631  2.10476241210938 7.63230670940172  C 2.18659062747201 7.63137605040922  2.26734060139029 7.65141655873092  2.3396216015625 7.69059400427349  C 2.41929832361075 7.73302014218825  2.4783053740465 7.80712896730282  2.50271827148435 7.89543228205127  C 2.52218717257745 8.06925804179889  2.42629874475 8.23516110178102  2.26785908203124 8.30177806410256  C 2.22503097577413 8.32431443792234  2.17953101816903 8.34110692804538  2.13248885742189 8.35173861965811  C 1.88947482421872 8.40669523076923  1.64319887695314 8.29511666666667  1.6056866308594 8.10360124358974  C 1.5681743847656 7.91208582051283  1.74268781249998 7.70891288461539  1.97754703125003 7.65229093162392  Z M 2.73105360351565 13.1429553888889  C 2.50584714846298 13.6092678450641  2.18750026866974 14.0222566034757  1.79650971679689 14.3553313974359  C 1.74205083337824 14.4007482891936  1.67389583190811 14.4255563198973  1.60358107402101 14.4255563198973  C 1.4351393328779 14.4255563198973  1.29859032206792 14.2861284980332  1.29859032206792 14.114135563487  C 1.29859032206792 14.0893537646482  1.30148728543054 14.0646605494915  1.30721973632814 14.0405799273504  C 1.43136727943465 13.6527660631166  1.64311535312947 13.3002088412011  1.92535608398435 13.0113926025641  C 2.18765813375308 13.0886525019911  2.4582363000905 13.1328353579874  2.73105360351565 13.1429553888889  Z M 6.21969120117188 24.8403855299145  C 5.10084808593751 25.401609034188  4.60992714843752 25.4815459230769  4.41747307617186 25.4815459230769  C 4.3807724815664 25.4811366775313  4.34418921081755 25.477233956118  4.30819833984373 25.4698884401709  C 4.21197131835936 25.2600541367521  4.56099817382812 24.4523585683761  5.07801457031252 23.6230134358974  C 5.43007904032379 24.0556985727402  5.81158391347014 24.4624979883947  6.21969120117188 24.8403855299145  Z M 23.2013156542969 20.9018288290598  C 22.6436129597053 22.1019164749883  21.8714491271376 23.1851785064084  20.92448625 24.0959733119658  C 18.8236317032452 26.1217142462229  15.9902691077692 27.1605251152542  13.1072632324219 26.9620435598291  C 7.75932369140622 26.6189811282051  3.47314341796874 22.0592482264957  3.34918995117187 16.5802412222222  C 3.32138936571766 15.3852544912408  3.49065326340087 14.1940056412154  3.84989671875002 13.0563571025641  C 6.75627922851561 12.6899797350427  8.03495707031249 10.9313683589744  8.09040990234377 10.8530968418803  C 8.12786374890993 10.7871203216027  8.14758832748498 10.7122137435001  8.14758832748498 10.6359545514974  C 8.14758832748498 10.3968199870041  7.95773408540111 10.2029631198735  7.72353700912561 10.2029631198735  C 7.60005075001612 10.2029631198735  7.48269860836143 10.2579260433866  7.40214199218752 10.3534913461538  C 7.39235619140624 10.3684795128205  6.41051428710938 11.7190797051282  4.16141132812498 12.1404136837607  L 3.46661956054686 12.2469961923077  C 2.34614548828125 12.4135313675214  1.57632925781252 12.1270908589744  1.18326626953126 11.3743519017094  C 0.796779351460543 10.6385953677771  0.866918477718059 9.74011698273171  1.36267259765623 9.07616661538461  C 1.56266792507671 9.18757728643322  1.78724674087721 9.24490566017914  2.0150592480469 9.24270176068376  C 2.12047065001184 9.24277217189152  2.22554113250959 9.23047902741698  2.32820484374997 9.20606402991453  C 2.44449507148221 9.17943851657648  2.55689099684156 9.13745113414248  2.66255299804686 9.08116267094019  C 3.05663462152381 8.88178874373037  3.319650433606 8.48621436990291  3.35571380859375 8.03865252136751  C 4.58872456054689 7.80217259829061  5.98809392578124 7.91541650427351  6.98787647460938 8.06696348290598  L 7.17054474609375 8.09527447435897  L 7.31406981445315 7.97869985470086  C 8.63891246691202 6.90319091872951  10.2000161628624 6.17276701636791  11.8628356933594 5.85038042735042  L 12.0373491210938 5.8170733803419  L 14.5033706542969 2.08668564102564  L 15.1720669921875 5.29914900427352  C 14.9890777597055 5.75575681085272  14.8412976496398 6.22626185483546  14.7300750292969 6.70637117948718  C 14.6836243560707 6.90811358601186  14.6601655334494 7.11466199637903  14.6601655334494 7.32190485182858  C 14.6601655334494 8.76058251003914  15.7689583535672 9.94450305517449  17.1765249609375 10.008763542735  C 17.3086332714844 10.008763542735  17.4391105957031 10.0187556538462  17.5663259765625 10.0187556538462  C 18.4310354982305 10.0377023416143  19.2896922804592 9.86734751426656  20.0845384277344 9.51915015811966  C 20.4755287170161 9.33889034487981  20.8041012379502 9.04228074709556  21.0272371289062 8.66815543162394  C 22.845158779198 10.4623942784343  23.9626626900597 12.8699916031449  24.1717407714844 15.4428060470086  C 23.934785160043 15.4199948404  23.695778001805 15.4363020603787  23.4639012597656 15.4911012307692  C 23.2444265607762 15.5305635859369  23.0190484007362 15.4696827129001  22.8473958984375 15.3245660854701  C 22.4787974414062 15.0214720683761  21.9389475 14.6584254145299  21.5295748535156 14.9165549017094  C 21.1854408984375 15.1380466880342  21.1169402929688 15.7075969316239  21.3240730664062 16.6085522136752  C 21.3553862779102 16.7246586580721  21.400289814658 16.836488456811  21.4578123339844 16.941622534188  C 21.7073502246094 17.4412280299145  21.4692290917969 17.9724752307692  21.306132421875 18.2455929145299  C 21.2582004162547 18.3228241053867  21.1981381493131 18.3914670633532  21.1283570800781 18.4487658205128  C 20.6912580175781 18.8084817905983  20.4449820703125 19.0899262136752  20.5673045507813 19.3713706367521  C 20.68962703125 19.6528150598291  21.0696422753906 19.6028545042735  21.1919647851562 19.5828702820513  C 21.4627810517948 19.5374916053115  21.7370560558729 19.640537578199  21.9144829980469 19.8543226239316  C 22.4037729785156 20.4405264059829  22.8294552832031 20.7885849230769  23.2013156542969 20.9018288290598  Z M 23.7150701367187 21.7744730897436  C 25.15195171875 23.1234079401709  25.4699902148437 23.6929582136752  25.5384908203125 23.8894697222222  C 25.1552136621094 23.9510877307692  24.0053821875 23.6496590854701  22.8392410546875 23.185025948718  C 23.1647886276245 22.7374947648264  23.4575275863829 22.2660286035839  23.7150701367187 21.7744730897436  Z " fill-rule="nonzero" fill="#231815" stroke="none" transform="matrix(1 0 0 1 35 0 )" />
  </g>
</svg>