<?xml version="1.0" encoding="utf-8"?>
<svg version="1.1" xmlns:xlink="http://www.w3.org/1999/xlink" width="2px" height="2px" xmlns="http://www.w3.org/2000/svg">
  <g transform="matrix(1 0 0 1 -55 -18 )">
    <path d="M 1.26818034090911 1.03934514285714  C 1.43183820725545 1.28883167175627  1.62774500659037 1.4800534761192  1.84259688636365 1.60002485714287  C 1.82108788636361 1.67160100000001  1.79831368181817 1.74118889285714  1.77427422727271 1.81077682142856  C 1.58905385106755 1.58182697707045  1.41944805951437 1.32329929278364  1.26818034090911 1.03934514285714  Z M 0.843061477272727 0.351418928571434  C 0.920240795454561 0.49655942857143  0.997420113636338 0.629770571428566  1.07206895454544 0.74707589285714  C 0.945206778067416 0.610752135491623  0.789585026558768 0.557279444973688  0.638093454545469 0.597958964285709  C 0.544466090909111 0.619829464285715  0.250931636363646 0.691405571428561  0.15477379545456 0.3434660357143  C 0.127498441723048 0.251311286112951  0.122549995849283 0.146687075806426  0.140856204545457 0.049208607142873  C 0.188818672853984 0.0482126097423361  0.236643479553152 0.0408968001673884  0.283827727272751 0.0273381071428673  C 0.4935739028694 -0.0273275645271269  0.706121305523425 0.0958455037017529  0.843061477272727 0.351418928571434  Z " fill-rule="nonzero" fill="#c9caca" stroke="none" transform="matrix(1 0 0 1 55 18 )" />
  </g>
</svg>